<svg version="1.1" xmlns="http://www.w3.org/2000/svg" xmlns:xlink="http://www.w3.org/1999/xlink" width="960" height="450"><defs/><g><rect fill="black" stroke="none" x="0" y="0" width="960" height="450"/><g/><path fill="none" stroke="rgb(128,128,128)" paint-order="fill stroke markers" d=" M 167 207.33333333333331 L 846.9999999999998 207.33333333333331 M 167 207.33333333333331 L 167 227.33333333333331" stroke-miterlimit="10" stroke-dasharray=""/><g transform="translate(167,227.33333333333331) rotate(0,0,0)"><text fill="rgb(128,128,128)" stroke="none" font-family="Arial" font-size="14px" font-style="normal" font-weight="normal" text-decoration="normal" x="0" y="0" text-anchor="middle" dominant-baseline="text-before-edge">0</text></g><path fill="none" stroke="rgb(128,128,128)" paint-order="fill stroke markers" d=" M 177 207.33333333333331 L 177 217.33333333333331 M 187 207.33333333333331 L 187 217.33333333333331 M 197 207.33333333333331 L 197 217.33333333333331 M 207 207.33333333333331 L 207 217.33333333333331 M 217 207.33333333333331 L 217 222.33333333333331 M 227 207.33333333333331 L 227 217.33333333333331 M 237 207.33333333333331 L 237 217.33333333333331 M 247 207.33333333333331 L 247 217.33333333333331 M 257 207.33333333333331 L 257 217.33333333333331 M 267 207.33333333333331 L 267 227.33333333333331" stroke-miterlimit="10" stroke-dasharray=""/><g transform="translate(267,227.33333333333331) rotate(0,0,0)"><text fill="rgb(128,128,128)" stroke="none" font-family="Arial" font-size="14px" font-style="normal" font-weight="normal" text-decoration="normal" x="0" y="0" text-anchor="middle" dominant-baseline="text-before-edge">100</text></g><path fill="none" stroke="rgb(128,128,128)" paint-order="fill stroke markers" d=" M 277 207.33333333333331 L 277 217.33333333333331 M 287 207.33333333333331 L 287 217.33333333333331 M 297 207.33333333333331 L 297 217.33333333333331 M 307 207.33333333333331 L 307 217.33333333333331 M 317 207.33333333333331 L 317 222.33333333333331 M 327 207.33333333333331 L 327 217.33333333333331 M 337 207.33333333333331 L 337 217.33333333333331 M 347 207.33333333333331 L 347 217.33333333333331 M 357 207.33333333333331 L 357 217.33333333333331 M 367 207.33333333333331 L 367 227.33333333333331" stroke-miterlimit="10" stroke-dasharray=""/><g transform="translate(367,227.33333333333331) rotate(0,0,0)"><text fill="rgb(128,128,128)" stroke="none" font-family="Arial" font-size="14px" font-style="normal" font-weight="normal" text-decoration="normal" x="0" y="0" text-anchor="middle" dominant-baseline="text-before-edge">200</text></g><path fill="none" stroke="rgb(128,128,128)" paint-order="fill stroke markers" d=" M 377 207.33333333333331 L 377 217.33333333333331 M 387 207.33333333333331 L 387 217.33333333333331 M 397 207.33333333333331 L 397 217.33333333333331 M 407 207.33333333333331 L 407 217.33333333333331 M 417 207.33333333333331 L 417 222.33333333333331 M 427 207.33333333333331 L 427 217.33333333333331 M 437 207.33333333333331 L 437 217.33333333333331 M 447 207.33333333333331 L 447 217.33333333333331 M 457 207.33333333333331 L 457 217.33333333333331 M 467 207.33333333333331 L 467 227.33333333333331" stroke-miterlimit="10" stroke-dasharray=""/><g transform="translate(467,227.33333333333331) rotate(0,0,0)"><text fill="rgb(128,128,128)" stroke="none" font-family="Arial" font-size="14px" font-style="normal" font-weight="normal" text-decoration="normal" x="0" y="0" text-anchor="middle" dominant-baseline="text-before-edge">300</text></g><path fill="none" stroke="rgb(128,128,128)" paint-order="fill stroke markers" d=" M 477 207.33333333333331 L 477 217.33333333333331 M 487 207.33333333333331 L 487 217.33333333333331 M 497 207.33333333333331 L 497 217.33333333333331 M 507 207.33333333333331 L 507 217.33333333333331 M 517 207.33333333333331 L 517 222.33333333333331 M 527 207.33333333333331 L 527 217.33333333333331 M 537 207.33333333333331 L 537 217.33333333333331 M 547 207.33333333333331 L 547 217.33333333333331 M 557 207.33333333333331 L 557 217.33333333333331 M 567 207.33333333333331 L 567 227.33333333333331" stroke-miterlimit="10" stroke-dasharray=""/><g transform="translate(567,227.33333333333331) rotate(0,0,0)"><text fill="rgb(128,128,128)" stroke="none" font-family="Arial" font-size="14px" font-style="normal" font-weight="normal" text-decoration="normal" x="0" y="0" text-anchor="middle" dominant-baseline="text-before-edge">400</text></g><path fill="none" stroke="rgb(128,128,128)" paint-order="fill stroke markers" d=" M 577 207.33333333333331 L 577 217.33333333333331 M 587 207.33333333333331 L 587 217.33333333333331 M 597 207.33333333333331 L 597 217.33333333333331 M 607 207.33333333333331 L 607 217.33333333333331 M 617 207.33333333333331 L 617 222.33333333333331 M 627 207.33333333333331 L 627 217.33333333333331 M 637 207.33333333333331 L 637 217.33333333333331 M 647 207.33333333333331 L 647 217.33333333333331 M 657 207.33333333333331 L 657 217.33333333333331 M 667 207.33333333333331 L 667 227.33333333333331" stroke-miterlimit="10" stroke-dasharray=""/><g transform="translate(667,227.33333333333331) rotate(0,0,0)"><text fill="rgb(128,128,128)" stroke="none" font-family="Arial" font-size="14px" font-style="normal" font-weight="normal" text-decoration="normal" x="0" y="0" text-anchor="middle" dominant-baseline="text-before-edge">500</text></g><path fill="none" stroke="rgb(128,128,128)" paint-order="fill stroke markers" d=" M 677 207.33333333333331 L 677 217.33333333333331 M 687 207.33333333333331 L 687 217.33333333333331 M 697 207.33333333333331 L 697 217.33333333333331 M 707 207.33333333333331 L 707 217.33333333333331 M 717 207.33333333333331 L 717 222.33333333333331 M 727 207.33333333333331 L 727 217.33333333333331 M 737 207.33333333333331 L 737 217.33333333333331 M 747 207.33333333333331 L 747 217.33333333333331 M 757 207.33333333333331 L 757 217.33333333333331 M 767 207.33333333333331 L 767 227.33333333333331" stroke-miterlimit="10" stroke-dasharray=""/><g transform="translate(767,227.33333333333331) rotate(0,0,0)"><text fill="rgb(128,128,128)" stroke="none" font-family="Arial" font-size="14px" font-style="normal" font-weight="normal" text-decoration="normal" x="0" y="0" text-anchor="middle" dominant-baseline="text-before-edge">600</text></g><path fill="none" stroke="rgb(128,128,128)" paint-order="fill stroke markers" d=" M 777 207.33333333333331 L 777 217.33333333333331 M 787 207.33333333333331 L 787 217.33333333333331 M 797 207.33333333333331 L 797 217.33333333333331 M 807 207.33333333333331 L 807 217.33333333333331 M 817 207.33333333333331 L 817 222.33333333333331 M 827 207.33333333333331 L 827 217.33333333333331 M 837 207.33333333333331 L 837 217.33333333333331" stroke-miterlimit="10" stroke-dasharray=""/><path fill="none" stroke="rgb(128,128,128)" paint-order="fill stroke markers" d=" M 612 63.333333333333314 L 612 351.3333333333333" stroke-miterlimit="10" stroke-width="4" stroke-opacity="0.5" stroke-dasharray=""/><path fill="none" stroke="rgb(255,255,255)" paint-order="fill stroke markers" d=" M 610 207.33333333333331 L 614 207.33333333333331" stroke-miterlimit="10" stroke-dasharray=""/><path fill="rgb(255,0,0)" stroke="none" paint-order="stroke fill markers" d=" M 612 58.333333333333314 L 617 68.33333333333331 L 607 68.33333333333331"/><path fill="rgb(255,0,0)" stroke="none" paint-order="stroke fill markers" d=" M 612 356.3333333333333 L 617 346.3333333333333 L 607 346.3333333333333"/><path fill="none" stroke="rgb(128,128,128)" paint-order="fill stroke markers" d=" M 227 147.33333333333331 L 227 267.3333333333333" stroke-miterlimit="10" stroke-width="4" stroke-opacity="0.6666666666666666" stroke-dasharray=""/><path fill="none" stroke="rgb(255,255,255)" paint-order="fill stroke markers" d=" M 225 207.33333333333331 L 229 207.33333333333331" stroke-miterlimit="10" stroke-dasharray=""/><path fill="rgb(255,0,0)" stroke="none" paint-order="stroke fill markers" d=" M 227 142.33333333333331 L 232 152.33333333333331 L 222 152.33333333333331"/><path fill="rgb(255,0,0)" stroke="none" paint-order="stroke fill markers" d=" M 227 272.3333333333333 L 232 262.3333333333333 L 222 262.3333333333333"/><rect fill="rgb(0,255,0)" stroke="none" x="165.14126984126972" y="192.66305916305913" width="5" height="5"/><rect fill="rgb(255,0,0)" stroke="none" x="225.44039644565953" y="205.77668413457877" width="3" height="3"/><text fill="white" stroke="none" font-family="serif" font-size="24px" font-style="normal" font-weight="normal" text-decoration="normal" x="173.80737472022292" y="302.9254857285815" text-anchor="start" dominant-baseline="text-after-edge">Obiektyw</text><text fill="white" stroke="none" font-family="serif" font-size="24px" font-style="normal" font-weight="normal" text-decoration="normal" x="562.0740413868896" y="385.0588190619148" text-anchor="start" dominant-baseline="text-after-edge">Okular</text><path fill="none" stroke="rgb(255,255,128)" paint-order="fill stroke markers" d=" M 167.64126984126972 195.16305916305913 L 227 161.64174682334826" stroke-miterlimit="10" stroke-dasharray=""/><path fill="none" stroke="rgb(255,255,128)" paint-order="fill stroke markers" d=" M 167.64126984126972 195.16305916305913 L 227 179.86216249709278" stroke-miterlimit="10" stroke-dasharray=""/><path fill="none" stroke="rgb(255,255,128)" paint-order="fill stroke markers" d=" M 167.64126984126972 195.16305916305913 L 227 195.7282490648816" stroke-miterlimit="10" stroke-dasharray=""/><path fill="none" stroke="rgb(255,255,128)" paint-order="fill stroke markers" d=" M 167.64126984126972 195.16305916305913 L 227 211.67550113726784" stroke-miterlimit="10" stroke-dasharray=""/><path fill="none" stroke="rgb(255,255,128)" paint-order="fill stroke markers" d=" M 167.64126984126972 195.16305916305913 L 227 230.19159012284896" stroke-miterlimit="10" stroke-dasharray=""/><path fill="none" stroke="rgb(255,255,128)" paint-order="fill stroke markers" d=" M 167.64126984126972 195.16305916305913 L 227.00000000000003 255.66303561259352" stroke-miterlimit="10" stroke-dasharray=""/><path fill="none" stroke="rgb(255,255,128)" paint-order="fill stroke markers" d=" M 227 161.64174682334826 L 612 296.0481398676347" stroke-miterlimit="10" stroke-dasharray=""/><path fill="none" stroke="rgb(255,128,0)" paint-order="fill stroke markers" d=" M 227 161.64174682334826 L -1763.4196827746698 -533.2287212444344" stroke-miterlimit="10" stroke-dasharray=""/><path fill="none" stroke="rgb(80,80,80)" paint-order="fill stroke markers" d=" M 612 296.0481398676347 L 3092.802056050351 1162.114779375628" stroke-miterlimit="10" stroke-dasharray=""/><path fill="none" stroke="rgb(255,255,128)" paint-order="fill stroke markers" d=" M 227 179.86216249709278 L 612 292.1487487370294" stroke-miterlimit="10" stroke-dasharray=""/><path fill="none" stroke="rgb(255,128,0)" paint-order="fill stroke markers" d=" M 227 179.86216249709278 L -1814.395484263158 -415.5179156679262" stroke-miterlimit="10" stroke-dasharray=""/><path fill="none" stroke="rgb(80,80,80)" paint-order="fill stroke markers" d=" M 612 292.1487487370294 L 3130.7923003740952 1026.7632652472737" stroke-miterlimit="10" stroke-dasharray=""/><path fill="none" stroke="rgb(255,255,128)" paint-order="fill stroke markers" d=" M 227 195.7282490648816 L 612 288.7532127433577" stroke-miterlimit="10" stroke-dasharray=""/><path fill="none" stroke="rgb(255,128,0)" paint-order="fill stroke markers" d=" M 227 195.7282490648816 L -1855.3876140074622 -307.42508121447605" stroke-miterlimit="10" stroke-dasharray=""/><path fill="none" stroke="rgb(80,80,80)" paint-order="fill stroke markers" d=" M 612 288.7532127433577 L 3159.0413072749275 904.177693514341" stroke-miterlimit="10" stroke-dasharray=""/><path fill="none" stroke="rgb(255,255,128)" paint-order="fill stroke markers" d=" M 227 211.67550113726784 L 612 285.3403063419848" stroke-miterlimit="10" stroke-dasharray=""/><path fill="none" stroke="rgb(255,128,0)" paint-order="fill stroke markers" d=" M 227 211.67550113726784 L -1892.8052752966046 -193.9220123085917" stroke-miterlimit="10" stroke-dasharray=""/><path fill="none" stroke="rgb(80,80,80)" paint-order="fill stroke markers" d=" M 612 285.3403063419848 L 3182.2979557148756 777.1338082272279" stroke-miterlimit="10" stroke-dasharray=""/><path fill="none" stroke="rgb(255,255,128)" paint-order="fill stroke markers" d=" M 227 230.19159012284896 L 612 281.3776375172608" stroke-miterlimit="10" stroke-dasharray=""/><path fill="none" stroke="rgb(255,128,0)" paint-order="fill stroke markers" d=" M 227 230.19159012284896 L -1930.788613324326 -56.68807280894626" stroke-miterlimit="10" stroke-dasharray=""/><path fill="none" stroke="rgb(80,80,80)" paint-order="fill stroke markers" d=" M 612 281.3776375172608 L 3202.1700325668417 625.7427441316804" stroke-miterlimit="10" stroke-dasharray=""/><path fill="none" stroke="rgb(255,255,128)" paint-order="fill stroke markers" d=" M 227.00000000000003 255.66303561259352 L 612 275.92643758829604" stroke-miterlimit="10" stroke-dasharray=""/><path fill="none" stroke="rgb(255,128,0)" paint-order="fill stroke markers" d=" M 227.00000000000003 255.66303561259352 L -1972.20300572189 139.91411475255177" stroke-miterlimit="10" stroke-dasharray=""/><path fill="none" stroke="rgb(80,80,80)" paint-order="fill stroke markers" d=" M 612 275.92643758829604 L 3215.906251044188 412.9757858271352" stroke-miterlimit="10" stroke-dasharray=""/><path fill="none" stroke="rgb(255,255,128)" paint-order="fill stroke markers" d=" M 612 296.0481398676347 L 2925.960610582483 -948.9565019088768" stroke-miterlimit="10" stroke-dasharray=""/><path fill="none" stroke="rgb(255,128,0)" paint-order="fill stroke markers" d=" M 612 296.0481398676347 L -1701.9606105824832 1541.052781644146" stroke-miterlimit="10" stroke-dasharray=""/><path fill="none" stroke="rgb(255,255,128)" paint-order="fill stroke markers" d=" M 612 292.1487487370294 L 2904.6345274671357 -983.7039323186436" stroke-miterlimit="10" stroke-dasharray=""/><path fill="none" stroke="rgb(255,128,0)" paint-order="fill stroke markers" d=" M 612 292.1487487370294 L -1680.6345274671357 1568.0014297927019" stroke-miterlimit="10" stroke-dasharray=""/><path fill="none" stroke="rgb(255,255,128)" paint-order="fill stroke markers" d=" M 612 288.7532127433577 L 2885.9654094421435 -1013.263695425515" stroke-miterlimit="10" stroke-dasharray=""/><path fill="none" stroke="rgb(255,128,0)" paint-order="fill stroke markers" d=" M 612 288.7532127433577 L -1661.9654094421435 1590.7701209122301" stroke-miterlimit="10" stroke-dasharray=""/><path fill="none" stroke="rgb(255,255,128)" paint-order="fill stroke markers" d=" M 612 285.3403063419848 L 2867.126294778074 -1042.3260012252192" stroke-miterlimit="10" stroke-dasharray=""/><path fill="none" stroke="rgb(255,128,0)" paint-order="fill stroke markers" d=" M 612 285.3403063419848 L -1643.1262947780742 1613.006613909189" stroke-miterlimit="10" stroke-dasharray=""/><path fill="none" stroke="rgb(255,255,128)" paint-order="fill stroke markers" d=" M 612 281.3776375172608 L 2845.18069425922 -1075.262370387851" stroke-miterlimit="10" stroke-dasharray=""/><path fill="none" stroke="rgb(255,128,0)" paint-order="fill stroke markers" d=" M 612 281.3776375172608 L -1621.1806942592202 1638.0176454223724" stroke-miterlimit="10" stroke-dasharray=""/><path fill="none" stroke="rgb(255,255,128)" paint-order="fill stroke markers" d=" M 612 275.92643758829604 L 2814.908850418067 -1119.1731591536147" stroke-miterlimit="10" stroke-dasharray=""/><path fill="none" stroke="rgb(255,128,0)" paint-order="fill stroke markers" d=" M 612 275.92643758829604 L -1590.9088504180668 1671.026034330207" stroke-miterlimit="10" stroke-dasharray=""/><path fill="none" stroke="rgb(128,128,128)" paint-order="fill stroke markers" d=" M 612 63.333333333333314 L 612 351.3333333333333" stroke-miterlimit="10" stroke-width="4" stroke-opacity="0.5" stroke-dasharray=""/><path fill="none" stroke="rgb(255,255,255)" paint-order="fill stroke markers" d=" M 610 207.33333333333331 L 614 207.33333333333331" stroke-miterlimit="10" stroke-dasharray=""/><path fill="rgb(255,0,0)" stroke="none" paint-order="stroke fill markers" d=" M 612 58.333333333333314 L 617 68.33333333333331 L 607 68.33333333333331"/><path fill="rgb(255,0,0)" stroke="none" paint-order="stroke fill markers" d=" M 612 356.3333333333333 L 617 346.3333333333333 L 607 346.3333333333333"/><path fill="none" stroke="rgb(128,128,128)" paint-order="fill stroke markers" d=" M 227 147.33333333333331 L 227 267.3333333333333" stroke-miterlimit="10" stroke-width="4" stroke-opacity="0.6666666666666666" stroke-dasharray=""/><path fill="none" stroke="rgb(255,255,255)" paint-order="fill stroke markers" d=" M 225 207.33333333333331 L 229 207.33333333333331" stroke-miterlimit="10" stroke-dasharray=""/><path fill="rgb(255,0,0)" stroke="none" paint-order="stroke fill markers" d=" M 227 142.33333333333331 L 232 152.33333333333331 L 222 152.33333333333331"/><path fill="rgb(255,0,0)" stroke="none" paint-order="stroke fill markers" d=" M 227 272.3333333333333 L 232 262.3333333333333 L 222 262.3333333333333"/><rect fill="rgb(0,255,0)" stroke="none" x="165.14126984126972" y="192.66305916305913" width="5" height="5"/><rect fill="rgb(255,0,0)" stroke="none" x="225.44039644565953" y="205.77668413457877" width="3" height="3"/><text fill="white" stroke="none" font-family="serif" font-size="24px" font-style="normal" font-weight="normal" text-decoration="normal" x="173.80737472022292" y="302.9254857285815" text-anchor="start" dominant-baseline="text-after-edge">Obiektyw</text><text fill="white" stroke="none" font-family="serif" font-size="24px" font-style="normal" font-weight="normal" text-decoration="normal" x="562.0740413868896" y="385.0588190619148" text-anchor="start" dominant-baseline="text-after-edge">Okular</text></g></svg>
