<svg version="1.1" xmlns="http://www.w3.org/2000/svg" xmlns:xlink="http://www.w3.org/1999/xlink" width="1056" height="495"><defs/><g stroke="rgb(128,128,128)" stroke-miterlimit="10" stroke-dasharray=""><rect fill="black" stroke="none" x="0" y="0" width="1056" height="495"/><g/><path fill="white" stroke="none" paint-order="stroke fill markers" d=" M -3127.9 223 L 4203.9 223 L 4203.9 3888.9 L -3127.9 3888.9" fill-opacity="0.14066756252554602"/><rect fill="rgb(0,255,0)" stroke="none" x="455.5" y="420.5" width="5" height="5"/><path fill="none" stroke="rgb(128,128,128)" paint-order="fill stroke markers" d=" M 458 423 L 458 223 M 458 423 L 443 423" stroke-miterlimit="10" stroke-dasharray=""/><g transform="translate(443,423) rotate(0,0,0)"><text fill="rgb(128,128,128)" stroke="none" font-family="Arial" font-size="14px" font-style="normal" font-weight="normal" text-decoration="normal" x="0" y="0" text-anchor="end" dominant-baseline="central">0</text></g><path fill="none" stroke="rgb(128,128,128)" paint-order="fill stroke markers" d=" M 458 413 L 448 413 M 458 403 L 448 403 M 458 393 L 448 393 M 458 383 L 448 383 M 458 373 L 443 373 M 458 363 L 448 363 M 458 353 L 448 353 M 458 343 L 448 343 M 458 333 L 448 333 M 458 323 L 443 323" stroke-miterlimit="10" stroke-dasharray=""/><g transform="translate(443,323) rotate(0,0,0)"><text fill="rgb(128,128,128)" stroke="none" font-family="Arial" font-size="14px" font-style="normal" font-weight="normal" text-decoration="normal" x="0" y="0" text-anchor="end" dominant-baseline="central">100</text></g><path fill="none" stroke="rgb(128,128,128)" paint-order="fill stroke markers" d=" M 458 313 L 448 313 M 458 303 L 448 303 M 458 293 L 448 293 M 458 283 L 448 283 M 458 273 L 443 273 M 458 263 L 448 263 M 458 253 L 448 253 M 458 243 L 448 243 M 458 233 L 448 233 M 458 223 L 443 223" stroke-miterlimit="10" stroke-dasharray=""/><g transform="translate(443,223) rotate(0,0,0)"><text fill="rgb(128,128,128)" stroke="none" font-family="Arial" font-size="14px" font-style="normal" font-weight="normal" text-decoration="normal" x="0" y="0" text-anchor="end" dominant-baseline="central">200</text></g><text fill="white" stroke="none" font-family="serif" font-size="24px" font-style="normal" font-weight="normal" text-decoration="normal" x="492.0333333333332" y="357.40000000000015" text-anchor="start" dominant-baseline="text-after-edge">观察到的像（橘点）</text><text fill="white" stroke="none" font-family="serif" font-size="24px" font-style="normal" font-weight="normal" text-decoration="normal" x="678.3666666666667" y="87.06666666666662" text-anchor="start" dominant-baseline="text-after-edge">观察者</text><text fill="white" stroke="none" font-family="serif" font-size="24px" font-style="normal" font-weight="normal" text-decoration="normal" x="472.36666666666656" y="437.7333333333332" text-anchor="start" dominant-baseline="text-after-edge">水中物体（绿点）</text><rect fill="rgb(255,128,0)" stroke="none" x="476.7618902499604" y="326.97304109296" width="5" height="5" fill-opacity="NaN"/><path fill="none" stroke="rgb(0,0,255)" paint-order="fill stroke markers" d=" M 660.8451198358932 92.73524757471056 L 479.2618902499604 329.47304109296" stroke-miterlimit="10" stroke-opacity="NaN" stroke-dasharray=""/><rect fill="rgb(255,128,0)" stroke="none" x="476.164645435103" y="327.7516946062031" width="5" height="5" fill-opacity="NaN"/><path fill="none" stroke="rgb(0,0,255)" paint-order="fill stroke markers" d=" M 656.8293700852432 95.18300288684617 L 478.664645435103 330.2516946062031" stroke-miterlimit="10" stroke-opacity="NaN" stroke-dasharray=""/><rect fill="rgb(255,128,0)" stroke="none" x="475.58098393717466" y="328.5217715391843" width="5" height="5" fill-opacity="NaN"/><path fill="none" stroke="rgb(0,0,255)" paint-order="fill stroke markers" d=" M 653.9041320390378 96.25604728142937 L 478.08098393717466 331.0217715391843" stroke-miterlimit="10" stroke-opacity="NaN" stroke-dasharray=""/><rect fill="rgb(255,128,0)" stroke="none" x="475.010636490226" y="329.2833210445108" width="5" height="5" fill-opacity="NaN"/><path fill="none" stroke="rgb(0,0,255)" paint-order="fill stroke markers" d=" M 651.4159641312789 96.78628699845164 L 477.510636490226 331.7833210445108" stroke-miterlimit="10" stroke-opacity="NaN" stroke-dasharray=""/><rect fill="rgb(255,128,0)" stroke="none" x="474.45333953738935" y="330.0363924585749" width="5" height="5" fill-opacity="NaN"/><path fill="none" stroke="rgb(0,0,255)" paint-order="fill stroke markers" d=" M 649.1931793889756 96.98798394873026 L 476.95333953738935 332.5363924585749" stroke-miterlimit="10" stroke-opacity="NaN" stroke-dasharray=""/><rect fill="rgb(255,128,0)" stroke="none" x="473.90883508909235" y="330.7810352562744" width="5" height="5" fill-opacity="NaN"/><path fill="none" stroke="rgb(0,0,255)" paint-order="fill stroke markers" d=" M 647.1588823396879 96.95498442548126 L 476.40883508909235 333.2810352562744" stroke-miterlimit="10" stroke-opacity="NaN" stroke-dasharray=""/><rect fill="rgb(255,128,0)" stroke="none" x="473.37687060769287" y="331.51729897681395" width="5" height="5" fill-opacity="NaN"/><path fill="none" stroke="rgb(0,0,255)" paint-order="fill stroke markers" d=" M 645.2707079503565 96.73757008494486 L 475.87687060769287 334.01729897681395" stroke-miterlimit="10" stroke-opacity="NaN" stroke-dasharray=""/><rect fill="rgb(255,128,0)" stroke="none" x="472.85719881766926" y="332.2452332593323" width="5" height="5" fill-opacity="NaN"/><path fill="none" stroke="rgb(0,0,255)" paint-order="fill stroke markers" d=" M 643.502563874411 96.36557853952877 L 475.35719881766926 334.7452332593323" stroke-miterlimit="10" stroke-opacity="NaN" stroke-dasharray=""/><rect fill="rgb(255,128,0)" stroke="none" x="472.3495776266644" y="332.96488773330066" width="5" height="5" fill-opacity="NaN"/><path fill="none" stroke="rgb(0,0,255)" paint-order="fill stroke markers" d=" M 641.837316778017 95.85758871869642 L 474.8495776266644 335.46488773330066" stroke-miterlimit="10" stroke-opacity="NaN" stroke-dasharray=""/><rect fill="rgb(255,128,0)" stroke="none" x="471.8537699800643" y="333.67631200693427" width="5" height="5" fill-opacity="NaN"/><path fill="none" stroke="rgb(0,0,255)" paint-order="fill stroke markers" d=" M 640.2633514285092 95.2251919142092 L 474.3537699800643 336.17631200693427" stroke-miterlimit="10" stroke-opacity="NaN" stroke-dasharray=""/><rect fill="rgb(255,128,0)" stroke="none" x="471.36954369301884" y="334.3795556968011" width="5" height="5" fill-opacity="NaN"/><path fill="none" stroke="rgb(0,0,255)" paint-order="fill stroke markers" d=" M 638.7727859705554 94.47516258079958 L 473.86954369301884 336.8795556968011" stroke-miterlimit="10" stroke-opacity="NaN" stroke-dasharray=""/><rect fill="rgb(255,128,0)" stroke="none" x="470.8966714211877" y="335.0746682639969" width="5" height="5" fill-opacity="NaN"/><path fill="none" stroke="rgb(0,0,255)" paint-order="fill stroke markers" d=" M 637.3605033825036 93.61058744020765 L 473.3966714211877 337.5746682639969" stroke-miterlimit="10" stroke-opacity="NaN" stroke-dasharray=""/><rect fill="rgb(255,128,0)" stroke="none" x="470.4349304293164" y="335.7616991494713" width="5" height="5" fill-opacity="NaN"/><path fill="none" stroke="rgb(0,0,255)" paint-order="fill stroke markers" d=" M 636.0236424344245 92.63139475209765 L 472.9349304293164 338.2616991494713" stroke-miterlimit="10" stroke-opacity="NaN" stroke-dasharray=""/><rect fill="rgb(255,128,0)" stroke="none" x="469.98410257637136" y="336.44069759998746" width="5" height="5" fill-opacity="NaN"/><path fill="none" stroke="rgb(0,0,255)" paint-order="fill stroke markers" d=" M 634.761393137451 91.53446529722788 L 472.48410257637136 338.94069759998746" stroke-miterlimit="10" stroke-opacity="NaN" stroke-dasharray=""/><rect fill="rgb(255,128,0)" stroke="none" x="469.54397413361033" y="337.11171274559433" width="5" height="5" fill-opacity="NaN"/><path fill="none" stroke="rgb(0,0,255)" paint-order="fill stroke markers" d=" M 633.5750453746684 90.31336657017273 L 472.04397413361033 339.61171274559433" stroke-miterlimit="10" stroke-opacity="NaN" stroke-dasharray=""/><rect fill="rgb(255,128,0)" stroke="none" x="469.11433570782333" y="337.77479352739425" width="5" height="5" fill-opacity="NaN"/><path fill="none" stroke="rgb(0,0,255)" paint-order="fill stroke markers" d=" M 632.4683158179972 88.95763782226736 L 471.61433570782333 340.27479352739425" stroke-miterlimit="10" stroke-opacity="NaN" stroke-dasharray=""/><rect fill="rgb(255,128,0)" stroke="none" x="468.6949821327747" y="338.4299886779286" width="5" height="5" fill-opacity="NaN"/><path fill="none" stroke="rgb(0,0,255)" paint-order="fill stroke markers" d=" M 631.4480719476495 87.45139941335432 L 471.1949821327747 340.9299886779286" stroke-miterlimit="10" stroke-opacity="NaN" stroke-dasharray=""/><rect fill="rgb(255,128,0)" stroke="none" x="468.28571235588157" y="339.0773467151237" width="5" height="5" fill-opacity="NaN"/><path fill="none" stroke="rgb(0,0,255)" paint-order="fill stroke markers" d=" M 630.5257466253983 85.77075912482012 L 470.78571235588157 341.5773467151237" stroke-miterlimit="10" stroke-opacity="NaN" stroke-dasharray=""/><rect fill="rgb(255,128,0)" stroke="none" x="467.88632933678423" y="339.7169159234567" width="5" height="5" fill-opacity="NaN"/><path fill="none" stroke="rgb(0,0,255)" paint-order="fill stroke markers" d=" M 629.7201534345311 83.87876173285878 L 470.38632933678423 342.2169159234567" stroke-miterlimit="10" stroke-opacity="NaN" stroke-dasharray=""/><rect fill="rgb(255,128,0)" stroke="none" x="467.49663996881264" y="340.3487443038889" width="5" height="5" fill-opacity="NaN"/><path fill="none" stroke="rgb(0,0,255)" paint-order="fill stroke markers" d=" M 629.063612812095 81.71453635916 L 469.99663996881264 342.8487443038889" stroke-miterlimit="10" stroke-opacity="NaN" stroke-dasharray=""/><rect fill="rgb(255,128,0)" stroke="none" x="467.1164549496642" y="340.97287961039336" width="5" height="5" fill-opacity="NaN"/><path fill="none" stroke="rgb(0,0,255)" paint-order="fill stroke markers" d=" M 628.617612644963 79.16579617329565 L 469.6164549496642 343.47287961039336" stroke-miterlimit="10" stroke-opacity="NaN" stroke-dasharray=""/><rect fill="rgb(255,128,0)" stroke="none" x="466.74558871777776" y="341.5893692857949" width="5" height="5" fill-opacity="NaN"/><path fill="none" stroke="rgb(0,0,255)" paint-order="fill stroke markers" d=" M 628.5262469477365 75.97570072381494 L 469.24558871777776 344.0893692857949" stroke-miterlimit="10" stroke-opacity="NaN" stroke-dasharray=""/><rect fill="rgb(255,128,0)" stroke="none" x="466.38385935861476" y="342.19826045054367" width="5" height="5" fill-opacity="NaN"/><path fill="none" stroke="rgb(0,0,255)" paint-order="fill stroke markers" d=" M 629.3923055803975 71.09271517809658 L 468.88385935861476 344.69826045054367" stroke-miterlimit="10" stroke-opacity="NaN" stroke-dasharray=""/><path fill="transparent" stroke="none" paint-order="stroke fill markers" d=" M -3127.9 223 L 4203.9 223 L 4203.9 3888.9 L -3127.9 3888.9" fill-opacity="0.1"/><rect fill="rgb(0,255,0)" stroke="none" x="455.5" y="420.5" width="5" height="5"/><text fill="white" stroke="none" font-family="serif" font-size="24px" font-style="normal" font-weight="normal" text-decoration="normal" x="492.0333333333332" y="357.40000000000015" text-anchor="start" dominant-baseline="text-after-edge">观察到的像（橘点）</text><text fill="white" stroke="none" font-family="serif" font-size="24px" font-style="normal" font-weight="normal" text-decoration="normal" x="678.3666666666667" y="87.06666666666662" text-anchor="start" dominant-baseline="text-after-edge">观察者</text><text fill="white" stroke="none" font-family="serif" font-size="24px" font-style="normal" font-weight="normal" text-decoration="normal" x="472.36666666666656" y="437.7333333333332" text-anchor="start" dominant-baseline="text-after-edge">水中物体（绿点）</text><path fill="blue" stroke="none" paint-order="stroke fill markers" d=" M 668.5 77 A 20 20 0 1 1 668.4999900000008 76.98000000333332"/><path fill="blue" stroke="none" paint-order="stroke fill markers" d=" M 668.5 77 A 20 20 0 1 1 668.4999900000008 76.98000000333332"/></g></svg>