<svg xmlns="http://www.w3.org/2000/svg" width="100" height="100"><path d="M0 0h100v100H0z"/><path fill="none" stroke="#0F0" paint-order="fill stroke markers" d="m-28.241 47.83 11.297 45.385" stroke-miterlimit="10" stroke-width="4"/><path fill="none" stroke="gray" paint-order="fill stroke markers" d="m-30.182 48.313 11.297 45.385" stroke-opacity="255" stroke-miterlimit="10" stroke-width="2"/><path fill="none" stroke="#6464A8" paint-order="fill stroke markers" d="M34.797 12.712 88.1 81.342" stroke-miterlimit="10"/><path fill="none" stroke="#FFFF80" paint-order="fill stroke markers" d="M-28.974 53.164 50.793 33.31M-26.559 62.868l84.06-20.923M-24.144 72.572 64.207 50.58M-21.728 82.276l92.642-23.06M-19.313 91.98l96.935-24.128" stroke-miterlimit="10"/><path fill="none" stroke="#FFFF80" paint-order="fill stroke markers" d="m50.793 33.309 2219.697-552.52M57.5 41.945l2234.585-556.226M64.207 50.58 2313.68-509.35M70.914 59.216l2264.362-563.637M77.622 67.852l2279.25-567.344M50.793 33.309-1033.903 2047.2M57.5 41.945l-1091.971 2027.4M64.207 50.58-1035.04 2091.488M70.914 59.216l-1106.522 2054.416M77.622 67.852l-1113.799 2067.924" stroke-miterlimit="10" stroke-opacity=".5"/><path fill="none" stroke="#0F0" paint-order="fill stroke markers" d="m-28.241 47.83 11.297 45.385" stroke-miterlimit="10" stroke-width="4"/><path fill="none" stroke="gray" paint-order="fill stroke markers" d="m-30.182 48.313 11.297 45.385" stroke-opacity="255" stroke-miterlimit="10" stroke-width="2"/><path fill="none" stroke="#6464A8" paint-order="fill stroke markers" d="M34.797 12.712 88.1 81.342" stroke-miterlimit="10"/></svg>