<svg xmlns="http://www.w3.org/2000/svg" width="519" height="252"><path d="M0 0h519v252H0z"/><path fill="#0F0" d="M133.035 118.258h5v5h-5z"/><path fill="none" stroke="gray" paint-order="fill stroke markers" d="m205.685 84.025.532 71.213" stroke-miterlimit="10" stroke-width="4" stroke-opacity=".714"/><path fill="none" stroke="#FFF" paint-order="fill stroke markers" d="m203.951 119.647 4-.03" stroke-miterlimit="10"/><path fill="red" paint-order="stroke fill markers" d="m205.648 79.025 5.074 9.963-10 .074M206.254 160.238l4.925-10.037-10 .075"/><path fill="none" stroke="#A8A8A8" paint-order="fill stroke markers" d="m375.746 71.208 39.327 96.19" stroke-miterlimit="10"/><path fill="none" stroke="#FFFF80" paint-order="fill stroke markers" d="M135.535 120.758v2428.269M135.535 120.758l292.696 2410.564M135.535 120.758l581.123 2357.708M135.535 120.758l861.076 2270.47M135.535 120.758l1128.473 2150.125M135.535 120.758 1514.95 2119.184M135.535 120.758l1610.24 1817.585M135.535 120.758l1817.586 1610.24M135.535 120.758l1998.427 1379.414M135.535 120.758 2285.661 1249.23M135.535 120.758l70.624 26.784M135.535 120.758l70.554 17.39M135.535 120.758l70.488 8.558M135.535 120.758h70.424M135.535 120.758l70.36-8.544M135.535 120.758l70.295-17.327M135.535 120.758l70.226-26.633M135.535 120.758l2150.126-1128.474M135.535 120.758l1998.427-1379.415M135.535 120.758l1817.586-1610.24M135.535 120.758l1610.24-1817.586M135.535 120.758 1514.95-1877.67M135.535 120.758l1128.473-2150.126M135.535 120.758l861.076-2270.472M135.535 120.758l581.123-2357.709M135.535 120.758l292.696-2410.565M135.535 120.758v-2428.27M135.535 120.758-157.16-2289.807M135.535 120.758l-581.123-2357.709M135.535 120.758-725.54-2149.714M135.535 120.758-992.938-2029.368M135.535 120.758-1243.879-1877.67M135.535 120.758l-1610.24-1817.586M135.535 120.758l-1817.586-1610.24M135.535 120.758-1862.89-1258.657M135.535 120.758-2014.59-1007.716M135.535 120.758-2134.936-740.32M135.535 120.758l-2357.708-581.123M135.535 120.758-2275.03-171.938M135.535 120.758h-2428.27M135.535 120.758-2275.03 413.453M135.535 120.758-2222.173 701.88M135.535 120.758l-2270.471 861.076M135.535 120.758-2014.59 1249.23M135.535 120.758-1862.89 1500.172M135.535 120.758l-1817.586 1610.24M135.535 120.758l-1610.24 1817.585M135.535 120.758l-1379.414 1998.426M135.535 120.758-992.938 2270.883M135.535 120.758l-861.076 2270.47M135.535 120.758l-581.123 2357.708M135.535 120.758-157.16 2531.322M206.16 147.542 383.842 91.01" stroke-miterlimit="10"/><path fill="none" stroke="#FF8000" paint-order="fill stroke markers" d="m206.16 147.542-2406.801 765.742" stroke-miterlimit="10"/><path fill="none" stroke="#505050" paint-order="fill stroke markers" d="m383.843 91.01 2522.25-802.473" stroke-miterlimit="10"/><path fill="none" stroke="#FFFF80" paint-order="fill stroke markers" d="m206.09 138.148 181.016-39.154" stroke-miterlimit="10"/><path fill="none" stroke="#FF8000" paint-order="fill stroke markers" d="m206.09 138.148-2459.342 531.951" stroke-miterlimit="10"/><path fill="none" stroke="#505050" paint-order="fill stroke markers" d="M387.106 98.994 2985.105-462.95" stroke-miterlimit="10"/><path fill="none" stroke="#FFFF80" paint-order="fill stroke markers" d="m206.023 129.316 184.383-22.252" stroke-miterlimit="10"/><path fill="none" stroke="#FF8000" paint-order="fill stroke markers" d="M206.023 129.316-2283.23 429.73" stroke-miterlimit="10"/><path fill="none" stroke="#505050" paint-order="fill stroke markers" d="m390.406 107.064 2650.217-319.84" stroke-miterlimit="10"/><path fill="none" stroke="#FFFF80" paint-order="fill stroke markers" d="m205.96 120.758 187.882-5.29" stroke-miterlimit="10"/><path fill="none" stroke="#FF8000" paint-order="fill stroke markers" d="m205.96 120.758-2497.705 70.308" stroke-miterlimit="10"/><path fill="none" stroke="#505050" paint-order="fill stroke markers" d="m393.842 115.469 2680.226-75.446" stroke-miterlimit="10"/><path fill="none" stroke="#FFFF80" paint-order="fill stroke markers" d="m205.896 112.214 191.637 12.282" stroke-miterlimit="10"/><path fill="none" stroke="#FF8000" paint-order="fill stroke markers" d="M205.896 112.214-2279.092-47.05" stroke-miterlimit="10"/><path fill="none" stroke="#505050" paint-order="fill stroke markers" d="m397.533 124.496 2688.49 172.309" stroke-miterlimit="10"/><path fill="none" stroke="#FFFF80" paint-order="fill stroke markers" d="m205.83 103.431 195.802 31.09" stroke-miterlimit="10"/><path fill="none" stroke="#FF8000" paint-order="fill stroke markers" d="m205.83 103.431-2450.538-389.109" stroke-miterlimit="10"/><path fill="none" stroke="#505050" paint-order="fill stroke markers" d="m401.632 134.522 2674.623 424.69" stroke-miterlimit="10"/><path fill="none" stroke="#FFFF80" paint-order="fill stroke markers" d="m205.76 94.125 200.595 51.95" stroke-miterlimit="10"/><path fill="none" stroke="#FF8000" paint-order="fill stroke markers" d="M205.76 94.125-2187.153-525.6" stroke-miterlimit="10"/><path fill="none" stroke="#505050" paint-order="fill stroke markers" d="M406.355 146.075 3043.75 829.116" stroke-miterlimit="10"/><path fill="none" stroke="#FFFF80" paint-order="fill stroke markers" d="M383.843 91.01-1978.17 1285.419" stroke-miterlimit="10"/><path fill="none" stroke="#FF8000" paint-order="fill stroke markers" d="m383.843 91.01 2362.011-1194.407" stroke-miterlimit="10"/><path fill="none" stroke="#FFFF80" paint-order="fill stroke markers" d="m387.106 98.994-2247.553 1419.111" stroke-miterlimit="10"/><path fill="none" stroke="#FF8000" paint-order="fill stroke markers" d="M387.106 98.994 2634.66-1320.118" stroke-miterlimit="10"/><path fill="none" stroke="#FFFF80" paint-order="fill stroke markers" d="m390.406 107.064-2115.203 1628.454" stroke-miterlimit="10"/><path fill="none" stroke="#FF8000" paint-order="fill stroke markers" d="M390.406 107.064 2505.609-1521.39" stroke-miterlimit="10"/><path fill="none" stroke="#FFFF80" paint-order="fill stroke markers" d="m393.842 115.469-1965.4 1823.87" stroke-miterlimit="10"/><path fill="none" stroke="#FF8000" paint-order="fill stroke markers" d="m393.842 115.469 1965.4-1823.87" stroke-miterlimit="10"/><path fill="none" stroke="#FFFF80" paint-order="fill stroke markers" d="m397.533 124.496-1797.726 2006.452" stroke-miterlimit="10"/><path fill="none" stroke="#FF8000" paint-order="fill stroke markers" d="m397.533 124.496 1797.726-2006.451" stroke-miterlimit="10"/><path fill="none" stroke="#FFFF80" paint-order="fill stroke markers" d="m401.632 134.522-1611.018 2176.83" stroke-miterlimit="10"/><path fill="none" stroke="#FF8000" paint-order="fill stroke markers" d="m401.632 134.522 1611.017-2176.83" stroke-miterlimit="10"/><path fill="none" stroke="#FFFF80" paint-order="fill stroke markers" d="M406.355 146.075-997.102 2481.177" stroke-miterlimit="10"/><path fill="none" stroke="#FF8000" paint-order="fill stroke markers" d="m406.355 146.075 1403.458-2335.102" stroke-miterlimit="10"/><path fill="#0F0" d="M133.035 118.258h5v5h-5z"/><path fill="none" stroke="gray" paint-order="fill stroke markers" d="m205.685 84.025.532 71.213" stroke-miterlimit="10" stroke-width="4" stroke-opacity=".714"/><path fill="none" stroke="#FFF" paint-order="fill stroke markers" d="m203.951 119.647 4-.03" stroke-miterlimit="10"/><path fill="red" paint-order="stroke fill markers" d="m205.648 79.025 5.074 9.963-10 .074M206.254 160.238l4.925-10.037-10 .075"/><path fill="none" stroke="#A8A8A8" paint-order="fill stroke markers" d="m375.746 71.208 39.327 96.19" stroke-miterlimit="10"/></svg>