<svg xmlns="http://www.w3.org/2000/svg" width="101" height="100"><path d="M0 0h101v100H0z"/><path fill="none" stroke="#0F0" paint-order="fill stroke markers" d="m-31.53 44.712 11.298 45.385" stroke-miterlimit="10" stroke-width="4"/><path fill="none" stroke="gray" paint-order="fill stroke markers" d="m-33.47 45.195 11.297 45.385" stroke-opacity="255" stroke-miterlimit="10" stroke-width="2"/><path fill="none" stroke="#A8A8A8" paint-order="fill stroke markers" d="m38.915 15.686 46.668 64.742" stroke-miterlimit="10"/><path fill="none" stroke="#FFFF80" paint-order="fill stroke markers" d="m-32.262 50.047 81.349-20.25M-29.847 59.75l85.232-21.215M-27.431 69.454l89.114-22.182M-25.016 79.158 67.982 56.01M-22.6 88.862l96.88-24.115M49.087 29.798l-1240.223 1953.82M55.385 38.535l-1248.28 1966.515M61.683 47.272l-1256.338 1979.21M67.982 56.01l-1264.396 1991.904M74.28 64.747l-1272.454 2004.598" stroke-miterlimit="10"/><path fill="none" stroke="#0F0" paint-order="fill stroke markers" d="m-31.53 44.712 11.298 45.385" stroke-miterlimit="10" stroke-width="4"/><path fill="none" stroke="gray" paint-order="fill stroke markers" d="m-33.47 45.195 11.297 45.385" stroke-opacity="255" stroke-miterlimit="10" stroke-width="2"/><path fill="none" stroke="#A8A8A8" paint-order="fill stroke markers" d="m38.915 15.686 46.668 64.742" stroke-miterlimit="10"/></svg>