<svg xmlns="http://www.w3.org/2000/svg" width="1280" height="600"><path d="M0 0h1280v600H0z"/><path fill="#fff" paint-order="stroke fill markers" d="M134 140v140h560V140H134" fill-opacity=".2"/><path fill="red" d="M653.5 237.5h5v5h-5zM618.5 178.5h3v3h-3zM332.5 237.5h5v5h-5zM253.5 178.5h3v3h-3z"/><path fill="none" stroke="#A8A8A8" paint-order="fill stroke markers" d="m167.017 366.8 940.993 13.472M1190 591a2575.85 2575.85 0 0 0-1032-37" stroke-miterlimit="10"/><path fill="red" d="M1066.5 532.5h5v5h-5zM1009.5 431.5h3v3h-3z"/><path fill="#fff" paint-order="stroke fill markers" d="M754 260v40h320v-40H754" fill-opacity=".342"/><path fill="#fff" paint-order="stroke fill markers" d="M754 100v40h320v-40H754" fill-opacity=".09"/><path fill="#fff" paint-order="stroke fill markers" d="M754 140v40h320v-40H754" fill-opacity=".166"/><path fill="#fff" paint-order="stroke fill markers" d="M754 180v40h320v-40H754" fill-opacity=".232"/><path fill="#fff" paint-order="stroke fill markers" d="M754 220v40h320v-40H754" fill-opacity=".29"/><path fill="red" d="M805.5 17.5h5v5h-5zM846.5 58.5h3v3h-3zM498.5 237.5h5v5h-5zM438.5 168.5h3v3h-3z"/><path fill="none" stroke="#FFFF80" paint-order="fill stroke markers" d="m656 240-60-100M335 240 201.667 140M1069 535l-89.025-156.56M808 20l80 80M501 240l-87.143-100" stroke-miterlimit="10"/><path fill="none" stroke="#FFFF80" paint-order="fill stroke markers" d="m596 140-84 140" stroke-miterlimit="10" stroke-opacity=".059"/><path fill="none" stroke="#FFFF80" paint-order="fill stroke markers" d="m888 100 2114.25-2114.25" stroke-miterlimit="10" stroke-opacity=".013"/><path fill="none" stroke="#FFFF80" paint-order="fill stroke markers" d="m413.857 140-122 140" stroke-miterlimit="10" stroke-opacity=".395"/><path fill="none" stroke="#FFFF80" paint-order="fill stroke markers" d="m291.857 280-122-140" stroke-miterlimit="10" stroke-opacity=".179"/><path fill="none" stroke="#FFFF80" paint-order="fill stroke markers" d="M169.857 140 134 181.148" stroke-miterlimit="10" stroke-opacity=".089"/><path fill="none" stroke="#FFFF80" paint-order="fill stroke markers" d="m596 140-2113.034-1741.187" stroke-miterlimit="10" stroke-opacity=".941"/><path fill="none" stroke="#FFFF80" paint-order="fill stroke markers" d="M201.667 140 134 190.75M979.975 378.44 884.19 536.2" stroke-miterlimit="10"/><path fill="none" stroke="#FFFF80" paint-order="fill stroke markers" d="m888 100 29.173 40" stroke-miterlimit="10" stroke-opacity=".987"/><path fill="none" stroke="#FFFF80" paint-order="fill stroke markers" d="m413.857 140-2518.714-434.15" stroke-miterlimit="10" stroke-opacity=".605"/><path fill="none" stroke="#FFFF80" paint-order="fill stroke markers" d="m512 280-109.43 90.172" stroke-miterlimit="10" stroke-opacity=".052"/><path fill="none" stroke="#FFFF80" paint-order="fill stroke markers" d="m291.857 280-2536.452 437.207" stroke-miterlimit="10" stroke-opacity=".216"/><path fill="none" stroke="#FFFF80" paint-order="fill stroke markers" d="m169.857 140-2278.26-392.703" stroke-miterlimit="10" stroke-opacity=".09"/><path fill="none" stroke="#FFFF80" paint-order="fill stroke markers" d="M134 181.148 220.143 280" stroke-miterlimit="10" stroke-opacity=".089"/><path fill="none" stroke="#FFFF80" paint-order="fill stroke markers" d="M134 190.75 253 280" stroke-miterlimit="10" stroke-opacity=".114"/><path fill="none" stroke="#FFFF80" paint-order="fill stroke markers" d="m220.143 280 122-140" stroke-miterlimit="10" stroke-opacity=".046"/><path fill="none" stroke="#FFFF80" paint-order="fill stroke markers" d="m342.143 140 122 140" stroke-miterlimit="10" stroke-opacity=".025"/><path fill="none" stroke="#FFFF80" paint-order="fill stroke markers" d="m464.143 280 122-140" stroke-miterlimit="10" stroke-opacity=".013"/><path fill="none" stroke="#FFFF80" paint-order="fill stroke markers" d="M134 190.75-880.207 2284.825" stroke-miterlimit="10" stroke-opacity=".886"/><path fill="none" stroke="#FFFF80" paint-order="fill stroke markers" d="m884.19 536.2-51.516-159.87" stroke-miterlimit="10"/><path fill="none" stroke="#FFFF80" paint-order="fill stroke markers" d="m917.173 140 23.408 40" stroke-miterlimit="10" stroke-opacity=".981"/><path fill="none" stroke="#FFFF80" paint-order="fill stroke markers" d="M402.57 370.172 299.314 280" stroke-miterlimit="10" stroke-opacity=".052"/><path fill="none" stroke="#FFFF80" paint-order="fill stroke markers" d="m220.143 280 553.996 95.492" stroke-miterlimit="10" stroke-opacity=".042"/><path fill="none" stroke="#FFFF80" paint-order="fill stroke markers" d="m253 280 186.667-140" stroke-miterlimit="10" stroke-opacity=".114"/><path fill="none" stroke="#FFFF80" paint-order="fill stroke markers" d="m342.143 140 2448.042-421.968" stroke-miterlimit="10" stroke-opacity=".022"/><path fill="none" stroke="#FFFF80" paint-order="fill stroke markers" d="m464.143 280 576.099 99.302" stroke-miterlimit="10" stroke-opacity=".011"/><path fill="none" stroke="#FFFF80" paint-order="fill stroke markers" d="M586.143 140 754 111.067" stroke-miterlimit="10" stroke-opacity=".006"/><path fill="none" stroke="#FFFF80" paint-order="fill stroke markers" d="m832.674 376.33-53.03 149.742" stroke-miterlimit="10"/><path fill="none" stroke="#FFFF80" paint-order="fill stroke markers" d="m940.581 180 19.707 40" stroke-miterlimit="10" stroke-opacity=".976"/><path fill="none" stroke="#FFFF80" paint-order="fill stroke markers" d="M299.313 280 218.02 140" stroke-miterlimit="10" stroke-opacity=".047"/><path fill="none" stroke="#FFFF80" paint-order="fill stroke markers" d="M774.14 375.492 3894.021-70.724" stroke-miterlimit="10" stroke-opacity=".042"/><path fill="none" stroke="#FFFF80" paint-order="fill stroke markers" d="m439.667 140 186.666 140" stroke-miterlimit="10" stroke-opacity=".114"/><path fill="none" stroke="#FFFF80" paint-order="fill stroke markers" d="m1040.242 379.302 3387.077-484.43" stroke-miterlimit="10" stroke-opacity=".011"/><path fill="none" stroke="#FFFF80" paint-order="fill stroke markers" d="M754 111.067 831.392 100" stroke-miterlimit="10" stroke-opacity=".006"/><path fill="none" stroke="#FFFF80" paint-order="fill stroke markers" d="M779.644 526.072 750.937 375.16" stroke-miterlimit="10"/><path fill="none" stroke="#FFFF80" paint-order="fill stroke markers" d="m960.288 220 17.087 40" stroke-miterlimit="10" stroke-opacity=".972"/><path fill="none" stroke="#FFFF80" paint-order="fill stroke markers" d="m218.02 140-1777.618-1552.343" stroke-miterlimit="10" stroke-opacity=".042"/><path fill="none" stroke="#FFFF80" paint-order="fill stroke markers" d="M626.333 280 694 229.25" stroke-miterlimit="10" stroke-opacity=".114"/><path fill="none" stroke="#FFFF80" paint-order="fill stroke markers" d="M831.392 100 1074 134.691" stroke-miterlimit="10" stroke-opacity=".006"/><path fill="none" stroke="#FFFF80" paint-order="fill stroke markers" d="M694 229.25 575 140" stroke-miterlimit="10" stroke-opacity=".024"/><path fill="none" stroke="#FFFF80" paint-order="fill stroke markers" d="m750.937 375.16-32.345 146.98" stroke-miterlimit="10"/><path fill="none" stroke="#FFFF80" paint-order="fill stroke markers" d="m977.375 260 15.119 40" stroke-miterlimit="10" stroke-opacity=".97"/><path fill="none" stroke="#FFFF80" paint-order="fill stroke markers" d="m694 229.25 60-123.884" stroke-miterlimit="10" stroke-opacity=".09"/><path fill="none" stroke="#FFFF80" paint-order="fill stroke markers" d="m1074 134.691 3164.032 545.383" stroke-miterlimit="10" stroke-opacity=".006"/><path fill="none" stroke="#FFFF80" paint-order="fill stroke markers" d="M575 140 388.333 280" stroke-miterlimit="10" stroke-opacity=".024"/><path fill="none" stroke="#FFFF80" paint-order="fill stroke markers" d="m992.494 300 15.118-40" stroke-miterlimit="10" stroke-opacity=".117"/><path fill="none" stroke="#FFFF80" paint-order="fill stroke markers" d="m718.592 522.14-16.57-147.68" stroke-miterlimit="10"/><path fill="none" stroke="#FFFF80" paint-order="fill stroke markers" d="m992.494 300 79.76 79.76" stroke-miterlimit="10" stroke-opacity=".853"/><path fill="none" stroke="#FFFF80" paint-order="fill stroke markers" d="m754 105.366 4.732-5.366" stroke-miterlimit="10" stroke-opacity=".083"/><path fill="none" stroke="#FFFF80" paint-order="fill stroke markers" d="M388.333 280 201.667 140" stroke-miterlimit="10" stroke-opacity=".024"/><path fill="none" stroke="#FFFF80" paint-order="fill stroke markers" d="m1007.612 260 17.087-40" stroke-miterlimit="10" stroke-opacity=".117"/><path fill="none" stroke="#FFFF80" paint-order="fill stroke markers" d="m702.022 374.46-20.63 145.997" stroke-miterlimit="10"/><path fill="none" stroke="#FFFF80" paint-order="fill stroke markers" d="M1072.254 379.76 3583.53-1991.674" stroke-miterlimit="10" stroke-opacity=".853"/><path fill="none" stroke="#FFFF80" paint-order="fill stroke markers" d="m758.732 100 2270.636-1740.115" stroke-miterlimit="10" stroke-opacity=".08"/><path fill="none" stroke="#FFFF80" paint-order="fill stroke markers" d="M201.667 140 134 190.75" stroke-miterlimit="10" stroke-opacity=".024"/><path fill="none" stroke="#FFFF80" paint-order="fill stroke markers" d="m1024.7 220 19.706-40" stroke-miterlimit="10" stroke-opacity=".116"/><path fill="none" stroke="#FFFF80" paint-order="fill stroke markers" d="M681.392 520.457 671.95 374.03" stroke-miterlimit="10"/><path fill="none" stroke="#FFFF80" paint-order="fill stroke markers" d="M134 190.75-880.207 2284.825" stroke-miterlimit="10" stroke-opacity=".019"/><path fill="none" stroke="#FFFF80" paint-order="fill stroke markers" d="m1044.406 180 23.408-40" stroke-miterlimit="10" stroke-opacity=".116"/><path fill="none" stroke="#FFFF80" paint-order="fill stroke markers" d="m671.949 374.029-13.591 145.656" stroke-miterlimit="10"/><path fill="none" stroke="#FFFF80" paint-order="fill stroke markers" d="m1067.814 140 6.186-8.482" stroke-miterlimit="10" stroke-opacity=".114"/><path fill="none" stroke="#FFFF80" paint-order="fill stroke markers" d="M1074 131.518 1051.013 100" stroke-miterlimit="10" stroke-opacity=".024"/><path fill="none" stroke="#FFFF80" paint-order="fill stroke markers" d="m658.358 519.685-5.105-145.924" stroke-miterlimit="10"/><path fill="none" stroke="#FFFF80" paint-order="fill stroke markers" d="m1074 131.518 785.678-3109.804" stroke-miterlimit="10" stroke-opacity=".09"/><path fill="none" stroke="#FFFF80" paint-order="fill stroke markers" d="m1051.013 100-2229.517-2229.517" stroke-miterlimit="10" stroke-opacity=".024"/><path fill="none" stroke="#FFFF80" paint-order="fill stroke markers" d="m653.253 373.761-9.27 145.547M643.983 519.308l-2.434-145.714M641.55 373.594l-6.602 145.518M634.948 519.112l-.793-145.624M634.155 373.488l-4.96 145.515M629.194 519.003l.195-145.583M629.39 373.42l-3.973 145.52M625.417 518.94l.756-145.566M626.173 373.374l-3.412 145.524M622.76 518.898l1.017-145.559M623.777 373.34l-3.152 145.526M620.625 518.866l1.036-145.557M621.66 373.309l-3.132 145.528M618.528 518.837l.818-145.561M619.346 373.276l-3.35 145.528M615.995 518.804l.314-145.572M616.309 373.232l-3.855 145.53M612.454 518.761l-.592-145.592M611.862 373.169l-4.76 145.538M607.102 518.707 605 373.07M605 373.07l-6.273 145.574M598.727 518.644l-4.563-145.729M594.164 372.915 585.42 518.6M585.421 518.6l-8.548-145.932M576.873 372.668l-12.755 146.005M564.118 518.673 549.096 372.27M549.096 372.27l-19.337 146.892M529.76 519.162l-25.734-147.537M504.026 371.625 473.553 520.95M473.553 520.95 429.2 370.555M429.201 370.554 378.22 526.799M378.22 526.799l-81.331-158.14M296.889 368.66l-98.594 178.917M198.295 547.577-1780.42-1359.119" stroke-miterlimit="10"/><path fill="red" d="M653.5 237.5h5v5h-5zM618.5 178.5h3v3h-3zM332.5 237.5h5v5h-5zM253.5 178.5h3v3h-3z"/><path fill="none" stroke="#A8A8A8" paint-order="fill stroke markers" d="m167.017 366.8 940.993 13.472M1190 591a2575.85 2575.85 0 0 0-1032-37" stroke-miterlimit="10"/><path fill="red" d="M1066.5 532.5h5v5h-5zM1009.5 431.5h3v3h-3zM805.5 17.5h5v5h-5zM846.5 58.5h3v3h-3zM498.5 237.5h5v5h-5zM438.5 168.5h3v3h-3z"/></svg>