<svg xmlns="http://www.w3.org/2000/svg" width="960" height="450"><path d="M0 0h960v450H0z"/><path fill="none" stroke="gray" paint-order="fill stroke markers" d="M167 207h680m-680 0v20" stroke-miterlimit="10"/><text fill="gray" font-family="Arial" font-size="14" text-decoration="normal" text-anchor="middle" dominant-baseline="text-before-edge" transform="translate(167 227)">0</text><path fill="none" stroke="gray" paint-order="fill stroke markers" d="M177 207v10m10-10v10m10-10v10m10-10v10m10-10v15m10-15v10m10-10v10m10-10v10m10-10v10m10-10v20" stroke-miterlimit="10"/><text fill="gray" font-family="Arial" font-size="14" text-decoration="normal" text-anchor="middle" dominant-baseline="text-before-edge" transform="translate(267 227)">100</text><path fill="none" stroke="gray" paint-order="fill stroke markers" d="M277 207v10m10-10v10m10-10v10m10-10v10m10-10v15m10-15v10m10-10v10m10-10v10m10-10v10m10-10v20" stroke-miterlimit="10"/><text fill="gray" font-family="Arial" font-size="14" text-decoration="normal" text-anchor="middle" dominant-baseline="text-before-edge" transform="translate(367 227)">200</text><path fill="none" stroke="gray" paint-order="fill stroke markers" d="M377 207v10m10-10v10m10-10v10m10-10v10m10-10v15m10-15v10m10-10v10m10-10v10m10-10v10m10-10v20" stroke-miterlimit="10"/><text fill="gray" font-family="Arial" font-size="14" text-decoration="normal" text-anchor="middle" dominant-baseline="text-before-edge" transform="translate(467 227)">300</text><path fill="none" stroke="gray" paint-order="fill stroke markers" d="M477 207v10m10-10v10m10-10v10m10-10v10m10-10v15m10-15v10m10-10v10m10-10v10m10-10v10m10-10v20" stroke-miterlimit="10"/><text fill="gray" font-family="Arial" font-size="14" text-decoration="normal" text-anchor="middle" dominant-baseline="text-before-edge" transform="translate(567 227)">400</text><path fill="none" stroke="gray" paint-order="fill stroke markers" d="M577 207v10m10-10v10m10-10v10m10-10v10m10-10v15m10-15v10m10-10v10m10-10v10m10-10v10m10-10v20" stroke-miterlimit="10"/><text fill="gray" font-family="Arial" font-size="14" text-decoration="normal" text-anchor="middle" dominant-baseline="text-before-edge" transform="translate(667 227)">500</text><path fill="none" stroke="gray" paint-order="fill stroke markers" d="M677 207v10m10-10v10m10-10v10m10-10v10m10-10v15m10-15v10m10-10v10m10-10v10m10-10v10m10-10v20" stroke-miterlimit="10"/><text fill="gray" font-family="Arial" font-size="14" text-decoration="normal" text-anchor="middle" dominant-baseline="text-before-edge" transform="translate(767 227)">600</text><path fill="none" stroke="gray" paint-order="fill stroke markers" d="M777 207v10m10-10v10m10-10v10m10-10v10m10-10v15m10-15v10m10-10v10m10-10v10" stroke-miterlimit="10"/><path fill="#0F0" d="M164.5 192.5h5v5h-5z"/><path fill="none" stroke="gray" paint-order="fill stroke markers" d="M612 63v288" stroke-miterlimit="10" stroke-width="4" stroke-opacity=".5"/><path fill="none" stroke="#FFF" paint-order="fill stroke markers" d="M610 207h4" stroke-miterlimit="10"/><path fill="red" paint-order="stroke fill markers" d="m612 58 5 10h-10M612 356l5-10h-10"/><path fill="none" stroke="gray" paint-order="fill stroke markers" d="M227 147v120" stroke-miterlimit="10" stroke-width="4" stroke-opacity=".667"/><path fill="none" stroke="#FFF" paint-order="fill stroke markers" d="M225 207h4" stroke-miterlimit="10"/><path fill="red" paint-order="stroke fill markers" d="m227 142 5 10h-10M227 272l5-10h-10"/><path fill="none" stroke="#46230A" paint-order="fill stroke markers" d="M243 133H103M103 293V133M243 293H103" stroke-miterlimit="10" stroke-width="3"/><path fill="none" stroke="#FFFF80" paint-order="fill stroke markers" d="M167 195v98M167 195l26.259 98M167 195l56.58 98M167 195l60 60M167 195l60 34.641M167 195l60 16.077M167 195h60M167 195l60-16.077M167 195l60-34.641M167 195l62-62M167 195l35.796-62M167 195l16.613-62M167 195v-62M167 195l-16.613-62M167 195l-35.796-62M167 195l-62-62M167 195l-64-36.95M167 195l-64-17.149M167 195h-64M167 195l-64 17.149M167 195l-64 36.95M167 195l-64 64M167 195l-56.58 98M167 195l-26.259 98M227 255l385 15.4" stroke-miterlimit="10"/><path fill="none" stroke="#FF8000" paint-order="fill stroke markers" d="m227 255-2396.084-95.843" stroke-miterlimit="10"/><path fill="none" stroke="#505050" paint-order="fill stroke markers" d="m612 270.4 2796.164 111.847" stroke-miterlimit="10"/><path fill="none" stroke="#FFFF80" paint-order="fill stroke markers" d="m227 229.641 385 47.944" stroke-miterlimit="10"/><path fill="none" stroke="#FF8000" paint-order="fill stroke markers" d="m227 229.641-2354.455-293.2" stroke-miterlimit="10"/><path fill="none" stroke="#505050" paint-order="fill stroke markers" d="m612 277.585 2784.08 346.701" stroke-miterlimit="10"/><path fill="none" stroke="#FFFF80" paint-order="fill stroke markers" d="m227 211.077 385 71.768" stroke-miterlimit="10"/><path fill="none" stroke="#FF8000" paint-order="fill stroke markers" d="m227 211.077-2314.212-431.393" stroke-miterlimit="10"/><path fill="none" stroke="#505050" paint-order="fill stroke markers" d="m612 282.845 2763.245 515.097" stroke-miterlimit="10"/><path fill="none" stroke="#FFFF80" paint-order="fill stroke markers" d="m227 195 385 92.4" stroke-miterlimit="10"/><path fill="none" stroke="#FF8000" paint-order="fill stroke markers" d="m227 195-2273.442-545.626" stroke-miterlimit="10"/><path fill="none" stroke="#505050" paint-order="fill stroke markers" d="m612 287.4 2737.66 657.038" stroke-miterlimit="10"/><path fill="none" stroke="#FFFF80" paint-order="fill stroke markers" d="m227 178.923 385 113.032" stroke-miterlimit="10"/><path fill="none" stroke="#FF8000" paint-order="fill stroke markers" d="m227 178.923-2227.89-654.086" stroke-miterlimit="10"/><path fill="none" stroke="#505050" paint-order="fill stroke markers" d="m612 291.955 2705.754 794.382" stroke-miterlimit="10"/><path fill="none" stroke="#FFFF80" paint-order="fill stroke markers" d="m227 160.359 385 136.856" stroke-miterlimit="10"/><path fill="none" stroke="#FF8000" paint-order="fill stroke markers" d="m227 160.359-2170.317-771.483" stroke-miterlimit="10"/><path fill="none" stroke="#505050" paint-order="fill stroke markers" d="m612 297.215 2662.03 946.272" stroke-miterlimit="10"/><path fill="none" stroke="#FFFF80" paint-order="fill stroke markers" d="m612 270.4 2405.953-1429.136" stroke-miterlimit="10"/><path fill="none" stroke="#FF8000" paint-order="fill stroke markers" d="m612 270.4-2405.953 1429.136" stroke-miterlimit="10"/><path fill="none" stroke="#FFFF80" paint-order="fill stroke markers" d="m612 277.585 2425.527-1410.009" stroke-miterlimit="10"/><path fill="none" stroke="#FF8000" paint-order="fill stroke markers" d="m612 277.585-2425.527 1410.009" stroke-miterlimit="10"/><path fill="none" stroke="#FFFF80" paint-order="fill stroke markers" d="m612 282.845 2439.856-1395.691" stroke-miterlimit="10"/><path fill="none" stroke="#FF8000" paint-order="fill stroke markers" d="m612 282.845-2439.856 1395.691" stroke-miterlimit="10"/><path fill="none" stroke="#FFFF80" paint-order="fill stroke markers" d="m612 287.4 2452.26-1383.075" stroke-miterlimit="10"/><path fill="none" stroke="#FF8000" paint-order="fill stroke markers" d="m612 287.4-2452.26 1383.075" stroke-miterlimit="10"/><path fill="none" stroke="#FFFF80" paint-order="fill stroke markers" d="M612 291.955 3076.66-1078.3" stroke-miterlimit="10"/><path fill="none" stroke="#FF8000" paint-order="fill stroke markers" d="m612 291.955-2464.66 1370.256" stroke-miterlimit="10"/><path fill="none" stroke="#FFFF80" paint-order="fill stroke markers" d="m612 297.215 2478.966-1355.2" stroke-miterlimit="10"/><path fill="none" stroke="#FF8000" paint-order="fill stroke markers" d="m612 297.215-2478.966 1355.2" stroke-miterlimit="10"/><path fill="#0F0" d="M164.5 192.5h5v5h-5z"/><path fill="none" stroke="gray" paint-order="fill stroke markers" d="M612 63v288" stroke-miterlimit="10" stroke-width="4" stroke-opacity=".5"/><path fill="none" stroke="#FFF" paint-order="fill stroke markers" d="M610 207h4" stroke-miterlimit="10"/><path fill="red" paint-order="stroke fill markers" d="m612 58 5 10h-10M612 356l5-10h-10"/><path fill="none" stroke="gray" paint-order="fill stroke markers" d="M227 147v120" stroke-miterlimit="10" stroke-width="4" stroke-opacity=".667"/><path fill="none" stroke="#FFF" paint-order="fill stroke markers" d="M225 207h4" stroke-miterlimit="10"/><path fill="red" paint-order="stroke fill markers" d="m227 142 5 10h-10M227 272l5-10h-10"/><path fill="none" stroke="#46230A" paint-order="fill stroke markers" d="M243 133H103M103 293V133M243 293H103" stroke-miterlimit="10" stroke-width="3"/></svg>