<svg version="1.1" xmlns="http://www.w3.org/2000/svg" xmlns:xlink="http://www.w3.org/1999/xlink" width="960" height="450"><defs/><g><rect fill="black" stroke="none" x="0" y="0" width="960" height="450"/><g/><path fill="none" stroke="rgb(128,128,128)" paint-order="fill stroke markers" d=" M 167 207 L 847 207 M 167 207 L 167 227" stroke-miterlimit="10" stroke-dasharray=""/><g transform="translate(167,227) rotate(0,0,0)"><text fill="rgb(128,128,128)" stroke="none" font-family="Arial" font-size="14px" font-style="normal" font-weight="normal" text-decoration="normal" x="0" y="0" text-anchor="middle" dominant-baseline="text-before-edge">0</text></g><path fill="none" stroke="rgb(128,128,128)" paint-order="fill stroke markers" d=" M 177 207 L 177 217 M 187 207 L 187 217 M 197 207 L 197 217 M 207 207 L 207 217 M 217 207 L 217 222 M 227 207 L 227 217 M 237 207 L 237 217 M 247 207 L 247 217 M 257 207 L 257 217 M 267 207 L 267 227" stroke-miterlimit="10" stroke-dasharray=""/><g transform="translate(267,227) rotate(0,0,0)"><text fill="rgb(128,128,128)" stroke="none" font-family="Arial" font-size="14px" font-style="normal" font-weight="normal" text-decoration="normal" x="0" y="0" text-anchor="middle" dominant-baseline="text-before-edge">100</text></g><path fill="none" stroke="rgb(128,128,128)" paint-order="fill stroke markers" d=" M 277 207 L 277 217 M 287 207 L 287 217 M 297 207 L 297 217 M 307 207 L 307 217 M 317 207 L 317 222 M 327 207 L 327 217 M 337 207 L 337 217 M 347 207 L 347 217 M 357 207 L 357 217 M 367 207 L 367 227" stroke-miterlimit="10" stroke-dasharray=""/><g transform="translate(367,227) rotate(0,0,0)"><text fill="rgb(128,128,128)" stroke="none" font-family="Arial" font-size="14px" font-style="normal" font-weight="normal" text-decoration="normal" x="0" y="0" text-anchor="middle" dominant-baseline="text-before-edge">200</text></g><path fill="none" stroke="rgb(128,128,128)" paint-order="fill stroke markers" d=" M 377 207 L 377 217 M 387 207 L 387 217 M 397 207 L 397 217 M 407 207 L 407 217 M 417 207 L 417 222 M 427 207 L 427 217 M 437 207 L 437 217 M 447 207 L 447 217 M 457 207 L 457 217 M 467 207 L 467 227" stroke-miterlimit="10" stroke-dasharray=""/><g transform="translate(467,227) rotate(0,0,0)"><text fill="rgb(128,128,128)" stroke="none" font-family="Arial" font-size="14px" font-style="normal" font-weight="normal" text-decoration="normal" x="0" y="0" text-anchor="middle" dominant-baseline="text-before-edge">300</text></g><path fill="none" stroke="rgb(128,128,128)" paint-order="fill stroke markers" d=" M 477 207 L 477 217 M 487 207 L 487 217 M 497 207 L 497 217 M 507 207 L 507 217 M 517 207 L 517 222 M 527 207 L 527 217 M 537 207 L 537 217 M 547 207 L 547 217 M 557 207 L 557 217 M 567 207 L 567 227" stroke-miterlimit="10" stroke-dasharray=""/><g transform="translate(567,227) rotate(0,0,0)"><text fill="rgb(128,128,128)" stroke="none" font-family="Arial" font-size="14px" font-style="normal" font-weight="normal" text-decoration="normal" x="0" y="0" text-anchor="middle" dominant-baseline="text-before-edge">400</text></g><path fill="none" stroke="rgb(128,128,128)" paint-order="fill stroke markers" d=" M 577 207 L 577 217 M 587 207 L 587 217 M 597 207 L 597 217 M 607 207 L 607 217 M 617 207 L 617 222 M 627 207 L 627 217 M 637 207 L 637 217 M 647 207 L 647 217 M 657 207 L 657 217 M 667 207 L 667 227" stroke-miterlimit="10" stroke-dasharray=""/><g transform="translate(667,227) rotate(0,0,0)"><text fill="rgb(128,128,128)" stroke="none" font-family="Arial" font-size="14px" font-style="normal" font-weight="normal" text-decoration="normal" x="0" y="0" text-anchor="middle" dominant-baseline="text-before-edge">500</text></g><path fill="none" stroke="rgb(128,128,128)" paint-order="fill stroke markers" d=" M 677 207 L 677 217 M 687 207 L 687 217 M 697 207 L 697 217 M 707 207 L 707 217 M 717 207 L 717 222 M 727 207 L 727 217 M 737 207 L 737 217 M 747 207 L 747 217 M 757 207 L 757 217 M 767 207 L 767 227" stroke-miterlimit="10" stroke-dasharray=""/><g transform="translate(767,227) rotate(0,0,0)"><text fill="rgb(128,128,128)" stroke="none" font-family="Arial" font-size="14px" font-style="normal" font-weight="normal" text-decoration="normal" x="0" y="0" text-anchor="middle" dominant-baseline="text-before-edge">600</text></g><path fill="none" stroke="rgb(128,128,128)" paint-order="fill stroke markers" d=" M 777 207 L 777 217 M 787 207 L 787 217 M 797 207 L 797 217 M 807 207 L 807 217 M 817 207 L 817 222 M 827 207 L 827 217 M 837 207 L 837 217 M 847 207 L 847 217" stroke-miterlimit="10" stroke-dasharray=""/><rect fill="rgb(0,255,0)" stroke="none" x="165" y="193" width="5" height="5"/><path fill="none" stroke="rgb(128,128,128)" paint-order="fill stroke markers" d=" M 612 63 L 612 351" stroke-miterlimit="10" stroke-width="4" stroke-opacity="0.5" stroke-dasharray=""/><path fill="none" stroke="rgb(255,255,255)" paint-order="fill stroke markers" d=" M 610 207 L 614 207" stroke-miterlimit="10" stroke-dasharray=""/><path fill="rgb(255,0,0)" stroke="none" paint-order="stroke fill markers" d=" M 612 58 L 617 68 L 607 68"/><path fill="rgb(255,0,0)" stroke="none" paint-order="stroke fill markers" d=" M 612 356 L 617 346 L 607 346"/><path fill="none" stroke="rgb(128,128,128)" paint-order="fill stroke markers" d=" M 227 147 L 227 267" stroke-miterlimit="10" stroke-width="4" stroke-opacity="0.6666666666666666" stroke-dasharray=""/><path fill="none" stroke="rgb(255,255,255)" paint-order="fill stroke markers" d=" M 225 207 L 229 207" stroke-miterlimit="10" stroke-dasharray=""/><path fill="rgb(255,0,0)" stroke="none" paint-order="stroke fill markers" d=" M 227 142 L 232 152 L 222 152"/><path fill="rgb(255,0,0)" stroke="none" paint-order="stroke fill markers" d=" M 227 272 L 232 262 L 222 262"/><path fill="none" stroke="rgb(70,35,10)" paint-order="fill stroke markers" d=" M 243 133 L 103 133" stroke-miterlimit="10" stroke-width="3" stroke-dasharray=""/><path fill="none" stroke="rgb(70,35,10)" paint-order="fill stroke markers" d=" M 103 293 L 103 133" stroke-miterlimit="10" stroke-width="3" stroke-dasharray=""/><path fill="none" stroke="rgb(70,35,10)" paint-order="fill stroke markers" d=" M 243 293 L 103 293" stroke-miterlimit="10" stroke-width="3" stroke-dasharray=""/><path fill="none" stroke="rgb(255,255,128)" paint-order="fill stroke markers" d=" M 167 195 L 167 293" stroke-miterlimit="10" stroke-dasharray=""/><path fill="none" stroke="rgb(255,255,128)" paint-order="fill stroke markers" d=" M 167 195 L 193.25902085824694 293" stroke-miterlimit="10" stroke-dasharray=""/><path fill="none" stroke="rgb(255,255,128)" paint-order="fill stroke markers" d=" M 167 195 L 223.58032638058077 293" stroke-miterlimit="10" stroke-dasharray=""/><path fill="none" stroke="rgb(255,255,128)" paint-order="fill stroke markers" d=" M 167 195 L 227 254.99999999999937" stroke-miterlimit="10" stroke-dasharray=""/><path fill="none" stroke="rgb(255,255,128)" paint-order="fill stroke markers" d=" M 167 195 L 227.00000000000003 229.64101615137588" stroke-miterlimit="10" stroke-dasharray=""/><path fill="none" stroke="rgb(255,255,128)" paint-order="fill stroke markers" d=" M 167 195 L 227 211.07695154586665" stroke-miterlimit="10" stroke-dasharray=""/><path fill="none" stroke="rgb(255,255,128)" paint-order="fill stroke markers" d=" M 167 195 L 227 195" stroke-miterlimit="10" stroke-dasharray=""/><path fill="none" stroke="rgb(255,255,128)" paint-order="fill stroke markers" d=" M 167 195 L 227 178.92304845413352" stroke-miterlimit="10" stroke-dasharray=""/><path fill="none" stroke="rgb(255,255,128)" paint-order="fill stroke markers" d=" M 167 195 L 227.00000000000003 160.35898384862156" stroke-miterlimit="10" stroke-dasharray=""/><path fill="none" stroke="rgb(255,255,128)" paint-order="fill stroke markers" d=" M 167 195 L 228.99999999999648 133" stroke-miterlimit="10" stroke-dasharray=""/><path fill="none" stroke="rgb(255,255,128)" paint-order="fill stroke markers" d=" M 167 195 L 202.79571668975447 133" stroke-miterlimit="10" stroke-dasharray=""/><path fill="none" stroke="rgb(255,255,128)" paint-order="fill stroke markers" d=" M 167 195 L 183.61284993073002 133" stroke-miterlimit="10" stroke-dasharray=""/><path fill="none" stroke="rgb(255,255,128)" paint-order="fill stroke markers" d=" M 167 195 L 167 133" stroke-miterlimit="10" stroke-dasharray=""/><path fill="none" stroke="rgb(255,255,128)" paint-order="fill stroke markers" d=" M 167 195 L 150.3871500692685 133" stroke-miterlimit="10" stroke-dasharray=""/><path fill="none" stroke="rgb(255,255,128)" paint-order="fill stroke markers" d=" M 167 195 L 131.20428331024166 133" stroke-miterlimit="10" stroke-dasharray=""/><path fill="none" stroke="rgb(255,255,128)" paint-order="fill stroke markers" d=" M 167 195 L 105.00000000000064 133" stroke-miterlimit="10" stroke-dasharray=""/><path fill="none" stroke="rgb(255,255,128)" paint-order="fill stroke markers" d=" M 167 195 L 103 158.04958277186307" stroke-miterlimit="10" stroke-dasharray=""/><path fill="none" stroke="rgb(255,255,128)" paint-order="fill stroke markers" d=" M 167 195 L 103 177.8512516844084" stroke-miterlimit="10" stroke-dasharray=""/><path fill="none" stroke="rgb(255,255,128)" paint-order="fill stroke markers" d=" M 167 195 L 103 195" stroke-miterlimit="10" stroke-dasharray=""/><path fill="none" stroke="rgb(255,255,128)" paint-order="fill stroke markers" d=" M 167 195 L 103 212.14874831559177" stroke-miterlimit="10" stroke-dasharray=""/><path fill="none" stroke="rgb(255,255,128)" paint-order="fill stroke markers" d=" M 167 195 L 103 231.95041722813437" stroke-miterlimit="10" stroke-dasharray=""/><path fill="none" stroke="rgb(255,255,128)" paint-order="fill stroke markers" d=" M 167 195 L 103 258.9999999999965" stroke-miterlimit="10" stroke-dasharray=""/><path fill="none" stroke="rgb(255,255,128)" paint-order="fill stroke markers" d=" M 167 195 L 110.41967361941536 293" stroke-miterlimit="10" stroke-dasharray=""/><path fill="none" stroke="rgb(255,255,128)" paint-order="fill stroke markers" d=" M 167 195 L 140.74097914175158 293" stroke-miterlimit="10" stroke-dasharray=""/><path fill="none" stroke="rgb(255,255,128)" paint-order="fill stroke markers" d=" M 227 254.99999999999937 L 612 270.40000000000396" stroke-miterlimit="10" stroke-dasharray=""/><path fill="none" stroke="rgb(255,128,0)" paint-order="fill stroke markers" d=" M 227 254.99999999999937 L -1756.4139030627503 175.6634438774655" stroke-miterlimit="10" stroke-dasharray=""/><path fill="none" stroke="rgb(80,80,80)" paint-order="fill stroke markers" d=" M 612 270.40000000000396 L 2995.4939669349596 365.73975867743076" stroke-miterlimit="10" stroke-dasharray=""/><path fill="none" stroke="rgb(255,255,128)" paint-order="fill stroke markers" d=" M 227.00000000000003 229.64101615137588 L 612 277.5850454237851" stroke-miterlimit="10" stroke-dasharray=""/><path fill="none" stroke="rgb(255,128,0)" paint-order="fill stroke markers" d=" M 227.00000000000003 229.64101615137588 L -1717.6207200572762 -12.522497423064863" stroke-miterlimit="10" stroke-dasharray=""/><path fill="none" stroke="rgb(80,80,80)" paint-order="fill stroke markers" d=" M 612 277.5850454237851 L 2986.2463111778775 573.2498107303354" stroke-miterlimit="10" stroke-dasharray=""/><path fill="none" stroke="rgb(255,255,128)" paint-order="fill stroke markers" d=" M 227 211.07695154586665 L 612 282.84486372867264" stroke-miterlimit="10" stroke-dasharray=""/><path fill="none" stroke="rgb(255,128,0)" paint-order="fill stroke markers" d=" M 227 211.07695154586665 L -1681.2061794801173 -144.63207057261897" stroke-miterlimit="10" stroke-dasharray=""/><path fill="none" stroke="rgb(80,80,80)" paint-order="fill stroke markers" d=" M 612 282.84486372867264 L 2969.239048538357 722.2581754933008" stroke-miterlimit="10" stroke-dasharray=""/><path fill="none" stroke="rgb(255,255,128)" paint-order="fill stroke markers" d=" M 227 195 L 612 287.4" stroke-miterlimit="10" stroke-dasharray=""/><path fill="none" stroke="rgb(255,128,0)" paint-order="fill stroke markers" d=" M 227 195 L -1644.8455563124962 -254.24293351499904" stroke-miterlimit="10" stroke-dasharray=""/><path fill="none" stroke="rgb(80,80,80)" paint-order="fill stroke markers" d=" M 612 287.4 L 2948.0632542779954 848.0551810267185" stroke-miterlimit="10" stroke-dasharray=""/><path fill="none" stroke="rgb(255,255,128)" paint-order="fill stroke markers" d=" M 227 178.92304845413352 L 612 291.95513627132596" stroke-miterlimit="10" stroke-dasharray=""/><path fill="none" stroke="rgb(255,128,0)" paint-order="fill stroke markers" d=" M 227 178.92304845413352 L -1604.6163995927204 -358.8209144709947" stroke-miterlimit="10" stroke-dasharray=""/><path fill="none" stroke="rgb(80,80,80)" paint-order="fill stroke markers" d=" M 612 291.95513627132596 L 2921.479423095991 969.9948270853125" stroke-miterlimit="10" stroke-dasharray=""/><path fill="none" stroke="rgb(255,255,128)" paint-order="fill stroke markers" d=" M 227.00000000000003 160.35898384862156 L 612 297.2149545762323" stroke-miterlimit="10" stroke-dasharray=""/><path fill="none" stroke="rgb(255,128,0)" paint-order="fill stroke markers" d=" M 227.00000000000003 160.35898384862156 L -1554.1720708799305 -472.7943480817201" stroke-miterlimit="10" stroke-dasharray=""/><path fill="none" stroke="rgb(80,80,80)" paint-order="fill stroke markers" d=" M 612 297.2149545762323 L 2884.8857020070377 1105.1577574361804" stroke-miterlimit="10" stroke-dasharray=""/><path fill="none" stroke="rgb(255,255,128)" paint-order="fill stroke markers" d=" M 612 270.40000000000396 L 2662.872393235313 -947.8182015818304" stroke-miterlimit="10" stroke-dasharray=""/><path fill="none" stroke="rgb(255,128,0)" paint-order="fill stroke markers" d=" M 612 270.40000000000396 L -1438.8723932353137 1488.6182015818374" stroke-miterlimit="10" stroke-dasharray=""/><path fill="none" stroke="rgb(255,255,128)" paint-order="fill stroke markers" d=" M 612 277.5850454237851 L 2680.4742295150945 -924.8614446195237" stroke-miterlimit="10" stroke-dasharray=""/><path fill="none" stroke="rgb(255,128,0)" paint-order="fill stroke markers" d=" M 612 277.5850454237851 L -1456.4742295150945 1480.0315354670934" stroke-miterlimit="10" stroke-dasharray=""/><path fill="none" stroke="rgb(255,255,128)" paint-order="fill stroke markers" d=" M 612 282.84486372867264 L 2693.365305879731 -907.7761733734576" stroke-miterlimit="10" stroke-dasharray=""/><path fill="none" stroke="rgb(255,128,0)" paint-order="fill stroke markers" d=" M 612 282.84486372867264 L -1469.3653058797308 1473.465900830803" stroke-miterlimit="10" stroke-dasharray=""/><path fill="none" stroke="rgb(255,255,128)" paint-order="fill stroke markers" d=" M 612 287.4 L 2704.5305063094984 -892.7872055585566" stroke-miterlimit="10" stroke-dasharray=""/><path fill="none" stroke="rgb(255,128,0)" paint-order="fill stroke markers" d=" M 612 287.4 L -1480.5305063094984 1467.587205558557" stroke-miterlimit="10" stroke-dasharray=""/><path fill="none" stroke="rgb(255,255,128)" paint-order="fill stroke markers" d=" M 612 291.95513627132596 L 2715.6946827988654 -877.6181660858624" stroke-miterlimit="10" stroke-dasharray=""/><path fill="none" stroke="rgb(255,128,0)" paint-order="fill stroke markers" d=" M 612 291.95513627132596 L -1491.6946827988654 1461.5284386285136" stroke-miterlimit="10" stroke-dasharray=""/><path fill="none" stroke="rgb(255,255,128)" paint-order="fill stroke markers" d=" M 612 297.2149545762323 L 2728.581962137183 -859.8769971012166" stroke-miterlimit="10" stroke-dasharray=""/><path fill="none" stroke="rgb(255,128,0)" paint-order="fill stroke markers" d=" M 612 297.2149545762323 L -1504.581962137183 1454.3069062536804" stroke-miterlimit="10" stroke-dasharray=""/><rect fill="rgb(0,255,0)" stroke="none" x="165" y="193" width="5" height="5"/><path fill="none" stroke="rgb(128,128,128)" paint-order="fill stroke markers" d=" M 612 63 L 612 351" stroke-miterlimit="10" stroke-width="4" stroke-opacity="0.5" stroke-dasharray=""/><path fill="none" stroke="rgb(255,255,255)" paint-order="fill stroke markers" d=" M 610 207 L 614 207" stroke-miterlimit="10" stroke-dasharray=""/><path fill="rgb(255,0,0)" stroke="none" paint-order="stroke fill markers" d=" M 612 58 L 617 68 L 607 68"/><path fill="rgb(255,0,0)" stroke="none" paint-order="stroke fill markers" d=" M 612 356 L 617 346 L 607 346"/><path fill="none" stroke="rgb(128,128,128)" paint-order="fill stroke markers" d=" M 227 147 L 227 267" stroke-miterlimit="10" stroke-width="4" stroke-opacity="0.6666666666666666" stroke-dasharray=""/><path fill="none" stroke="rgb(255,255,255)" paint-order="fill stroke markers" d=" M 225 207 L 229 207" stroke-miterlimit="10" stroke-dasharray=""/><path fill="rgb(255,0,0)" stroke="none" paint-order="stroke fill markers" d=" M 227 142 L 232 152 L 222 152"/><path fill="rgb(255,0,0)" stroke="none" paint-order="stroke fill markers" d=" M 227 272 L 232 262 L 222 262"/><path fill="none" stroke="rgb(70,35,10)" paint-order="fill stroke markers" d=" M 243 133 L 103 133" stroke-miterlimit="10" stroke-width="3" stroke-dasharray=""/><path fill="none" stroke="rgb(70,35,10)" paint-order="fill stroke markers" d=" M 103 293 L 103 133" stroke-miterlimit="10" stroke-width="3" stroke-dasharray=""/><path fill="none" stroke="rgb(70,35,10)" paint-order="fill stroke markers" d=" M 243 293 L 103 293" stroke-miterlimit="10" stroke-width="3" stroke-dasharray=""/></g></svg>