<svg version="1.1" xmlns="http://www.w3.org/2000/svg" xmlns:xlink="http://www.w3.org/1999/xlink" width="1130" height="529"><defs/><g><rect fill="black" stroke="none" x="0" y="0" width="1130" height="529"/><g/><rect fill="rgb(0,255,0)" stroke="none" x="382" y="178" width="5" height="5"/><rect fill="rgb(0,255,0)" stroke="none" x="382" y="198" width="5" height="5"/><rect fill="rgb(0,255,0)" stroke="none" x="382" y="158" width="5" height="5"/><rect fill="rgb(0,255,0)" stroke="none" x="402" y="198" width="5" height="5"/><path fill="none" stroke="rgb(168,168,168)" paint-order="fill stroke markers" d=" M 285 260 L 564 260" stroke-miterlimit="10" stroke-dasharray=""/><path fill="none" stroke="rgb(168,168,168)" paint-order="fill stroke markers" d=" M 423.1954312487626 16.622566595543475 L 564 260" stroke-miterlimit="10" stroke-dasharray=""/><path fill="none" stroke="rgb(128,128,128)" paint-order="fill stroke markers" d=" M 644 260 A 80 80 0 1 1 643.9999600000033 259.92000001333327 M 484 260 L 494 260" stroke-miterlimit="10" stroke-dasharray=""/><g transform="translate(494,260) rotate(270,0,0)"><text fill="rgb(128,128,128)" stroke="none" font-family="Arial" font-size="10px" font-style="normal" font-weight="bold" text-decoration="normal" x="0" y="0" text-anchor="middle" dominant-baseline="text-before-edge">0</text></g><path fill="none" stroke="rgb(128,128,128)" paint-order="fill stroke markers" d=" M 484.3044241526604 253.02754058018738 L 489.2853976431191 253.46331929392565 M 485.21537975902334 246.1081457866456 L 493.093841783121 247.49733120798103 M 486.72593389687455 239.29447639179833 L 491.55556302831985 240.58857161731095 M 488.82459033712735 232.6383885339465 L 496.3421313034146 235.37454968055187 M 491.495377037068 226.19053906074407 L 496.02691597225123 228.30363036944755 M 494.7179676972449 220.00000000000003 L 503.37822173508926 225.00000000000003" stroke-miterlimit="10" stroke-dasharray=""/><g transform="translate(503.37822173508926,225.00000000000003) rotate(299.99999999999994,0,0)"><text fill="rgb(128,128,128)" stroke="none" font-family="Arial" font-size="10px" font-style="normal" font-weight="bold" text-decoration="normal" x="0" y="0" text-anchor="middle" dominant-baseline="text-before-edge">30</text></g><path fill="none" stroke="rgb(128,128,128)" paint-order="fill stroke markers" d=" M 498.46783645688066 214.1138850919163 L 502.5635966783256 216.98176727367155 M 502.71644455048175 208.57699122507685 L 508.8448000954336 213.71929210256917 M 507.4314575050762 203.4314575050762 L 510.9669914110089 206.96699141100893 M 512.5769912250769 198.71644455048175 L 517.7192921025692 204.84480009543358 M 518.1138850919162 194.46783645688066 L 520.9817672736715 198.56359667832564 M 524 190.71796769724494 L 529 199.3782217350893" stroke-miterlimit="10" stroke-dasharray=""/><g transform="translate(529,199.3782217350893) rotate(329.99999999999994,0,0)"><text fill="rgb(128,128,128)" stroke="none" font-family="Arial" font-size="10px" font-style="normal" font-weight="bold" text-decoration="normal" x="0" y="0" text-anchor="middle" dominant-baseline="text-before-edge">60</text></g><path fill="none" stroke="rgb(128,128,128)" paint-order="fill stroke markers" d=" M 530.1905390607441 187.495377037068 L 532.3036303694475 192.02691597225123 M 536.6383885339466 184.82459033712732 L 539.3745496805518 192.3421313034146 M 543.2944763917983 182.72593389687455 L 544.588571617311 187.55556302831988 M 550.1081457866455 181.21537975902336 L 551.497331207981 189.09384178312104 M 557.0275405801873 180.30442415266037 L 557.4633192939257 185.2853976431191 M 564 180 L 564 190" stroke-miterlimit="10" stroke-dasharray=""/><g transform="translate(564,190) rotate(360,0,0)"><text fill="rgb(128,128,128)" stroke="none" font-family="Arial" font-size="10px" font-style="normal" font-weight="bold" text-decoration="normal" x="0" y="0" text-anchor="middle" dominant-baseline="text-before-edge">90</text></g><path fill="none" stroke="rgb(128,128,128)" paint-order="fill stroke markers" d=" M 570.9724594198126 180.30442415266037 L 570.5366807060743 185.2853976431191 M 577.8918542133543 181.21537975902334 L 576.502668792019 189.093841783121 M 584.7055236082016 182.72593389687452 L 583.411428382689 187.55556302831985 M 591.3616114660534 184.82459033712732 L 588.6254503194481 192.3421313034146 M 597.8094609392559 187.49537703706798 L 595.6963696305525 192.02691597225123 M 604 190.7179676972449 L 599 199.37822173508926" stroke-miterlimit="10" stroke-dasharray=""/><g transform="translate(599,199.37822173508926) rotate(390,0,0)"><text fill="rgb(128,128,128)" stroke="none" font-family="Arial" font-size="10px" font-style="normal" font-weight="bold" text-decoration="normal" x="0" y="0" text-anchor="middle" dominant-baseline="text-before-edge">120</text></g><path fill="none" stroke="rgb(128,128,128)" paint-order="fill stroke markers" d=" M 609.8861149080836 194.4678364568806 L 607.0182327263284 198.56359667832558 M 615.4230087749231 198.71644455048175 L 610.2807078974308 204.84480009543358 M 620.5685424949238 203.4314575050762 L 617.033008588991 206.96699141100893 M 625.2835554495182 208.57699122507682 L 619.1551999045664 213.71929210256914 M 629.5321635431193 214.11388509191627 L 625.4364033216743 216.98176727367152 M 633.2820323027552 220.00000000000003 L 624.6217782649107 225.00000000000003" stroke-miterlimit="10" stroke-dasharray=""/><g transform="translate(624.6217782649107,225.00000000000003) rotate(420,0,0)"><text fill="rgb(128,128,128)" stroke="none" font-family="Arial" font-size="10px" font-style="normal" font-weight="bold" text-decoration="normal" x="0" y="0" text-anchor="middle" dominant-baseline="text-before-edge">150</text></g><path fill="none" stroke="rgb(128,128,128)" paint-order="fill stroke markers" d=" M 636.504622962932 226.19053906074407 L 631.9730840277488 228.30363036944755 M 639.1754096628727 232.6383885339465 L 631.6578686965854 235.37454968055187 M 641.2740661031255 239.29447639179836 L 636.4444369716801 240.58857161731095 M 642.7846202409767 246.10814578664557 L 634.906158216879 247.497331207981 M 643.6955758473397 253.02754058018735 L 638.714602356881 253.46331929392562 M 644 260 L 634 260" stroke-miterlimit="10" stroke-dasharray=""/><g transform="translate(634,260) rotate(450,0,0)"><text fill="rgb(128,128,128)" stroke="none" font-family="Arial" font-size="10px" font-style="normal" font-weight="bold" text-decoration="normal" x="0" y="0" text-anchor="middle" dominant-baseline="text-before-edge">180</text></g><path fill="none" stroke="rgb(128,128,128)" paint-order="fill stroke markers" d=" M 643.6955758473397 266.97245941981265 L 638.714602356881 266.5366807060743 M 642.7846202409767 273.8918542133544 L 634.906158216879 272.50266879201894 M 641.2740661031255 280.70552360820164 L 636.4444369716801 279.411428382689 M 639.1754096628727 287.36161146605343 L 631.6578686965854 284.6254503194481 M 636.504622962932 293.8094609392559 L 631.9730840277488 291.6963696305524 M 633.282032302755 300 L 624.6217782649107 295" stroke-miterlimit="10" stroke-dasharray=""/><g transform="translate(624.6217782649107,295) rotate(480.00000000000006,0,0)"><text fill="rgb(128,128,128)" stroke="none" font-family="Arial" font-size="10px" font-style="normal" font-weight="bold" text-decoration="normal" x="0" y="0" text-anchor="middle" dominant-baseline="text-before-edge">150</text></g><path fill="none" stroke="rgb(128,128,128)" paint-order="fill stroke markers" d=" M 629.5321635431194 305.88611490808364 L 625.4364033216744 303.0182327263284 M 625.2835554495182 311.4230087749231 L 619.1551999045664 306.28070789743083 M 620.5685424949238 316.5685424949238 L 617.033008588991 313.03300858899104 M 615.4230087749231 321.28355544951825 L 610.2807078974308 315.1551999045664 M 609.8861149080838 325.5321635431193 L 607.0182327263285 321.43640332167433 M 604 329.28203230275506 L 599 320.6217782649107" stroke-miterlimit="10" stroke-dasharray=""/><g transform="translate(599,320.6217782649107) rotate(510,0,0)"><text fill="rgb(128,128,128)" stroke="none" font-family="Arial" font-size="10px" font-style="normal" font-weight="bold" text-decoration="normal" x="0" y="0" text-anchor="middle" dominant-baseline="text-before-edge">120</text></g><path fill="none" stroke="rgb(128,128,128)" paint-order="fill stroke markers" d=" M 597.809460939256 332.504622962932 L 595.6963696305525 327.9730840277487 M 591.3616114660535 335.17540966287265 L 588.6254503194482 327.6578686965854 M 584.7055236082017 337.27406610312545 L 583.4114283826891 332.44443697168015 M 577.8918542133545 338.78462024097666 L 576.502668792019 330.90615821687896 M 570.9724594198127 339.6955758473396 L 570.5366807060743 334.7146023568809 M 564 340 L 564 330" stroke-miterlimit="10" stroke-dasharray=""/><g transform="translate(564,330) rotate(540,0,0)"><text fill="rgb(128,128,128)" stroke="none" font-family="Arial" font-size="10px" font-style="normal" font-weight="bold" text-decoration="normal" x="0" y="0" text-anchor="middle" dominant-baseline="text-before-edge">90</text></g><path fill="none" stroke="rgb(128,128,128)" paint-order="fill stroke markers" d=" M 557.0275405801874 339.6955758473396 L 557.4633192939257 334.7146023568809 M 550.1081457866457 338.78462024097666 L 551.497331207981 330.906158216879 M 543.2944763917984 337.2740661031255 L 544.588571617311 332.44443697168015 M 536.6383885339466 335.1754096628727 L 539.3745496805519 327.6578686965854 M 530.1905390607441 332.504622962932 L 532.3036303694475 327.97308402774877 M 523.9999999999999 329.28203230275506 L 529 320.6217782649107" stroke-miterlimit="10" stroke-dasharray=""/><g transform="translate(529,320.6217782649107) rotate(570.0000000000001,0,0)"><text fill="rgb(128,128,128)" stroke="none" font-family="Arial" font-size="10px" font-style="normal" font-weight="bold" text-decoration="normal" x="0" y="0" text-anchor="middle" dominant-baseline="text-before-edge">60</text></g><path fill="none" stroke="rgb(128,128,128)" paint-order="fill stroke markers" d=" M 518.1138850919164 325.5321635431194 L 520.9817672736716 321.43640332167445 M 512.5769912250768 321.2835554495182 L 517.7192921025692 315.1551999045664 M 507.43145750507625 316.56854249492386 L 510.966991411009 313.03300858899115 M 502.71644455048175 311.4230087749231 L 508.8448000954336 306.28070789743083 M 498.4678364568807 305.88611490808375 L 502.56359667832567 303.01823272632856 M 494.7179676972449 300 L 503.37822173508926 295" stroke-miterlimit="10" stroke-dasharray=""/><g transform="translate(503.37822173508926,295) rotate(600.0000000000001,0,0)"><text fill="rgb(128,128,128)" stroke="none" font-family="Arial" font-size="10px" font-style="normal" font-weight="bold" text-decoration="normal" x="0" y="0" text-anchor="middle" dominant-baseline="text-before-edge">30</text></g><path fill="none" stroke="rgb(128,128,128)" paint-order="fill stroke markers" d=" M 491.49537703706807 293.8094609392561 L 496.0269159722513 291.69636963055257 M 488.82459033712735 287.3616114660535 L 496.3421313034146 284.62545031944813 M 486.72593389687455 280.70552360820164 L 491.55556302831985 279.41142838268905 M 485.21537975902334 273.89185421335446 L 493.09384178312104 272.502668792019 M 484.3044241526604 266.97245941981265 L 489.2853976431191 266.5366807060744" stroke-miterlimit="10" stroke-dasharray=""/><rect fill="red" stroke="none" x="562" y="258" width="3" height="3"/><rect fill="rgb(255,0,255)" stroke="none" x="482" y="258" width="3" height="3"/><rect fill="rgb(255,128,0)" stroke="none" x="381.9999999999966" y="177.99999999999542" width="5" height="5" fill-opacity="NaN"/><rect fill="rgb(255,255,128)" stroke="none" x="382.00000000000176" y="178.0000000000097" width="5" height="5" fill-opacity="NaN"/><rect fill="rgb(255,128,0)" stroke="none" x="381.99999999998636" y="177.999999999982" width="5" height="5" fill-opacity="NaN"/><rect fill="rgb(255,255,128)" stroke="none" x="382.0000000000359" y="178.00000000004349" width="5" height="5" fill-opacity="NaN"/><rect fill="rgb(255,128,0)" stroke="none" x="381.9999999999491" y="177.99999999996712" width="5" height="5" fill-opacity="NaN"/><rect fill="rgb(255,128,0)" stroke="none" x="381.9999999999478" y="177.99999999996632" width="5" height="5" fill-opacity="NaN"/><rect fill="rgb(255,255,128)" stroke="none" x="382.00000000008725" y="178.0000000000223" width="5" height="5" fill-opacity="NaN"/><rect fill="rgb(255,128,0)" stroke="none" x="381.99999999997976" y="177.99999999999915" width="5" height="5" fill-opacity="NaN"/><rect fill="rgb(255,128,0)" stroke="none" x="381.999999999969" y="177.99999999999866" width="5" height="5" fill-opacity="NaN"/><rect fill="rgb(255,255,128)" stroke="none" x="382.0000000000148" y="177.99999999999278" width="5" height="5" fill-opacity="NaN"/><rect fill="rgb(255,255,128)" stroke="none" x="382.00000000001177" y="177.99999999999375" width="5" height="5" fill-opacity="NaN"/><rect fill="rgb(255,128,0)" stroke="none" x="381.99999999994344" y="178.00000000002828" width="5" height="5" fill-opacity="NaN"/><rect fill="rgb(255,255,128)" stroke="none" x="382.0000000000618" y="177.9999999999405" width="5" height="5" fill-opacity="NaN"/><rect fill="rgb(255,128,0)" stroke="none" x="381.999999999944" y="178.0000000000634" width="5" height="5" fill-opacity="NaN"/><rect fill="rgb(255,255,128)" stroke="none" x="382.000000000029" y="177.99999999993796" width="5" height="5" fill-opacity="NaN"/><rect fill="rgb(255,128,0)" stroke="none" x="381.9999999999998" y="178.00000000000273" width="5" height="5" fill-opacity="NaN"/><rect fill="rgb(255,255,128)" stroke="none" x="382.0000000000181" y="177.9999999999326" width="5" height="5" fill-opacity="NaN"/><rect fill="rgb(255,128,0)" stroke="none" x="382.0000000000073" y="178.00000000005912" width="5" height="5" fill-opacity="NaN"/><rect fill="rgb(255,255,128)" stroke="none" x="381.9999999999962" y="177.9999999999299" width="5" height="5" fill-opacity="NaN"/><rect fill="rgb(255,128,0)" stroke="none" x="382.0000000000185" y="178.0000000000149" width="5" height="5" fill-opacity="NaN"/><rect fill="rgb(255,128,0)" stroke="none" x="382.0000000000271" y="178.00000000003413" width="5" height="5" fill-opacity="NaN"/><rect fill="rgb(255,128,0)" stroke="none" x="382.0000000000261" y="178.00000000003246" width="5" height="5" fill-opacity="NaN"/><rect fill="rgb(255,255,128)" stroke="none" x="381.9999999999975" y="178.00000000000267" width="5" height="5" fill-opacity="NaN"/><rect fill="rgb(255,128,0)" stroke="none" x="382.0000000000143" y="178.0000000000151" width="5" height="5" fill-opacity="NaN"/><rect fill="rgb(255,255,128)" stroke="none" x="381.9999999999084" y="177.99999999996174" width="5" height="5" fill-opacity="NaN"/><rect fill="rgb(255,128,0)" stroke="none" x="382.0000000001101" y="178.00000000002348" width="5" height="5" fill-opacity="NaN"/><rect fill="rgb(255,255,128)" stroke="none" x="381.99999999990223" y="177.99999999999685" width="5" height="5" fill-opacity="NaN"/><rect fill="rgb(255,128,0)" stroke="none" x="382.0000000001052" y="177.9999999999882" width="5" height="5" fill-opacity="NaN"/><rect fill="rgb(255,255,128)" stroke="none" x="381.9999999999571" y="178.0000000000202" width="5" height="5" fill-opacity="NaN"/><rect fill="rgb(255,128,0)" stroke="none" x="382.00000000005866" y="177.9999999999794" width="5" height="5" fill-opacity="NaN"/><rect fill="rgb(255,255,128)" stroke="none" x="381.99999999994964" y="178.00000000004658" width="5" height="5" fill-opacity="NaN"/><rect fill="rgb(255,255,128)" stroke="none" x="381.9999999999586" y="178.00000000003854" width="5" height="5" fill-opacity="NaN"/><rect fill="rgb(255,128,0)" stroke="none" x="382.00000000006213" y="177.99999999991087" width="5" height="5" fill-opacity="NaN"/><rect fill="rgb(255,255,128)" stroke="none" x="381.9999999999421" y="178.00000000012557" width="5" height="5" fill-opacity="NaN"/><rect fill="rgb(255,128,0)" stroke="none" x="382.0000000000035" y="177.99999999995103" width="5" height="5" fill-opacity="NaN"/><rect fill="rgb(255,255,128)" stroke="none" x="381.9999999999916" y="198.0000000000131" width="5" height="5" fill-opacity="NaN"/><rect fill="rgb(255,128,0)" stroke="none" x="381.99999999996294" y="197.99999999993167" width="5" height="5" fill-opacity="NaN"/><rect fill="rgb(255,255,128)" stroke="none" x="382.0000000000047" y="198.00000000000665" width="5" height="5" fill-opacity="NaN"/><rect fill="rgb(255,255,128)" stroke="none" x="382.00000000000284" y="198.00000000000443" width="5" height="5" fill-opacity="NaN"/><rect fill="rgb(255,128,0)" stroke="none" x="381.99999999993247" y="197.99999999994236" width="5" height="5" fill-opacity="NaN"/><rect fill="rgb(255,255,128)" stroke="none" x="382.00000000002905" y="198.00000000000185" width="5" height="5" fill-opacity="NaN"/><rect fill="rgb(255,255,128)" stroke="none" x="382.00000000004025" y="198.00000000000637" width="5" height="5" fill-opacity="NaN"/><rect fill="rgb(255,128,0)" stroke="none" x="381.9999999999924" y="197.99999999999605" width="5" height="5" fill-opacity="NaN"/><rect fill="rgb(255,128,0)" stroke="none" x="381.99999999999187" y="197.99999999999596" width="5" height="5" fill-opacity="NaN"/><rect fill="rgb(255,255,128)" stroke="none" x="382.00000000000955" y="197.99999999999372" width="5" height="5" fill-opacity="NaN"/><rect fill="rgb(255,128,0)" stroke="none" x="381.9999999999628" y="198.00000000000807" width="5" height="5" fill-opacity="NaN"/><rect fill="rgb(255,128,0)" stroke="none" x="381.99999999996834" y="198.0000000000051" width="5" height="5" fill-opacity="NaN"/><rect fill="rgb(255,255,128)" stroke="none" x="382.0000000000941" y="197.9999999999121" width="5" height="5" fill-opacity="NaN"/><rect fill="rgb(255,128,0)" stroke="none" x="381.99999999995543" y="198.00000000005716" width="5" height="5" fill-opacity="NaN"/><rect fill="rgb(255,255,128)" stroke="none" x="382.0000000000303" y="197.99999999994634" width="5" height="5" fill-opacity="NaN"/><rect fill="rgb(255,128,0)" stroke="none" x="382.000000000003" y="198.00000000000682" width="5" height="5" fill-opacity="NaN"/><rect fill="rgb(255,255,128)" stroke="none" x="382.00000000000716" y="197.99999999999042" width="5" height="5" fill-opacity="NaN"/><rect fill="rgb(255,255,128)" stroke="none" x="382.0000000000073" y="197.9999999999892" width="5" height="5" fill-opacity="NaN"/><rect fill="rgb(255,255,128)" stroke="none" x="382.00000000000716" y="197.99999999998772" width="5" height="5" fill-opacity="NaN"/><rect fill="rgb(255,128,0)" stroke="none" x="382.000000000017" y="198.00000000002518" width="5" height="5" fill-opacity="NaN"/><rect fill="rgb(255,128,0)" stroke="none" x="382.0000000000222" y="198.00000000003695" width="5" height="5" fill-opacity="NaN"/><rect fill="rgb(255,128,0)" stroke="none" x="382.0000000000147" y="198.00000000002595" width="5" height="5" fill-opacity="NaN"/><rect fill="rgb(255,255,128)" stroke="none" x="381.9999999999653" y="197.9999999999744" width="5" height="5" fill-opacity="NaN"/><rect fill="rgb(255,255,128)" stroke="none" x="381.9999999999892" y="197.99999999999199" width="5" height="5" fill-opacity="NaN"/><rect fill="rgb(255,255,128)" stroke="none" x="381.9999999999576" y="197.99999999997607" width="5" height="5" fill-opacity="NaN"/><rect fill="rgb(255,128,0)" stroke="none" x="382.0000000001154" y="198.00000000002441" width="5" height="5" fill-opacity="NaN"/><rect fill="rgb(255,255,128)" stroke="none" x="381.9999999998794" y="197.99999999999417" width="5" height="5" fill-opacity="NaN"/><rect fill="rgb(255,128,0)" stroke="none" x="382.00000000009277" y="197.99999999998516" width="5" height="5" fill-opacity="NaN"/><rect fill="rgb(255,128,0)" stroke="none" x="382.00000000000415" y="198.00000000000426" width="5" height="5" fill-opacity="NaN"/><rect fill="rgb(255,255,128)" stroke="none" x="381.9999999999776" y="198.0000000000148" width="5" height="5" fill-opacity="NaN"/><rect fill="rgb(255,255,128)" stroke="none" x="381.9999999999661" y="198.00000000002188" width="5" height="5" fill-opacity="NaN"/><rect fill="rgb(255,255,128)" stroke="none" x="381.9999999999916" y="197.99999999999957" width="5" height="5" fill-opacity="NaN"/><rect fill="rgb(255,128,0)" stroke="none" x="382.0000000000435" y="197.9999999999355" width="5" height="5" fill-opacity="NaN"/><rect fill="rgb(255,255,128)" stroke="none" x="381.99999999998107" y="198.00000000004755" width="5" height="5" fill-opacity="NaN"/><rect fill="rgb(255,128,0)" stroke="none" x="382.0000000000085" y="197.9999999999687" width="5" height="5" fill-opacity="NaN"/><rect fill="rgb(255,128,0)" stroke="none" x="381.99999999999454" y="157.99999999997942" width="5" height="5" fill-opacity="NaN"/><rect fill="rgb(255,128,0)" stroke="none" x="381.999999999991" y="157.99999999996882" width="5" height="5" fill-opacity="NaN"/><rect fill="rgb(255,255,128)" stroke="none" x="382.00000000004286" y="158.00000000006182" width="5" height="5" fill-opacity="NaN"/><rect fill="rgb(255,128,0)" stroke="none" x="381.9999999999825" y="157.9999999999871" width="5" height="5" fill-opacity="NaN"/><rect fill="rgb(255,255,128)" stroke="none" x="382.0000000000069" y="158.00000000000853" width="5" height="5" fill-opacity="NaN"/><rect fill="rgb(255,128,0)" stroke="none" x="381.99999999997993" y="157.99999999999193" width="5" height="5" fill-opacity="NaN"/><rect fill="rgb(255,128,0)" stroke="none" x="381.9999999999701" y="157.999999999988" width="5" height="5" fill-opacity="NaN"/><rect fill="rgb(255,255,128)" stroke="none" x="382.0000000000532" y="158.00000000000588" width="5" height="5" fill-opacity="NaN"/><rect fill="rgb(255,128,0)" stroke="none" x="381.99999999998937" y="158.00000000000318" width="5" height="5" fill-opacity="NaN"/><rect fill="rgb(255,255,128)" stroke="none" x="382.00000000002166" y="157.99999999999903" width="5" height="5" fill-opacity="NaN"/><rect fill="rgb(255,128,0)" stroke="none" x="381.9999999999403" y="158.00000000002402" width="5" height="5" fill-opacity="NaN"/><rect fill="rgb(255,255,128)" stroke="none" x="382.00000000002586" y="157.99999999998084" width="5" height="5" fill-opacity="NaN"/><rect fill="rgb(255,128,0)" stroke="none" x="381.9999999999999" y="158.00000000000003" width="5" height="5" fill-opacity="NaN"/><rect fill="rgb(255,128,0)" stroke="none" x="381.99999999999244" y="158.0000000000078" width="5" height="5" fill-opacity="NaN"/><rect fill="rgb(255,255,128)" stroke="none" x="382.00000000001654" y="157.9999999999723" width="5" height="5" fill-opacity="NaN"/><rect fill="rgb(255,128,0)" stroke="none" x="382.00000000000347" y="158.00000000000128" width="5" height="5" fill-opacity="NaN"/><rect fill="rgb(255,128,0)" stroke="none" x="381.99999999999267" y="158.00000000004232" width="5" height="5" fill-opacity="NaN"/><rect fill="rgb(255,255,128)" stroke="none" x="381.99999999999994" y="157.99999999995714" width="5" height="5" fill-opacity="NaN"/><rect fill="rgb(255,128,0)" stroke="none" x="382.00000000000716" y="158.00000000004232" width="5" height="5" fill-opacity="NaN"/><rect fill="rgb(255,255,128)" stroke="none" x="381.9999999999884" y="157.99999999996996" width="5" height="5" fill-opacity="NaN"/><rect fill="rgb(255,128,0)" stroke="none" x="382.0000000000194" y="158.00000000003837" width="5" height="5" fill-opacity="NaN"/><rect fill="rgb(255,255,128)" stroke="none" x="381.99999999997766" y="157.99999999997667" width="5" height="5" fill-opacity="NaN"/><rect fill="rgb(255,255,128)" stroke="none" x="381.99999999999994" y="158.00000000000003" width="5" height="5" fill-opacity="NaN"/><rect fill="rgb(255,128,0)" stroke="none" x="382.00000000000864" y="158.0000000000064" width="5" height="5" fill-opacity="NaN"/><rect fill="rgb(255,255,128)" stroke="none" x="381.99999999998005" y="157.99999999999199" width="5" height="5" fill-opacity="NaN"/><rect fill="rgb(255,128,0)" stroke="none" x="382.000000000021" y="158.00000000000452" width="5" height="5" fill-opacity="NaN"/><rect fill="rgb(255,255,128)" stroke="none" x="381.9999999999678" y="157.9999999999977" width="5" height="5" fill-opacity="NaN"/><rect fill="rgb(255,128,0)" stroke="none" x="382.0000000000319" y="157.999999999995" width="5" height="5" fill-opacity="NaN"/><rect fill="rgb(255,255,128)" stroke="none" x="381.9999999999902" y="158.0000000000041" width="5" height="5" fill-opacity="NaN"/><rect fill="rgb(255,128,0)" stroke="none" x="382.00000000001995" y="157.99999999999199" width="5" height="5" fill-opacity="NaN"/><rect fill="rgb(255,255,128)" stroke="none" x="381.9999999999562" y="158.0000000000311" width="5" height="5" fill-opacity="NaN"/><rect fill="rgb(255,128,0)" stroke="none" x="382.0000000000121" y="157.99999999998195" width="5" height="5" fill-opacity="NaN"/><rect fill="rgb(255,128,0)" stroke="none" x="382.00000000000546" y="157.99999999999085" width="5" height="5" fill-opacity="NaN"/><rect fill="rgb(255,255,128)" stroke="none" x="381.9999999999949" y="158.00000000000918" width="5" height="5" fill-opacity="NaN"/><rect fill="rgb(255,255,128)" stroke="none" x="381.999999999991" y="158.00000000001978" width="5" height="5" fill-opacity="NaN"/><rect fill="rgb(255,128,0)" stroke="none" x="401.99999999999676" y="197.99999999999463" width="5" height="5" fill-opacity="NaN"/><rect fill="rgb(255,255,128)" stroke="none" x="402.0000000000124" y="198.00000000003797" width="5" height="5" fill-opacity="NaN"/><rect fill="rgb(255,128,0)" stroke="none" x="401.99999999998244" y="197.99999999998462" width="5" height="5" fill-opacity="NaN"/><rect fill="rgb(255,128,0)" stroke="none" x="401.99999999995305" y="197.99999999994827" width="5" height="5" fill-opacity="NaN"/><rect fill="rgb(255,255,128)" stroke="none" x="402.0000000000122" y="198.0000000000003" width="5" height="5" fill-opacity="NaN"/><rect fill="rgb(255,255,128)" stroke="none" x="402.0000000000486" y="198.0000000000227" width="5" height="5" fill-opacity="NaN"/><rect fill="rgb(255,255,128)" stroke="none" x="402.0000000000161" y="198.00000000000966" width="5" height="5" fill-opacity="NaN"/><rect fill="rgb(255,128,0)" stroke="none" x="401.99999999991905" y="197.9999999999887" width="5" height="5" fill-opacity="NaN"/><rect fill="rgb(255,255,128)" stroke="none" x="402.00000000009834" y="197.9999999999963" width="5" height="5" fill-opacity="NaN"/><rect fill="rgb(255,128,0)" stroke="none" x="401.99999999991456" y="198.00000000001984" width="5" height="5" fill-opacity="NaN"/><rect fill="rgb(255,128,0)" stroke="none" x="401.99999999996294" y="198.00000000000503" width="5" height="5" fill-opacity="NaN"/><rect fill="rgb(255,128,0)" stroke="none" x="401.9999999999872" y="197.99999999999298" width="5" height="5" fill-opacity="NaN"/><rect fill="rgb(255,255,128)" stroke="none" x="402.00000000005923" y="197.9999999999395" width="5" height="5" fill-opacity="NaN"/><rect fill="rgb(255,255,128)" stroke="none" x="402.0000000000198" y="197.9999999999808" width="5" height="5" fill-opacity="NaN"/><rect fill="rgb(255,128,0)" stroke="none" x="401.9999999999965" y="198.0000000000153" width="5" height="5" fill-opacity="NaN"/><rect fill="rgb(255,128,0)" stroke="none" x="402.00000000000165" y="198.00000000000415" width="5" height="5" fill-opacity="NaN"/><rect fill="rgb(255,255,128)" stroke="none" x="402.00000000000506" y="197.99999999999008" width="5" height="5" fill-opacity="NaN"/><rect fill="rgb(255,255,128)" stroke="none" x="402.00000000000523" y="197.9999999999892" width="5" height="5" fill-opacity="NaN"/><rect fill="rgb(255,255,128)" stroke="none" x="402.0000000000052" y="197.99999999998806" width="5" height="5" fill-opacity="NaN"/><rect fill="rgb(255,128,0)" stroke="none" x="402.0000000000156" y="198.00000000002788" width="5" height="5" fill-opacity="NaN"/><rect fill="rgb(255,255,128)" stroke="none" x="401.99999999998846" y="197.999999999968" width="5" height="5" fill-opacity="NaN"/><rect fill="rgb(255,128,0)" stroke="none" x="402.0000000000792" y="198.00000000010223" width="5" height="5" fill-opacity="NaN"/><rect fill="rgb(255,255,128)" stroke="none" x="401.9999999999304" y="197.99999999994714" width="5" height="5" fill-opacity="NaN"/><rect fill="rgb(255,128,0)" stroke="none" x="402.0000000000076" y="198.0000000000042" width="5" height="5" fill-opacity="NaN"/><rect fill="rgb(255,255,128)" stroke="none" x="401.9999999999578" y="197.99999999997908" width="5" height="5" fill-opacity="NaN"/><rect fill="rgb(255,128,0)" stroke="none" x="402.00000000002024" y="197.99999999999824" width="5" height="5" fill-opacity="NaN"/><rect fill="rgb(255,255,128)" stroke="none" x="401.99999999998613" y="197.99999999999383" width="5" height="5" fill-opacity="NaN"/><rect fill="rgb(255,128,0)" stroke="none" x="402.0000000000195" y="197.99999999999247" width="5" height="5" fill-opacity="NaN"/><rect fill="rgb(255,255,128)" stroke="none" x="401.99999999998" y="198.000000000001" width="5" height="5" fill-opacity="NaN"/><rect fill="rgb(255,128,0)" stroke="none" x="401.99999999999704" y="197.99999999999395" width="5" height="5" fill-opacity="NaN"/><rect fill="rgb(255,128,0)" stroke="none" x="402.00000000004553" y="197.99999999996385" width="5" height="5" fill-opacity="NaN"/><rect fill="rgb(255,255,128)" stroke="none" x="401.9999999999417" y="198.00000000005573" width="5" height="5" fill-opacity="NaN"/><rect fill="rgb(255,128,0)" stroke="none" x="402.00000000002103" y="197.9999999999577" width="5" height="5" fill-opacity="NaN"/><rect fill="rgb(255,128,0)" stroke="none" x="402.00000000003035" y="197.99999999994094" width="5" height="5" fill-opacity="NaN"/><rect fill="rgb(255,128,0)" stroke="none" x="402.0000000000137" y="197.99999999998755" width="5" height="5" fill-opacity="NaN"/><rect fill="rgb(255,128,0)" stroke="none" x="381.99999999999994" y="338.0000000000001" width="5" height="5" fill-opacity="NaN"/><rect fill="rgb(255,128,0)" stroke="none" x="381.99999999999994" y="337.9999999999999" width="5" height="5" fill-opacity="NaN"/><rect fill="rgb(255,128,0)" stroke="none" x="381.9999999999999" y="338.00000000000006" width="5" height="5" fill-opacity="NaN"/><rect fill="rgb(255,128,0)" stroke="none" x="382.00000000000006" y="337.99999999999994" width="5" height="5" fill-opacity="NaN"/><rect fill="rgb(255,128,0)" stroke="none" x="382.00000000000006" y="338.00000000000017" width="5" height="5" fill-opacity="NaN"/><rect fill="rgb(255,128,0)" stroke="none" x="582.3673478366069" y="62.07866083016228" width="5" height="5" fill-opacity="NaN"/><rect fill="rgb(255,128,0)" stroke="none" x="582.3673478366071" y="62.07866083016226" width="5" height="5" fill-opacity="NaN"/><rect fill="rgb(255,128,0)" stroke="none" x="582.3673478366067" y="62.07866083016249" width="5" height="5" fill-opacity="NaN"/><rect fill="rgb(255,128,0)" stroke="none" x="582.3673478366078" y="62.07866083016199" width="5" height="5" fill-opacity="NaN"/><rect fill="rgb(255,128,0)" stroke="none" x="582.3673478366072" y="62.07866083016209" width="5" height="5" fill-opacity="NaN"/><rect fill="rgb(255,128,0)" stroke="none" x="582.3673478366069" y="62.078660830162235" width="5" height="5" fill-opacity="NaN"/><rect fill="rgb(255,128,0)" stroke="none" x="582.3673478366073" y="62.07866083016212" width="5" height="5" fill-opacity="NaN"/><rect fill="rgb(255,128,0)" stroke="none" x="582.3673478366073" y="62.07866083016212" width="5" height="5" fill-opacity="NaN"/><rect fill="rgb(255,128,0)" stroke="none" x="582.3673478366068" y="62.078660830162065" width="5" height="5" fill-opacity="NaN"/><rect fill="rgb(255,128,0)" stroke="none" x="382" y="338" width="5" height="5" fill-opacity="NaN"/><rect fill="rgb(255,128,0)" stroke="none" x="381.99999999999994" y="338" width="5" height="5" fill-opacity="NaN"/><rect fill="rgb(255,128,0)" stroke="none" x="382.00000000000006" y="338.0000000000002" width="5" height="5" fill-opacity="NaN"/><rect fill="rgb(255,128,0)" stroke="none" x="381.99999999999994" y="318.0000000000001" width="5" height="5" fill-opacity="NaN"/><rect fill="rgb(255,128,0)" stroke="none" x="382.00000000000017" y="318.00000000000006" width="5" height="5" fill-opacity="NaN"/><rect fill="rgb(255,128,0)" stroke="none" x="381.99999999999983" y="317.99999999999966" width="5" height="5" fill-opacity="NaN"/><rect fill="rgb(255,128,0)" stroke="none" x="381.9999999999999" y="318.0000000000002" width="5" height="5" fill-opacity="NaN"/><rect fill="rgb(255,128,0)" stroke="none" x="381.99999999999983" y="318.0000000000001" width="5" height="5" fill-opacity="NaN"/><rect fill="rgb(255,128,0)" stroke="none" x="382.0000000000003" y="317.99999999999966" width="5" height="5" fill-opacity="NaN"/><rect fill="rgb(255,128,0)" stroke="none" x="599.7057257869384" y="72.04764523437643" width="5" height="5" fill-opacity="NaN"/><rect fill="rgb(255,128,0)" stroke="none" x="599.705725786938" y="72.04764523437716" width="5" height="5" fill-opacity="NaN"/><rect fill="rgb(255,128,0)" stroke="none" x="599.7057257869384" y="72.04764523437649" width="5" height="5" fill-opacity="NaN"/><rect fill="rgb(255,128,0)" stroke="none" x="599.7057257869379" y="72.0476452343767" width="5" height="5" fill-opacity="NaN"/><rect fill="rgb(255,128,0)" stroke="none" x="599.7057257869382" y="72.04764523437657" width="5" height="5" fill-opacity="NaN"/><rect fill="rgb(255,128,0)" stroke="none" x="599.705725786938" y="72.04764523437669" width="5" height="5" fill-opacity="NaN"/><rect fill="rgb(255,128,0)" stroke="none" x="599.7057257869386" y="72.04764523437662" width="5" height="5" fill-opacity="NaN"/><rect fill="rgb(255,128,0)" stroke="none" x="599.7057257869379" y="72.04764523437655" width="5" height="5" fill-opacity="NaN"/><rect fill="rgb(255,128,0)" stroke="none" x="382" y="318" width="5" height="5" fill-opacity="NaN"/><rect fill="rgb(255,128,0)" stroke="none" x="381.9999999999999" y="317.99999999999994" width="5" height="5" fill-opacity="NaN"/><rect fill="rgb(255,128,0)" stroke="none" x="381.99999999999994" y="318.00000000000017" width="5" height="5" fill-opacity="NaN"/><rect fill="rgb(255,128,0)" stroke="none" x="381.99999999999994" y="317.9999999999997" width="5" height="5" fill-opacity="NaN"/><rect fill="rgb(255,128,0)" stroke="none" x="382.00000000000006" y="357.99999999999955" width="5" height="5" fill-opacity="NaN"/><rect fill="rgb(255,128,0)" stroke="none" x="381.99999999999966" y="358.0000000000005" width="5" height="5" fill-opacity="NaN"/><rect fill="rgb(255,128,0)" stroke="none" x="382.0000000000001" y="357.99999999999983" width="5" height="5" fill-opacity="NaN"/><rect fill="rgb(255,128,0)" stroke="none" x="382.0000000000002" y="357.9999999999998" width="5" height="5" fill-opacity="NaN"/><rect fill="rgb(255,128,0)" stroke="none" x="381.9999999999996" y="358.00000000000017" width="5" height="5" fill-opacity="NaN"/><rect fill="rgb(255,128,0)" stroke="none" x="565.0289698862761" y="52.109676425947534" width="5" height="5" fill-opacity="NaN"/><rect fill="rgb(255,128,0)" stroke="none" x="565.028969886276" y="52.109676425947285" width="5" height="5" fill-opacity="NaN"/><rect fill="rgb(255,128,0)" stroke="none" x="565.0289698862762" y="52.109676425947235" width="5" height="5" fill-opacity="NaN"/><rect fill="rgb(255,128,0)" stroke="none" x="565.028969886276" y="52.109676425947654" width="5" height="5" fill-opacity="NaN"/><rect fill="rgb(255,128,0)" stroke="none" x="565.0289698862764" y="52.109676425947534" width="5" height="5" fill-opacity="NaN"/><rect fill="rgb(255,128,0)" stroke="none" x="565.0289698862757" y="52.10967642594758" width="5" height="5" fill-opacity="NaN"/><rect fill="rgb(255,128,0)" stroke="none" x="565.0289698862763" y="52.1096764259475" width="5" height="5" fill-opacity="NaN"/><rect fill="rgb(255,128,0)" stroke="none" x="565.0289698862765" y="52.109676425947455" width="5" height="5" fill-opacity="NaN"/><rect fill="rgb(255,128,0)" stroke="none" x="382" y="358.0000000000003" width="5" height="5" fill-opacity="NaN"/><rect fill="rgb(255,128,0)" stroke="none" x="381.99999999999994" y="357.99999999999966" width="5" height="5" fill-opacity="NaN"/><rect fill="rgb(255,128,0)" stroke="none" x="402" y="317.99999999999994" width="5" height="5" fill-opacity="NaN"/><rect fill="rgb(255,128,0)" stroke="none" x="401.9999999999999" y="318.0000000000003" width="5" height="5" fill-opacity="NaN"/><rect fill="rgb(255,128,0)" stroke="none" x="402.0000000000004" y="317.9999999999997" width="5" height="5" fill-opacity="NaN"/><rect fill="rgb(255,128,0)" stroke="none" x="401.9999999999996" y="317.99999999999994" width="5" height="5" fill-opacity="NaN"/><rect fill="rgb(255,128,0)" stroke="none" x="401.9999999999997" y="318.00000000000034" width="5" height="5" fill-opacity="NaN"/><rect fill="rgb(255,128,0)" stroke="none" x="402.0000000000003" y="318.0000000000001" width="5" height="5" fill-opacity="NaN"/><rect fill="rgb(255,128,0)" stroke="none" x="589.7367413827235" y="89.38602318470764" width="5" height="5" fill-opacity="NaN"/><rect fill="rgb(255,128,0)" stroke="none" x="589.7367413827235" y="89.38602318470758" width="5" height="5" fill-opacity="NaN"/><rect fill="rgb(255,128,0)" stroke="none" x="589.7367413827232" y="89.38602318470787" width="5" height="5" fill-opacity="NaN"/><rect fill="rgb(255,128,0)" stroke="none" x="589.7367413827237" y="89.38602318470762" width="5" height="5" fill-opacity="NaN"/><rect fill="rgb(255,128,0)" stroke="none" x="589.736741382723" y="89.38602318470782" width="5" height="5" fill-opacity="NaN"/><rect fill="rgb(255,128,0)" stroke="none" x="589.7367413827235" y="89.38602318470771" width="5" height="5" fill-opacity="NaN"/><rect fill="rgb(255,128,0)" stroke="none" x="589.7367413827233" y="89.38602318470775" width="5" height="5" fill-opacity="NaN"/><rect fill="rgb(255,128,0)" stroke="none" x="589.7367413827243" y="89.38602318470785" width="5" height="5" fill-opacity="NaN"/><rect fill="rgb(255,128,0)" stroke="none" x="401.9999999999999" y="317.9999999999999" width="5" height="5" fill-opacity="NaN"/><rect fill="rgb(255,128,0)" stroke="none" x="402.0000000000002" y="318.00000000000017" width="5" height="5" fill-opacity="NaN"/><rect fill="rgb(255,128,0)" stroke="none" x="402" y="318.0000000000001" width="5" height="5" fill-opacity="NaN"/><rect fill="rgb(255,128,0)" stroke="none" x="401.99999999999983" y="317.99999999999955" width="5" height="5" fill-opacity="NaN"/><rect fill="rgb(255,128,0)" stroke="none" x="721.0743714392553" y="141.8305360638788" width="5" height="5" fill-opacity="NaN"/><rect fill="rgb(255,128,0)" stroke="none" x="721.0743714392556" y="141.8305360638788" width="5" height="5" fill-opacity="NaN"/><rect fill="rgb(255,128,0)" stroke="none" x="721.0743714392554" y="141.83053606387887" width="5" height="5" fill-opacity="NaN"/><rect fill="rgb(255,128,0)" stroke="none" x="721.0743714392547" y="141.83053606387907" width="5" height="5" fill-opacity="NaN"/><rect fill="rgb(255,128,0)" stroke="none" x="582.3673478366077" y="453.92133916983914" width="5" height="5" fill-opacity="NaN"/><rect fill="rgb(255,128,0)" stroke="none" x="582.3673478366072" y="453.9213391698383" width="5" height="5" fill-opacity="NaN"/><rect fill="rgb(255,128,0)" stroke="none" x="582.3673478366063" y="453.9213391698371" width="5" height="5" fill-opacity="NaN"/><rect fill="rgb(255,128,0)" stroke="none" x="582.3673478366072" y="453.92133916983806" width="5" height="5" fill-opacity="NaN"/><rect fill="rgb(255,128,0)" stroke="none" x="703.7359934889241" y="131.86155165966406" width="5" height="5" fill-opacity="NaN"/><rect fill="rgb(255,128,0)" stroke="none" x="703.7359934889256" y="131.86155165966406" width="5" height="5" fill-opacity="NaN"/><rect fill="rgb(255,128,0)" stroke="none" x="703.735993488924" y="131.86155165966431" width="5" height="5" fill-opacity="NaN"/><rect fill="rgb(255,128,0)" stroke="none" x="703.7359934889251" y="131.86155165966383" width="5" height="5" fill-opacity="NaN"/><rect fill="rgb(255,128,0)" stroke="none" x="703.7359934889259" y="131.86155165966352" width="5" height="5" fill-opacity="NaN"/><rect fill="rgb(255,128,0)" stroke="none" x="599.7057257869379" y="443.95235476562345" width="5" height="5" fill-opacity="NaN"/><rect fill="rgb(255,128,0)" stroke="none" x="599.7057257869376" y="443.95235476562283" width="5" height="5" fill-opacity="NaN"/><rect fill="rgb(255,128,0)" stroke="none" x="599.705725786938" y="443.9523547656233" width="5" height="5" fill-opacity="NaN"/><rect fill="rgb(255,128,0)" stroke="none" x="738.4127493895849" y="151.7995204680932" width="5" height="5" fill-opacity="NaN"/><rect fill="rgb(255,128,0)" stroke="none" x="738.4127493895874" y="151.79952046809325" width="5" height="5" fill-opacity="NaN"/><rect fill="rgb(255,128,0)" stroke="none" x="738.4127493895871" y="151.79952046809328" width="5" height="5" fill-opacity="NaN"/><rect fill="rgb(255,128,0)" stroke="none" x="738.412749389582" y="151.79952046809493" width="5" height="5" fill-opacity="NaN"/><rect fill="rgb(255,128,0)" stroke="none" x="565.0289698862761" y="463.890323574053" width="5" height="5" fill-opacity="NaN"/><rect fill="rgb(255,128,0)" stroke="none" x="565.0289698862758" y="463.8903235740526" width="5" height="5" fill-opacity="NaN"/><rect fill="rgb(255,128,0)" stroke="none" x="565.0289698862761" y="463.8903235740526" width="5" height="5" fill-opacity="NaN"/><rect fill="rgb(255,128,0)" stroke="none" x="693.7670090847096" y="149.19992960999514" width="5" height="5" fill-opacity="NaN"/><rect fill="rgb(255,128,0)" stroke="none" x="693.7670090847103" y="149.19992960999514" width="5" height="5" fill-opacity="NaN"/><rect fill="rgb(255,128,0)" stroke="none" x="693.7670090847099" y="149.19992960999517" width="5" height="5" fill-opacity="NaN"/><rect fill="rgb(255,128,0)" stroke="none" x="693.7670090847097" y="149.19992960999528" width="5" height="5" fill-opacity="NaN"/><rect fill="rgb(255,128,0)" stroke="none" x="693.7670090847101" y="149.19992960999534" width="5" height="5" fill-opacity="NaN"/><rect fill="rgb(255,128,0)" stroke="none" x="589.7367413827242" y="426.6139768152931" width="5" height="5" fill-opacity="NaN"/><rect fill="rgb(255,128,0)" stroke="none" x="589.736741382724" y="426.6139768152926" width="5" height="5" fill-opacity="NaN"/><rect fill="rgb(255,128,0)" stroke="none" x="589.7367413827234" y="426.6139768152922" width="5" height="5" fill-opacity="NaN"/><rect fill="rgb(255,128,0)" stroke="none" x="721.695822706166" y="373.31367746369597" width="5" height="5" fill-opacity="NaN"/><rect fill="rgb(255,128,0)" stroke="none" x="703.7359934889301" y="384.13844834033904" width="5" height="5" fill-opacity="NaN"/><rect fill="rgb(255,128,0)" stroke="none" x="738.980424644285" y="363.2517424688399" width="5" height="5" fill-opacity="NaN"/><rect fill="rgb(255,128,0)" stroke="none" x="693.7670090847037" y="366.80007039000157" width="5" height="5" fill-opacity="NaN"/><rect fill="rgb(0,255,0)" stroke="none" x="382" y="178" width="5" height="5"/><rect fill="rgb(0,255,0)" stroke="none" x="382" y="198" width="5" height="5"/><rect fill="rgb(0,255,0)" stroke="none" x="382" y="158" width="5" height="5"/><rect fill="rgb(0,255,0)" stroke="none" x="402" y="198" width="5" height="5"/><path fill="none" stroke="rgb(168,168,168)" paint-order="fill stroke markers" d=" M 285 260 L 564 260" stroke-miterlimit="10" stroke-dasharray=""/><path fill="none" stroke="rgb(168,168,168)" paint-order="fill stroke markers" d=" M 423.1954312487626 16.622566595543475 L 564 260" stroke-miterlimit="10" stroke-dasharray=""/><rect fill="red" stroke="none" x="562" y="258" width="3" height="3"/><rect fill="rgb(255,0,255)" stroke="none" x="482" y="258" width="3" height="3"/></g></svg>