<svg xmlns="http://www.w3.org/2000/svg" width="1130" height="529"><path d="M0 0h1130v529H0z"/><path fill="#0F0" d="M381.5 177.5h5v5h-5zM381.5 197.5h5v5h-5zM381.5 157.5h5v5h-5zM401.5 197.5h5v5h-5z"/><path fill="none" stroke="#A8A8A8" paint-order="fill stroke markers" d="M285 260h279M423.195 16.623 564 260" stroke-miterlimit="10"/><path fill="none" stroke="gray" paint-order="fill stroke markers" d="M644 260a80 80 0 1 1 0-.08M484 260h10" stroke-miterlimit="10"/><text fill="gray" font-family="Arial" font-size="10" font-weight="bold" text-decoration="normal" text-anchor="middle" dominant-baseline="text-before-edge" transform="rotate(-90 377 -117)">0</text><path fill="none" stroke="gray" paint-order="fill stroke markers" d="m484.304 253.028 4.981.435m-4.07-7.355 7.879 1.39m-6.368-8.204 4.83 1.295m-2.731-7.95 7.517 2.736m-4.847-9.184 4.532 2.113M494.718 220l8.66 5" stroke-miterlimit="10"/><text fill="gray" font-family="Arial" font-size="10" font-weight="bold" text-decoration="normal" text-anchor="middle" dominant-baseline="text-before-edge" transform="rotate(-60 446.545 -323.438)">30</text><path fill="none" stroke="gray" paint-order="fill stroke markers" d="m498.468 214.114 4.096 2.868m.152-8.405 6.129 5.142m-1.414-10.288 3.536 3.536m1.61-8.25 5.142 6.128m.395-10.377 2.868 4.096m3.018-7.846 5 8.66" stroke-miterlimit="10"/><text fill="gray" font-family="Arial" font-size="10" font-weight="bold" text-decoration="normal" text-anchor="middle" dominant-baseline="text-before-edge" transform="rotate(-30 636.545 -887.438)">60</text><path fill="none" stroke="gray" paint-order="fill stroke markers" d="m530.19 187.495 2.114 4.532m4.334-7.202 2.737 7.517m3.92-9.616 1.294 4.83m5.52-6.34 1.388 7.878m5.53-8.79.436 4.981M564 180v10" stroke-miterlimit="10"/><text fill="gray" font-family="Arial" font-size="10" font-weight="bold" text-decoration="normal" text-anchor="middle" dominant-baseline="text-before-edge" transform="translate(564 190)">90</text><path fill="none" stroke="gray" paint-order="fill stroke markers" d="m570.972 180.304-.435 4.981m7.355-4.07-1.39 7.879m8.204-6.368-1.295 4.83m7.95-2.731-2.736 7.517m9.184-4.847-2.113 4.532m8.304-1.309-5 8.66" stroke-miterlimit="10"/><text fill="gray" font-family="Arial" font-size="10" font-weight="bold" text-decoration="normal" text-anchor="middle" dominant-baseline="text-before-edge" transform="rotate(30 -72.545 1217.438)">120</text><path fill="none" stroke="gray" paint-order="fill stroke markers" d="m609.886 194.468-2.868 4.096m8.405.152-5.142 6.129m10.288-1.414-3.536 3.536m8.25 1.61-6.128 5.142m10.377.395-4.096 2.868m7.846 3.018-8.66 5" stroke-miterlimit="10"/><text fill="gray" font-family="Arial" font-size="10" font-weight="bold" text-decoration="normal" text-anchor="middle" dominant-baseline="text-before-edge" transform="rotate(60 117.455 653.438)">150</text><path fill="none" stroke="gray" paint-order="fill stroke markers" d="m636.505 226.19-4.532 2.114m7.202 4.334-7.517 2.737m9.616 3.92-4.83 1.294m6.34 5.52-7.878 1.388m8.79 5.53-4.981.436M644 260h-10" stroke-miterlimit="10"/><text fill="gray" font-family="Arial" font-size="10" font-weight="bold" text-decoration="normal" text-anchor="middle" dominant-baseline="text-before-edge" transform="rotate(90 187 447)">180</text><path fill="none" stroke="gray" paint-order="fill stroke markers" d="m643.696 266.972-4.981-.435m4.07 7.355-7.879-1.39m6.368 8.204-4.83-1.295m2.731 7.95-7.517-2.736m4.847 9.184-4.532-2.113m1.309 8.304-8.66-5" stroke-miterlimit="10"/><text fill="gray" font-family="Arial" font-size="10" font-weight="bold" text-decoration="normal" text-anchor="middle" dominant-baseline="text-before-edge" transform="rotate(120 227.152 327.813)">150</text><path fill="none" stroke="gray" paint-order="fill stroke markers" d="m629.532 305.886-4.096-2.868m-.152 8.405-6.129-5.142m1.414 10.288-3.536-3.536m-1.61 8.25-5.142-6.128m-.395 10.377-2.868-4.096M604 329.282l-5-8.66" stroke-miterlimit="10"/><text fill="gray" font-family="Arial" font-size="10" font-weight="bold" text-decoration="normal" text-anchor="middle" dominant-baseline="text-before-edge" transform="rotate(150 256.545 240.562)">120</text><path fill="none" stroke="gray" paint-order="fill stroke markers" d="m597.81 332.505-2.114-4.532m-4.334 7.202-2.737-7.517m-3.92 9.616-1.294-4.83m-5.52 6.34-1.388-7.878m-5.53 8.79-.436-4.981M564 340v-10" stroke-miterlimit="10"/><text fill="gray" font-family="Arial" font-size="10" font-weight="bold" text-decoration="normal" text-anchor="middle" dominant-baseline="text-before-edge" transform="rotate(180 282 165)">90</text><path fill="none" stroke="gray" paint-order="fill stroke markers" d="m557.028 339.696.435-4.981m-7.355 4.07 1.39-7.879m-8.204 6.368 1.295-4.83m-7.95 2.731 2.736-7.517m-9.184 4.847 2.113-4.532M524 329.282l5-8.66" stroke-miterlimit="10"/><text fill="gray" font-family="Arial" font-size="10" font-weight="bold" text-decoration="normal" text-anchor="middle" dominant-baseline="text-before-edge" transform="rotate(-150 307.455 89.438)">60</text><path fill="none" stroke="gray" paint-order="fill stroke markers" d="m518.114 325.532 2.868-4.096m-8.405-.152 5.142-6.129m-10.288 1.414 3.536-3.536m-8.25-1.61 6.128-5.142m-10.377-.395 4.096-2.868M494.718 300l8.66-5" stroke-miterlimit="10"/><text fill="gray" font-family="Arial" font-size="10" font-weight="bold" text-decoration="normal" text-anchor="middle" dominant-baseline="text-before-edge" transform="rotate(-120 336.848 2.187)">30</text><path fill="none" stroke="gray" paint-order="fill stroke markers" d="m491.495 293.81 4.532-2.114m-7.202-4.334 7.517-2.737m-9.616-3.92 4.83-1.294m-6.34-5.52 7.878-1.388m-8.79-5.53 4.981-.436" stroke-miterlimit="10"/><path fill="red" d="M562.5 258.5h3v3h-3z"/><path fill="#FF8000" fill-opacity="NaN" d="M381.5 177.5h5v5h-5z"/><path fill="#FFFF80" fill-opacity="NaN" d="M381.5 177.5h5v5h-5z"/><path fill="#FF8000" fill-opacity="NaN" d="M381.5 177.5h5v5h-5z"/><path fill="#FFFF80" fill-opacity="NaN" d="M381.5 177.5h5v5h-5z"/><path fill="#FF8000" fill-opacity="NaN" d="M381.5 177.5h5v5h-5z"/><path fill="#FF8000" fill-opacity="NaN" d="M381.5 177.5h5v5h-5z"/><path fill="#FFFF80" fill-opacity="NaN" d="M381.5 177.5h5v5h-5z"/><path fill="#FF8000" fill-opacity="NaN" d="M381.5 177.5h5v5h-5z"/><path fill="#FF8000" fill-opacity="NaN" d="M381.5 177.5h5v5h-5z"/><path fill="#FFFF80" fill-opacity="NaN" d="M381.5 177.5h5v5h-5z"/><path fill="#FFFF80" fill-opacity="NaN" d="M381.5 177.5h5v5h-5z"/><path fill="#FF8000" fill-opacity="NaN" d="M381.5 177.5h5v5h-5z"/><path fill="#FFFF80" fill-opacity="NaN" d="M381.5 177.5h5v5h-5z"/><path fill="#FF8000" fill-opacity="NaN" d="M381.5 177.5h5v5h-5z"/><path fill="#FFFF80" fill-opacity="NaN" d="M381.5 177.5h5v5h-5z"/><path fill="#FF8000" fill-opacity="NaN" d="M381.5 177.5h5v5h-5z"/><path fill="#FFFF80" fill-opacity="NaN" d="M381.5 177.5h5v5h-5z"/><path fill="#FF8000" fill-opacity="NaN" d="M381.5 177.5h5v5h-5z"/><path fill="#FFFF80" fill-opacity="NaN" d="M381.5 177.5h5v5h-5z"/><path fill="#FF8000" fill-opacity="NaN" d="M381.5 177.5h5v5h-5z"/><path fill="#FF8000" fill-opacity="NaN" d="M381.5 177.5h5v5h-5z"/><path fill="#FF8000" fill-opacity="NaN" d="M381.5 177.5h5v5h-5z"/><path fill="#FFFF80" fill-opacity="NaN" d="M381.5 177.5h5v5h-5z"/><path fill="#FF8000" fill-opacity="NaN" d="M381.5 177.5h5v5h-5z"/><path fill="#FFFF80" fill-opacity="NaN" d="M381.5 177.5h5v5h-5z"/><path fill="#FF8000" fill-opacity="NaN" d="M381.5 177.5h5v5h-5z"/><path fill="#FFFF80" fill-opacity="NaN" d="M381.5 177.5h5v5h-5z"/><path fill="#FF8000" fill-opacity="NaN" d="M381.5 177.5h5v5h-5z"/><path fill="#FFFF80" fill-opacity="NaN" d="M381.5 177.5h5v5h-5z"/><path fill="#FF8000" fill-opacity="NaN" d="M381.5 177.5h5v5h-5z"/><path fill="#FFFF80" fill-opacity="NaN" d="M381.5 177.5h5v5h-5z"/><path fill="#FFFF80" fill-opacity="NaN" d="M381.5 177.5h5v5h-5z"/><path fill="#FF8000" fill-opacity="NaN" d="M381.5 177.5h5v5h-5z"/><path fill="#FFFF80" fill-opacity="NaN" d="M381.5 177.5h5v5h-5z"/><path fill="#FF8000" fill-opacity="NaN" d="M381.5 177.5h5v5h-5z"/><path fill="#FFFF80" fill-opacity="NaN" d="M381.5 197.5h5v5h-5z"/><path fill="#FF8000" fill-opacity="NaN" d="M381.5 197.5h5v5h-5z"/><path fill="#FFFF80" fill-opacity="NaN" d="M381.5 197.5h5v5h-5z"/><path fill="#FFFF80" fill-opacity="NaN" d="M381.5 197.5h5v5h-5z"/><path fill="#FF8000" fill-opacity="NaN" d="M381.5 197.5h5v5h-5z"/><path fill="#FFFF80" fill-opacity="NaN" d="M381.5 197.5h5v5h-5z"/><path fill="#FFFF80" fill-opacity="NaN" d="M381.5 197.5h5v5h-5z"/><path fill="#FF8000" fill-opacity="NaN" d="M381.5 197.5h5v5h-5z"/><path fill="#FF8000" fill-opacity="NaN" d="M381.5 197.5h5v5h-5z"/><path fill="#FFFF80" fill-opacity="NaN" d="M381.5 197.5h5v5h-5z"/><path fill="#FF8000" fill-opacity="NaN" d="M381.5 197.5h5v5h-5z"/><path fill="#FF8000" fill-opacity="NaN" d="M381.5 197.5h5v5h-5z"/><path fill="#FFFF80" fill-opacity="NaN" d="M381.5 197.5h5v5h-5z"/><path fill="#FF8000" fill-opacity="NaN" d="M381.5 197.5h5v5h-5z"/><path fill="#FFFF80" fill-opacity="NaN" d="M381.5 197.5h5v5h-5z"/><path fill="#FF8000" fill-opacity="NaN" d="M381.5 197.5h5v5h-5z"/><path fill="#FFFF80" fill-opacity="NaN" d="M381.5 197.5h5v5h-5z"/><path fill="#FFFF80" fill-opacity="NaN" d="M381.5 197.5h5v5h-5z"/><path fill="#FFFF80" fill-opacity="NaN" d="M381.5 197.5h5v5h-5z"/><path fill="#FF8000" fill-opacity="NaN" d="M381.5 197.5h5v5h-5z"/><path fill="#FF8000" fill-opacity="NaN" d="M381.5 197.5h5v5h-5z"/><path fill="#FF8000" fill-opacity="NaN" d="M381.5 197.5h5v5h-5z"/><path fill="#FFFF80" fill-opacity="NaN" d="M381.5 197.5h5v5h-5z"/><path fill="#FFFF80" fill-opacity="NaN" d="M381.5 197.5h5v5h-5z"/><path fill="#FFFF80" fill-opacity="NaN" d="M381.5 197.5h5v5h-5z"/><path fill="#FF8000" fill-opacity="NaN" d="M381.5 197.5h5v5h-5z"/><path fill="#FFFF80" fill-opacity="NaN" d="M381.5 197.5h5v5h-5z"/><path fill="#FF8000" fill-opacity="NaN" d="M381.5 197.5h5v5h-5z"/><path fill="#FF8000" fill-opacity="NaN" d="M381.5 197.5h5v5h-5z"/><path fill="#FFFF80" fill-opacity="NaN" d="M381.5 197.5h5v5h-5z"/><path fill="#FFFF80" fill-opacity="NaN" d="M381.5 197.5h5v5h-5z"/><path fill="#FFFF80" fill-opacity="NaN" d="M381.5 197.5h5v5h-5z"/><path fill="#FF8000" fill-opacity="NaN" d="M381.5 197.5h5v5h-5z"/><path fill="#FFFF80" fill-opacity="NaN" d="M381.5 197.5h5v5h-5z"/><path fill="#FF8000" fill-opacity="NaN" d="M381.5 197.5h5v5h-5zM381.5 157.5h5v5h-5z"/><path fill="#FF8000" fill-opacity="NaN" d="M381.5 157.5h5v5h-5z"/><path fill="#FFFF80" fill-opacity="NaN" d="M381.5 157.5h5v5h-5z"/><path fill="#FF8000" fill-opacity="NaN" d="M381.5 157.5h5v5h-5z"/><path fill="#FFFF80" fill-opacity="NaN" d="M381.5 157.5h5v5h-5z"/><path fill="#FF8000" fill-opacity="NaN" d="M381.5 157.5h5v5h-5z"/><path fill="#FF8000" fill-opacity="NaN" d="M381.5 157.5h5v5h-5z"/><path fill="#FFFF80" fill-opacity="NaN" d="M381.5 157.5h5v5h-5z"/><path fill="#FF8000" fill-opacity="NaN" d="M381.5 157.5h5v5h-5z"/><path fill="#FFFF80" fill-opacity="NaN" d="M381.5 157.5h5v5h-5z"/><path fill="#FF8000" fill-opacity="NaN" d="M381.5 157.5h5v5h-5z"/><path fill="#FFFF80" fill-opacity="NaN" d="M381.5 157.5h5v5h-5z"/><path fill="#FF8000" fill-opacity="NaN" d="M381.5 157.5h5v5h-5z"/><path fill="#FF8000" fill-opacity="NaN" d="M381.5 157.5h5v5h-5z"/><path fill="#FFFF80" fill-opacity="NaN" d="M381.5 157.5h5v5h-5z"/><path fill="#FF8000" fill-opacity="NaN" d="M381.5 157.5h5v5h-5z"/><path fill="#FF8000" fill-opacity="NaN" d="M381.5 157.5h5v5h-5z"/><path fill="#FFFF80" fill-opacity="NaN" d="M381.5 157.5h5v5h-5z"/><path fill="#FF8000" fill-opacity="NaN" d="M381.5 157.5h5v5h-5z"/><path fill="#FFFF80" fill-opacity="NaN" d="M381.5 157.5h5v5h-5z"/><path fill="#FF8000" fill-opacity="NaN" d="M381.5 157.5h5v5h-5z"/><path fill="#FFFF80" fill-opacity="NaN" d="M381.5 157.5h5v5h-5z"/><path fill="#FFFF80" fill-opacity="NaN" d="M381.5 157.5h5v5h-5z"/><path fill="#FF8000" fill-opacity="NaN" d="M381.5 157.5h5v5h-5z"/><path fill="#FFFF80" fill-opacity="NaN" d="M381.5 157.5h5v5h-5z"/><path fill="#FF8000" fill-opacity="NaN" d="M381.5 157.5h5v5h-5z"/><path fill="#FFFF80" fill-opacity="NaN" d="M381.5 157.5h5v5h-5z"/><path fill="#FF8000" fill-opacity="NaN" d="M381.5 157.5h5v5h-5z"/><path fill="#FFFF80" fill-opacity="NaN" d="M381.5 157.5h5v5h-5z"/><path fill="#FF8000" fill-opacity="NaN" d="M381.5 157.5h5v5h-5z"/><path fill="#FFFF80" fill-opacity="NaN" d="M381.5 157.5h5v5h-5z"/><path fill="#FF8000" fill-opacity="NaN" d="M381.5 157.5h5v5h-5z"/><path fill="#FF8000" fill-opacity="NaN" d="M381.5 157.5h5v5h-5z"/><path fill="#FFFF80" fill-opacity="NaN" d="M381.5 157.5h5v5h-5z"/><path fill="#FFFF80" fill-opacity="NaN" d="M381.5 157.5h5v5h-5z"/><path fill="#FF8000" fill-opacity="NaN" d="M401.5 197.5h5v5h-5z"/><path fill="#FFFF80" fill-opacity="NaN" d="M401.5 197.5h5v5h-5z"/><path fill="#FF8000" fill-opacity="NaN" d="M401.5 197.5h5v5h-5z"/><path fill="#FF8000" fill-opacity="NaN" d="M401.5 197.5h5v5h-5z"/><path fill="#FFFF80" fill-opacity="NaN" d="M401.5 197.5h5v5h-5z"/><path fill="#FFFF80" fill-opacity="NaN" d="M401.5 197.5h5v5h-5z"/><path fill="#FFFF80" fill-opacity="NaN" d="M401.5 197.5h5v5h-5z"/><path fill="#FF8000" fill-opacity="NaN" d="M401.5 197.5h5v5h-5z"/><path fill="#FFFF80" fill-opacity="NaN" d="M401.5 197.5h5v5h-5z"/><path fill="#FF8000" fill-opacity="NaN" d="M401.5 197.5h5v5h-5z"/><path fill="#FF8000" fill-opacity="NaN" d="M401.5 197.5h5v5h-5z"/><path fill="#FF8000" fill-opacity="NaN" d="M401.5 197.5h5v5h-5z"/><path fill="#FFFF80" fill-opacity="NaN" d="M401.5 197.5h5v5h-5z"/><path fill="#FFFF80" fill-opacity="NaN" d="M401.5 197.5h5v5h-5z"/><path fill="#FF8000" fill-opacity="NaN" d="M401.5 197.5h5v5h-5z"/><path fill="#FF8000" fill-opacity="NaN" d="M401.5 197.5h5v5h-5z"/><path fill="#FFFF80" fill-opacity="NaN" d="M401.5 197.5h5v5h-5z"/><path fill="#FFFF80" fill-opacity="NaN" d="M401.5 197.5h5v5h-5z"/><path fill="#FFFF80" fill-opacity="NaN" d="M401.5 197.5h5v5h-5z"/><path fill="#FF8000" fill-opacity="NaN" d="M401.5 197.5h5v5h-5z"/><path fill="#FFFF80" fill-opacity="NaN" d="M401.5 197.5h5v5h-5z"/><path fill="#FF8000" fill-opacity="NaN" d="M401.5 197.5h5v5h-5z"/><path fill="#FFFF80" fill-opacity="NaN" d="M401.5 197.5h5v5h-5z"/><path fill="#FF8000" fill-opacity="NaN" d="M401.5 197.5h5v5h-5z"/><path fill="#FFFF80" fill-opacity="NaN" d="M401.5 197.5h5v5h-5z"/><path fill="#FF8000" fill-opacity="NaN" d="M401.5 197.5h5v5h-5z"/><path fill="#FFFF80" fill-opacity="NaN" d="M401.5 197.5h5v5h-5z"/><path fill="#FF8000" fill-opacity="NaN" d="M401.5 197.5h5v5h-5z"/><path fill="#FFFF80" fill-opacity="NaN" d="M401.5 197.5h5v5h-5z"/><path fill="#FF8000" fill-opacity="NaN" d="M401.5 197.5h5v5h-5z"/><path fill="#FF8000" fill-opacity="NaN" d="M401.5 197.5h5v5h-5z"/><path fill="#FFFF80" fill-opacity="NaN" d="M401.5 197.5h5v5h-5z"/><path fill="#FF8000" fill-opacity="NaN" d="M401.5 197.5h5v5h-5z"/><path fill="#FF8000" fill-opacity="NaN" d="M401.5 197.5h5v5h-5z"/><path fill="#FF8000" fill-opacity="NaN" d="M401.5 197.5h5v5h-5zM381.5 337.5h5v5h-5z"/><path fill="#FF8000" fill-opacity="NaN" d="M381.5 337.5h5v5h-5z"/><path fill="#FF8000" fill-opacity="NaN" d="M381.5 337.5h5v5h-5z"/><path fill="#FF8000" fill-opacity="NaN" d="M381.5 337.5h5v5h-5z"/><path fill="#FF8000" fill-opacity="NaN" d="M381.5 337.5h5v5h-5zM581.867 61.579h5v5h-5z"/><path fill="#FF8000" fill-opacity="NaN" d="M581.867 61.579h5v5h-5z"/><path fill="#FF8000" fill-opacity="NaN" d="M581.867 61.579h5v5h-5z"/><path fill="#FF8000" fill-opacity="NaN" d="M581.867 61.579h5v5h-5z"/><path fill="#FF8000" fill-opacity="NaN" d="M581.867 61.579h5v5h-5z"/><path fill="#FF8000" fill-opacity="NaN" d="M581.867 61.579h5v5h-5z"/><path fill="#FF8000" fill-opacity="NaN" d="M581.867 61.579h5v5h-5z"/><path fill="#FF8000" fill-opacity="NaN" d="M581.867 61.579h5v5h-5z"/><path fill="#FF8000" fill-opacity="NaN" d="M581.867 61.579h5v5h-5zM381.5 337.5h5v5h-5z"/><path fill="#FF8000" fill-opacity="NaN" d="M381.5 337.5h5v5h-5z"/><path fill="#FF8000" fill-opacity="NaN" d="M381.5 337.5h5v5h-5zM381.5 317.5h5v5h-5z"/><path fill="#FF8000" fill-opacity="NaN" d="M381.5 317.5h5v5h-5z"/><path fill="#FF8000" fill-opacity="NaN" d="M381.5 317.5h5v5h-5z"/><path fill="#FF8000" fill-opacity="NaN" d="M381.5 317.5h5v5h-5z"/><path fill="#FF8000" fill-opacity="NaN" d="M381.5 317.5h5v5h-5z"/><path fill="#FF8000" fill-opacity="NaN" d="M381.5 317.5h5v5h-5zM599.206 71.548h5v5h-5z"/><path fill="#FF8000" fill-opacity="NaN" d="M599.206 71.548h5v5h-5z"/><path fill="#FF8000" fill-opacity="NaN" d="M599.206 71.548h5v5h-5z"/><path fill="#FF8000" fill-opacity="NaN" d="M599.206 71.548h5v5h-5z"/><path fill="#FF8000" fill-opacity="NaN" d="M599.206 71.548h5v5h-5z"/><path fill="#FF8000" fill-opacity="NaN" d="M599.206 71.548h5v5h-5z"/><path fill="#FF8000" fill-opacity="NaN" d="M599.206 71.548h5v5h-5z"/><path fill="#FF8000" fill-opacity="NaN" d="M599.206 71.548h5v5h-5zM381.5 317.5h5v5h-5z"/><path fill="#FF8000" fill-opacity="NaN" d="M381.5 317.5h5v5h-5z"/><path fill="#FF8000" fill-opacity="NaN" d="M381.5 317.5h5v5h-5z"/><path fill="#FF8000" fill-opacity="NaN" d="M381.5 317.5h5v5h-5zM381.5 357.5h5v5h-5z"/><path fill="#FF8000" fill-opacity="NaN" d="M381.5 357.5h5v5h-5z"/><path fill="#FF8000" fill-opacity="NaN" d="M381.5 357.5h5v5h-5z"/><path fill="#FF8000" fill-opacity="NaN" d="M381.5 357.5h5v5h-5z"/><path fill="#FF8000" fill-opacity="NaN" d="M381.5 357.5h5v5h-5zM564.529 51.61h5v5h-5z"/><path fill="#FF8000" fill-opacity="NaN" d="M564.529 51.61h5v5h-5z"/><path fill="#FF8000" fill-opacity="NaN" d="M564.529 51.61h5v5h-5z"/><path fill="#FF8000" fill-opacity="NaN" d="M564.529 51.61h5v5h-5z"/><path fill="#FF8000" fill-opacity="NaN" d="M564.529 51.61h5v5h-5z"/><path fill="#FF8000" fill-opacity="NaN" d="M564.529 51.61h5v5h-5z"/><path fill="#FF8000" fill-opacity="NaN" d="M564.529 51.61h5v5h-5z"/><path fill="#FF8000" fill-opacity="NaN" d="M564.529 51.61h5v5h-5zM381.5 357.5h5v5h-5z"/><path fill="#FF8000" fill-opacity="NaN" d="M381.5 357.5h5v5h-5zM401.5 317.5h5v5h-5z"/><path fill="#FF8000" fill-opacity="NaN" d="M401.5 317.5h5v5h-5z"/><path fill="#FF8000" fill-opacity="NaN" d="M401.5 317.5h5v5h-5z"/><path fill="#FF8000" fill-opacity="NaN" d="M401.5 317.5h5v5h-5z"/><path fill="#FF8000" fill-opacity="NaN" d="M401.5 317.5h5v5h-5z"/><path fill="#FF8000" fill-opacity="NaN" d="M401.5 317.5h5v5h-5zM589.237 88.886h5v5h-5z"/><path fill="#FF8000" fill-opacity="NaN" d="M589.237 88.886h5v5h-5z"/><path fill="#FF8000" fill-opacity="NaN" d="M589.237 88.886h5v5h-5z"/><path fill="#FF8000" fill-opacity="NaN" d="M589.237 88.886h5v5h-5z"/><path fill="#FF8000" fill-opacity="NaN" d="M589.237 88.886h5v5h-5z"/><path fill="#FF8000" fill-opacity="NaN" d="M589.237 88.886h5v5h-5z"/><path fill="#FF8000" fill-opacity="NaN" d="M589.237 88.886h5v5h-5z"/><path fill="#FF8000" fill-opacity="NaN" d="M589.237 88.886h5v5h-5zM401.5 317.5h5v5h-5z"/><path fill="#FF8000" fill-opacity="NaN" d="M401.5 317.5h5v5h-5z"/><path fill="#FF8000" fill-opacity="NaN" d="M401.5 317.5h5v5h-5z"/><path fill="#FF8000" fill-opacity="NaN" d="M401.5 317.5h5v5h-5zM720.574 141.331h5v5h-5z"/><path fill="#FF8000" fill-opacity="NaN" d="M720.574 141.331h5v5h-5z"/><path fill="#FF8000" fill-opacity="NaN" d="M720.574 141.331h5v5h-5z"/><path fill="#FF8000" fill-opacity="NaN" d="M720.574 141.331h5v5h-5zM581.867 453.421h5v5h-5z"/><path fill="#FF8000" fill-opacity="NaN" d="M581.867 453.421h5v5h-5z"/><path fill="#FF8000" fill-opacity="NaN" d="M581.867 453.421h5v5h-5z"/><path fill="#FF8000" fill-opacity="NaN" d="M581.867 453.421h5v5h-5zM703.236 131.362h5v5h-5z"/><path fill="#FF8000" fill-opacity="NaN" d="M703.236 131.362h5v5h-5z"/><path fill="#FF8000" fill-opacity="NaN" d="M703.236 131.362h5v5h-5z"/><path fill="#FF8000" fill-opacity="NaN" d="M703.236 131.362h5v5h-5z"/><path fill="#FF8000" fill-opacity="NaN" d="M703.236 131.362h5v5h-5zM599.206 443.452h5v5h-5z"/><path fill="#FF8000" fill-opacity="NaN" d="M599.206 443.452h5v5h-5z"/><path fill="#FF8000" fill-opacity="NaN" d="M599.206 443.452h5v5h-5zM737.913 151.3h5v5h-5z"/><path fill="#FF8000" fill-opacity="NaN" d="M737.913 151.3h5v5h-5z"/><path fill="#FF8000" fill-opacity="NaN" d="M737.913 151.3h5v5h-5z"/><path fill="#FF8000" fill-opacity="NaN" d="M737.913 151.3h5v5h-5zM564.529 463.39h5v5h-5z"/><path fill="#FF8000" fill-opacity="NaN" d="M564.529 463.39h5v5h-5z"/><path fill="#FF8000" fill-opacity="NaN" d="M564.529 463.39h5v5h-5zM693.267 148.7h5v5h-5z"/><path fill="#FF8000" fill-opacity="NaN" d="M693.267 148.7h5v5h-5z"/><path fill="#FF8000" fill-opacity="NaN" d="M693.267 148.7h5v5h-5z"/><path fill="#FF8000" fill-opacity="NaN" d="M693.267 148.7h5v5h-5z"/><path fill="#FF8000" fill-opacity="NaN" d="M693.267 148.7h5v5h-5zM589.237 426.114h5v5h-5z"/><path fill="#FF8000" fill-opacity="NaN" d="M589.237 426.114h5v5h-5z"/><path fill="#FF8000" fill-opacity="NaN" d="M589.237 426.114h5v5h-5zM721.196 372.814h5v5h-5zM703.236 383.638h5v5h-5zM738.48 362.752h5v5h-5zM693.267 366.3h5v5h-5z"/><path fill="#0F0" d="M381.5 177.5h5v5h-5zM381.5 197.5h5v5h-5zM381.5 157.5h5v5h-5zM401.5 197.5h5v5h-5z"/><path fill="none" stroke="#A8A8A8" paint-order="fill stroke markers" d="M285 260h279M423.195 16.623 564 260" stroke-miterlimit="10"/><path fill="red" d="M562.5 258.5h3v3h-3z"/></svg>