<svg xmlns="http://www.w3.org/2000/svg" width="1056" height="495"><g stroke="gray" stroke-miterlimit="10"><path stroke="none" d="M0 0h1056v495H0z"/><path fill="#fff" paint-order="stroke fill markers" d="M-2214.9 221h5505.8v2752.9h-5505.8" fill-opacity=".141" stroke="none"/><path fill="#0F0" stroke="none" d="M455.5 418.5h5v5h-5z"/><path fill="none" paint-order="fill stroke markers" d="M458 421V221m0 200h-15"/><text fill="gray" stroke="none" font-family="Arial" font-size="14" text-decoration="normal" text-anchor="end" dominant-baseline="central" transform="translate(443 421)">0</text><path fill="none" paint-order="fill stroke markers" d="M458 411h-10m10-10h-10m10-10h-10m10-10h-10m10-10h-15m15-10h-10m10-10h-10m10-10h-10m10-10h-10m10-10h-15"/><text fill="gray" stroke="none" font-family="Arial" font-size="14" text-decoration="normal" text-anchor="end" dominant-baseline="central" transform="translate(443 321)">100</text><path fill="none" paint-order="fill stroke markers" d="M458 311h-10m10-10h-10m10-10h-10m10-10h-10m10-10h-15m15-10h-10m10-10h-10m10-10h-10m10-10h-10m10-10h-15"/><text fill="gray" stroke="none" font-family="Arial" font-size="14" text-decoration="normal" text-anchor="end" dominant-baseline="central" transform="translate(443 221)">200</text><path fill="#FF8000" fill-opacity="NaN" stroke="none" d="M477.373 324.186h5v5h-5z"/><path fill="none" stroke="#00F" paint-order="fill stroke markers" d="m660.473 94.02-180.6 232.666" stroke-opacity="NaN"/><path fill="#FF8000" fill-opacity="NaN" stroke="none" d="M476.762 324.973h5v5h-5z"/><path fill="none" stroke="#00F" paint-order="fill stroke markers" d="M656.58 96.295 479.263 327.473" stroke-opacity="NaN"/><path fill="#FF8000" fill-opacity="NaN" stroke="none" d="M476.165 325.752h5v5h-5z"/><path fill="none" stroke="#00F" paint-order="fill stroke markers" d="m653.7 97.312-175.035 230.94" stroke-opacity="NaN"/><path fill="#FF8000" fill-opacity="NaN" stroke="none" d="M475.581 326.522h5v5h-5z"/><path fill="none" stroke="#00F" paint-order="fill stroke markers" d="M651.242 97.811 478.08 329.021" stroke-opacity="NaN"/><path fill="#FF8000" fill-opacity="NaN" stroke="none" d="M475.011 327.283h5v5h-5z"/><path fill="none" stroke="#00F" paint-order="fill stroke markers" d="m649.043 97.993-171.532 231.79" stroke-opacity="NaN"/><path fill="#FF8000" fill-opacity="NaN" stroke="none" d="M474.453 328.036h5v5h-5z"/><path fill="none" stroke="#00F" paint-order="fill stroke markers" d="m647.03 97.946-170.077 232.59" stroke-opacity="NaN"/><path fill="#FF8000" fill-opacity="NaN" stroke="none" d="M473.909 328.781h5v5h-5z"/><path fill="none" stroke="#00F" paint-order="fill stroke markers" d="M645.162 97.72 476.409 331.28" stroke-opacity="NaN"/><path fill="#FF8000" fill-opacity="NaN" stroke="none" d="M473.377 329.517h5v5h-5z"/><path fill="none" stroke="#00F" paint-order="fill stroke markers" d="M643.412 97.342 475.877 332.017" stroke-opacity="NaN"/><path fill="#FF8000" fill-opacity="NaN" stroke="none" d="M472.857 330.245h5v5h-5z"/><path fill="none" stroke="#00F" paint-order="fill stroke markers" d="M641.763 96.831 475.357 332.745" stroke-opacity="NaN"/><path fill="#FF8000" fill-opacity="NaN" stroke="none" d="M472.35 330.965h5v5h-5z"/><path fill="none" stroke="#00F" paint-order="fill stroke markers" d="M640.206 96.199 474.85 333.465" stroke-opacity="NaN"/><path fill="#FF8000" fill-opacity="NaN" stroke="none" d="M471.854 331.676h5v5h-5z"/><path fill="none" stroke="#00F" paint-order="fill stroke markers" d="M638.73 95.452 474.354 334.176" stroke-opacity="NaN"/><path fill="#FF8000" fill-opacity="NaN" stroke="none" d="M471.37 332.38h5v5h-5z"/><path fill="none" stroke="#00F" paint-order="fill stroke markers" d="M637.333 94.592 473.87 334.88" stroke-opacity="NaN"/><path fill="#FF8000" fill-opacity="NaN" stroke="none" d="M470.897 333.075h5v5h-5z"/><path fill="none" stroke="#00F" paint-order="fill stroke markers" d="M636.01 93.62 473.397 335.575" stroke-opacity="NaN"/><path fill="#FF8000" fill-opacity="NaN" stroke="none" d="M470.435 333.762h5v5h-5z"/><path fill="none" stroke="#00F" paint-order="fill stroke markers" d="M634.76 92.534 472.936 336.262" stroke-opacity="NaN"/><path fill="#FF8000" fill-opacity="NaN" stroke="none" d="M469.984 334.441h5v5h-5z"/><path fill="none" stroke="#00F" paint-order="fill stroke markers" d="M633.586 91.326 472.484 336.941" stroke-opacity="NaN"/><path fill="#FF8000" fill-opacity="NaN" stroke="none" d="M469.544 335.112h5v5h-5z"/><path fill="none" stroke="#00F" paint-order="fill stroke markers" d="M632.49 89.987 472.044 337.612" stroke-opacity="NaN"/><path fill="#FF8000" fill-opacity="NaN" stroke="none" d="M469.114 335.775h5v5h-5z"/><path fill="none" stroke="#00F" paint-order="fill stroke markers" d="M631.48 88.503 471.614 338.275" stroke-opacity="NaN"/><path fill="#FF8000" fill-opacity="NaN" stroke="none" d="M468.695 336.43h5v5h-5z"/><path fill="none" stroke="#00F" paint-order="fill stroke markers" d="M630.564 86.85 471.195 338.93" stroke-opacity="NaN"/><path fill="#FF8000" fill-opacity="NaN" stroke="none" d="M468.286 337.077h5v5h-5z"/><path fill="none" stroke="#00F" paint-order="fill stroke markers" d="M629.762 84.993 470.786 339.577" stroke-opacity="NaN"/><path fill="#FF8000" fill-opacity="NaN" stroke="none" d="M467.886 337.717h5v5h-5z"/><path fill="none" stroke="#00F" paint-order="fill stroke markers" d="M629.104 82.878 470.386 340.217" stroke-opacity="NaN"/><path fill="#FF8000" fill-opacity="NaN" stroke="none" d="M467.497 338.349h5v5h-5z"/><path fill="none" stroke="#00F" paint-order="fill stroke markers" d="M628.645 80.402 469.997 340.85" stroke-opacity="NaN"/><path fill="#FF8000" fill-opacity="NaN" stroke="none" d="M467.116 338.973h5v5h-5z"/><path fill="none" stroke="#00F" paint-order="fill stroke markers" d="m628.51 77.343-158.894 264.13" stroke-opacity="NaN"/><path fill="#FF8000" fill-opacity="NaN" stroke="none" d="M466.746 339.589h5v5h-5z"/><path fill="none" stroke="#00F" paint-order="fill stroke markers" d="M629.158 72.912 469.246 342.09" stroke-opacity="NaN"/><path fill="#0F0" stroke="none" d="M455.5 418.5h5v5h-5z"/><path fill="#00f" paint-order="stroke fill markers" d="M668.5 78a20 20 0 1 1 0-.02" stroke="none"/><path fill="#00f" paint-order="stroke fill markers" d="M668.5 78a20 20 0 1 1 0-.02" stroke="none"/></g></svg>