<svg version="1.1" xmlns="http://www.w3.org/2000/svg" xmlns:xlink="http://www.w3.org/1999/xlink" width="1056" height="495"><defs/><g stroke="rgb(128,128,128)" stroke-miterlimit="10" stroke-dasharray=""><rect fill="black" stroke="none" x="0" y="0" width="1056" height="495"/><g/><path fill="white" stroke="none" paint-order="stroke fill markers" d=" M -1984.9 221 L 3060.9 221 L 3060.9 2743.9 L -1984.9 2743.9" fill-opacity="0.14066756252554602"/><rect fill="indigo" stroke="none" x="536" y="219" width="3" height="3"/><rect fill="indigo" stroke="none" x="596" y="219" width="3" height="3"/><rect fill="rgb(0,255,0)" stroke="none" x="456" y="419" width="5" height="5"/><path fill="none" stroke="rgb(128,128,128)" paint-order="fill stroke markers" d=" M 458 421 L 458 221 M 458 421 L 443 421" stroke-miterlimit="10" stroke-dasharray=""/><g transform="translate(443,421) rotate(0,0,0)"><text fill="rgb(128,128,128)" stroke="none" font-family="Arial" font-size="14px" font-style="normal" font-weight="normal" text-decoration="normal" x="0" y="0" text-anchor="end" dominant-baseline="central">0</text></g><path fill="none" stroke="rgb(128,128,128)" paint-order="fill stroke markers" d=" M 458 411 L 448 411 M 458 401 L 448 401 M 458 391 L 448 391 M 458 381 L 448 381 M 458 371 L 443 371 M 458 361 L 448 361 M 458 351 L 448 351 M 458 341 L 448 341 M 458 331 L 448 331 M 458 321 L 443 321" stroke-miterlimit="10" stroke-dasharray=""/><g transform="translate(443,321) rotate(0,0,0)"><text fill="rgb(128,128,128)" stroke="none" font-family="Arial" font-size="14px" font-style="normal" font-weight="normal" text-decoration="normal" x="0" y="0" text-anchor="end" dominant-baseline="central">100</text></g><path fill="none" stroke="rgb(128,128,128)" paint-order="fill stroke markers" d=" M 458 311 L 448 311 M 458 301 L 448 301 M 458 291 L 448 291 M 458 281 L 448 281 M 458 271 L 443 271 M 458 261 L 448 261 M 458 251 L 448 251 M 458 241 L 448 241 M 458 231 L 448 231 M 458 221 L 443 221" stroke-miterlimit="10" stroke-dasharray=""/><g transform="translate(443,221) rotate(0,0,0)"><text fill="rgb(128,128,128)" stroke="none" font-family="Arial" font-size="14px" font-style="normal" font-weight="normal" text-decoration="normal" x="0" y="0" text-anchor="end" dominant-baseline="central">200</text></g><rect fill="rgb(255,128,0)" stroke="none" x="477.87299351757736" y="324.6857620591678" width="5" height="5" fill-opacity="NaN"/><path fill="none" stroke="rgb(0,0,255)" paint-order="fill stroke markers" d=" M 660.4732353746691 94.02003853499644 L 479.87299351757736 326.6857620591678" stroke-miterlimit="10" stroke-opacity="NaN" stroke-dasharray=""/><rect fill="rgb(255,128,0)" stroke="none" x="477.261890251932" y="325.4730410903989" width="5" height="5" fill-opacity="NaN"/><path fill="none" stroke="rgb(0,0,255)" paint-order="fill stroke markers" d=" M 656.5807961589148 96.29482805161247 L 479.261890251932 327.4730410903989" stroke-miterlimit="10" stroke-opacity="NaN" stroke-dasharray=""/><rect fill="rgb(255,128,0)" stroke="none" x="476.6646454340358" y="326.25169460758474" width="5" height="5" fill-opacity="NaN"/><path fill="none" stroke="rgb(0,0,255)" paint-order="fill stroke markers" d=" M 653.699703873349 97.31225206001311 L 478.6646454340358 328.25169460758474" stroke-miterlimit="10" stroke-opacity="NaN" stroke-dasharray=""/><rect fill="rgb(255,128,0)" stroke="none" x="476.08098393993833" y="327.0217715355181" width="5" height="5" fill-opacity="NaN"/><path fill="none" stroke="rgb(0,0,255)" paint-order="fill stroke markers" d=" M 651.2415676409569 97.81120407421159 L 478.08098393993833 329.0217715355181" stroke-miterlimit="10" stroke-opacity="NaN" stroke-dasharray=""/><rect fill="rgb(255,128,0)" stroke="none" x="475.51063648914374" y="327.7833210459723" width="5" height="5" fill-opacity="NaN"/><path fill="none" stroke="rgb(0,0,255)" paint-order="fill stroke markers" d=" M 649.0431730636292 97.99262271496534 L 477.51063648914374 329.7833210459723" stroke-miterlimit="10" stroke-opacity="NaN" stroke-dasharray=""/><rect fill="rgb(255,128,0)" stroke="none" x="474.9533395360459" y="328.5363924604043" width="5" height="5" fill-opacity="NaN"/><path fill="none" stroke="rgb(0,0,255)" paint-order="fill stroke markers" d=" M 647.0302486598843 97.94592266600439 L 476.9533395360459 330.5363924604043" stroke-miterlimit="10" stroke-opacity="NaN" stroke-dasharray=""/><rect fill="rgb(255,128,0)" stroke="none" x="474.40883508833434" y="329.28103525729335" width="5" height="5" fill-opacity="NaN"/><path fill="none" stroke="rgb(0,0,255)" paint-order="fill stroke markers" d=" M 645.1615406048616 97.71939879578008 L 476.40883508833434 331.28103525729335" stroke-miterlimit="10" stroke-opacity="NaN" stroke-dasharray=""/><rect fill="rgb(255,128,0)" stroke="none" x="473.8768706085026" y="330.0172989756782" width="5" height="5" fill-opacity="NaN"/><path fill="none" stroke="rgb(0,0,255)" paint-order="fill stroke markers" d=" M 643.4115119299203 97.34185330211808 L 475.8768706085026 332.0172989756782" stroke-miterlimit="10" stroke-opacity="NaN" stroke-dasharray=""/><rect fill="rgb(255,128,0)" stroke="none" x="473.3571988164671" y="330.7452332610183" width="5" height="5" fill-opacity="NaN"/><path fill="none" stroke="rgb(0,0,255)" paint-order="fill stroke markers" d=" M 641.7633331333303 96.83128565784918 L 475.3571988164671 332.7452332610183" stroke-miterlimit="10" stroke-opacity="NaN" stroke-dasharray=""/><rect fill="rgb(255,128,0)" stroke="none" x="472.8495776300076" y="331.4648877285306" width="5" height="5" fill-opacity="NaN"/><path fill="none" stroke="rgb(0,0,255)" paint-order="fill stroke markers" d=" M 640.2055599584693 96.19896327809504 L 474.8495776300076 333.4648877285306" stroke-miterlimit="10" stroke-opacity="NaN" stroke-dasharray=""/><rect fill="rgb(255,128,0)" stroke="none" x="472.35376997771016" y="332.1763120103424" width="5" height="5" fill-opacity="NaN"/><path fill="none" stroke="rgb(0,0,255)" paint-order="fill stroke markers" d=" M 638.7304006553828 95.45150218879897 L 474.35376997771016 334.1763120103424" stroke-miterlimit="10" stroke-opacity="NaN" stroke-dasharray=""/><rect fill="rgb(255,128,0)" stroke="none" x="471.8695436946823" y="332.87955569437577" width="5" height="5" fill-opacity="NaN"/><path fill="none" stroke="rgb(0,0,255)" paint-order="fill stroke markers" d=" M 637.332770699929 94.59195557370003 L 473.8695436946823 334.87955569437577" stroke-miterlimit="10" stroke-opacity="NaN" stroke-dasharray=""/><rect fill="rgb(255,128,0)" stroke="none" x="471.39667142093515" y="333.57466826436723" width="5" height="5" fill-opacity="NaN"/><path fill="none" stroke="rgb(0,0,255)" paint-order="fill stroke markers" d=" M 636.0097919914228 93.62032982694264 L 473.39667142093515 335.57466826436723" stroke-miterlimit="10" stroke-opacity="NaN" stroke-dasharray=""/><rect fill="rgb(255,128,0)" stroke="none" x="470.9349304289824" y="334.26169914997865" width="5" height="5" fill-opacity="NaN"/><path fill="none" stroke="rgb(0,0,255)" paint-order="fill stroke markers" d=" M 634.7605861161572 92.53370242328047 L 472.9349304289824 336.26169914997865" stroke-miterlimit="10" stroke-opacity="NaN" stroke-dasharray=""/><rect fill="rgb(255,128,0)" stroke="none" x="470.484102574921" y="334.940697602189" width="5" height="5" fill-opacity="NaN"/><path fill="none" stroke="rgb(0,0,255)" paint-order="fill stroke markers" d=" M 633.5863101967655 91.32598425831642 L 472.484102574921 336.940697602189" stroke-miterlimit="10" stroke-opacity="NaN" stroke-dasharray=""/><rect fill="rgb(255,128,0)" stroke="none" x="470.0439741328177" y="335.61171274676843" width="5" height="5" fill-opacity="NaN"/><path fill="none" stroke="rgb(0,0,255)" paint-order="fill stroke markers" d=" M 632.4904557293872 89.98726375146937 L 472.0439741328177 337.61171274676843" stroke-miterlimit="10" stroke-opacity="NaN" stroke-dasharray=""/><rect fill="rgb(255,128,0)" stroke="none" x="469.614335707803" y="336.2747935273672" width="5" height="5" fill-opacity="NaN"/><path fill="none" stroke="rgb(0,0,255)" paint-order="fill stroke markers" d=" M 631.4795167696199 88.50253067619165 L 471.614335707803 338.2747935273672" stroke-miterlimit="10" stroke-opacity="NaN" stroke-dasharray=""/><rect fill="rgb(255,128,0)" stroke="none" x="469.1949821373646" y="336.9299886707386" width="5" height="5" fill-opacity="NaN"/><path fill="none" stroke="rgb(0,0,255)" paint-order="fill stroke markers" d=" M 630.5642902344623 86.84931156680527 L 471.1949821373646 338.9299886707386" stroke-miterlimit="10" stroke-opacity="NaN" stroke-dasharray=""/><rect fill="rgb(255,128,0)" stroke="none" x="468.7857123541956" y="337.5773467178344" width="5" height="5" fill-opacity="NaN"/><path fill="none" stroke="rgb(0,0,255)" paint-order="fill stroke markers" d=" M 629.762436414751 84.99311882415509 L 470.7857123541956 339.5773467178344" stroke-miterlimit="10" stroke-opacity="NaN" stroke-dasharray=""/><rect fill="rgb(255,128,0)" stroke="none" x="468.38632933666133" y="338.21691592367324" width="5" height="5" fill-opacity="NaN"/><path fill="none" stroke="rgb(0,0,255)" paint-order="fill stroke markers" d=" M 629.1039535674673 82.87784612170537 L 470.38632933666133 340.21691592367324" stroke-miterlimit="10" stroke-opacity="NaN" stroke-dasharray=""/><rect fill="rgb(255,128,0)" stroke="none" x="467.99663997002267" y="338.8487443019411" width="5" height="5" fill-opacity="NaN"/><path fill="none" stroke="rgb(0,0,255)" paint-order="fill stroke markers" d=" M 628.6447786023823 80.40212057390602 L 469.99663997002267 340.8487443019411" stroke-miterlimit="10" stroke-opacity="NaN" stroke-dasharray=""/><rect fill="rgb(255,128,0)" stroke="none" x="467.61645494531894" y="339.4728796175564" width="5" height="5" fill-opacity="NaN"/><path fill="none" stroke="rgb(0,0,255)" paint-order="fill stroke markers" d=" M 628.5107816180118 77.34338102587125 L 469.61645494531894 341.4728796175564" stroke-miterlimit="10" stroke-opacity="NaN" stroke-dasharray=""/><rect fill="rgb(255,128,0)" stroke="none" x="467.2455887199181" y="340.08936928218606" width="5" height="5" fill-opacity="NaN"/><path fill="none" stroke="rgb(0,0,255)" paint-order="fill stroke markers" d=" M 629.1578985225634 72.91245536269751 L 469.2455887199181 342.08936928218606" stroke-miterlimit="10" stroke-opacity="NaN" stroke-dasharray=""/><rect fill="indigo" stroke="none" x="536" y="219" width="3" height="3"/><rect fill="indigo" stroke="none" x="596" y="219" width="3" height="3"/><rect fill="rgb(0,255,0)" stroke="none" x="456" y="419" width="5" height="5"/><path fill="blue" stroke="none" paint-order="stroke fill markers" d=" M 668.5 78 A 20 20 0 1 1 668.4999900000008 77.98000000333332"/><path fill="blue" stroke="none" paint-order="stroke fill markers" d=" M 668.5 78 A 20 20 0 1 1 668.4999900000008 77.98000000333332"/></g></svg>