<svg xmlns="http://www.w3.org/2000/svg" width="1056" height="495"><g stroke="gray" stroke-miterlimit="10"><path stroke="none" d="M0 0h1056v495H0z"/><path fill="#fff" paint-order="stroke fill markers" d="M-1984.9 221h5045.8v2522.9h-5045.8" fill-opacity=".141" stroke="none"/><path fill="indigo" stroke="none" d="M536 219h3v3h-3zM596 219h3v3h-3z"/><path fill="#0F0" stroke="none" d="M456 419h5v5h-5z"/><path fill="none" paint-order="fill stroke markers" d="M458 421V221m0 200h-15"/><text fill="gray" stroke="none" font-family="Arial" font-size="14" text-decoration="normal" text-anchor="end" dominant-baseline="central" transform="translate(443 421)">0</text><path fill="none" paint-order="fill stroke markers" d="M458 411h-10m10-10h-10m10-10h-10m10-10h-10m10-10h-15m15-10h-10m10-10h-10m10-10h-10m10-10h-10m10-10h-15"/><text fill="gray" stroke="none" font-family="Arial" font-size="14" text-decoration="normal" text-anchor="end" dominant-baseline="central" transform="translate(443 321)">100</text><path fill="none" paint-order="fill stroke markers" d="M458 311h-10m10-10h-10m10-10h-10m10-10h-10m10-10h-15m15-10h-10m10-10h-10m10-10h-10m10-10h-10m10-10h-15"/><text fill="gray" stroke="none" font-family="Arial" font-size="14" text-decoration="normal" text-anchor="end" dominant-baseline="central" transform="translate(443 221)">200</text><path fill="#FF8000" fill-opacity="NaN" stroke="none" d="M477.873 324.686h5v5h-5z"/><path fill="none" stroke="#00F" paint-order="fill stroke markers" d="m660.473 94.02-180.6 232.666" stroke-opacity="NaN"/><path fill="#FF8000" fill-opacity="NaN" stroke="none" d="M477.262 325.473h5v5h-5z"/><path fill="none" stroke="#00F" paint-order="fill stroke markers" d="M656.58 96.295 479.263 327.473" stroke-opacity="NaN"/><path fill="#FF8000" fill-opacity="NaN" stroke="none" d="M476.665 326.252h5v5h-5z"/><path fill="none" stroke="#00F" paint-order="fill stroke markers" d="m653.7 97.312-175.035 230.94" stroke-opacity="NaN"/><path fill="#FF8000" fill-opacity="NaN" stroke="none" d="M476.081 327.022h5v5h-5z"/><path fill="none" stroke="#00F" paint-order="fill stroke markers" d="M651.242 97.811 478.08 329.021" stroke-opacity="NaN"/><path fill="#FF8000" fill-opacity="NaN" stroke="none" d="M475.511 327.783h5v5h-5z"/><path fill="none" stroke="#00F" paint-order="fill stroke markers" d="m649.043 97.993-171.532 231.79" stroke-opacity="NaN"/><path fill="#FF8000" fill-opacity="NaN" stroke="none" d="M474.953 328.536h5v5h-5z"/><path fill="none" stroke="#00F" paint-order="fill stroke markers" d="m647.03 97.946-170.077 232.59" stroke-opacity="NaN"/><path fill="#FF8000" fill-opacity="NaN" stroke="none" d="M474.409 329.281h5v5h-5z"/><path fill="none" stroke="#00F" paint-order="fill stroke markers" d="M645.162 97.72 476.409 331.28" stroke-opacity="NaN"/><path fill="#FF8000" fill-opacity="NaN" stroke="none" d="M473.877 330.017h5v5h-5z"/><path fill="none" stroke="#00F" paint-order="fill stroke markers" d="M643.412 97.342 475.877 332.017" stroke-opacity="NaN"/><path fill="#FF8000" fill-opacity="NaN" stroke="none" d="M473.357 330.745h5v5h-5z"/><path fill="none" stroke="#00F" paint-order="fill stroke markers" d="M641.763 96.831 475.357 332.745" stroke-opacity="NaN"/><path fill="#FF8000" fill-opacity="NaN" stroke="none" d="M472.85 331.465h5v5h-5z"/><path fill="none" stroke="#00F" paint-order="fill stroke markers" d="M640.206 96.199 474.85 333.465" stroke-opacity="NaN"/><path fill="#FF8000" fill-opacity="NaN" stroke="none" d="M472.354 332.176h5v5h-5z"/><path fill="none" stroke="#00F" paint-order="fill stroke markers" d="M638.73 95.452 474.354 334.176" stroke-opacity="NaN"/><path fill="#FF8000" fill-opacity="NaN" stroke="none" d="M471.87 332.88h5v5h-5z"/><path fill="none" stroke="#00F" paint-order="fill stroke markers" d="M637.333 94.592 473.87 334.88" stroke-opacity="NaN"/><path fill="#FF8000" fill-opacity="NaN" stroke="none" d="M471.397 333.575h5v5h-5z"/><path fill="none" stroke="#00F" paint-order="fill stroke markers" d="M636.01 93.62 473.397 335.575" stroke-opacity="NaN"/><path fill="#FF8000" fill-opacity="NaN" stroke="none" d="M470.935 334.262h5v5h-5z"/><path fill="none" stroke="#00F" paint-order="fill stroke markers" d="M634.76 92.534 472.936 336.262" stroke-opacity="NaN"/><path fill="#FF8000" fill-opacity="NaN" stroke="none" d="M470.484 334.941h5v5h-5z"/><path fill="none" stroke="#00F" paint-order="fill stroke markers" d="M633.586 91.326 472.484 336.941" stroke-opacity="NaN"/><path fill="#FF8000" fill-opacity="NaN" stroke="none" d="M470.044 335.612h5v5h-5z"/><path fill="none" stroke="#00F" paint-order="fill stroke markers" d="M632.49 89.987 472.044 337.612" stroke-opacity="NaN"/><path fill="#FF8000" fill-opacity="NaN" stroke="none" d="M469.614 336.275h5v5h-5z"/><path fill="none" stroke="#00F" paint-order="fill stroke markers" d="M631.48 88.503 471.614 338.275" stroke-opacity="NaN"/><path fill="#FF8000" fill-opacity="NaN" stroke="none" d="M469.195 336.93h5v5h-5z"/><path fill="none" stroke="#00F" paint-order="fill stroke markers" d="M630.564 86.85 471.195 338.93" stroke-opacity="NaN"/><path fill="#FF8000" fill-opacity="NaN" stroke="none" d="M468.786 337.577h5v5h-5z"/><path fill="none" stroke="#00F" paint-order="fill stroke markers" d="M629.762 84.993 470.786 339.577" stroke-opacity="NaN"/><path fill="#FF8000" fill-opacity="NaN" stroke="none" d="M468.386 338.217h5v5h-5z"/><path fill="none" stroke="#00F" paint-order="fill stroke markers" d="M629.104 82.878 470.386 340.217" stroke-opacity="NaN"/><path fill="#FF8000" fill-opacity="NaN" stroke="none" d="M467.997 338.849h5v5h-5z"/><path fill="none" stroke="#00F" paint-order="fill stroke markers" d="M628.645 80.402 469.997 340.85" stroke-opacity="NaN"/><path fill="#FF8000" fill-opacity="NaN" stroke="none" d="M467.616 339.473h5v5h-5z"/><path fill="none" stroke="#00F" paint-order="fill stroke markers" d="m628.51 77.343-158.894 264.13" stroke-opacity="NaN"/><path fill="#FF8000" fill-opacity="NaN" stroke="none" d="M467.246 340.089h5v5h-5z"/><path fill="none" stroke="#00F" paint-order="fill stroke markers" d="M629.158 72.912 469.246 342.09" stroke-opacity="NaN"/><path fill="indigo" stroke="none" d="M536 219h3v3h-3zM596 219h3v3h-3z"/><path fill="#0F0" stroke="none" d="M456 419h5v5h-5z"/><path fill="#00f" paint-order="stroke fill markers" d="M668.5 78a20 20 0 1 1 0-.02" stroke="none"/><path fill="#00f" paint-order="stroke fill markers" d="M668.5 78a20 20 0 1 1 0-.02" stroke="none"/></g></svg>