<svg xmlns="http://www.w3.org/2000/svg" width="519" height="252"><path d="M0 0h519v252H0z"/><path fill="#0F0" d="M133.035 118.258h5v5h-5z"/><path fill="none" stroke="gray" paint-order="fill stroke markers" d="m205.685 84.025.532 71.213" stroke-miterlimit="10" stroke-width="4" stroke-opacity=".714"/><path fill="none" stroke="#FFF" paint-order="fill stroke markers" d="m203.951 119.647 4-.03" stroke-miterlimit="10"/><path fill="red" paint-order="stroke fill markers" d="m205.648 79.025 5.074 9.963-10 .074M206.254 160.238l4.925-10.037-10 .075"/><path fill="none" stroke="#A8A8A8" paint-order="fill stroke markers" d="m375.746 71.208 39.327 96.19" stroke-miterlimit="10"/><path fill="#FFFF80" fill-opacity="NaN" d="M133.035 118.258h5v5h-5z"/><path fill="#FF8000" fill-opacity="NaN" d="M133.035 118.258h5v5h-5z"/><path fill="#FFFF80" fill-opacity="NaN" d="M133.035 118.258h5v5h-5z"/><path fill="#FFFF80" fill-opacity="NaN" d="M133.035 118.258h5v5h-5z"/><path fill="#FF8000" fill-opacity="NaN" d="M133.035 118.258h5v5h-5z"/><path fill="#FF8000" fill-opacity="NaN" d="M133.035 118.258h5v5h-5z"/><path fill="#FF8000" fill-opacity="NaN" d="M133.035 118.258h5v5h-5z"/><path fill="#FFFF80" fill-opacity="NaN" d="M133.035 118.258h5v5h-5z"/><path fill="#FFFF80" fill-opacity="NaN" d="M133.035 118.258h5v5h-5z"/><path fill="#FFFF80" fill-opacity="NaN" d="M133.035 118.258h5v5h-5z"/><path fill="#FF8000" fill-opacity="NaN" d="M133.035 118.258h5v5h-5z"/><path fill="#FFFF80" fill-opacity="NaN" d="M133.035 118.258h5v5h-5z"/><path fill="#FFFF80" fill-opacity="NaN" d="M133.035 118.258h5v5h-5z"/><path fill="#FF8000" fill-opacity="NaN" d="M133.035 118.258h5v5h-5z"/><path fill="#FF8000" fill-opacity="NaN" d="M133.035 118.258h5v5h-5z"/><path fill="#FFFF80" fill-opacity="NaN" d="M133.035 118.258h5v5h-5z"/><path fill="#FFFF80" fill-opacity="NaN" d="M133.035 118.258h5v5h-5z"/><path fill="#FF8000" fill-opacity="NaN" d="M133.035 118.258h5v5h-5z"/><path fill="#FFFF80" fill-opacity="NaN" d="M133.035 118.258h5v5h-5z"/><path fill="#FF8000" fill-opacity="NaN" d="M133.035 118.258h5v5h-5z"/><path fill="#FF8000" fill-opacity="NaN" d="M133.035 118.258h5v5h-5z"/><path fill="#FFFF80" fill-opacity="NaN" d="M133.035 118.258h5v5h-5z"/><path fill="#FFFF80" fill-opacity="NaN" d="M133.035 118.258h5v5h-5z"/><path fill="#FF8000" fill-opacity="NaN" d="M133.035 118.258h5v5h-5z"/><path fill="#FF8000" fill-opacity="NaN" d="M133.035 118.258h5v5h-5z"/><path fill="#FF8000" fill-opacity="NaN" d="M133.035 118.258h5v5h-5z"/><path fill="#FFFF80" fill-opacity="NaN" d="M133.035 118.258h5v5h-5z"/><path fill="#FFFF80" fill-opacity="NaN" d="M133.035 118.258h5v5h-5z"/><path fill="#FFFF80" fill-opacity="NaN" d="M133.035 118.258h5v5h-5z"/><path fill="#FF8000" fill-opacity="NaN" d="M133.035 118.258h5v5h-5z"/><path fill="#FFFF80" fill-opacity="NaN" d="M133.035 118.258h5v5h-5z"/><path fill="#FF8000" fill-opacity="NaN" d="M133.035 118.258h5v5h-5z"/><path fill="#FFFF80" fill-opacity="NaN" d="M133.035 118.258h5v5h-5z"/><path fill="#FF8000" fill-opacity="NaN" d="M133.035 118.258h5v5h-5z"/><path fill="#FFFF80" fill-opacity="NaN" d="M133.035 118.258h5v5h-5z"/><path fill="#FF8000" fill-opacity="NaN" d="M133.035 118.258h5v5h-5z"/><path fill="#FFFF80" fill-opacity="NaN" d="M133.035 118.258h5v5h-5z"/><path fill="#FF8000" fill-opacity="NaN" d="M133.035 118.258h5v5h-5z"/><path fill="#FFFF80" fill-opacity="NaN" d="M133.035 118.258h5v5h-5z"/><path fill="#FF8000" fill-opacity="NaN" d="M133.035 118.258h5v5h-5z"/><path fill="#FFFF80" fill-opacity="NaN" d="M133.035 118.258h5v5h-5z"/><path fill="#FF8000" fill-opacity="NaN" d="M133.035 118.258h5v5h-5z"/><path fill="#FFFF80" fill-opacity="NaN" d="M133.035 118.258h5v5h-5z"/><path fill="#FF8000" fill-opacity="NaN" d="M133.035 118.258h5v5h-5z"/><path fill="#FF8000" fill-opacity="NaN" d="M133.035 118.258h5v5h-5z"/><path fill="#FF8000" fill-opacity="NaN" d="M133.035 118.258h5v5h-5z"/><path fill="#FFFF80" fill-opacity="NaN" d="M133.035 118.258h5v5h-5z"/><path fill="#FFFF80" fill-opacity="NaN" d="M133.035 118.258h5v5h-5z"/><path fill="#FF8000" fill-opacity="NaN" d="M133.035 118.258h5v5h-5z"/><path fill="#FF8000" fill-opacity="NaN" d="M133.035 118.258h5v5h-5z"/><path fill="#FFFF80" fill-opacity="NaN" d="M133.035 118.258h5v5h-5z"/><path fill="#FF8000" fill-opacity="NaN" d="M133.035 118.258h5v5h-5z"/><path fill="#FF8000" fill-opacity="NaN" d="M133.035 118.258h5v5h-5z"/><path fill="#FFFF80" fill-opacity="NaN" d="M133.035 118.258h5v5h-5z"/><path fill="#FF8000" fill-opacity="NaN" d="M133.035 118.258h5v5h-5z"/><path fill="#FFFF80" fill-opacity="NaN" d="M133.035 118.258h5v5h-5z"/><path fill="#FF8000" fill-opacity="NaN" d="M133.035 118.258h5v5h-5z"/><path fill="#FF8000" fill-opacity="NaN" d="M133.035 118.258h5v5h-5z"/><path fill="#FF8000" fill-opacity="NaN" d="M133.035 118.258h5v5h-5z"/><path fill="#FF8000" fill-opacity="NaN" d="M133.035 118.258h5v5h-5z"/><path fill="#FFFF80" fill-opacity="NaN" d="M133.035 118.258h5v5h-5z"/><path fill="#FF8000" fill-opacity="NaN" d="M133.035 118.258h5v5h-5z"/><path fill="#FFFF80" fill-opacity="NaN" d="M133.035 118.258h5v5h-5z"/><path fill="#FFFF80" fill-opacity="NaN" d="M133.035 118.258h5v5h-5z"/><path fill="#FFFF80" fill-opacity="NaN" d="M133.035 118.258h5v5h-5z"/><path fill="#FFFF80" fill-opacity="NaN" d="M133.035 118.258h5v5h-5z"/><path fill="#FFFF80" fill-opacity="NaN" d="M133.035 118.258h5v5h-5z"/><path fill="#FF8000" fill-opacity="NaN" d="M133.035 118.258h5v5h-5z"/><path fill="#FFFF80" fill-opacity="NaN" d="M133.035 118.258h5v5h-5z"/><path fill="#FFFF80" fill-opacity="NaN" d="M133.035 118.258h5v5h-5z"/><path fill="#FF8000" fill-opacity="NaN" d="M133.035 118.258h5v5h-5z"/><path fill="#FF8000" fill-opacity="NaN" d="M133.035 118.258h5v5h-5z"/><path fill="#FF8000" fill-opacity="NaN" d="M133.035 118.258h5v5h-5z"/><path fill="#FFFF80" fill-opacity="NaN" d="M133.035 118.258h5v5h-5z"/><path fill="#FF8000" fill-opacity="NaN" d="M133.035 118.258h5v5h-5z"/><path fill="#FF8000" fill-opacity="NaN" d="M133.035 118.258h5v5h-5z"/><path fill="#FF8000" fill-opacity="NaN" d="M133.035 118.258h5v5h-5z"/><path fill="#FFFF80" fill-opacity="NaN" d="M133.035 118.258h5v5h-5z"/><path fill="#FF8000" fill-opacity="NaN" d="M133.035 118.258h5v5h-5z"/><path fill="#FFFF80" fill-opacity="NaN" d="M133.035 118.258h5v5h-5z"/><path fill="#FF8000" fill-opacity="NaN" d="M133.035 118.258h5v5h-5z"/><path fill="#FFFF80" fill-opacity="NaN" d="M133.035 118.258h5v5h-5z"/><path fill="#FFFF80" fill-opacity="NaN" d="M133.035 118.258h5v5h-5z"/><path fill="#FF8000" fill-opacity="NaN" d="M133.035 118.258h5v5h-5z"/><path fill="#FFFF80" fill-opacity="NaN" d="M133.035 118.258h5v5h-5z"/><path fill="#FF8000" fill-opacity="NaN" d="M133.035 118.258h5v5h-5z"/><path fill="#FFFF80" fill-opacity="NaN" d="M133.035 118.258h5v5h-5z"/><path fill="#FF8000" fill-opacity="NaN" d="M133.035 118.258h5v5h-5z"/><path fill="#FFFF80" fill-opacity="NaN" d="M133.035 118.258h5v5h-5z"/><path fill="#FF8000" fill-opacity="NaN" d="M133.035 118.258h5v5h-5z"/><path fill="#FFFF80" fill-opacity="NaN" d="M133.035 118.258h5v5h-5z"/><path fill="#FFFF80" fill-opacity="NaN" d="M133.035 118.258h5v5h-5z"/><path fill="#FF8000" fill-opacity="NaN" d="M133.035 118.258h5v5h-5z"/><path fill="#FFFF80" fill-opacity="NaN" d="M133.035 118.258h5v5h-5z"/><path fill="#FF8000" fill-opacity="NaN" d="M133.035 118.258h5v5h-5z"/><path fill="#FFFF80" fill-opacity="NaN" d="M133.035 118.258h5v5h-5z"/><path fill="#FFFF80" fill-opacity="NaN" d="M133.035 118.258h5v5h-5z"/><path fill="#FF8000" fill-opacity="NaN" d="M133.035 118.258h5v5h-5z"/><path fill="#FFFF80" fill-opacity="NaN" d="M133.035 118.258h5v5h-5z"/><path fill="#FFFF80" fill-opacity="NaN" d="M133.035 118.258h5v5h-5z"/><path fill="#FF8000" fill-opacity="NaN" d="M133.035 118.258h5v5h-5z"/><path fill="#FFFF80" fill-opacity="NaN" d="M133.035 118.258h5v5h-5z"/><path fill="#FF8000" fill-opacity="NaN" d="M133.035 118.258h5v5h-5z"/><path fill="#FFFF80" fill-opacity="NaN" d="M133.035 118.258h5v5h-5z"/><path fill="#FFFF80" fill-opacity="NaN" d="M133.035 118.258h5v5h-5z"/><path fill="#FF8000" fill-opacity="NaN" d="M133.035 118.258h5v5h-5z"/><path fill="#FFFF80" fill-opacity="NaN" d="M133.035 118.258h5v5h-5z"/><path fill="#FFFF80" fill-opacity="NaN" d="M133.035 118.258h5v5h-5z"/><path fill="#FF8000" fill-opacity="NaN" d="M133.035 118.258h5v5h-5z"/><path fill="#FFFF80" fill-opacity="NaN" d="M133.035 118.258h5v5h-5z"/><path fill="#FF8000" fill-opacity="NaN" d="M133.035 118.258h5v5h-5z"/><path fill="#FF8000" fill-opacity="NaN" d="M133.035 118.258h5v5h-5z"/><path fill="#FFFF80" fill-opacity="NaN" d="M133.035 118.258h5v5h-5z"/><path fill="#FF8000" fill-opacity="NaN" d="M133.035 118.258h5v5h-5z"/><path fill="#FFFF80" fill-opacity="NaN" d="M133.035 118.258h5v5h-5z"/><path fill="#FFFF80" fill-opacity="NaN" d="M133.035 118.258h5v5h-5z"/><path fill="#FF8000" fill-opacity="NaN" d="M133.035 118.258h5v5h-5z"/><path fill="#FFFF80" fill-opacity="NaN" d="M133.035 118.258h5v5h-5z"/><path fill="#FF8000" fill-opacity="NaN" d="M133.035 118.258h5v5h-5z"/><path fill="#FF8000" fill-opacity="NaN" d="M133.035 118.258h5v5h-5z"/><path fill="#FF8000" fill-opacity="NaN" d="M133.035 118.258h5v5h-5z"/><path fill="#FFFF80" fill-opacity="NaN" d="M133.035 118.258h5v5h-5z"/><path fill="#FF8000" fill-opacity="NaN" d="M133.035 118.258h5v5h-5z"/><path fill="#FF8000" fill-opacity="NaN" d="M133.035 118.258h5v5h-5z"/><path fill="#FFFF80" fill-opacity="NaN" d="M133.035 118.258h5v5h-5z"/><path fill="#FFFF80" fill-opacity="NaN" d="M133.035 118.258h5v5h-5z"/><path fill="#FF8000" fill-opacity="NaN" d="M133.035 118.258h5v5h-5z"/><path fill="#FF8000" fill-opacity="NaN" d="M133.035 118.258h5v5h-5z"/><path fill="#FFFF80" fill-opacity="NaN" d="M133.035 118.258h5v5h-5z"/><path fill="#FF8000" fill-opacity="NaN" d="M133.035 118.258h5v5h-5z"/><path fill="#FF8000" fill-opacity="NaN" d="M133.035 118.258h5v5h-5z"/><path fill="#FFFF80" fill-opacity="NaN" d="M133.035 118.258h5v5h-5z"/><path fill="#FFFF80" fill-opacity="NaN" d="M133.035 118.258h5v5h-5z"/><path fill="#FF8000" fill-opacity="NaN" d="M133.035 118.258h5v5h-5z"/><path fill="#FFFF80" fill-opacity="NaN" d="M133.035 118.258h5v5h-5z"/><path fill="#FF8000" fill-opacity="NaN" d="M133.035 118.258h5v5h-5z"/><path fill="#FFFF80" fill-opacity="NaN" d="M133.035 118.258h5v5h-5z"/><path fill="#FF8000" fill-opacity="NaN" d="M133.035 118.258h5v5h-5z"/><path fill="#FFFF80" fill-opacity="NaN" d="M133.035 118.258h5v5h-5z"/><path fill="#FF8000" fill-opacity="NaN" d="M133.035 118.258h5v5h-5z"/><path fill="#FFFF80" fill-opacity="NaN" d="M133.035 118.258h5v5h-5z"/><path fill="#FFFF80" fill-opacity="NaN" d="M133.035 118.258h5v5h-5z"/><path fill="#FF8000" fill-opacity="NaN" d="M133.035 118.258h5v5h-5z"/><path fill="#FF8000" fill-opacity="NaN" d="M133.035 118.258h5v5h-5z"/><path fill="#FFFF80" fill-opacity="NaN" d="M133.035 118.258h5v5h-5z"/><path fill="#FFFF80" fill-opacity="NaN" d="M133.035 118.258h5v5h-5z"/><path fill="#FF8000" fill-opacity="NaN" d="M133.035 118.258h5v5h-5z"/><path fill="#FFFF80" fill-opacity="NaN" d="M133.035 118.258h5v5h-5z"/><path fill="#FF8000" fill-opacity="NaN" d="M133.035 118.258h5v5h-5z"/><path fill="#FFFF80" fill-opacity="NaN" d="M133.035 118.258h5v5h-5z"/><path fill="#FFFF80" fill-opacity="NaN" d="M133.035 118.258h5v5h-5z"/><path fill="#FF8000" fill-opacity="NaN" d="M133.035 118.258h5v5h-5z"/><path fill="#FFFF80" fill-opacity="NaN" d="M133.035 118.258h5v5h-5z"/><path fill="#FF8000" fill-opacity="NaN" d="M133.035 118.258h5v5h-5z"/><path fill="#FFFF80" fill-opacity="NaN" d="M133.035 118.258h5v5h-5z"/><path fill="#FFFF80" fill-opacity="NaN" d="M133.035 118.258h5v5h-5z"/><path fill="#FFFF80" fill-opacity="NaN" d="M133.035 118.258h5v5h-5z"/><path fill="#FF8000" fill-opacity="NaN" d="M133.035 118.258h5v5h-5z"/><path fill="#FF8000" fill-opacity="NaN" d="M133.035 118.258h5v5h-5z"/><path fill="#FFFF80" fill-opacity="NaN" d="M133.035 118.258h5v5h-5z"/><path fill="#FFFF80" fill-opacity="NaN" d="M133.035 118.258h5v5h-5z"/><path fill="#FF8000" fill-opacity="NaN" d="M133.035 118.258h5v5h-5z"/><path fill="#FFFF80" fill-opacity="NaN" d="M133.035 118.258h5v5h-5z"/><path fill="#FFFF80" fill-opacity="NaN" d="M133.035 118.258h5v5h-5z"/><path fill="#FFFF80" fill-opacity="NaN" d="M133.035 118.258h5v5h-5z"/><path fill="#FF8000" fill-opacity="NaN" d="M133.035 118.258h5v5h-5z"/><path fill="#FFFF80" fill-opacity="NaN" d="M133.035 118.258h5v5h-5z"/><path fill="#FF8000" fill-opacity="NaN" d="M133.035 118.258h5v5h-5z"/><path fill="#FFFF80" fill-opacity="NaN" d="M133.035 118.258h5v5h-5z"/><path fill="#FF8000" fill-opacity="NaN" d="M133.035 118.258h5v5h-5z"/><path fill="#FF8000" fill-opacity="NaN" d="M133.035 118.258h5v5h-5z"/><path fill="#FFFF80" fill-opacity="NaN" d="M133.035 118.258h5v5h-5z"/><path fill="#FFFF80" fill-opacity="NaN" d="M133.035 118.258h5v5h-5z"/><path fill="#FF8000" fill-opacity="NaN" d="M133.035 118.258h5v5h-5z"/><path fill="#FF8000" fill-opacity="NaN" d="M133.035 118.258h5v5h-5z"/><path fill="#FF8000" fill-opacity="NaN" d="M133.035 118.258h5v5h-5z"/><path fill="#FFFF80" fill-opacity="NaN" d="M133.035 118.258h5v5h-5z"/><path fill="#FF8000" fill-opacity="NaN" d="M133.035 118.258h5v5h-5z"/><path fill="#FFFF80" fill-opacity="NaN" d="M133.035 118.258h5v5h-5z"/><path fill="#FF8000" fill-opacity="NaN" d="M133.035 118.258h5v5h-5z"/><path fill="#FF8000" fill-opacity="NaN" d="M133.035 118.258h5v5h-5z"/><path fill="#FF8000" fill-opacity="NaN" d="M133.035 118.258h5v5h-5z"/><path fill="#FFFF80" fill-opacity="NaN" d="M133.035 118.258h5v5h-5z"/><path fill="#FFFF80" fill-opacity="NaN" d="M133.035 118.258h5v5h-5z"/><path fill="#FF8000" fill-opacity="NaN" d="M133.035 118.258h5v5h-5z"/><path fill="#FFFF80" fill-opacity="NaN" d="M133.035 118.258h5v5h-5z"/><path fill="#FF8000" fill-opacity="NaN" d="M133.035 118.258h5v5h-5z"/><path fill="#FFFF80" fill-opacity="NaN" d="M133.035 118.258h5v5h-5z"/><path fill="#FF8000" fill-opacity="NaN" d="M133.035 118.258h5v5h-5z"/><path fill="#FFFF80" fill-opacity="NaN" d="M133.035 118.258h5v5h-5z"/><path fill="#FFFF80" fill-opacity="NaN" d="M133.035 118.258h5v5h-5z"/><path fill="#FF8000" fill-opacity="NaN" d="M133.035 118.258h5v5h-5z"/><path fill="#FF8000" fill-opacity="NaN" d="M133.035 118.258h5v5h-5z"/><path fill="#FFFF80" fill-opacity="NaN" d="M133.035 118.258h5v5h-5z"/><path fill="#FF8000" fill-opacity="NaN" d="M133.035 118.258h5v5h-5z"/><path fill="#FFFF80" fill-opacity="NaN" d="M133.035 118.258h5v5h-5z"/><path fill="#FFFF80" fill-opacity="NaN" d="M133.035 118.258h5v5h-5z"/><path fill="#FF8000" fill-opacity="NaN" d="M133.035 118.258h5v5h-5z"/><path fill="#FF8000" fill-opacity="NaN" d="M133.035 118.258h5v5h-5z"/><path fill="#FFFF80" fill-opacity="NaN" d="M133.035 118.258h5v5h-5z"/><path fill="#FF8000" fill-opacity="NaN" d="M133.035 118.258h5v5h-5z"/><path fill="#FFFF80" fill-opacity="NaN" d="M133.035 118.258h5v5h-5z"/><path fill="#FFFF80" fill-opacity="NaN" d="M133.035 118.258h5v5h-5z"/><path fill="#FFFF80" fill-opacity="NaN" d="M133.035 118.258h5v5h-5z"/><path fill="#FF8000" fill-opacity="NaN" d="M133.035 118.258h5v5h-5z"/><path fill="#FF8000" fill-opacity="NaN" d="M133.035 118.258h5v5h-5z"/><path fill="#FFFF80" fill-opacity="NaN" d="M133.035 118.258h5v5h-5z"/><path fill="#FF8000" fill-opacity="NaN" d="M133.035 118.258h5v5h-5z"/><path fill="#FFFF80" fill-opacity="NaN" d="M133.035 118.258h5v5h-5z"/><path fill="#FFFF80" fill-opacity="NaN" d="M133.035 118.258h5v5h-5z"/><path fill="#FF8000" fill-opacity="NaN" d="M133.035 118.258h5v5h-5z"/><path fill="#FFFF80" fill-opacity="NaN" d="M133.035 118.258h5v5h-5z"/><path fill="#FF8000" fill-opacity="NaN" d="M133.035 118.258h5v5h-5z"/><path fill="#FFFF80" fill-opacity="NaN" d="M133.035 118.258h5v5h-5z"/><path fill="#FFFF80" fill-opacity="NaN" d="M133.035 118.258h5v5h-5z"/><path fill="#FF8000" fill-opacity="NaN" d="M133.035 118.258h5v5h-5z"/><path fill="#FFFF80" fill-opacity="NaN" d="M133.035 118.258h5v5h-5z"/><path fill="#FF8000" fill-opacity="NaN" d="M133.035 118.258h5v5h-5z"/><path fill="#FFFF80" fill-opacity="NaN" d="M133.035 118.258h5v5h-5z"/><path fill="#FFFF80" fill-opacity="NaN" d="M133.035 118.258h5v5h-5z"/><path fill="#FF8000" fill-opacity="NaN" d="M133.035 118.258h5v5h-5z"/><path fill="#FF8000" fill-opacity="NaN" d="M133.035 118.258h5v5h-5z"/><path fill="#FFFF80" fill-opacity="NaN" d="M133.035 118.258h5v5h-5z"/><path fill="#FF8000" fill-opacity="NaN" d="M133.035 118.258h5v5h-5z"/><path fill="#FFFF80" fill-opacity="NaN" d="M133.035 118.258h5v5h-5z"/><path fill="#FF8000" fill-opacity="NaN" d="M133.035 118.258h5v5h-5z"/><path fill="#FF8000" fill-opacity="NaN" d="M133.035 118.258h5v5h-5z"/><path fill="#FFFF80" fill-opacity="NaN" d="M133.035 118.258h5v5h-5z"/><path fill="#FFFF80" fill-opacity="NaN" d="M133.035 118.258h5v5h-5z"/><path fill="#FF8000" fill-opacity="NaN" d="M133.035 118.258h5v5h-5z"/><path fill="#FFFF80" fill-opacity="NaN" d="M133.035 118.258h5v5h-5z"/><path fill="#FF8000" fill-opacity="NaN" d="M133.035 118.258h5v5h-5z"/><path fill="#FFFF80" fill-opacity="NaN" d="M133.035 118.258h5v5h-5z"/><path fill="#FFFF80" fill-opacity="NaN" d="M133.035 118.258h5v5h-5z"/><path fill="#FFFF80" fill-opacity="NaN" d="M133.035 118.258h5v5h-5z"/><path fill="#FF8000" fill-opacity="NaN" d="M133.035 118.258h5v5h-5z"/><path fill="#FF8000" fill-opacity="NaN" d="M133.035 118.258h5v5h-5z"/><path fill="#FFFF80" fill-opacity="NaN" d="M133.035 118.258h5v5h-5z"/><path fill="#FF8000" fill-opacity="NaN" d="M133.035 118.258h5v5h-5z"/><path fill="#FFFF80" fill-opacity="NaN" d="M133.035 118.258h5v5h-5z"/><path fill="#FFFF80" fill-opacity="NaN" d="M133.035 118.258h5v5h-5z"/><path fill="#FFFF80" fill-opacity="NaN" d="M133.035 118.258h5v5h-5z"/><path fill="#FF8000" fill-opacity="NaN" d="M133.035 118.258h5v5h-5z"/><path fill="#FFFF80" fill-opacity="NaN" d="M133.035 118.258h5v5h-5z"/><path fill="#FF8000" fill-opacity="NaN" d="M133.035 118.258h5v5h-5z"/><path fill="#FF8000" fill-opacity="NaN" d="M133.035 118.258h5v5h-5z"/><path fill="#FFFF80" fill-opacity="NaN" d="M133.035 118.258h5v5h-5z"/><path fill="#FFFF80" fill-opacity="NaN" d="M133.035 118.258h5v5h-5z"/><path fill="#FF8000" fill-opacity="NaN" d="M133.035 118.258h5v5h-5z"/><path fill="#FFFF80" fill-opacity="NaN" d="M133.035 118.258h5v5h-5z"/><path fill="#FF8000" fill-opacity="NaN" d="M133.035 118.258h5v5h-5z"/><path fill="#FF8000" fill-opacity="NaN" d="M133.035 118.258h5v5h-5z"/><path fill="#FFFF80" fill-opacity="NaN" d="M133.035 118.258h5v5h-5z"/><path fill="#FF8000" fill-opacity="NaN" d="M133.035 118.258h5v5h-5z"/><path fill="#FFFF80" fill-opacity="NaN" d="M133.035 118.258h5v5h-5z"/><path fill="#FFFF80" fill-opacity="NaN" d="M133.035 118.258h5v5h-5z"/><path fill="#FF8000" fill-opacity="NaN" d="M133.035 118.258h5v5h-5z"/><path fill="#FFFF80" fill-opacity="NaN" d="M133.035 118.258h5v5h-5z"/><path fill="#FFFF80" fill-opacity="NaN" d="M133.035 118.258h5v5h-5z"/><path fill="#FF8000" fill-opacity="NaN" d="M133.035 118.258h5v5h-5z"/><path fill="#FF8000" fill-opacity="NaN" d="M133.035 118.258h5v5h-5z"/><path fill="#FF8000" fill-opacity="NaN" d="M133.035 118.258h5v5h-5z"/><path fill="#FF8000" fill-opacity="NaN" d="M133.035 118.258h5v5h-5z"/><path fill="#FFFF80" fill-opacity="NaN" d="M133.035 118.258h5v5h-5z"/><path fill="#FFFF80" fill-opacity="NaN" d="M133.035 118.258h5v5h-5z"/><path fill="#FF8000" fill-opacity="NaN" d="M133.035 118.258h5v5h-5z"/><path fill="#FFFF80" fill-opacity="NaN" d="M133.035 118.258h5v5h-5z"/><path fill="#FF8000" fill-opacity="NaN" d="M133.035 118.258h5v5h-5z"/><path fill="#FFFF80" fill-opacity="NaN" d="M133.035 118.258h5v5h-5z"/><path fill="#FF8000" fill-opacity="NaN" d="M133.035 118.258h5v5h-5z"/><path fill="#FFFF80" fill-opacity="NaN" d="M133.035 118.258h5v5h-5z"/><path fill="#FFFF80" fill-opacity="NaN" d="M133.035 118.258h5v5h-5z"/><path fill="#FFFF80" fill-opacity="NaN" d="M133.035 118.258h5v5h-5z"/><path fill="#FF8000" fill-opacity="NaN" d="M133.035 118.258h5v5h-5z"/><path fill="#FF8000" fill-opacity="NaN" d="M133.035 118.258h5v5h-5z"/><path fill="#FFFF80" fill-opacity="NaN" d="M133.035 118.258h5v5h-5z"/><path fill="#FF8000" fill-opacity="NaN" d="M133.035 118.258h5v5h-5z"/><path fill="#FF8000" fill-opacity="NaN" d="M133.035 118.258h5v5h-5z"/><path fill="#FFFF80" fill-opacity="NaN" d="M133.035 118.258h5v5h-5z"/><path fill="#FFFF80" fill-opacity="NaN" d="M133.035 118.258h5v5h-5z"/><path fill="#FF8000" fill-opacity="NaN" d="M133.035 118.258h5v5h-5z"/><path fill="#FFFF80" fill-opacity="NaN" d="M133.035 118.258h5v5h-5z"/><path fill="#FFFF80" fill-opacity="NaN" d="M133.035 118.258h5v5h-5z"/><path fill="#FF8000" fill-opacity="NaN" d="M133.035 118.258h5v5h-5z"/><path fill="#FF8000" fill-opacity="NaN" d="M133.035 118.258h5v5h-5z"/><path fill="#FFFF80" fill-opacity="NaN" d="M133.035 118.258h5v5h-5z"/><path fill="#FF8000" fill-opacity="NaN" d="M133.035 118.258h5v5h-5z"/><path fill="#FFFF80" fill-opacity="NaN" d="M133.035 118.258h5v5h-5z"/><path fill="#FF8000" fill-opacity="NaN" d="M133.035 118.258h5v5h-5z"/><path fill="#FFFF80" fill-opacity="NaN" d="M133.035 118.258h5v5h-5z"/><path fill="#FFFF80" fill-opacity="NaN" d="M133.035 118.258h5v5h-5z"/><path fill="#FF8000" fill-opacity="NaN" d="M133.035 118.258h5v5h-5z"/><path fill="#FF8000" fill-opacity="NaN" d="M133.035 118.258h5v5h-5z"/><path fill="#FF8000" fill-opacity="NaN" d="M133.035 118.258h5v5h-5z"/><path fill="#FFFF80" fill-opacity="NaN" d="M133.035 118.258h5v5h-5z"/><path fill="#FFFF80" fill-opacity="NaN" d="M133.035 118.258h5v5h-5z"/><path fill="#FF8000" fill-opacity="NaN" d="M133.035 118.258h5v5h-5z"/><path fill="#FFFF80" fill-opacity="NaN" d="M133.035 118.258h5v5h-5z"/><path fill="#FF8000" fill-opacity="NaN" d="M133.035 118.258h5v5h-5z"/><path fill="#FF8000" fill-opacity="NaN" d="M133.035 118.258h5v5h-5z"/><path fill="#FFFF80" fill-opacity="NaN" d="M133.035 118.258h5v5h-5z"/><path fill="#FFFF80" fill-opacity="NaN" d="M133.035 118.258h5v5h-5z"/><path fill="#FFFF80" fill-opacity="NaN" d="M133.035 118.258h5v5h-5z"/><path fill="#FF8000" fill-opacity="NaN" d="M133.035 118.258h5v5h-5z"/><path fill="#FFFF80" fill-opacity="NaN" d="M133.035 118.258h5v5h-5z"/><path fill="#FF8000" fill-opacity="NaN" d="M133.035 118.258h5v5h-5z"/><path fill="#FFFF80" fill-opacity="NaN" d="M133.035 118.258h5v5h-5z"/><path fill="#FF8000" fill-opacity="NaN" d="M133.035 118.258h5v5h-5z"/><path fill="#FF8000" fill-opacity="NaN" d="M133.035 118.258h5v5h-5z"/><path fill="#FFFF80" fill-opacity="NaN" d="M133.035 118.258h5v5h-5z"/><path fill="#FFFF80" fill-opacity="NaN" d="M133.035 118.258h5v5h-5z"/><path fill="#FF8000" fill-opacity="NaN" d="M133.035 118.258h5v5h-5z"/><path fill="#FFFF80" fill-opacity="NaN" d="M133.035 118.258h5v5h-5z"/><path fill="#FF8000" fill-opacity="NaN" d="M133.035 118.258h5v5h-5z"/><path fill="#FFFF80" fill-opacity="NaN" d="M133.035 118.258h5v5h-5z"/><path fill="#FF8000" fill-opacity="NaN" d="M133.035 118.258h5v5h-5z"/><path fill="#FF8000" fill-opacity="NaN" d="M133.035 118.258h5v5h-5z"/><path fill="#FF8000" fill-opacity="NaN" d="M133.035 118.258h5v5h-5z"/><path fill="#FFFF80" fill-opacity="NaN" d="M133.035 118.258h5v5h-5z"/><path fill="#FF8000" fill-opacity="NaN" d="M133.035 118.258h5v5h-5z"/><path fill="#FF8000" fill-opacity="NaN" d="M133.035 118.258h5v5h-5z"/><path fill="#FFFF80" fill-opacity="NaN" d="M133.035 118.258h5v5h-5z"/><path fill="#FFFF80" fill-opacity="NaN" d="M133.035 118.258h5v5h-5z"/><path fill="#FF8000" fill-opacity="NaN" d="M133.035 118.258h5v5h-5z"/><path fill="#FFFF80" fill-opacity="NaN" d="M133.035 118.258h5v5h-5z"/><path fill="#FFFF80" fill-opacity="NaN" d="M133.035 118.258h5v5h-5z"/><path fill="#FF8000" fill-opacity="NaN" d="M133.035 118.258h5v5h-5z"/><path fill="#FFFF80" fill-opacity="NaN" d="M133.035 118.258h5v5h-5z"/><path fill="#FFFF80" fill-opacity="NaN" d="M133.035 118.258h5v5h-5z"/><path fill="#FF8000" fill-opacity="NaN" d="M133.035 118.258h5v5h-5z"/><path fill="#FF8000" fill-opacity="NaN" d="M133.035 118.258h5v5h-5z"/><path fill="#FFFF80" fill-opacity="NaN" d="M133.035 118.258h5v5h-5z"/><path fill="#FFFF80" fill-opacity="NaN" d="M133.035 118.258h5v5h-5z"/><path fill="#FF8000" fill-opacity="NaN" d="M133.035 118.258h5v5h-5z"/><path fill="#FFFF80" fill-opacity="NaN" d="M133.035 118.258h5v5h-5z"/><path fill="#FFFF80" fill-opacity="NaN" d="M133.035 118.258h5v5h-5z"/><path fill="#FFFF80" fill-opacity="NaN" d="M133.035 118.258h5v5h-5z"/><path fill="#FF8000" fill-opacity="NaN" d="M133.035 118.258h5v5h-5z"/><path fill="#FF8000" fill-opacity="NaN" d="M133.035 118.258h5v5h-5z"/><path fill="#FFFF80" fill-opacity="NaN" d="M133.035 118.258h5v5h-5z"/><path fill="#FFFF80" fill-opacity="NaN" d="M133.035 118.258h5v5h-5z"/><path fill="#FF8000" fill-opacity="NaN" d="M133.035 118.258h5v5h-5z"/><path fill="#FFFF80" fill-opacity="NaN" d="M133.035 118.258h5v5h-5z"/><path fill="#FFFF80" fill-opacity="NaN" d="M133.035 118.258h5v5h-5z"/><path fill="#FFFF80" fill-opacity="NaN" d="M133.035 118.258h5v5h-5z"/><path fill="#FF8000" fill-opacity="NaN" d="M133.035 118.258h5v5h-5z"/><path fill="#FFFF80" fill-opacity="NaN" d="M133.035 118.258h5v5h-5z"/><path fill="#FFFF80" fill-opacity="NaN" d="M133.035 118.258h5v5h-5z"/><path fill="#FFFF80" fill-opacity="NaN" d="M133.035 118.258h5v5h-5z"/><path fill="#FF8000" fill-opacity="NaN" d="M133.035 118.258h5v5h-5z"/><path fill="#FFFF80" fill-opacity="NaN" d="M133.035 118.258h5v5h-5z"/><path fill="#FF8000" fill-opacity="NaN" d="M133.035 118.258h5v5h-5z"/><path fill="#FFFF80" fill-opacity="NaN" d="M133.035 118.258h5v5h-5z"/><path fill="#FF8000" fill-opacity="NaN" d="M133.035 118.258h5v5h-5z"/><path fill="#FF8000" fill-opacity="NaN" d="M133.035 118.258h5v5h-5z"/><path fill="#FF8000" fill-opacity="NaN" d="M133.035 118.258h5v5h-5z"/><path fill="#FF8000" fill-opacity="NaN" d="M133.035 118.258h5v5h-5z"/><path fill="#FFFF80" fill-opacity="NaN" d="M133.035 118.258h5v5h-5z"/><path fill="#FFFF80" fill-opacity="NaN" d="M133.035 118.258h5v5h-5z"/><path fill="#FF8000" fill-opacity="NaN" d="M133.035 118.258h5v5h-5z"/><path fill="#FFFF80" fill-opacity="NaN" d="M133.035 118.258h5v5h-5z"/><path fill="#FFFF80" fill-opacity="NaN" d="M133.035 118.258h5v5h-5z"/><path fill="#FF8000" fill-opacity="NaN" d="M133.035 118.258h5v5h-5z"/><path fill="#FFFF80" fill-opacity="NaN" d="M133.035 118.258h5v5h-5z"/><path fill="#FF8000" fill-opacity="NaN" d="M133.035 118.258h5v5h-5z"/><path fill="#FFFF80" fill-opacity="NaN" d="M133.035 118.258h5v5h-5z"/><path fill="#FF8000" fill-opacity="NaN" d="M133.035 118.258h5v5h-5z"/><path fill="#FF8000" fill-opacity="NaN" d="M133.035 118.258h5v5h-5z"/><path fill="#FFFF80" fill-opacity="NaN" d="M133.035 118.258h5v5h-5z"/><path fill="#FFFF80" fill-opacity="NaN" d="M133.035 118.258h5v5h-5z"/><path fill="#FF8000" fill-opacity="NaN" d="M133.035 118.258h5v5h-5z"/><path fill="#FFFF80" fill-opacity="NaN" d="M133.035 118.258h5v5h-5z"/><path fill="#FFFF80" fill-opacity="NaN" d="M133.035 118.258h5v5h-5z"/><path fill="#FF8000" fill-opacity="NaN" d="M133.035 118.258h5v5h-5z"/><path fill="#FFFF80" fill-opacity="NaN" d="M133.035 118.258h5v5h-5z"/><path fill="#FF8000" fill-opacity="NaN" d="M133.035 118.258h5v5h-5z"/><path fill="#FFFF80" fill-opacity="NaN" d="M133.035 118.258h5v5h-5z"/><path fill="#FFFF80" fill-opacity="NaN" d="M133.035 118.258h5v5h-5z"/><path fill="#FF8000" fill-opacity="NaN" d="M133.035 118.258h5v5h-5z"/><path fill="#FFFF80" fill-opacity="NaN" d="M133.035 118.258h5v5h-5z"/><path fill="#FFFF80" fill-opacity="NaN" d="M133.035 118.258h5v5h-5z"/><path fill="#FFFF80" fill-opacity="NaN" d="M133.035 118.258h5v5h-5z"/><path fill="#FF8000" fill-opacity="NaN" d="M133.035 118.258h5v5h-5z"/><path fill="#FF8000" fill-opacity="NaN" d="M133.035 118.258h5v5h-5z"/><path fill="#FFFF80" fill-opacity="NaN" d="M133.035 118.258h5v5h-5z"/><path fill="#FF8000" fill-opacity="NaN" d="M133.035 118.258h5v5h-5z"/><path fill="#FF8000" fill-opacity="NaN" d="M133.035 118.258h5v5h-5z"/><path fill="#FF8000" fill-opacity="NaN" d="M133.035 118.258h5v5h-5z"/><path fill="#FFFF80" fill-opacity="NaN" d="M133.035 118.258h5v5h-5z"/><path fill="#FFFF80" fill-opacity="NaN" d="M133.035 118.258h5v5h-5z"/><path fill="#FF8000" fill-opacity="NaN" d="M133.035 118.258h5v5h-5z"/><path fill="#FF8000" fill-opacity="NaN" d="M133.035 118.258h5v5h-5z"/><path fill="#FFFF80" fill-opacity="NaN" d="M133.035 118.258h5v5h-5z"/><path fill="#FFFF80" fill-opacity="NaN" d="M133.035 118.258h5v5h-5z"/><path fill="#FF8000" fill-opacity="NaN" d="M133.035 118.258h5v5h-5z"/><path fill="#FF8000" fill-opacity="NaN" d="M133.035 118.258h5v5h-5z"/><path fill="#FFFF80" fill-opacity="NaN" d="M133.035 118.258h5v5h-5z"/><path fill="#FFFF80" fill-opacity="NaN" d="M133.035 118.258h5v5h-5z"/><path fill="#FF8000" fill-opacity="NaN" d="M133.035 118.258h5v5h-5z"/><path fill="#FFFF80" fill-opacity="NaN" d="M133.035 118.258h5v5h-5z"/><path fill="#FF8000" fill-opacity="NaN" d="M133.035 118.258h5v5h-5z"/><path fill="#FF8000" fill-opacity="NaN" d="M133.035 118.258h5v5h-5z"/><path fill="#FF8000" fill-opacity="NaN" d="M133.035 118.258h5v5h-5z"/><path fill="#FFFF80" fill-opacity="NaN" d="M133.035 118.258h5v5h-5z"/><path fill="#FF8000" fill-opacity="NaN" d="M133.035 118.258h5v5h-5z"/><path fill="#FFFF80" fill-opacity="NaN" d="M133.035 118.258h5v5h-5z"/><path fill="#FF8000" fill-opacity="NaN" d="M133.035 118.258h5v5h-5z"/><path fill="#FFFF80" fill-opacity="NaN" d="M133.035 118.258h5v5h-5z"/><path fill="#FF8000" fill-opacity="NaN" d="M133.035 118.258h5v5h-5z"/><path fill="#FFFF80" fill-opacity="NaN" d="M133.035 118.258h5v5h-5z"/><path fill="#FFFF80" fill-opacity="NaN" d="M133.035 118.258h5v5h-5z"/><path fill="#FF8000" fill-opacity="NaN" d="M133.035 118.258h5v5h-5z"/><path fill="#FFFF80" fill-opacity="NaN" d="M133.035 118.258h5v5h-5z"/><path fill="#FF8000" fill-opacity="NaN" d="M133.035 118.258h5v5h-5z"/><path fill="#FFFF80" fill-opacity="NaN" d="M133.035 118.258h5v5h-5z"/><path fill="#FF8000" fill-opacity="NaN" d="M133.035 118.258h5v5h-5z"/><path fill="#FF8000" fill-opacity="NaN" d="M133.035 118.258h5v5h-5z"/><path fill="#FFFF80" fill-opacity="NaN" d="M133.035 118.258h5v5h-5z"/><path fill="#FF8000" fill-opacity="NaN" d="M133.035 118.258h5v5h-5z"/><path fill="#FFFF80" fill-opacity="NaN" d="M133.035 118.258h5v5h-5z"/><path fill="#FF8000" fill-opacity="NaN" d="M133.035 118.258h5v5h-5z"/><path fill="#FFFF80" fill-opacity="NaN" d="M133.035 118.258h5v5h-5z"/><path fill="#FF8000" fill-opacity="NaN" d="M133.035 118.258h5v5h-5z"/><path fill="#FF8000" fill-opacity="NaN" d="M133.035 118.258h5v5h-5z"/><path fill="#FFFF80" fill-opacity="NaN" d="M133.035 118.258h5v5h-5z"/><path fill="#FFFF80" fill-opacity="NaN" d="M133.035 118.258h5v5h-5z"/><path fill="#FFFF80" fill-opacity="NaN" d="M133.035 118.258h5v5h-5z"/><path fill="#FFFF80" fill-opacity="NaN" d="M133.035 118.258h5v5h-5z"/><path fill="#FF8000" fill-opacity="NaN" d="M133.035 118.258h5v5h-5z"/><path fill="#FF8000" fill-opacity="NaN" d="M133.035 118.258h5v5h-5z"/><path fill="#FFFF80" fill-opacity="NaN" d="M133.035 118.258h5v5h-5z"/><path fill="#FFFF80" fill-opacity="NaN" d="M133.035 118.258h5v5h-5z"/><path fill="#FF8000" fill-opacity="NaN" d="M133.035 118.258h5v5h-5z"/><path fill="#FF8000" fill-opacity="NaN" d="M133.035 118.258h5v5h-5z"/><path fill="#FFFF80" fill-opacity="NaN" d="M133.035 118.258h5v5h-5z"/><path fill="#FF8000" fill-opacity="NaN" d="M133.035 118.258h5v5h-5z"/><path fill="#FFFF80" fill-opacity="NaN" d="M133.035 118.258h5v5h-5z"/><path fill="#FF8000" fill-opacity="NaN" d="M133.035 118.258h5v5h-5z"/><path fill="#FFFF80" fill-opacity="NaN" d="M133.035 118.258h5v5h-5z"/><path fill="#FF8000" fill-opacity="NaN" d="M133.035 118.258h5v5h-5z"/><path fill="#FFFF80" fill-opacity="NaN" d="M133.035 118.258h5v5h-5z"/><path fill="#FF8000" fill-opacity="NaN" d="M133.035 118.258h5v5h-5z"/><path fill="#FF8000" fill-opacity="NaN" d="M133.035 118.258h5v5h-5z"/><path fill="#FFFF80" fill-opacity="NaN" d="M133.035 118.258h5v5h-5z"/><path fill="#FFFF80" fill-opacity="NaN" d="M133.035 118.258h5v5h-5z"/><path fill="#FF8000" fill-opacity="NaN" d="M133.035 118.258h5v5h-5z"/><path fill="#FF8000" fill-opacity="NaN" d="M133.035 118.258h5v5h-5z"/><path fill="#FF8000" fill-opacity="NaN" d="M133.035 118.258h5v5h-5z"/><path fill="#FFFF80" fill-opacity="NaN" d="M133.035 118.258h5v5h-5z"/><path fill="#FF8000" fill-opacity="NaN" d="M133.035 118.258h5v5h-5z"/><path fill="#FF8000" fill-opacity="NaN" d="M133.035 118.258h5v5h-5z"/><path fill="#FFFF80" fill-opacity="NaN" d="M133.035 118.258h5v5h-5z"/><path fill="#FF8000" fill-opacity="NaN" d="M133.035 118.258h5v5h-5z"/><path fill="#FF8000" fill-opacity="NaN" d="M133.035 118.258h5v5h-5z"/><path fill="#FFFF80" fill-opacity="NaN" d="M133.035 118.258h5v5h-5z"/><path fill="#FFFF80" fill-opacity="NaN" d="M133.035 118.258h5v5h-5z"/><path fill="#FF8000" fill-opacity="NaN" d="M133.035 118.258h5v5h-5z"/><path fill="#FFFF80" fill-opacity="NaN" d="M133.035 118.258h5v5h-5z"/><path fill="#FF8000" fill-opacity="NaN" d="M133.035 118.258h5v5h-5z"/><path fill="#FF8000" fill-opacity="NaN" d="M133.035 118.258h5v5h-5z"/><path fill="#FFFF80" fill-opacity="NaN" d="M133.035 118.258h5v5h-5z"/><path fill="#FF8000" fill-opacity="NaN" d="M133.035 118.258h5v5h-5z"/><path fill="#FFFF80" fill-opacity="NaN" d="M133.035 118.258h5v5h-5z"/><path fill="#FF8000" fill-opacity="NaN" d="M133.035 118.258h5v5h-5z"/><path fill="#FFFF80" fill-opacity="NaN" d="M133.035 118.258h5v5h-5z"/><path fill="#FF8000" fill-opacity="NaN" d="M133.035 118.258h5v5h-5z"/><path fill="#FF8000" fill-opacity="NaN" d="M133.035 118.258h5v5h-5z"/><path fill="#FFFF80" fill-opacity="NaN" d="M133.035 118.258h5v5h-5z"/><path fill="#FF8000" fill-opacity="NaN" d="M133.035 118.258h5v5h-5z"/><path fill="#FFFF80" fill-opacity="NaN" d="M133.035 118.258h5v5h-5z"/><path fill="#FF8000" fill-opacity="NaN" d="M133.035 118.258h5v5h-5z"/><path fill="#FFFF80" fill-opacity="NaN" d="M133.035 118.258h5v5h-5z"/><path fill="#FF8000" fill-opacity="NaN" d="M133.035 118.258h5v5h-5z"/><path fill="#FF8000" fill-opacity="NaN" d="M133.035 118.258h5v5h-5z"/><path fill="#FF8000" fill-opacity="NaN" d="M133.035 118.258h5v5h-5z"/><path fill="#FFFF80" fill-opacity="NaN" d="M133.035 118.258h5v5h-5z"/><path fill="#FFFF80" fill-opacity="NaN" d="M133.035 118.258h5v5h-5z"/><path fill="#FFFF80" fill-opacity="NaN" d="M133.035 118.258h5v5h-5z"/><path fill="#FF8000" fill-opacity="NaN" d="M133.035 118.258h5v5h-5z"/><path fill="#FFFF80" fill-opacity="NaN" d="M133.035 118.258h5v5h-5z"/><path fill="#FF8000" fill-opacity="NaN" d="M133.035 118.258h5v5h-5z"/><path fill="#FFFF80" fill-opacity="NaN" d="M133.035 118.258h5v5h-5z"/><path fill="#FF8000" fill-opacity="NaN" d="M133.035 118.258h5v5h-5z"/><path fill="#FFFF80" fill-opacity="NaN" d="M133.035 118.258h5v5h-5z"/><path fill="#FFFF80" fill-opacity="NaN" d="M133.035 118.258h5v5h-5z"/><path fill="#FF8000" fill-opacity="NaN" d="M133.035 118.258h5v5h-5z"/><path fill="#FFFF80" fill-opacity="NaN" d="M133.035 118.258h5v5h-5z"/><path fill="#FF8000" fill-opacity="NaN" d="M133.035 118.258h5v5h-5z"/><path fill="#FFFF80" fill-opacity="NaN" d="M133.035 118.258h5v5h-5z"/><path fill="#FF8000" fill-opacity="NaN" d="M133.035 118.258h5v5h-5z"/><path fill="#FF8000" fill-opacity="NaN" d="M133.035 118.258h5v5h-5z"/><path fill="#FFFF80" fill-opacity="NaN" d="M133.035 118.258h5v5h-5z"/><path fill="#FF8000" fill-opacity="NaN" d="M133.035 118.258h5v5h-5z"/><path fill="#FFFF80" fill-opacity="NaN" d="M133.035 118.258h5v5h-5z"/><path fill="#FFFF80" fill-opacity="NaN" d="M133.035 118.258h5v5h-5z"/><path fill="#FF8000" fill-opacity="NaN" d="M133.035 118.258h5v5h-5z"/><path fill="#FFFF80" fill-opacity="NaN" d="M133.035 118.258h5v5h-5z"/><path fill="#FF8000" fill-opacity="NaN" d="M133.035 118.258h5v5h-5z"/><path fill="#FFFF80" fill-opacity="NaN" d="M296.035 115.652h5v5h-5z"/><path fill="#FFFF80" fill-opacity="NaN" d="M296.035 115.652h5v5h-5z"/><path fill="#FFFF80" fill-opacity="NaN" d="M296.035 115.652h5v5h-5z"/><path fill="#FFFF80" fill-opacity="NaN" d="M296.035 115.652h5v5h-5z"/><path fill="#FFFF80" fill-opacity="NaN" d="M296.035 115.652h5v5h-5z"/><path fill="#FFFF80" fill-opacity="NaN" d="M296.035 115.652h5v5h-5z"/><path fill="#FFFF80" fill-opacity="NaN" d="M296.035 115.652h5v5h-5z"/><path fill="#FFFF80" fill-opacity="NaN" d="M296.035 115.652h5v5h-5z"/><path fill="#FFFF80" fill-opacity="NaN" d="M296.035 115.652h5v5h-5z"/><path fill="#FFFF80" fill-opacity="NaN" d="M296.035 115.652h5v5h-5z"/><path fill="#FFFF80" fill-opacity="NaN" d="M296.035 115.652h5v5h-5z"/><path fill="#FFFF80" fill-opacity="NaN" d="M296.035 115.652h5v5h-5z"/><path fill="#FFFF80" fill-opacity="NaN" d="M296.035 115.652h5v5h-5z"/><path fill="#FFFF80" fill-opacity="NaN" d="M296.035 115.652h5v5h-5z"/><path fill="#FFFF80" fill-opacity="NaN" d="M296.035 115.652h5v5h-5z"/><path fill="#FFFF80" fill-opacity="NaN" d="M296.035 115.652h5v5h-5z"/><path fill="#FFFF80" fill-opacity="NaN" d="M296.035 115.652h5v5h-5z"/><path fill="#FFFF80" fill-opacity="NaN" d="M296.035 115.652h5v5h-5z"/><path fill="#FFFF80" fill-opacity="NaN" d="M296.035 115.652h5v5h-5z"/><path fill="#FFFF80" fill-opacity="NaN" d="M296.035 115.652h5v5h-5z"/><path fill="#FFFF80" fill-opacity="NaN" d="M296.035 115.652h5v5h-5z"/><path fill="#FFFF80" fill-opacity="NaN" d="M296.035 115.652h5v5h-5z"/><path fill="#FFFF80" fill-opacity="NaN" d="M296.035 115.652h5v5h-5z"/><path fill="#FFFF80" fill-opacity="NaN" d="M296.035 115.652h5v5h-5z"/><path fill="#FFFF80" fill-opacity="NaN" d="M296.035 115.652h5v5h-5z"/><path fill="#FFFF80" fill-opacity="NaN" d="M296.035 115.652h5v5h-5z"/><path fill="#FFFF80" fill-opacity="NaN" d="M296.035 115.652h5v5h-5z"/><path fill="#FFFF80" fill-opacity="NaN" d="M296.035 115.652h5v5h-5z"/><path fill="#FFFF80" fill-opacity="NaN" d="M296.035 115.652h5v5h-5z"/><path fill="#FFFF80" fill-opacity="NaN" d="M296.035 115.652h5v5h-5z"/><path fill="#FFFF80" fill-opacity="NaN" d="M296.035 115.652h5v5h-5z"/><path fill="#FFFF80" fill-opacity="NaN" d="M296.035 115.652h5v5h-5z"/><path fill="#FFFF80" fill-opacity="NaN" d="M296.035 115.652h5v5h-5z"/><path fill="#FFFF80" fill-opacity="NaN" d="M296.035 115.652h5v5h-5z"/><path fill="#FFFF80" fill-opacity="NaN" d="M296.035 115.652h5v5h-5z"/><path fill="#FFFF80" fill-opacity="NaN" d="M296.035 115.652h5v5h-5z"/><path fill="#FFFF80" fill-opacity="NaN" d="M296.035 115.652h5v5h-5z"/><path fill="#FFFF80" fill-opacity="NaN" d="M296.035 115.652h5v5h-5z"/><path fill="#FFFF80" fill-opacity="NaN" d="M296.035 115.652h5v5h-5z"/><path fill="#FFFF80" fill-opacity="NaN" d="M296.035 115.652h5v5h-5z"/><path fill="#FFFF80" fill-opacity="NaN" d="M296.035 115.652h5v5h-5z"/><path fill="#FFFF80" fill-opacity="NaN" d="M296.035 115.652h5v5h-5z"/><path fill="#FFFF80" fill-opacity="NaN" d="M296.035 115.652h5v5h-5z"/><path fill="#FFFF80" fill-opacity="NaN" d="M296.035 115.652h5v5h-5z"/><path fill="#FFFF80" fill-opacity="NaN" d="M296.035 115.652h5v5h-5z"/><path fill="#FFFF80" fill-opacity="NaN" d="M296.035 115.652h5v5h-5z"/><path fill="#FFFF80" fill-opacity="NaN" d="M296.035 115.652h5v5h-5z"/><path fill="#FFFF80" fill-opacity="NaN" d="M296.035 115.652h5v5h-5z"/><path fill="#FFFF80" fill-opacity="NaN" d="M296.035 115.652h5v5h-5z"/><path fill="#FFFF80" fill-opacity="NaN" d="M296.035 115.652h5v5h-5z"/><path fill="#FFFF80" fill-opacity="NaN" d="M296.035 115.652h5v5h-5z"/><path fill="#FFFF80" fill-opacity="NaN" d="M296.035 115.652h5v5h-5z"/><path fill="#FFFF80" fill-opacity="NaN" d="M296.035 115.652h5v5h-5z"/><path fill="#FFFF80" fill-opacity="NaN" d="M296.035 115.652h5v5h-5z"/><path fill="#FFFF80" fill-opacity="NaN" d="M296.035 115.652h5v5h-5z"/><path fill="#FFFF80" fill-opacity="NaN" d="M296.035 115.652h5v5h-5z"/><path fill="#FFFF80" fill-opacity="NaN" d="M296.035 115.652h5v5h-5z"/><path fill="#FFFF80" fill-opacity="NaN" d="M296.035 115.652h5v5h-5z"/><path fill="#FFFF80" fill-opacity="NaN" d="M296.035 115.652h5v5h-5z"/><path fill="#FFFF80" fill-opacity="NaN" d="M296.035 115.652h5v5h-5z"/><path fill="#FFFF80" fill-opacity="NaN" d="M296.035 115.652h5v5h-5z"/><path fill="#FFFF80" fill-opacity="NaN" d="M296.035 115.652h5v5h-5z"/><path fill="#FFFF80" fill-opacity="NaN" d="M296.035 115.652h5v5h-5z"/><path fill="#FFFF80" fill-opacity="NaN" d="M296.035 115.652h5v5h-5z"/><path fill="#FFFF80" fill-opacity="NaN" d="M296.035 115.652h5v5h-5z"/><path fill="#FFFF80" fill-opacity="NaN" d="M296.035 115.652h5v5h-5z"/><path fill="#FFFF80" fill-opacity="NaN" d="M296.035 115.652h5v5h-5z"/><path fill="#FFFF80" fill-opacity="NaN" d="M296.035 115.652h5v5h-5z"/><path fill="#FFFF80" fill-opacity="NaN" d="M296.035 115.652h5v5h-5z"/><path fill="#FFFF80" fill-opacity="NaN" d="M296.035 115.652h5v5h-5z"/><path fill="#FFFF80" fill-opacity="NaN" d="M296.035 115.652h5v5h-5z"/><path fill="#FFFF80" fill-opacity="NaN" d="M296.035 115.652h5v5h-5z"/><path fill="#FFFF80" fill-opacity="NaN" d="M296.035 115.652h5v5h-5z"/><path fill="#FF8000" fill-opacity="NaN" d="M461.23 48.113h5v5h-5z"/><path fill="#FF8000" fill-opacity="NaN" d="M461.23 48.113h5v5h-5z"/><path fill="#FF8000" fill-opacity="NaN" d="M461.23 48.113h5v5h-5z"/><path fill="#FF8000" fill-opacity="NaN" d="M461.23 48.113h5v5h-5z"/><path fill="#FF8000" fill-opacity="NaN" d="M461.23 48.113h5v5h-5z"/><path fill="#FF8000" fill-opacity="NaN" d="M461.23 48.113h5v5h-5z"/><path fill="#FF8000" fill-opacity="NaN" d="M461.23 48.113h5v5h-5z"/><path fill="#FF8000" fill-opacity="NaN" d="M461.23 48.113h5v5h-5z"/><path fill="#FF8000" fill-opacity="NaN" d="M461.23 48.113h5v5h-5z"/><path fill="#FF8000" fill-opacity="NaN" d="M461.23 48.113h5v5h-5z"/><path fill="#FF8000" fill-opacity="NaN" d="M461.23 48.113h5v5h-5z"/><path fill="#FF8000" fill-opacity="NaN" d="M461.23 48.113h5v5h-5z"/><path fill="#FF8000" fill-opacity="NaN" d="M461.23 48.113h5v5h-5z"/><path fill="#FF8000" fill-opacity="NaN" d="M461.23 48.113h5v5h-5z"/><path fill="#FF8000" fill-opacity="NaN" d="M461.23 48.113h5v5h-5z"/><path fill="#FF8000" fill-opacity="NaN" d="M461.23 48.113h5v5h-5z"/><path fill="#FF8000" fill-opacity="NaN" d="M461.23 48.113h5v5h-5z"/><path fill="#FF8000" fill-opacity="NaN" d="M461.23 48.113h5v5h-5z"/><path fill="#FF8000" fill-opacity="NaN" d="M461.23 48.113h5v5h-5z"/><path fill="#FF8000" fill-opacity="NaN" d="M461.23 48.113h5v5h-5z"/><path fill="#FF8000" fill-opacity="NaN" d="M461.23 48.113h5v5h-5z"/><path fill="#FF8000" fill-opacity="NaN" d="M461.23 48.113h5v5h-5z"/><path fill="#FF8000" fill-opacity="NaN" d="M461.23 48.113h5v5h-5z"/><path fill="#FF8000" fill-opacity="NaN" d="M461.23 48.113h5v5h-5z"/><path fill="#FF8000" fill-opacity="NaN" d="M461.23 48.113h5v5h-5z"/><path fill="#FF8000" fill-opacity="NaN" d="M461.23 48.113h5v5h-5z"/><path fill="#FF8000" fill-opacity="NaN" d="M461.23 48.113h5v5h-5z"/><path fill="#FF8000" fill-opacity="NaN" d="M461.23 48.113h5v5h-5z"/><path fill="#FF8000" fill-opacity="NaN" d="M461.23 48.113h5v5h-5z"/><path fill="#FF8000" fill-opacity="NaN" d="M461.23 48.113h5v5h-5z"/><path fill="#FF8000" fill-opacity="NaN" d="M461.23 48.113h5v5h-5z"/><path fill="#FF8000" fill-opacity="NaN" d="M461.23 48.113h5v5h-5z"/><path fill="#FF8000" fill-opacity="NaN" d="M461.23 48.113h5v5h-5z"/><path fill="#FF8000" fill-opacity="NaN" d="M461.23 48.113h5v5h-5z"/><path fill="#FF8000" fill-opacity="NaN" d="M461.23 48.113h5v5h-5z"/><path fill="#FF8000" fill-opacity="NaN" d="M461.23 48.113h5v5h-5z"/><path fill="#FF8000" fill-opacity="NaN" d="M461.23 48.113h5v5h-5z"/><path fill="#FF8000" fill-opacity="NaN" d="M461.23 48.113h5v5h-5z"/><path fill="#FF8000" fill-opacity="NaN" d="M461.23 48.113h5v5h-5z"/><path fill="#FF8000" fill-opacity="NaN" d="M461.23 48.113h5v5h-5z"/><path fill="#FF8000" fill-opacity="NaN" d="M461.23 48.113h5v5h-5z"/><path fill="#FF8000" fill-opacity="NaN" d="M461.23 48.113h5v5h-5z"/><path fill="#FF8000" fill-opacity="NaN" d="M461.23 48.113h5v5h-5z"/><path fill="#FF8000" fill-opacity="NaN" d="M461.23 48.113h5v5h-5z"/><path fill="#FF8000" fill-opacity="NaN" d="M461.23 48.113h5v5h-5z"/><path fill="#FF8000" fill-opacity="NaN" d="M461.23 48.113h5v5h-5z"/><path fill="#FF8000" fill-opacity="NaN" d="M461.23 48.113h5v5h-5z"/><path fill="#FF8000" fill-opacity="NaN" d="M461.23 48.113h5v5h-5z"/><path fill="#FF8000" fill-opacity="NaN" d="M461.23 48.113h5v5h-5z"/><path fill="#FF8000" fill-opacity="NaN" d="M461.23 48.113h5v5h-5z"/><path fill="#FF8000" fill-opacity="NaN" d="M461.23 48.113h5v5h-5z"/><path fill="#FF8000" fill-opacity="NaN" d="M461.23 48.113h5v5h-5z"/><path fill="#FF8000" fill-opacity="NaN" d="M461.23 48.113h5v5h-5z"/><path fill="#FF8000" fill-opacity="NaN" d="M461.23 48.113h5v5h-5z"/><path fill="#FF8000" fill-opacity="NaN" d="M461.23 48.113h5v5h-5z"/><path fill="#FF8000" fill-opacity="NaN" d="M461.23 48.113h5v5h-5z"/><path fill="#FF8000" fill-opacity="NaN" d="M461.23 48.113h5v5h-5z"/><path fill="#FF8000" fill-opacity="NaN" d="M461.23 48.113h5v5h-5z"/><path fill="#FF8000" fill-opacity="NaN" d="M461.23 48.113h5v5h-5z"/><path fill="#FF8000" fill-opacity="NaN" d="M461.23 48.113h5v5h-5z"/><path fill="#FF8000" fill-opacity="NaN" d="M461.23 48.113h5v5h-5z"/><path fill="#FF8000" fill-opacity="NaN" d="M461.23 48.113h5v5h-5z"/><path fill="#FF8000" fill-opacity="NaN" d="M461.23 48.113h5v5h-5z"/><path fill="#FF8000" fill-opacity="NaN" d="M461.23 48.113h5v5h-5z"/><path fill="#FF8000" fill-opacity="NaN" d="M461.23 48.113h5v5h-5z"/><path fill="#FF8000" fill-opacity="NaN" d="M461.23 48.113h5v5h-5z"/><path fill="#FF8000" fill-opacity="NaN" d="M461.23 48.113h5v5h-5z"/><path fill="#FF8000" fill-opacity="NaN" d="M461.23 48.113h5v5h-5z"/><path fill="#FF8000" fill-opacity="NaN" d="M461.23 48.113h5v5h-5z"/><path fill="#FF8000" fill-opacity="NaN" d="M461.23 48.113h5v5h-5z"/><path fill="#FF8000" fill-opacity="NaN" d="M461.23 48.113h5v5h-5z"/><path fill="#FF8000" fill-opacity="NaN" d="M461.23 48.113h5v5h-5z"/><path fill="#FF8000" fill-opacity="NaN" d="M461.23 48.113h5v5h-5z"/><path fill="#0F0" d="M133.035 118.258h5v5h-5z"/><path fill="none" stroke="gray" paint-order="fill stroke markers" d="m205.685 84.025.532 71.213" stroke-miterlimit="10" stroke-width="4" stroke-opacity=".714"/><path fill="none" stroke="#FFF" paint-order="fill stroke markers" d="m203.951 119.647 4-.03" stroke-miterlimit="10"/><path fill="red" paint-order="stroke fill markers" d="m205.648 79.025 5.074 9.963-10 .074M206.254 160.238l4.925-10.037-10 .075"/><path fill="none" stroke="#A8A8A8" paint-order="fill stroke markers" d="m375.746 71.208 39.327 96.19" stroke-miterlimit="10"/></svg>