<svg xmlns="http://www.w3.org/2000/svg" width="101" height="101"><path d="M0 0h101v101H0z"/><path fill="#0F0" d="M25.242 48.837h5v5h-5z"/><path fill="red" d="M67.242 43.237h3v3h-3z"/><path fill="none" stroke="#FFFF80" paint-order="fill stroke markers" d="M27.742 51.337 2175.69-1246.68M27.742 51.337l2261.606-1087.963M27.742 51.337 2382.525-816.72M27.742 51.337l2426.634-640.29M27.742 51.337l2476.51-406.725M27.742 51.337 2531.699-118.14M27.742 51.337l2508.729 69.308M27.742 51.337 2518.523 358.8M27.742 51.337l2450.276 542.836" stroke-miterlimit="10"/><path fill="#0F0" d="M25.242 48.837h5v5h-5z"/><path fill="red" d="M67.242 43.237h3v3h-3z"/></svg>