<svg xmlns="http://www.w3.org/2000/svg" width="101" height="100"><path d="M0 0h101v100H0z"/><path fill="none" stroke="#0F0" paint-order="fill stroke markers" d="m-32.902 41.966 11.297 45.386" stroke-miterlimit="10" stroke-width="4"/><path fill="none" stroke="gray" paint-order="fill stroke markers" d="m-34.842 42.45 11.297 45.385" stroke-opacity="255" stroke-miterlimit="10" stroke-width="2"/><path fill="none" stroke="#A8A8A8" paint-order="fill stroke markers" d="M29.764 6.536a110.785 110.785 0 0 1 59.25 78.238" stroke-miterlimit="10"/><path fill="none" stroke="#FFFF80" paint-order="fill stroke markers" d="m-33.635 47.301 89.78-22.347M-31.22 57.005l95.332-23.73M-28.804 66.71 70.84 41.905M-26.388 76.413 76.483 50.807M-23.973 86.117 81.143 59.952M56.145 24.954l-422.87 2277.5M64.112 33.276l-890.443 2156.076M70.84 41.906-1234.15 1993.943M76.483 50.807l-1660.94 1680.246M81.143 59.952l-1953.508 1353.212" stroke-miterlimit="10"/><path fill="none" stroke="#0F0" paint-order="fill stroke markers" d="m-32.902 41.966 11.297 45.386" stroke-miterlimit="10" stroke-width="4"/><path fill="none" stroke="gray" paint-order="fill stroke markers" d="m-34.842 42.45 11.297 45.385" stroke-opacity="255" stroke-miterlimit="10" stroke-width="2"/><path fill="none" stroke="#A8A8A8" paint-order="fill stroke markers" d="M29.764 6.536a110.785 110.785 0 0 1 59.25 78.238" stroke-miterlimit="10"/></svg>