<svg xmlns="http://www.w3.org/2000/svg" width="101" height="100"><path d="M0 0h101v100H0z"/><path fill="none" stroke="#0F0" paint-order="fill stroke markers" d="m-32.215 42.568 11.297 45.385" stroke-miterlimit="10" stroke-width="4"/><path fill="none" stroke="gray" paint-order="fill stroke markers" d="m-34.156 43.05 11.297 45.386" stroke-opacity="255" stroke-miterlimit="10" stroke-width="2"/><path fill="#fff" paint-order="stroke fill markers" d="M72.815 51.603a31.384 31.384 0 1 1 0-.031" fill-opacity=".2"/><path fill="red" d="M39.931 50.103h3v3h-3z"/><path fill="none" stroke="#FFFF80" paint-order="fill stroke markers" d="M-32.948 47.903 14.09 36.194M-30.533 57.607l40.858-10.17M-28.118 67.31l38.756-9.646M-25.702 77.014l39.84-9.917M-23.287 86.718l44.532-11.084" stroke-miterlimit="10"/><path fill="none" stroke="#FFFF80" paint-order="fill stroke markers" d="m14.09 36.194-735.5-2374.3" stroke-miterlimit="10" stroke-opacity=".049"/><path fill="none" stroke="#FFFF80" paint-order="fill stroke markers" d="m10.325 47.436-2175.507-1217.643M10.638 57.664l-2477.456 361.055M14.139 67.097l-1773.517 1785.42" stroke-miterlimit="10" stroke-opacity=".04"/><path fill="none" stroke="#FFFF80" paint-order="fill stroke markers" d="m21.245 75.634-178.323 2525.918" stroke-miterlimit="10" stroke-opacity=".043"/><path fill="none" stroke="#FFFF80" paint-order="fill stroke markers" d="m14.09 36.194 55.761 2.096" stroke-miterlimit="10" stroke-opacity=".951"/><path fill="none" stroke="#FFFF80" paint-order="fill stroke markers" d="m10.325 47.436 60.446-6.974M10.638 57.664 71.756 43.52M14.139 67.097l58.296-20.36" stroke-miterlimit="10" stroke-opacity=".96"/><path fill="none" stroke="#FFFF80" paint-order="fill stroke markers" d="m21.245 75.634 51.5-26.132" stroke-miterlimit="10" stroke-opacity=".957"/><path fill="none" stroke="#FFFF80" paint-order="fill stroke markers" d="M69.851 38.29 35.77 82.472" stroke-miterlimit="10" stroke-opacity=".045"/><path fill="none" stroke="#FFFF80" paint-order="fill stroke markers" d="M70.77 40.462 20.93 75.365" stroke-miterlimit="10" stroke-opacity=".039"/><path fill="none" stroke="#FFFF80" paint-order="fill stroke markers" d="m71.756 43.52-60.05 18.152M72.435 46.737l-61.73-1.522" stroke-miterlimit="10" stroke-opacity=".038"/><path fill="none" stroke="#FFFF80" paint-order="fill stroke markers" d="M72.744 49.502 18.216 30.485" stroke-miterlimit="10" stroke-opacity=".041"/><path fill="none" stroke="#FFFF80" paint-order="fill stroke markers" d="m69.851 38.29 2415.07 797.913" stroke-miterlimit="10" stroke-opacity=".907"/><path fill="none" stroke="#FFFF80" paint-order="fill stroke markers" d="m70.77 40.462 2546.303 36.19" stroke-miterlimit="10" stroke-opacity=".921"/><path fill="none" stroke="#FFFF80" paint-order="fill stroke markers" d="M71.756 43.52 2565.864-490.33" stroke-miterlimit="10" stroke-opacity=".922"/><path fill="none" stroke="#FFFF80" paint-order="fill stroke markers" d="M72.435 46.737 2396.431-1013.69" stroke-miterlimit="10" stroke-opacity=".921"/><path fill="none" stroke="#FFFF80" paint-order="fill stroke markers" d="M72.744 49.502 2036.8-1588.688" stroke-miterlimit="10" stroke-opacity=".916"/><path fill="none" stroke="#FFFF80" paint-order="fill stroke markers" d="m35.769 82.472-2060.04 1508.952" stroke-miterlimit="10" stroke-opacity=".041"/><path fill="none" stroke="#FFFF80" paint-order="fill stroke markers" d="m20.93 75.365-2243.38 1173.181M11.707 61.672l-2413.068 686.08M10.704 45.215l-2485.587 167.808" stroke-miterlimit="10" stroke-opacity=".037"/><path fill="none" stroke="#FFFF80" paint-order="fill stroke markers" d="M18.216 30.485-2450.811-242.09" stroke-miterlimit="10" stroke-opacity=".039"/><path fill="none" stroke="#0F0" paint-order="fill stroke markers" d="m-32.215 42.568 11.297 45.385" stroke-miterlimit="10" stroke-width="4"/><path fill="none" stroke="gray" paint-order="fill stroke markers" d="m-34.156 43.05 11.297 45.386" stroke-opacity="255" stroke-miterlimit="10" stroke-width="2"/><path fill="red" d="M39.931 50.103h3v3h-3z"/></svg>