<svg version="1.1" xmlns="http://www.w3.org/2000/svg" xmlns:xlink="http://www.w3.org/1999/xlink" width="199.23673070535008" height="179.89119993373683"><defs/><g><rect fill="black" stroke="none" x="0" y="0" width="199.23673070535008" height="179.89119993373683"/><g transform="translate(-63.41712500665242,-125.24888228035788)"><g/><path fill="none" stroke="brown" paint-order="fill stroke markers" d=" M 142.38361202590826 222 A 35.38361202590826 35.38361202590826 0 1 1 142.38359433410372 221.96461639387135" stroke-miterlimit="10" stroke-dasharray=""/><rect fill="white" stroke="none" x="105.5" y="220.5" width="3" height="3" fill-opacity="0.2"/><path fill="none" stroke="brown" paint-order="fill stroke markers" d=" M 189.37755832643194 225 A 21.37755832643195 21.37755832643195 0 1 1 189.37754763765366 224.97862244523648" stroke-miterlimit="10" stroke-dasharray=""/><rect fill="white" stroke="none" x="166.5" y="223.5" width="3" height="3" fill-opacity="0.2"/><rect fill="rgb(0,255,0)" stroke="none" x="107.5" y="220.5" width="5" height="5"/><rect fill="rgb(0,255,0)" stroke="none" x="241.5" y="227.5" width="5" height="5"/><rect fill="rgb(255,0,0)" stroke="none" x="208.5" y="226.5" width="3" height="3"/><path fill="none" stroke="rgb(255,255,128)" paint-order="fill stroke markers" d=" M 110 223 L 110 257.2562051276084" stroke-miterlimit="10" stroke-dasharray=""/><path fill="none" stroke="rgb(255,255,128)" paint-order="fill stroke markers" d=" M 110 223 L 117.48511108618906 255.79441441289188" stroke-miterlimit="10" stroke-dasharray=""/><path fill="none" stroke="rgb(255,255,128)" paint-order="fill stroke markers" d=" M 110 223 L 124.36509437577445 252.8294258350759" stroke-miterlimit="10" stroke-dasharray=""/><path fill="none" stroke="rgb(255,255,128)" paint-order="fill stroke markers" d=" M 110 223 L 130.38149763485717 248.55758965627658" stroke-miterlimit="10" stroke-dasharray=""/><path fill="none" stroke="rgb(255,255,128)" paint-order="fill stroke markers" d=" M 110 223 L 135.32968012467202 243.19974584832948" stroke-miterlimit="10" stroke-dasharray=""/><path fill="none" stroke="rgb(255,255,128)" paint-order="fill stroke markers" d=" M 110 223 L 139.05133837311212 236.99038720288007" stroke-miterlimit="10" stroke-dasharray=""/><path fill="none" stroke="rgb(255,255,128)" paint-order="fill stroke markers" d=" M 110 223 L 141.4267742859965 230.1729561519105" stroke-miterlimit="10" stroke-dasharray=""/><path fill="none" stroke="rgb(255,255,128)" paint-order="fill stroke markers" d=" M 110 223 L 142.36947836765478 223" stroke-miterlimit="10" stroke-dasharray=""/><path fill="none" stroke="rgb(255,255,128)" paint-order="fill stroke markers" d=" M 110 223 L 141.8247734914278 215.73620312663735" stroke-miterlimit="10" stroke-dasharray=""/><path fill="none" stroke="rgb(255,255,128)" paint-order="fill stroke markers" d=" M 110 223 L 139.7733869106618 208.66189254788887" stroke-miterlimit="10" stroke-dasharray=""/><path fill="none" stroke="rgb(255,255,128)" paint-order="fill stroke markers" d=" M 110 223 L 136.23987603394508 202.07439713535564" stroke-miterlimit="10" stroke-dasharray=""/><path fill="none" stroke="rgb(255,255,128)" paint-order="fill stroke markers" d=" M 110 223 L 131.30476663725932 196.2846676337177" stroke-miterlimit="10" stroke-dasharray=""/><path fill="none" stroke="rgb(255,255,128)" paint-order="fill stroke markers" d=" M 110 223 L 125.11807827258082 191.60698699193125" stroke-miterlimit="10" stroke-dasharray=""/><path fill="none" stroke="rgb(255,255,128)" paint-order="fill stroke markers" d=" M 110 223 L 117.91078070975936 188.3406051108529" stroke-miterlimit="10" stroke-dasharray=""/><path fill="none" stroke="rgb(255,255,128)" paint-order="fill stroke markers" d=" M 110 223 L 110 186.74379487239162" stroke-miterlimit="10" stroke-dasharray=""/><path fill="none" stroke="rgb(255,255,128)" paint-order="fill stroke markers" d=" M 110 223 L 101.78391177840062 187.00296550185297" stroke-miterlimit="10" stroke-dasharray=""/><path fill="none" stroke="rgb(255,255,128)" paint-order="fill stroke markers" d=" M 110 223 L 93.72354354733366 189.20158991566123" stroke-miterlimit="10" stroke-dasharray=""/><path fill="none" stroke="rgb(255,255,128)" paint-order="fill stroke markers" d=" M 110 223 L 86.31113725482992 193.29510567322163" stroke-miterlimit="10" stroke-dasharray=""/><path fill="none" stroke="rgb(255,255,128)" paint-order="fill stroke markers" d=" M 110 223 L 80.02782916127723 199.09799134908138" stroke-miterlimit="10" stroke-dasharray=""/><path fill="none" stroke="rgb(255,255,128)" paint-order="fill stroke markers" d=" M 110 223 L 75.29636073884365 206.28760815157455" stroke-miterlimit="10" stroke-dasharray=""/><path fill="none" stroke="rgb(255,255,128)" paint-order="fill stroke markers" d=" M 110 223 L 72.43643537117869 214.42636149863932" stroke-miterlimit="10" stroke-dasharray=""/><path fill="none" stroke="rgb(255,255,128)" paint-order="fill stroke markers" d=" M 110 223 L 71.63052163234522 223" stroke-miterlimit="10" stroke-dasharray=""/><path fill="none" stroke="rgb(255,255,128)" paint-order="fill stroke markers" d=" M 110 223 L 72.90620364398245 231.46641695861769" stroke-miterlimit="10" stroke-dasharray=""/><path fill="none" stroke="rgb(255,255,128)" paint-order="fill stroke markers" d=" M 110 223 L 76.13797516623004 239.30709170137393" stroke-miterlimit="10" stroke-dasharray=""/><path fill="none" stroke="rgb(255,255,128)" paint-order="fill stroke markers" d=" M 110 223 L 81.06748907636779 246.07290753514616" stroke-miterlimit="10" stroke-dasharray=""/><path fill="none" stroke="rgb(255,255,128)" paint-order="fill stroke markers" d=" M 110 223 L 87.3377240767914 251.4175951688715" stroke-miterlimit="10" stroke-dasharray=""/><path fill="none" stroke="rgb(255,255,128)" paint-order="fill stroke markers" d=" M 110 223 L 94.53422261546339 255.11501765361413" stroke-miterlimit="10" stroke-dasharray=""/><path fill="none" stroke="rgb(255,255,128)" paint-order="fill stroke markers" d=" M 110 223 L 102.22600963306544 257.0600772385974" stroke-miterlimit="10" stroke-dasharray=""/><path fill="none" stroke="rgb(255,255,128)" paint-order="fill stroke markers" d=" M 244 230 L 178.86658225019883 243.40970912860016" stroke-miterlimit="10" stroke-dasharray=""/><path fill="none" stroke="rgb(255,255,128)" paint-order="fill stroke markers" d=" M 244 230 L 189.03240818772915 228.82593855475275" stroke-miterlimit="10" stroke-dasharray=""/><path fill="none" stroke="rgb(255,255,128)" paint-order="fill stroke markers" d=" M 244 230 L 187.28434419826812 215.7742713652133" stroke-miterlimit="10" stroke-dasharray=""/><rect fill="rgb(0,255,0)" stroke="none" x="107.5" y="220.5" width="5" height="5"/><rect fill="rgb(0,255,0)" stroke="none" x="241.5" y="227.5" width="5" height="5"/><rect fill="rgb(255,0,0)" stroke="none" x="208.5" y="226.5" width="3" height="3"/><path fill="none" stroke="brown" paint-order="fill stroke markers" d=" M 142.38361202590826 222 A 35.38361202590826 35.38361202590826 0 1 1 142.38359433410372 221.96461639387135" stroke-miterlimit="10" stroke-dasharray=""/><rect fill="transparent" stroke="none" x="105.5" y="220.5" width="3" height="3" fill-opacity="0.1"/><path fill="none" stroke="brown" paint-order="fill stroke markers" d=" M 189.37755832643194 225 A 21.37755832643195 21.37755832643195 0 1 1 189.37754763765366 224.97862244523648" stroke-miterlimit="10" stroke-dasharray=""/><rect fill="transparent" stroke="none" x="166.5" y="223.5" width="3" height="3" fill-opacity="0.1"/></g></g></svg>