<svg version="1.1" xmlns="http://www.w3.org/2000/svg" xmlns:xlink="http://www.w3.org/1999/xlink" width="100" height="100"><defs/><g><rect fill="black" stroke="none" x="0" y="0" width="100" height="100"/><g transform="translate(0,0)"><path fill="none" stroke="rgb(168,168,168)" paint-order="fill stroke markers" d=" M 43.250000000000014 17.75 A 74.00442966721725 74.00442966721725 0 0 1 77.75 80.25" stroke-miterlimit="10" stroke-dasharray=""/><path fill="none" stroke="rgb(124,62,18)" paint-order="fill stroke markers" d=" M 43.250000000000014 17.75 A 74.00442966721725 74.00442966721725 0 0 1 77.75 80.25" stroke-miterlimit="10" stroke-width="2" stroke-dasharray="2,2"/><rect fill="rgb(255,0,0)" stroke="none" x="-89.5" y="83" width="5" height="5"/><rect fill="rgb(255,0,0)" stroke="none" x="-28.5" y="66.5" width="3" height="3"/><path fill="none" stroke="rgb(255,255,128)" paint-order="fill stroke markers" d=" M -87 85.5 L 66.30080719536069 40.78726456801979" stroke-opacity="1" stroke-miterlimit="10"/><path fill="none" stroke="rgb(255,255,128)" paint-order="fill stroke markers" d=" M 66.30080719536069 40.78726456801979 L -71.72724368224262 315.10704327579157" stroke-opacity="0.25" stroke-miterlimit="10"/><path fill="none" stroke="rgb(255,255,128)" paint-order="fill stroke markers" d=" M 66.30080719536069 40.78726456801979 L -107.19360189542267 294.1699274192714" stroke-opacity="0.5" stroke-miterlimit="10"/><path fill="none" stroke="rgb(255,255,128)" paint-order="fill stroke markers" d=" M 66.30080719536069 40.78726456801979 L -137.8482813205456 270.19134796122313" stroke-opacity="1" stroke-miterlimit="10"/><path fill="none" stroke="rgb(255,255,128)" paint-order="fill stroke markers" d=" M 66.30080719536069 40.78726456801979 L -164.31555366660166 243.56590723567425" stroke-opacity="0.5" stroke-miterlimit="10"/><path fill="none" stroke="rgb(255,255,128)" paint-order="fill stroke markers" d=" M 66.30080719536069 40.78726456801979 L -186.92911556174778 214.50453498112518" stroke-opacity="0.25" stroke-miterlimit="10"/><path fill="none" stroke="rgb(168,168,168)" paint-order="fill stroke markers" d=" M 43.250000000000014 17.75 A 74.00442966721725 74.00442966721725 0 0 1 77.75 80.25" stroke-miterlimit="10"/><path fill="none" stroke="rgb(124,62,18)" paint-order="fill stroke markers" d=" M 43.250000000000014 17.75 A 74.00442966721725 74.00442966721725 0 0 1 77.75 80.25" stroke-miterlimit="10" stroke-width="2" stroke-dasharray="2,2"/><rect fill="rgb(255,0,0)" stroke="none" x="-89.5" y="83" width="5" height="5"/><rect fill="rgb(255,0,0)" stroke="none" x="-28.5" y="66.5" width="3" height="3"/></g></g></svg>