<svg version="1.1" xmlns="http://www.w3.org/2000/svg" xmlns:xlink="http://www.w3.org/1999/xlink" width="100" height="100"><defs/><g><rect fill="black" stroke="none" x="0" y="0" width="100" height="100"/><g/><path fill="none" stroke="rgb(168,168,168)" paint-order="fill stroke markers" d=" M 17.44312694783866 94.20679086054471 L 17.51648188600009 93.90200155339252 L 17.589963821066632 93.59864384771612 L 17.66357244513452 93.29671427260038 L 17.737307450299998 92.99620935713017 L 17.811168528659298 92.69712563039029 L 17.885155372308656 92.39945962146568 L 17.959267673344318 92.10320785944117 L 18.03350512386252 91.80836687340161 L 18.10786741595949 91.51493319243191 L 18.182354241731478 91.22290334561688 L 18.256965293274714 90.93227386204141 L 18.331700262685438 90.64304127079035 L 18.40655884205989 90.35520210094857 L 18.48154072349431 90.06875288160097 L 18.556645599084927 89.78369014183234 L 18.631873160927984 89.50001041072757 L 18.70722310111972 89.21771021737155 L 18.78269511175637 88.93678609084913 L 18.85828888493418 88.65723456024516 L 18.934004112749374 88.37905215464451 L 19.009840487298202 88.10223540313203 L 19.085797700676896 87.8267808347926 L 19.161875444981693 87.5526849787111 L 19.238073412308836 87.27994436397236 L 19.31439129475455 87.00855551966124 L 19.390828784415092 86.73851497486265 L 19.46738557338669 86.46981925866139 L 19.544061353765578 86.20246490014236 L 19.620855817648 85.93644842839043 L 19.69776865713019 85.67176637249045 L 19.774799564308392 85.40841526152727 L 19.851948231278833 85.14639162458576 L 19.92921435013776 84.88569199075079 L 20.006597612981405 84.62631288910721 L 20.084097711906015 84.36825084873993 L 20.16171433900782 84.11150239873375 L 20.239447186383057 83.85606406817355 L 20.317295946127967 83.60193238614421 L 20.395260310338784 83.3491038817306 L 20.473339971111756 83.09757508401756 L 20.55153462054311 82.84734252208995 L 20.629843950729082 82.59840272503266 L 20.708267653765922 82.35075222193052 L 20.786805421749865 82.10438754186842 L 20.86545694677714 81.85930521393121 L 20.944221920943992 81.61550176720375 L 21.023100036346655 81.37297373077091 L 21.102090985081368 81.13171763371756 L 21.181194459244374 80.89173000512855 L 21.2604101509319 80.65300737408873 L 21.339737752240193 80.41554626968299 L 21.419176955265492 80.1793432209962 L 21.498727452104024 79.94439475711317 L 21.578388934852036 79.71069740711881 L 21.658161095605763 79.47824770009797 L 21.738043626461447 79.24704216513554 L 21.818036219515324 79.01707733131633 L 21.898138566863622 78.78834972772523 L 21.97835036060259 78.5608558834471 L 22.058671292828468 78.33459232756682 L 22.139101055637482 78.10955558916922 L 22.219639341125877 77.88574219733918 L 22.300285841389893 77.66314868116157 L 22.381040248525764 77.44177156972127 L 22.461902254629727 77.2216073921031 L 22.542871551798022 77.00265267739192 L 22.62394783212689 76.78490395467263 L 22.705130787712566 76.5683577530301 L 22.78642011065128 76.35301060154914 L 22.867815493039284 76.13885902931466 L 22.949316626972806 75.9258995654115 L 23.030923204548085 75.71412873892453 L 23.112634917861364 75.50354307893862 L 23.194451459008878 75.29413911453862 L 23.276372520086863 75.0859133748094 L 23.358397793191557 74.87886238883581 L 23.4405269704192 74.67298268570275 L 23.522759743866025 74.46827079449501 L 23.605095805628277 74.26472324429753 L 23.687534847802187 74.06233656419514 L 23.770076562484007 73.8611072832727 L 23.852720641769952 73.66103193061508 L 23.935466777756275 73.46210703530713 L 24.018314662539215 73.26432912643375 L 24.101263988215 73.06769473307976 L 24.184314446879878 72.87220038433003 L 24.26746573063008 72.67784260926945 L 24.35071753156184 72.48461793698284 L 24.43406954177141 72.29252289655511 L 24.51752145335502 72.1015540170711 L 24.601072958408903 71.91170782761567 L 24.68472374902931 71.72298085727368 L 24.768473517312458 71.53536963513001 L 24.852321955354604 71.34887069026951 L 24.93626875525198 71.16348055177703 L 25.020313609100818 70.97919574873747 L 25.104456208997366 70.79601281023565 L 25.188696247037853 70.61392826535646 L 25.27303341531852 70.43293864318477 L 25.35746740593561 70.25304047280541 L 25.441997910985346 70.07423028330328 L 25.526624622563986 69.89650460376322 L 25.611347232767752 69.7198599632701 L 25.696165433692887 69.54429289090876 L 25.781078917435632 69.3697999157641 L 25.86608737609222 69.19637756692097 L 25.95119050175889 69.02402237346422 L 26.036387986531885 68.85273086447874 L 26.12167952250744 68.68249956904936 L 26.207064801781783 68.51332501626096 L 26.29254351645117 68.3452037351984 L 26.37811535861182 68.17813225494655 L 26.463780020359984 68.01210710459026 L 26.5495371937919 67.84712481321439 L 26.635386571003792 67.68318190990382 L 26.721327844091913 67.52027492374341 L 26.807360705152497 67.35840038381802 L 26.893484846281776 67.1975548192125 L 26.979699959575996 67.03773475901173 L 27.066005737131388 66.87893673230056 L 27.15240187104419 66.72115726816388 L 27.23888805341065 66.56439289568651 L 27.325463976326994 66.40864014395333 L 27.412129331889464 66.25389554204924 L 27.4988838121943 66.10015561905904 L 27.585727109337732 65.94741690406764 L 27.672658915416008 65.79567592615987 L 27.759678922525364 65.64492921442063 L 27.846786822762027 65.49517329793476 L 27.933982308222255 65.34640470578711 L 28.021265071002265 65.19861996706257 L 28.108634803198306 65.05181561084599 L 28.196091196906615 64.90598816622223 L 28.283633944223425 64.76113416227615 L 28.37126273724498 64.61725012809264 L 28.458977268067517 64.47433259275654 L 28.546777228787267 64.33237808535269 L 28.634662311500477 64.191383134966 L 28.72263220830338 64.0513442706813 L 28.810686611292212 63.91225802158347 L 28.898825212563217 63.77412091675737 L 28.987047704212625 63.636929485287844 L 29.07535377833668 63.50068025625978 L 29.16374312703162 63.365369758758035 L 29.252215442393677 63.230994521867466 L 29.340770416519092 63.097551074672936 L 29.429407741504107 62.965035946259306 L 29.51812710944495 62.833445665711444 L 29.606928212437875 62.70277676211422 L 29.695810742579102 62.57302576455248 L 29.78477439196488 62.44418920211109 L 29.873818852691443 62.31626360387494 L 29.962943816855027 62.189245498928855 L 30.052148976551873 62.063131416357706 L 30.14143402387822 61.93791788524638 L 30.2307986509303 61.81360143467971 L 30.32024254980436 61.69017859374259 L 30.409765412596627 61.567645891519845 L 30.499366931403344 61.44599985709637 L 30.589046798320755 61.325237019557015 L 30.678804705445092 61.20535390798664 L 30.76864034487259 61.08634705147011 L 30.858553408699493 60.9682129790923 L 30.94854358902203 60.850948219938054 L 31.038610577936453 60.73454930309224 L 31.128754067538985 60.61901275763973 L 31.21897374992587 60.50433511266537 L 31.309269317193348 60.39051289725405 L 31.399640461437652 60.277542640490616 L 31.490086874755026 60.16542087145992 L 31.580608249241703 60.05414411924684 L 31.67120427699392 59.943708912936245 L 31.761874650107917 59.834111781612975 L 31.852619060679935 59.72534925436191 L 31.94343720080621 59.61741786026791 L 32.03432876258297 59.51031412841584 L 32.12529343810647 59.404034587890564 L 32.21633091947294 59.298575767776924 L 32.30744089877861 59.19393419715981 L 32.398623068119726 59.09010640512408 L 32.48987711959253 58.98708892075458 L 32.581202745293254 58.884878273136195 L 32.67259963731813 58.78347099135377 L 32.764067487763405 58.68286360449217 L 32.855605988725316 58.58305264163627 L 32.94721483230009 58.48403463187092 L 33.03889371058399 58.38580610428099 L 33.13064231567323 58.288363587951345 L 33.222460339664046 58.191703611966844 L 33.3143474746527 58.095822705412345 L 33.406303412735404 58.00071739737272 L 33.49832784600841 57.90638421693282 L 33.590420466567956 57.81281969317753 L 33.68258096651028 57.720020355191686 L 33.774809037931604 57.62798273206017 L 33.86710437292819 57.53670335286784 L 33.95946666359626 57.446178746699545 L 34.05189560203205 57.35640544264017 L 34.144390880331805 57.26737996977456 L 34.23695219059177 57.17909885718759 L 34.32957922490817 57.09155863396412 L 34.422271675377246 57.004755829189 L 34.51502923409524 56.918686971947125 L 34.60785159315839 56.83334859132333 L 34.70073844466292 56.748737216402475 L 34.79368948070508 56.66484937626944 L 34.886704393381116 56.58168160000907 L 34.97978287478725 56.49923041670625 L 35.07292461701972 56.41749235544583 L 35.16612931217478 56.336463945312666 L 35.259396652348656 56.25614171539164 L 35.35272632963758 56.1765221947676 L 35.44611803613781 56.097601912525406 L 35.53957146394556 56.019377397749935 L 35.63308630515708 55.94184517952604 L 35.72666225186862 55.86500178693859 L 35.82029899617639 55.78884374907244 L 35.91399623017664 55.71336759501246 L 36.00775364596563 55.63856985384351 L 36.101570935639565 55.564447054650444 L 36.19544779129469 55.49099572651814 L 36.289383905027265 55.418212398531466 L 36.3833789689335 55.34609359977525 L 36.47743267510965 55.274635859334396 L 36.571544715651946 55.203835706293745 L 36.66571478265663 55.13368966973816 L 36.75994256821993 55.06419427875252 L 36.854227764438086 54.99534606242166 L 36.94857006340735 54.927141549830466 L 37.04296915722395 54.85957727006379 L 37.13742473798412 54.79264975220649 L 37.23193649778411 54.72635552534346 L 37.326504128720146 54.66069111855953 L 37.421127322888466 54.59565306093956 L 37.51580577238532 54.53123788156844 L 37.61053916930694 54.46744210953101 L 37.70532720574955 54.404262273912146 L 37.800169573809406 54.34169490379671 L 37.89506596558274 54.27973652826955 L 37.990016073165776 54.21838367641555 L 38.085019588654774 54.157632877319564 L 38.18007620414596 54.097480660066445 L 38.27518561173559 54.037923553741074 L 38.37034750351987 53.978958087428296 L 38.46556157159505 53.92058079021298 L 38.560827508057386 53.86278819118 L 38.6561450050031 53.805576819414206 L 38.751513754528425 53.74894320400047 L 38.84693344872961 53.69288387402364 L 38.94240377970288 53.6373953585686 L 39.03792443954449 53.58247418672019 L 39.13349512035067 53.528116887563286 L 39.229115514217646 53.47431999018276 L 39.32478531324167 53.42108002366346 L 39.42050420951899 53.36839351709024 L 39.51627189514582 53.31625699954799 L 39.612088062218405 53.264667000121555 L 39.70795240283299 53.2136200478958 L 39.80386460908581 53.16311267195559 L 39.899824373073095 53.11314140138578 L 39.9958313868911 53.06370276527125 L 40.09188534263605 53.01479329269686 L 40.187985932404175 52.96640951274745 L 40.284132848291726 52.91854795450791 L 40.38032578239495 52.87120514706309 L 40.47656442681006 52.82437761949784 L 40.5728484736333 52.77806190089705 L 40.66917761496094 52.73225452034556 L 40.76555154288917 52.68695200692826 L 40.861969949514254 52.64215088972999 L 40.95843252693243 52.59784769783561 L 41.05493896723993 52.55403896033 L 41.15148896253299 52.510721206298015 L 41.24808220490786 52.467890964824505 L 41.34471838646076 52.425544764994356 L 41.44139719928794 52.383679135892415 L 41.538118335485635 52.342290606603555 L 41.63488148715009 52.30137570621263 L 41.73168634637752 52.26093096380451 L 41.828532605264186 52.22095290846406 L 41.92541995590633 52.181438069276126 L 42.022348090400165 52.14238297532558 L 42.119316700841935 52.1037841556973 L 42.2163254793279 52.06563813947612 L 42.313374117954275 52.027941455746934 L 42.4104623088173 51.99069063359458 L 42.50758974401323 51.953882202103934 L 42.60475611563829 51.91751269035986 L 42.701961115788706 51.88157862744721 L 42.79920443656074 51.84607654245085 L 42.89648577005062 51.81100296445565 L 42.993804808354575 51.77635442254647 L 43.09116124356885 51.74212744580817 L 43.18855476778969 51.70831856332562 L 43.285985073113316 51.67492430418367 L 43.38345185163598 51.64194119746719 L 43.48095479545392 51.60936577226105 L 43.57849359666337 51.577194557650095 L 43.67606794736056 51.54542408271921 L 43.77367753964174 51.51405087655324 L 43.87132206560314 51.48307146823706 L 43.969001217340995 51.45248238685553 L 44.06671468695156 51.4222801614935 L 44.16446216653106 51.39246132123585 L 44.26224334817573 51.363022395167434 L 44.360057923981806 51.33395991237311 L 44.45790558604555 51.30527040193776 L 44.55578602646316 51.27695039294622 L 44.6536989373309 51.24899641448338 L 44.75164401074502 51.22140499563409 L 44.84962093880173 51.19417266548321 L 44.94762941359728 51.167295953115605 L 45.0456691272279 51.140771387616134 L 45.143739771789846 51.114595498069676 L 45.24184103937933 51.08876481356108 L 45.339972622092624 51.0632758631752 L 45.438134212025936 51.038125175996925 L 45.536325501275506 51.0133092811111 L 45.63454618193759 50.98882470760258 L 45.73279594610841 50.96466798455625 L 45.83107448588421 50.940835641056964 L 45.929381493361234 50.91732420618957 L 46.02771666063571 50.894130209038956 L 46.12607967980387 50.87125017868996 L 46.22447024296198 50.84868064422747 L 46.322888042206245 50.82641813473633 L 46.42133276963292 50.80445917930141 L 46.51980411733824 50.78280030700757 L 46.61830177741843 50.76143804693968 L 46.71682544196976 50.74036892818259 L 46.81537480308844 50.719589479821174 L 46.91394955287071 50.69909623094029 L 47.01254938341282 50.678885710624805 L 47.111173986810996 50.65895444795958 L 47.209823055161486 50.63929897202947 L 47.308496280560526 50.61991581191935 L 47.40719335510434 50.60080149671408 L 47.50591397088919 50.58195255549851 L 47.60465782001129 50.563365517357525 L 47.70342459456689 50.545036911375966 L 47.802213986652234 50.52696326663872 L 47.90102568836354 50.50914111223062 L 47.99985939179707 50.49156697723655 L 48.09871478904904 50.47423739074137 L 48.1975915722157 50.45714888182994 L 48.29648943339329 50.44029797958713 L 48.39540806467804 50.42368121309779 L 48.494347158166185 50.407295111446786 L 48.59330640595398 50.391136203718986 L 48.69228550013764 50.375201018999256 L 48.79128413281342 50.35948608637244 L 48.89030199607756 50.343987934923426 L 48.98933878202628 50.32870309373707 L 49.088394182755835 50.31362809189822 L 49.18746789036245 50.29875945849175 L 49.286559596942375 50.28409372260252 L 49.38566899459184 50.269627413315405 L 49.48479577540708 50.25535705971525 L 49.58393963148434 50.24127919088692 L 49.68310025491985 50.227390335915295 L 49.78227733780986 50.21368702388522 L 49.8814705722506 50.200165783881566 L 49.9806796503383 50.1868231449892 L 50.07990426416922 50.17365563629296 L 50.179144105839576 50.16065978687775 L 50.27839886744562 50.1478321258284 L 50.377668241083576 50.13516918222978 L 50.47695191884969 50.122667485166765 L 50.576249592840206 50.11032356372421 L 50.675560955151354 50.09813394698696 L 50.77488569787937 50.08609516403991 L 50.8742235131205 50.0742037439679 L 50.97357409297096 50.06245621585581 L 51.07293712952703 50.05084910878849 L 51.172312314884906 50.0393789518508 L 51.271699341140845 50.02804227412762 L 51.371097900391085 50.016835604703786 L 51.470507684731864 50.00575547266419 L 51.56992838625941 49.99479840709368 L 51.66935969706997 49.98396093707712 L 51.76880130925978 49.973239591699375 L 51.86825291492508 49.962630900045305 L 51.96771420616211 49.95213139119977 L 52.06718487506709 49.94173759424764 L 52.16666461373628 49.931446038273776 L 52.266153114265904 49.92125325236304 L 52.3656500687522 49.91115576560029 L 52.46515516929143 49.9011501070704 L 52.56466810797979 49.89123280585822 L 52.66418857691355 49.88140039104863 L 52.763716268188944 49.87164939172647 L 52.86325087390219 49.861976336976625 L 52.96279208614955 49.852377755883936 L 53.06233959702725 49.842850177533286 L 53.16189309863152 49.83339013100953 L 53.261452283058624 49.82399414539752 L 53.361016842404766 49.81465874978215 L 53.46058646876621 49.80538047324825 L 53.560160854239186 49.79615584488069 L 53.65973969091993 49.78698139376434 L 53.75932267090467 49.77785364898406 L 53.85890948628966 49.76876913962472 L 53.95849982917114 49.759724394771176 L 54.058093391645336 49.75071594350828 L 54.15768986580848 49.741740314920925 L 54.25728894375683 49.73279403809394 L 54.356890317586604 49.72387364211221 L 54.45649367939406 49.71497565606059 L 54.55609872127542 49.70609660902394 L 54.655705135326926 49.697233030087126 L 54.75531261364482 49.688381448335015 L 54.854920848325335 49.679538392852464 L 54.9545295314647 49.67070039272434 L 55.054138355159175 49.66186397703551 L 55.15374701150498 49.65302567487082 L 55.25335519259836 49.644182015315145 L 55.35296259053556 49.635329527453344 L 55.4525688974128 49.626464740370295 L 55.55217380532633 49.61758418315084 L 55.651777006372384 49.608684384879844 L 55.7513781926472 49.59976187464219 L 55.850977056247025 49.59081318152272 L 55.95057328926808 49.5818348346063 L 56.050166583806615 49.5728233629778 L 56.149756631958866 49.563775295722074 L 56.24934312582106 49.554687161924 L 56.34892575748946 49.54555549066843 L 56.448504219060275 49.53637681104022 L 56.54807820262976 49.52714765212425 L 56.64764740029415 49.517864543005366 L 56.747211504149675 49.50852401276844 L 56.84677020629258 49.49912259049834 L 56.9463231988191 49.489656805279914 L 57.045870173825485 49.480123186198036 L 57.145410823407964 49.47051826233757 L 57.24494483966276 49.460838562783366 L 57.34447191468613 49.4510806166203 L 57.44399174057431 49.44124095293324 L 57.54350400942353 49.431316100807024 L 57.64300841333004 49.421302589326544 L 57.74250464439005 49.411196947576634 L 57.84199239469984 49.400995704642185 L 57.94147135635562 49.39069538960805 L 58.04094122145362 49.38029253155907 L 58.1404016820901 49.36978365958014 L 58.23985243036129 49.35916530275612 L 58.339293158363425 49.34843399017184 L 58.43872355819275 49.337586250912196 L 58.53814332194548 49.326618614062035 L 58.63755214171789 49.31552760870623 L 58.73694970960619 49.304309763929645 L 58.836335717706625 49.29296160881712 L 58.93570985811544 49.28147967245355 L 59.035071822928856 49.26986048392377 L 59.134421304243126 49.25810057231267 L 59.23375799415449 49.24619646670509 L 59.333081584759164 49.2341446961859 L 59.432391768153416 49.22194178983997 L 59.53168823643347 49.20958427675215 L 59.630970681695544 49.197068686007306 L 59.730238796035906 49.184391546690314 L 59.82949227155078 49.171549387886024 L 59.92873080033641 49.1585387386793 L 60.02795407448903 49.14535612815501 L 60.12716178610487 49.131998085398 L 60.22635362728018 49.11846113949317 L 60.32552929011119 49.10474181952535 L 60.42468846669415 49.090836654579405 L 60.52383084912529 49.076742173740215 L 60.622956129500835 49.062454906092626 L 60.72206399991704 49.04797138072151 L 60.82115415247014 49.03328812671173 L 60.92022627925637 49.01840167314815 L 61.01928007237196 49.00330854911562 L 61.118315223913164 48.988005283699025 L 61.21733142597621 48.9724884059832 L 61.316328370657345 48.956754445053036 L 61.41530575005279 48.94079992999338 L 61.51426325625879 48.9246213898891 L 61.613200581371586 48.90821535382505 L 61.71211741748743 48.8915783508861 L 61.81101345670253 48.874706910157116 L 61.90988839111314 48.85759756072296 L 62.0087419128155 48.84024683166849 L 62.10757371390585 48.82265125207857 L 62.20638348648041 48.80480735103806 L 62.30517092263544 48.786711657631834 L 62.40393571446716 48.76836070094475 L 62.50267755407182 48.74975101006166 L 62.601396133545656 48.730879114067434 L 62.700091144984896 48.711741542046944 L 62.798762280485796 48.69233482308504 L 62.89740923214457 48.6726554862666 L 62.99603169205748 48.652700060676466 L 63.09462935232075 48.632465075399516 L 63.19320190503061 48.61194705952061 L 63.29174904228332 48.5911425421246 L 63.39027045617511 48.570048052296364 L 63.4887658388022 48.54866011912077 L 63.58723488226086 48.52697527168265 L 63.68567727864729 48.504990039066904 L 63.78409272005776 48.482700950358364 L 63.8824808985885 48.460104534641914 L 63.98084150633573 48.437197321002415 L 64.0791742353957 48.41397583852471 L 64.17747877786465 48.39043661629369 L 64.27575482583883 48.3665761833942 L 64.37400207141447 48.342391068911105 L 64.47222020668778 48.31787780192927 L 64.57040892375502 48.293032911533565 L 64.66856791471244 48.267852926808835 L 64.76669687165626 48.242334376839956 L 64.86479548668274 48.21647379071179 L 64.96286345188808 48.1902676975092 L 65.06090045936855 48.163712626317036 L 65.15890620122038 48.13680510622019 L 65.2568803695398 48.10954166630349 L 65.35482265642304 48.08191883565182 L 65.45273275396636 48.053933143350044 L 65.550610354266 48.02558111848302 L 65.6484551494182 47.9968592901356 L 65.74626683151915 47.96776418739267 L 65.84404509266513 47.93829233933907 L 65.94178962495238 47.908440275059675 L 66.03950012047711 47.87820452363935 L 66.1371762713356 47.84758161416295 L 66.23481776962404 47.81656807571534 L 66.33242430743871 47.785160437381386 L 66.42999557687583 47.753355228245944 L 66.52753127003163 47.72114897739389 L 66.62503107900234 47.68853821391007 L 66.72249469588424 47.65551946687936 L 66.81992181277353 47.62208926538663 L 66.91731212176646 47.588244138516714 L 67.01466531495926 47.5539806153545 L 67.11198108444816 47.519295224984845 L 67.20925912232943 47.4841844964926 L 67.30649912069929 47.448644958962646 L 67.40370077165397 47.41267314147984 L 67.50086376728972 47.37626557312903 L 67.59798779970278 47.33941878299511 L 67.69507256098937 47.3021293001629 L 67.79211774324574 47.26439365371731 L 67.88912303856813 47.22620837274317 L 67.98608813905278 47.18756998632536 L 68.08301273679591 47.14847502354873 L 68.17989652389379 47.10892001349814 L 68.2767391924426 47.06890148525847 L 68.37354043453864 47.028415967914576 L 68.47029994227813 46.987459990551315 L 68.56701740775729 46.94603008225356 L 68.66369252307238 46.90412277210616 L 68.76032498031961 46.86173458919399 L 68.85691447159526 46.818862062601916 L 68.95346068899552 46.775501721414784 L 69.04996332461666 46.731650094717466 L 69.1464220705549 46.68730371159483 L 69.24283661890651 46.64245910113173 L 69.33920666176768 46.59711279241303 L 69.43553189123469 46.5512613145236 L 69.53181199940374 46.504901196548296 L 69.62804667837109 46.45802896757199 L 69.72423562023299 46.41064115667953 L 69.82037851708564 46.36273429295579 L 69.91647506102534 46.314304905485635 L 70.01252494414825 46.26534952335392 L 70.10852785855069 46.21586467564551 L 70.20448349632882 46.16584689144527 L 70.3003915495789 46.11529269983806 L 70.39625171039721 46.064198629908745 L 70.49206367087996 46.01256121074219 L 70.58782712312336 45.960376971423244 L 70.6835417592237 45.90764244103679 L 70.77920727127719 45.85435414866768 L 70.87482335138004 45.80050862340078 L 70.97038969162854 45.74610239432096 L 71.0659059841189 45.69113199051306 L 71.16137192094737 45.63559394106196 L 71.25678719421018 45.57948477505252 L 71.35215149600357 45.522801021569606 L 71.44746451842376 45.46553920969808 L 71.54272595356701 45.4076958685228 L 71.63793549352955 45.34926752712863 L 71.73309283040764 45.29025071460044 L 71.82819765629749 45.23064196002308 L 71.92324966329535 45.17043779248142 L 72.01824854349744 45.10963474106033 L 72.11319398900001 45.04822933484466 L 72.2080856918993 44.98621810291929 L 72.30292334429154 44.923597574369055 L 72.39770663827301 44.860364278278844 L 72.49243526593987 44.79651474373351 L 72.58710891938844 44.732045499817914 L 72.68172729071489 44.666953075616924 L 72.77629007201548 44.60123400021539 L 72.87079695538647 44.534884802698194 L 72.96524763292409 44.46790201215019 L 73.05964179672456 44.400282157656235 L 73.15397913888414 44.3320217683012 L 73.24825935149903 44.263117373169955 L 73.3424821266655 44.193565501347344 L 73.4366471564798 44.12336268191824 L 73.53075413303812 44.052505443967505 L 73.62480274843675 43.98099031658 L 73.7187926947719 43.908813828840586 L 73.81272366413981 43.83597250983413 L 73.90659534863671 43.7624628886455 L 74.00040744035887 43.68828149435956 L 74.09415963140248 43.613424856061144 L 74.18785161386383 43.53788950283516 L 74.28148307983912 43.46167196376643 L 74.3750537214246 43.384768767939846 L 74.4685632307165 43.30717644444026 L 74.56201129981106 43.22889152235252 L 74.65539762080454 43.14991053076152 L 74.74872188579315 43.0702299987521 L 74.84198378687314 42.98984645540912 L 74.93518301614077 42.908756429817466 L 75.02831926569222 42.826956451061974 L 75.12139222762377 42.744443048227524 L 75.21440159403166 42.66121275039898 L 75.30734705701211 42.57726208666119 L 75.40022830866137 42.492587586099035 L 75.49304504107567 42.40718577779736 L 75.58579694635127 42.32105319084104 L 75.67848371658435 42.23418635431494 L 75.77110504387122 42.14658179730391 L 75.86366062030807 42.05823604889283 L 75.95615013799114 41.969145638166545 L 76.0485732890167 41.87930709420993 L 76.14092976548098 41.78871694610784 L 76.2332192594802 41.69737172294515 L 76.32544146311058 41.6052679538067 L 76.41759606846838 41.51240216777738 L 76.50968276764986 41.41877089394203 L 76.60170125275124 41.32437066138554 L 76.69365121586874 41.22919799919274 L 76.78553234909864 41.133249436448516 L 76.87734434453712 41.03652150223772 L 76.96908689428047 40.93901072564523 L 77.06075969042489 40.8407136357559 L 77.15236242506663 40.74162676165458 L 77.24389479030192 40.641746632426155 L 77.33535647822703 40.54106977715547 L 77.42674718093818 40.439592724927394 L 77.5180665905316 40.33731200482679 L 77.60931439910354 40.234224145938526 L 77.70049029875022 40.13032567734745 L 77.7915939815679 40.025613128138446 L 77.8826251396528 39.92008302739636 L 77.97358346510117 39.81373190420606 L 78.06446865000925 39.706556287652404 L 78.15528038647327 39.59855270682027 L 78.24601836658942 39.48971769079451 L 78.33668228245403 39.38004776865997 L 78.42727182616329 39.26953946950155 L 78.51778668981345 39.15818932240409 L 78.60822656550073 39.045993856452455 L 78.69859114532139 38.932949600731504 L 78.78888012137165 38.819053084326114 L 78.87909318574775 38.70430083632114 L 78.96923003054593 38.58868938580143 L 79.05929034786243 38.47221526185187 L 79.14927382979346 38.35487499355732 L 79.23918016843531 38.23666511000261 L 79.32900905588419 38.11758214027265 L 79.41876018423635 37.99762261345229 L 79.50843324558801 37.876783058626366 L 79.59802793203541 37.75506000487977 L 79.68754393567481 37.632449981297356 L 79.77698094860241 37.50894951696398 L 79.86633866291449 37.38455514096451 L 79.95561677070727 37.25926338238382 L 80.04481496407696 37.13307077030676 L 80.13393293511982 37.00597383381819 L 80.2229703759321 36.87796910200297 L 80.31192697861005 36.74905310394598 L 80.40080243524987 36.61922236873207 L 80.48959643794781 36.4884734254461 L 80.57830867880013 36.356802803172954 L 80.66693884990303 36.224207030997476 L 80.75548664335278 36.09068263800452 L 80.84395175124561 35.95622615327898 L 80.93233386567775 35.82083410590569 L 81.02063267874541 35.68450302496953 L 81.10884788254488 35.54722943955535 L 81.1969791691724 35.40900987874802 L 81.28502623072416 35.26984087163241 L 81.37298875929643 35.12971894729338 L 81.46086644698545 34.988640634815766 L 81.54865898588743 34.84660246328447 L 81.63636606809864 34.70360096178433 L 81.7239873857153 34.55963265940022 L 81.81152263083365 34.41469408521699 L 81.89897149554994 34.26878176831953 L 81.98633367196037 34.12189223779267 L 82.07360885216121 33.97402202272129 L 82.16079672824871 33.82516765219026 L 82.2478969923191 33.67532565528443 L 82.33490933646858 33.52449256108866 L 82.42183345279345 33.37266489868782 L 82.50866903338989 33.219839197166785 L 82.59541577035418 33.0660119856104 L 82.68207335578253 32.91117979310352 L 82.76864148177118 32.75533914873103 L 82.85511984041639 32.59848658157779 L 82.94150812381436 32.44061862072864 L 83.02780602406136 32.28173179526848 L 83.11401323325363 32.12182263428214 L 83.2001294434874 31.96088766685449 L 83.28615434685891 31.79892342207041 L 83.37208763546438 31.635926429014752 L 83.45792900140006 31.471893216772372 L 83.5436781367622 31.30682031442813 L 83.62933473364701 31.14070425106691 L 83.71489848415077 30.973541555773558 L 83.80036908036963 30.805328757632946 L 83.88574621439994 30.63606238572992 L 83.97102957833789 30.46573896914937 L 84.05621886427971 30.294355036976132 L 84.14131376432164 30.121907118295084 L 84.22631397055993 29.94839174219109 L 84.3112191750908 29.773805437749004 L 84.3960290700105 29.59814473405369 L 84.48074334741527 29.421406160190024 L 84.56536169940134 29.24358624524285 L 84.64988381806494 29.064681518297046 L 84.7343093955023 28.88468850843746 L 84.81863812380969 28.703603744748968 L 84.90286969508335 28.521423756316437 L 84.9870038014195 28.338145072224712 L 85.07104013491438 28.15376422155867 L 85.15497838766422 27.968277733403163 L 85.23881825176527 27.78168213684307 L 85.32255941931376 27.593973960963233 L 85.40620158240594 27.405149734848525 L 85.48974443313803 27.21520598758382 L 85.57318766360625 27.024139248253963 L 85.6565309659069 26.831946045943823 L 85.73977403213617 26.63862290973827 L 85.8229165543903 26.444166368722154 L 85.90595822476556 26.248572951980343 L 85.98889873535816 26.051839188597715 L 86.07173777826434 25.853961607659112 L 86.15447504558034 25.654936738249393 L 86.2371102294024 25.45476110945345 L 86.31964302182676 25.253431250356122 L 86.40207311494966 25.05094369004228 L 86.4844002008673 24.84729495759677 L 86.56662397167598 24.64248158210449 L 86.6487441194719 24.436500092650277 L 86.73076033635131 24.22934701831899 L 86.81267231441045 24.021018888195513 L 86.89447974574556 23.811512231364695 L 86.97618232245284 23.600823576911388 L 87.05777973662859 23.388949453920482 L 87.13927168036899 23.175886391476823 L 87.22065784577032 22.96163091866527 L 87.30193792492877 22.746179564570696 L 87.38311160994063 22.529528858277967 L 87.46417859290212 22.311675328871928 L 87.54513856590947 22.092615505437465 L 87.62599122105892 21.87234591705942 L 87.70673625044672 21.65086309282267 L 87.7873733461691 21.428163561812067 L 87.86790220032229 21.20424385311248 L 87.94832250500254 20.97910049580878 L 88.02863395230608 20.75273001898581 L 88.10883623432915 20.525128951728448 L 88.18892904316795 20.296293823121562 L 88.26891207091879 20.066221162249995 L 88.34878500967787 19.834907498198625 L 88.42854755154143 19.602349360052308 L 88.50819938860572 19.368543276895902 L 88.58774021296695 19.133485777814293 L 88.66716971672138 18.897173391892327 L 88.74648759196525 18.659602648214854 L 88.82569353079478 18.420770075866756 L 88.90478722530622 18.1806722039329 L 88.98376836759577 17.93930556149813 L 89.06263664975975 17.696666677647315 L 89.14139176389433 17.45275208146533 L 89.2200334020958 17.20755830203703 L 89.29856125646033 16.961081868447266 L 89.37697501908421 16.713319309780925 L 89.45527438206368 16.464267155122858 L 89.53345903749494 16.2139219335579 L 89.61152867747425 15.962280174170967 L 89.68948299409784 15.7093384060469 L 89.76732167946197 15.455093158270532 L 89.84504442566283 15.199540959926768 L 89.92265092479671 14.942678340100457 L 90.00014086895983 14.684501827876456 L 90.07751395024843 14.425007952339612 L 90.15476986075875 14.164193242574832 L 90.23190829258701 13.902054227666952 L 90.30892893782945 13.63858743670081 L 90.38583148858233 13.37378939876131 L 90.46261563694188 13.107656642933307 L 90.53928107500431 12.840185698301639 L 90.61582749486587 12.571373093951209 L 90.69225458862283 12.30121535896685 L 90.76856204837141 12.02970902243343 L 90.84474956620784 11.756850613435809 L 90.92081683422836 11.48263666105887 L 90.99676354452922 11.20706369438745 L 91.07258938920663 10.930128242506427 L 91.14829406035686 10.65182683450066 L 91.22387725007613 10.37215599945501 L 91.29933865046067 10.091112266454338 L 91.37467795360674 9.808692164583512 L 91.44989485161052 9.524892222927392 L 91.52498903656834 9.239708970570831 L 91.59996020057639 8.953138936598727 L 91.6748080357309 8.66517865009591 L 91.74953223412814 8.375824640147243 L 91.8241324878643 8.085073435837607 L 91.89860848903567 7.792921566251849 L 91.97295992973844 7.499365560474828 L 92.04718650206887 7.2044019475914425 L 92.1212878981232 6.908027256686523 L 92.19526380999764 6.610238016844939 L 92.26911392978847 6.311030757151535 L 92.34283794959192 6.0104020066912085 L 92.41643556150422 5.708348294548806 L 92.4899064576216 5.40486614980918 L 92.5632503300403 5.099952101557214 L 92.63646687085658 4.793602678877768" stroke-miterlimit="10" stroke-dasharray=""/><path fill="none" stroke="rgb(0,255,0)" paint-order="fill stroke markers" d=" M -94.41460233019102 62.10233401868387 L -77.74793566352436 118.76900068535055" stroke-miterlimit="10" stroke-width="4" stroke-dasharray=""/><path fill="none" stroke="rgb(128,128,128)" paint-order="fill stroke markers" d=" M -96.33333333333356 62.66666666666697 L -79.6666666666669 119.33333333333364" stroke-opacity="255" stroke-miterlimit="10" stroke-width="2" stroke-dasharray=""/><path fill="none" stroke="rgb(255,255,128)" paint-order="fill stroke markers" d=" M -94.92250171337581 67.46349417452332 L 90.5155775826608 12.922882616865586" stroke-miterlimit="10" stroke-dasharray=""/><path fill="none" stroke="rgb(255,255,128)" paint-order="fill stroke markers" d=" M -92.1008384734603 77.05714919023603 L 86.62740776632806 24.490017943239536" stroke-miterlimit="10" stroke-dasharray=""/><path fill="none" stroke="rgb(255,255,128)" paint-order="fill stroke markers" d=" M -89.2791752335448 86.65080420594873 L 80.2928676119519 36.7766739572733" stroke-miterlimit="10" stroke-dasharray=""/><path fill="none" stroke="rgb(255,255,128)" paint-order="fill stroke markers" d=" M -86.45751199362931 96.24445922166144 L 30.12994447799325 61.95403084765487" stroke-miterlimit="10" stroke-dasharray=""/><path fill="none" stroke="rgb(255,255,128)" paint-order="fill stroke markers" d=" M -83.6358487537138 105.83811423737414 L 23.590432740672302 74.30097262137826" stroke-miterlimit="10" stroke-dasharray=""/><path fill="none" stroke="rgb(255,255,128)" paint-order="fill stroke markers" d=" M -80.81418551379831 115.43176925308686 L 19.634962679038516 85.88790213754667" stroke-miterlimit="10" stroke-dasharray=""/><path fill="none" stroke="rgb(255,255,128)" paint-order="fill stroke markers" d=" M 90.5155775826608 12.922882616865586 L -1796.4951052846775 -2110.781903219762" stroke-miterlimit="10" stroke-dasharray=""/><path fill="none" stroke="rgb(255,255,128)" paint-order="fill stroke markers" d=" M 86.62740776632806 24.490017943239536 L -1343.6345971602684 -2439.0383125858725" stroke-miterlimit="10" stroke-dasharray=""/><path fill="none" stroke="rgb(255,255,128)" paint-order="fill stroke markers" d=" M 80.2928676119519 36.7766739572733 L -138.5261277487715 -2809.3936503423915" stroke-miterlimit="10" stroke-dasharray=""/><path fill="none" stroke="rgb(255,255,128)" paint-order="fill stroke markers" d=" M 30.12994447799325 61.95403084765487 L -99.60925279995045 -2764.6540449402446" stroke-miterlimit="10" stroke-dasharray=""/><path fill="none" stroke="rgb(255,255,128)" paint-order="fill stroke markers" d=" M 23.590432740672302 74.30097262137826 L -1375.3475344224096 -2391.9546884224255" stroke-miterlimit="10" stroke-dasharray=""/><path fill="none" stroke="rgb(255,255,128)" paint-order="fill stroke markers" d=" M 19.634962679038516 85.88790213754667 L -1853.192307294427 -2053.1064940013584" stroke-miterlimit="10" stroke-dasharray=""/><path fill="none" stroke="rgb(168,168,168)" paint-order="fill stroke markers" d=" M 17.44312694783866 94.20679086054471 L 17.51648188600009 93.90200155339252 L 17.589963821066632 93.59864384771612 L 17.66357244513452 93.29671427260038 L 17.737307450299998 92.99620935713017 L 17.811168528659298 92.69712563039029 L 17.885155372308656 92.39945962146568 L 17.959267673344318 92.10320785944117 L 18.03350512386252 91.80836687340161 L 18.10786741595949 91.51493319243191 L 18.182354241731478 91.22290334561688 L 18.256965293274714 90.93227386204141 L 18.331700262685438 90.64304127079035 L 18.40655884205989 90.35520210094857 L 18.48154072349431 90.06875288160097 L 18.556645599084927 89.78369014183234 L 18.631873160927984 89.50001041072757 L 18.70722310111972 89.21771021737155 L 18.78269511175637 88.93678609084913 L 18.85828888493418 88.65723456024516 L 18.934004112749374 88.37905215464451 L 19.009840487298202 88.10223540313203 L 19.085797700676896 87.8267808347926 L 19.161875444981693 87.5526849787111 L 19.238073412308836 87.27994436397236 L 19.31439129475455 87.00855551966124 L 19.390828784415092 86.73851497486265 L 19.46738557338669 86.46981925866139 L 19.544061353765578 86.20246490014236 L 19.620855817648 85.93644842839043 L 19.69776865713019 85.67176637249045 L 19.774799564308392 85.40841526152727 L 19.851948231278833 85.14639162458576 L 19.92921435013776 84.88569199075079 L 20.006597612981405 84.62631288910721 L 20.084097711906015 84.36825084873993 L 20.16171433900782 84.11150239873375 L 20.239447186383057 83.85606406817355 L 20.317295946127967 83.60193238614421 L 20.395260310338784 83.3491038817306 L 20.473339971111756 83.09757508401756 L 20.55153462054311 82.84734252208995 L 20.629843950729082 82.59840272503266 L 20.708267653765922 82.35075222193052 L 20.786805421749865 82.10438754186842 L 20.86545694677714 81.85930521393121 L 20.944221920943992 81.61550176720375 L 21.023100036346655 81.37297373077091 L 21.102090985081368 81.13171763371756 L 21.181194459244374 80.89173000512855 L 21.2604101509319 80.65300737408873 L 21.339737752240193 80.41554626968299 L 21.419176955265492 80.1793432209962 L 21.498727452104024 79.94439475711317 L 21.578388934852036 79.71069740711881 L 21.658161095605763 79.47824770009797 L 21.738043626461447 79.24704216513554 L 21.818036219515324 79.01707733131633 L 21.898138566863622 78.78834972772523 L 21.97835036060259 78.5608558834471 L 22.058671292828468 78.33459232756682 L 22.139101055637482 78.10955558916922 L 22.219639341125877 77.88574219733918 L 22.300285841389893 77.66314868116157 L 22.381040248525764 77.44177156972127 L 22.461902254629727 77.2216073921031 L 22.542871551798022 77.00265267739192 L 22.62394783212689 76.78490395467263 L 22.705130787712566 76.5683577530301 L 22.78642011065128 76.35301060154914 L 22.867815493039284 76.13885902931466 L 22.949316626972806 75.9258995654115 L 23.030923204548085 75.71412873892453 L 23.112634917861364 75.50354307893862 L 23.194451459008878 75.29413911453862 L 23.276372520086863 75.0859133748094 L 23.358397793191557 74.87886238883581 L 23.4405269704192 74.67298268570275 L 23.522759743866025 74.46827079449501 L 23.605095805628277 74.26472324429753 L 23.687534847802187 74.06233656419514 L 23.770076562484007 73.8611072832727 L 23.852720641769952 73.66103193061508 L 23.935466777756275 73.46210703530713 L 24.018314662539215 73.26432912643375 L 24.101263988215 73.06769473307976 L 24.184314446879878 72.87220038433003 L 24.26746573063008 72.67784260926945 L 24.35071753156184 72.48461793698284 L 24.43406954177141 72.29252289655511 L 24.51752145335502 72.1015540170711 L 24.601072958408903 71.91170782761567 L 24.68472374902931 71.72298085727368 L 24.768473517312458 71.53536963513001 L 24.852321955354604 71.34887069026951 L 24.93626875525198 71.16348055177703 L 25.020313609100818 70.97919574873747 L 25.104456208997366 70.79601281023565 L 25.188696247037853 70.61392826535646 L 25.27303341531852 70.43293864318477 L 25.35746740593561 70.25304047280541 L 25.441997910985346 70.07423028330328 L 25.526624622563986 69.89650460376322 L 25.611347232767752 69.7198599632701 L 25.696165433692887 69.54429289090876 L 25.781078917435632 69.3697999157641 L 25.86608737609222 69.19637756692097 L 25.95119050175889 69.02402237346422 L 26.036387986531885 68.85273086447874 L 26.12167952250744 68.68249956904936 L 26.207064801781783 68.51332501626096 L 26.29254351645117 68.3452037351984 L 26.37811535861182 68.17813225494655 L 26.463780020359984 68.01210710459026 L 26.5495371937919 67.84712481321439 L 26.635386571003792 67.68318190990382 L 26.721327844091913 67.52027492374341 L 26.807360705152497 67.35840038381802 L 26.893484846281776 67.1975548192125 L 26.979699959575996 67.03773475901173 L 27.066005737131388 66.87893673230056 L 27.15240187104419 66.72115726816388 L 27.23888805341065 66.56439289568651 L 27.325463976326994 66.40864014395333 L 27.412129331889464 66.25389554204924 L 27.4988838121943 66.10015561905904 L 27.585727109337732 65.94741690406764 L 27.672658915416008 65.79567592615987 L 27.759678922525364 65.64492921442063 L 27.846786822762027 65.49517329793476 L 27.933982308222255 65.34640470578711 L 28.021265071002265 65.19861996706257 L 28.108634803198306 65.05181561084599 L 28.196091196906615 64.90598816622223 L 28.283633944223425 64.76113416227615 L 28.37126273724498 64.61725012809264 L 28.458977268067517 64.47433259275654 L 28.546777228787267 64.33237808535269 L 28.634662311500477 64.191383134966 L 28.72263220830338 64.0513442706813 L 28.810686611292212 63.91225802158347 L 28.898825212563217 63.77412091675737 L 28.987047704212625 63.636929485287844 L 29.07535377833668 63.50068025625978 L 29.16374312703162 63.365369758758035 L 29.252215442393677 63.230994521867466 L 29.340770416519092 63.097551074672936 L 29.429407741504107 62.965035946259306 L 29.51812710944495 62.833445665711444 L 29.606928212437875 62.70277676211422 L 29.695810742579102 62.57302576455248 L 29.78477439196488 62.44418920211109 L 29.873818852691443 62.31626360387494 L 29.962943816855027 62.189245498928855 L 30.052148976551873 62.063131416357706 L 30.14143402387822 61.93791788524638 L 30.2307986509303 61.81360143467971 L 30.32024254980436 61.69017859374259 L 30.409765412596627 61.567645891519845 L 30.499366931403344 61.44599985709637 L 30.589046798320755 61.325237019557015 L 30.678804705445092 61.20535390798664 L 30.76864034487259 61.08634705147011 L 30.858553408699493 60.9682129790923 L 30.94854358902203 60.850948219938054 L 31.038610577936453 60.73454930309224 L 31.128754067538985 60.61901275763973 L 31.21897374992587 60.50433511266537 L 31.309269317193348 60.39051289725405 L 31.399640461437652 60.277542640490616 L 31.490086874755026 60.16542087145992 L 31.580608249241703 60.05414411924684 L 31.67120427699392 59.943708912936245 L 31.761874650107917 59.834111781612975 L 31.852619060679935 59.72534925436191 L 31.94343720080621 59.61741786026791 L 32.03432876258297 59.51031412841584 L 32.12529343810647 59.404034587890564 L 32.21633091947294 59.298575767776924 L 32.30744089877861 59.19393419715981 L 32.398623068119726 59.09010640512408 L 32.48987711959253 58.98708892075458 L 32.581202745293254 58.884878273136195 L 32.67259963731813 58.78347099135377 L 32.764067487763405 58.68286360449217 L 32.855605988725316 58.58305264163627 L 32.94721483230009 58.48403463187092 L 33.03889371058399 58.38580610428099 L 33.13064231567323 58.288363587951345 L 33.222460339664046 58.191703611966844 L 33.3143474746527 58.095822705412345 L 33.406303412735404 58.00071739737272 L 33.49832784600841 57.90638421693282 L 33.590420466567956 57.81281969317753 L 33.68258096651028 57.720020355191686 L 33.774809037931604 57.62798273206017 L 33.86710437292819 57.53670335286784 L 33.95946666359626 57.446178746699545 L 34.05189560203205 57.35640544264017 L 34.144390880331805 57.26737996977456 L 34.23695219059177 57.17909885718759 L 34.32957922490817 57.09155863396412 L 34.422271675377246 57.004755829189 L 34.51502923409524 56.918686971947125 L 34.60785159315839 56.83334859132333 L 34.70073844466292 56.748737216402475 L 34.79368948070508 56.66484937626944 L 34.886704393381116 56.58168160000907 L 34.97978287478725 56.49923041670625 L 35.07292461701972 56.41749235544583 L 35.16612931217478 56.336463945312666 L 35.259396652348656 56.25614171539164 L 35.35272632963758 56.1765221947676 L 35.44611803613781 56.097601912525406 L 35.53957146394556 56.019377397749935 L 35.63308630515708 55.94184517952604 L 35.72666225186862 55.86500178693859 L 35.82029899617639 55.78884374907244 L 35.91399623017664 55.71336759501246 L 36.00775364596563 55.63856985384351 L 36.101570935639565 55.564447054650444 L 36.19544779129469 55.49099572651814 L 36.289383905027265 55.418212398531466 L 36.3833789689335 55.34609359977525 L 36.47743267510965 55.274635859334396 L 36.571544715651946 55.203835706293745 L 36.66571478265663 55.13368966973816 L 36.75994256821993 55.06419427875252 L 36.854227764438086 54.99534606242166 L 36.94857006340735 54.927141549830466 L 37.04296915722395 54.85957727006379 L 37.13742473798412 54.79264975220649 L 37.23193649778411 54.72635552534346 L 37.326504128720146 54.66069111855953 L 37.421127322888466 54.59565306093956 L 37.51580577238532 54.53123788156844 L 37.61053916930694 54.46744210953101 L 37.70532720574955 54.404262273912146 L 37.800169573809406 54.34169490379671 L 37.89506596558274 54.27973652826955 L 37.990016073165776 54.21838367641555 L 38.085019588654774 54.157632877319564 L 38.18007620414596 54.097480660066445 L 38.27518561173559 54.037923553741074 L 38.37034750351987 53.978958087428296 L 38.46556157159505 53.92058079021298 L 38.560827508057386 53.86278819118 L 38.6561450050031 53.805576819414206 L 38.751513754528425 53.74894320400047 L 38.84693344872961 53.69288387402364 L 38.94240377970288 53.6373953585686 L 39.03792443954449 53.58247418672019 L 39.13349512035067 53.528116887563286 L 39.229115514217646 53.47431999018276 L 39.32478531324167 53.42108002366346 L 39.42050420951899 53.36839351709024 L 39.51627189514582 53.31625699954799 L 39.612088062218405 53.264667000121555 L 39.70795240283299 53.2136200478958 L 39.80386460908581 53.16311267195559 L 39.899824373073095 53.11314140138578 L 39.9958313868911 53.06370276527125 L 40.09188534263605 53.01479329269686 L 40.187985932404175 52.96640951274745 L 40.284132848291726 52.91854795450791 L 40.38032578239495 52.87120514706309 L 40.47656442681006 52.82437761949784 L 40.5728484736333 52.77806190089705 L 40.66917761496094 52.73225452034556 L 40.76555154288917 52.68695200692826 L 40.861969949514254 52.64215088972999 L 40.95843252693243 52.59784769783561 L 41.05493896723993 52.55403896033 L 41.15148896253299 52.510721206298015 L 41.24808220490786 52.467890964824505 L 41.34471838646076 52.425544764994356 L 41.44139719928794 52.383679135892415 L 41.538118335485635 52.342290606603555 L 41.63488148715009 52.30137570621263 L 41.73168634637752 52.26093096380451 L 41.828532605264186 52.22095290846406 L 41.92541995590633 52.181438069276126 L 42.022348090400165 52.14238297532558 L 42.119316700841935 52.1037841556973 L 42.2163254793279 52.06563813947612 L 42.313374117954275 52.027941455746934 L 42.4104623088173 51.99069063359458 L 42.50758974401323 51.953882202103934 L 42.60475611563829 51.91751269035986 L 42.701961115788706 51.88157862744721 L 42.79920443656074 51.84607654245085 L 42.89648577005062 51.81100296445565 L 42.993804808354575 51.77635442254647 L 43.09116124356885 51.74212744580817 L 43.18855476778969 51.70831856332562 L 43.285985073113316 51.67492430418367 L 43.38345185163598 51.64194119746719 L 43.48095479545392 51.60936577226105 L 43.57849359666337 51.577194557650095 L 43.67606794736056 51.54542408271921 L 43.77367753964174 51.51405087655324 L 43.87132206560314 51.48307146823706 L 43.969001217340995 51.45248238685553 L 44.06671468695156 51.4222801614935 L 44.16446216653106 51.39246132123585 L 44.26224334817573 51.363022395167434 L 44.360057923981806 51.33395991237311 L 44.45790558604555 51.30527040193776 L 44.55578602646316 51.27695039294622 L 44.6536989373309 51.24899641448338 L 44.75164401074502 51.22140499563409 L 44.84962093880173 51.19417266548321 L 44.94762941359728 51.167295953115605 L 45.0456691272279 51.140771387616134 L 45.143739771789846 51.114595498069676 L 45.24184103937933 51.08876481356108 L 45.339972622092624 51.0632758631752 L 45.438134212025936 51.038125175996925 L 45.536325501275506 51.0133092811111 L 45.63454618193759 50.98882470760258 L 45.73279594610841 50.96466798455625 L 45.83107448588421 50.940835641056964 L 45.929381493361234 50.91732420618957 L 46.02771666063571 50.894130209038956 L 46.12607967980387 50.87125017868996 L 46.22447024296198 50.84868064422747 L 46.322888042206245 50.82641813473633 L 46.42133276963292 50.80445917930141 L 46.51980411733824 50.78280030700757 L 46.61830177741843 50.76143804693968 L 46.71682544196976 50.74036892818259 L 46.81537480308844 50.719589479821174 L 46.91394955287071 50.69909623094029 L 47.01254938341282 50.678885710624805 L 47.111173986810996 50.65895444795958 L 47.209823055161486 50.63929897202947 L 47.308496280560526 50.61991581191935 L 47.40719335510434 50.60080149671408 L 47.50591397088919 50.58195255549851 L 47.60465782001129 50.563365517357525 L 47.70342459456689 50.545036911375966 L 47.802213986652234 50.52696326663872 L 47.90102568836354 50.50914111223062 L 47.99985939179707 50.49156697723655 L 48.09871478904904 50.47423739074137 L 48.1975915722157 50.45714888182994 L 48.29648943339329 50.44029797958713 L 48.39540806467804 50.42368121309779 L 48.494347158166185 50.407295111446786 L 48.59330640595398 50.391136203718986 L 48.69228550013764 50.375201018999256 L 48.79128413281342 50.35948608637244 L 48.89030199607756 50.343987934923426 L 48.98933878202628 50.32870309373707 L 49.088394182755835 50.31362809189822 L 49.18746789036245 50.29875945849175 L 49.286559596942375 50.28409372260252 L 49.38566899459184 50.269627413315405 L 49.48479577540708 50.25535705971525 L 49.58393963148434 50.24127919088692 L 49.68310025491985 50.227390335915295 L 49.78227733780986 50.21368702388522 L 49.8814705722506 50.200165783881566 L 49.9806796503383 50.1868231449892 L 50.07990426416922 50.17365563629296 L 50.179144105839576 50.16065978687775 L 50.27839886744562 50.1478321258284 L 50.377668241083576 50.13516918222978 L 50.47695191884969 50.122667485166765 L 50.576249592840206 50.11032356372421 L 50.675560955151354 50.09813394698696 L 50.77488569787937 50.08609516403991 L 50.8742235131205 50.0742037439679 L 50.97357409297096 50.06245621585581 L 51.07293712952703 50.05084910878849 L 51.172312314884906 50.0393789518508 L 51.271699341140845 50.02804227412762 L 51.371097900391085 50.016835604703786 L 51.470507684731864 50.00575547266419 L 51.56992838625941 49.99479840709368 L 51.66935969706997 49.98396093707712 L 51.76880130925978 49.973239591699375 L 51.86825291492508 49.962630900045305 L 51.96771420616211 49.95213139119977 L 52.06718487506709 49.94173759424764 L 52.16666461373628 49.931446038273776 L 52.266153114265904 49.92125325236304 L 52.3656500687522 49.91115576560029 L 52.46515516929143 49.9011501070704 L 52.56466810797979 49.89123280585822 L 52.66418857691355 49.88140039104863 L 52.763716268188944 49.87164939172647 L 52.86325087390219 49.861976336976625 L 52.96279208614955 49.852377755883936 L 53.06233959702725 49.842850177533286 L 53.16189309863152 49.83339013100953 L 53.261452283058624 49.82399414539752 L 53.361016842404766 49.81465874978215 L 53.46058646876621 49.80538047324825 L 53.560160854239186 49.79615584488069 L 53.65973969091993 49.78698139376434 L 53.75932267090467 49.77785364898406 L 53.85890948628966 49.76876913962472 L 53.95849982917114 49.759724394771176 L 54.058093391645336 49.75071594350828 L 54.15768986580848 49.741740314920925 L 54.25728894375683 49.73279403809394 L 54.356890317586604 49.72387364211221 L 54.45649367939406 49.71497565606059 L 54.55609872127542 49.70609660902394 L 54.655705135326926 49.697233030087126 L 54.75531261364482 49.688381448335015 L 54.854920848325335 49.679538392852464 L 54.9545295314647 49.67070039272434 L 55.054138355159175 49.66186397703551 L 55.15374701150498 49.65302567487082 L 55.25335519259836 49.644182015315145 L 55.35296259053556 49.635329527453344 L 55.4525688974128 49.626464740370295 L 55.55217380532633 49.61758418315084 L 55.651777006372384 49.608684384879844 L 55.7513781926472 49.59976187464219 L 55.850977056247025 49.59081318152272 L 55.95057328926808 49.5818348346063 L 56.050166583806615 49.5728233629778 L 56.149756631958866 49.563775295722074 L 56.24934312582106 49.554687161924 L 56.34892575748946 49.54555549066843 L 56.448504219060275 49.53637681104022 L 56.54807820262976 49.52714765212425 L 56.64764740029415 49.517864543005366 L 56.747211504149675 49.50852401276844 L 56.84677020629258 49.49912259049834 L 56.9463231988191 49.489656805279914 L 57.045870173825485 49.480123186198036 L 57.145410823407964 49.47051826233757 L 57.24494483966276 49.460838562783366 L 57.34447191468613 49.4510806166203 L 57.44399174057431 49.44124095293324 L 57.54350400942353 49.431316100807024 L 57.64300841333004 49.421302589326544 L 57.74250464439005 49.411196947576634 L 57.84199239469984 49.400995704642185 L 57.94147135635562 49.39069538960805 L 58.04094122145362 49.38029253155907 L 58.1404016820901 49.36978365958014 L 58.23985243036129 49.35916530275612 L 58.339293158363425 49.34843399017184 L 58.43872355819275 49.337586250912196 L 58.53814332194548 49.326618614062035 L 58.63755214171789 49.31552760870623 L 58.73694970960619 49.304309763929645 L 58.836335717706625 49.29296160881712 L 58.93570985811544 49.28147967245355 L 59.035071822928856 49.26986048392377 L 59.134421304243126 49.25810057231267 L 59.23375799415449 49.24619646670509 L 59.333081584759164 49.2341446961859 L 59.432391768153416 49.22194178983997 L 59.53168823643347 49.20958427675215 L 59.630970681695544 49.197068686007306 L 59.730238796035906 49.184391546690314 L 59.82949227155078 49.171549387886024 L 59.92873080033641 49.1585387386793 L 60.02795407448903 49.14535612815501 L 60.12716178610487 49.131998085398 L 60.22635362728018 49.11846113949317 L 60.32552929011119 49.10474181952535 L 60.42468846669415 49.090836654579405 L 60.52383084912529 49.076742173740215 L 60.622956129500835 49.062454906092626 L 60.72206399991704 49.04797138072151 L 60.82115415247014 49.03328812671173 L 60.92022627925637 49.01840167314815 L 61.01928007237196 49.00330854911562 L 61.118315223913164 48.988005283699025 L 61.21733142597621 48.9724884059832 L 61.316328370657345 48.956754445053036 L 61.41530575005279 48.94079992999338 L 61.51426325625879 48.9246213898891 L 61.613200581371586 48.90821535382505 L 61.71211741748743 48.8915783508861 L 61.81101345670253 48.874706910157116 L 61.90988839111314 48.85759756072296 L 62.0087419128155 48.84024683166849 L 62.10757371390585 48.82265125207857 L 62.20638348648041 48.80480735103806 L 62.30517092263544 48.786711657631834 L 62.40393571446716 48.76836070094475 L 62.50267755407182 48.74975101006166 L 62.601396133545656 48.730879114067434 L 62.700091144984896 48.711741542046944 L 62.798762280485796 48.69233482308504 L 62.89740923214457 48.6726554862666 L 62.99603169205748 48.652700060676466 L 63.09462935232075 48.632465075399516 L 63.19320190503061 48.61194705952061 L 63.29174904228332 48.5911425421246 L 63.39027045617511 48.570048052296364 L 63.4887658388022 48.54866011912077 L 63.58723488226086 48.52697527168265 L 63.68567727864729 48.504990039066904 L 63.78409272005776 48.482700950358364 L 63.8824808985885 48.460104534641914 L 63.98084150633573 48.437197321002415 L 64.0791742353957 48.41397583852471 L 64.17747877786465 48.39043661629369 L 64.27575482583883 48.3665761833942 L 64.37400207141447 48.342391068911105 L 64.47222020668778 48.31787780192927 L 64.57040892375502 48.293032911533565 L 64.66856791471244 48.267852926808835 L 64.76669687165626 48.242334376839956 L 64.86479548668274 48.21647379071179 L 64.96286345188808 48.1902676975092 L 65.06090045936855 48.163712626317036 L 65.15890620122038 48.13680510622019 L 65.2568803695398 48.10954166630349 L 65.35482265642304 48.08191883565182 L 65.45273275396636 48.053933143350044 L 65.550610354266 48.02558111848302 L 65.6484551494182 47.9968592901356 L 65.74626683151915 47.96776418739267 L 65.84404509266513 47.93829233933907 L 65.94178962495238 47.908440275059675 L 66.03950012047711 47.87820452363935 L 66.1371762713356 47.84758161416295 L 66.23481776962404 47.81656807571534 L 66.33242430743871 47.785160437381386 L 66.42999557687583 47.753355228245944 L 66.52753127003163 47.72114897739389 L 66.62503107900234 47.68853821391007 L 66.72249469588424 47.65551946687936 L 66.81992181277353 47.62208926538663 L 66.91731212176646 47.588244138516714 L 67.01466531495926 47.5539806153545 L 67.11198108444816 47.519295224984845 L 67.20925912232943 47.4841844964926 L 67.30649912069929 47.448644958962646 L 67.40370077165397 47.41267314147984 L 67.50086376728972 47.37626557312903 L 67.59798779970278 47.33941878299511 L 67.69507256098937 47.3021293001629 L 67.79211774324574 47.26439365371731 L 67.88912303856813 47.22620837274317 L 67.98608813905278 47.18756998632536 L 68.08301273679591 47.14847502354873 L 68.17989652389379 47.10892001349814 L 68.2767391924426 47.06890148525847 L 68.37354043453864 47.028415967914576 L 68.47029994227813 46.987459990551315 L 68.56701740775729 46.94603008225356 L 68.66369252307238 46.90412277210616 L 68.76032498031961 46.86173458919399 L 68.85691447159526 46.818862062601916 L 68.95346068899552 46.775501721414784 L 69.04996332461666 46.731650094717466 L 69.1464220705549 46.68730371159483 L 69.24283661890651 46.64245910113173 L 69.33920666176768 46.59711279241303 L 69.43553189123469 46.5512613145236 L 69.53181199940374 46.504901196548296 L 69.62804667837109 46.45802896757199 L 69.72423562023299 46.41064115667953 L 69.82037851708564 46.36273429295579 L 69.91647506102534 46.314304905485635 L 70.01252494414825 46.26534952335392 L 70.10852785855069 46.21586467564551 L 70.20448349632882 46.16584689144527 L 70.3003915495789 46.11529269983806 L 70.39625171039721 46.064198629908745 L 70.49206367087996 46.01256121074219 L 70.58782712312336 45.960376971423244 L 70.6835417592237 45.90764244103679 L 70.77920727127719 45.85435414866768 L 70.87482335138004 45.80050862340078 L 70.97038969162854 45.74610239432096 L 71.0659059841189 45.69113199051306 L 71.16137192094737 45.63559394106196 L 71.25678719421018 45.57948477505252 L 71.35215149600357 45.522801021569606 L 71.44746451842376 45.46553920969808 L 71.54272595356701 45.4076958685228 L 71.63793549352955 45.34926752712863 L 71.73309283040764 45.29025071460044 L 71.82819765629749 45.23064196002308 L 71.92324966329535 45.17043779248142 L 72.01824854349744 45.10963474106033 L 72.11319398900001 45.04822933484466 L 72.2080856918993 44.98621810291929 L 72.30292334429154 44.923597574369055 L 72.39770663827301 44.860364278278844 L 72.49243526593987 44.79651474373351 L 72.58710891938844 44.732045499817914 L 72.68172729071489 44.666953075616924 L 72.77629007201548 44.60123400021539 L 72.87079695538647 44.534884802698194 L 72.96524763292409 44.46790201215019 L 73.05964179672456 44.400282157656235 L 73.15397913888414 44.3320217683012 L 73.24825935149903 44.263117373169955 L 73.3424821266655 44.193565501347344 L 73.4366471564798 44.12336268191824 L 73.53075413303812 44.052505443967505 L 73.62480274843675 43.98099031658 L 73.7187926947719 43.908813828840586 L 73.81272366413981 43.83597250983413 L 73.90659534863671 43.7624628886455 L 74.00040744035887 43.68828149435956 L 74.09415963140248 43.613424856061144 L 74.18785161386383 43.53788950283516 L 74.28148307983912 43.46167196376643 L 74.3750537214246 43.384768767939846 L 74.4685632307165 43.30717644444026 L 74.56201129981106 43.22889152235252 L 74.65539762080454 43.14991053076152 L 74.74872188579315 43.0702299987521 L 74.84198378687314 42.98984645540912 L 74.93518301614077 42.908756429817466 L 75.02831926569222 42.826956451061974 L 75.12139222762377 42.744443048227524 L 75.21440159403166 42.66121275039898 L 75.30734705701211 42.57726208666119 L 75.40022830866137 42.492587586099035 L 75.49304504107567 42.40718577779736 L 75.58579694635127 42.32105319084104 L 75.67848371658435 42.23418635431494 L 75.77110504387122 42.14658179730391 L 75.86366062030807 42.05823604889283 L 75.95615013799114 41.969145638166545 L 76.0485732890167 41.87930709420993 L 76.14092976548098 41.78871694610784 L 76.2332192594802 41.69737172294515 L 76.32544146311058 41.6052679538067 L 76.41759606846838 41.51240216777738 L 76.50968276764986 41.41877089394203 L 76.60170125275124 41.32437066138554 L 76.69365121586874 41.22919799919274 L 76.78553234909864 41.133249436448516 L 76.87734434453712 41.03652150223772 L 76.96908689428047 40.93901072564523 L 77.06075969042489 40.8407136357559 L 77.15236242506663 40.74162676165458 L 77.24389479030192 40.641746632426155 L 77.33535647822703 40.54106977715547 L 77.42674718093818 40.439592724927394 L 77.5180665905316 40.33731200482679 L 77.60931439910354 40.234224145938526 L 77.70049029875022 40.13032567734745 L 77.7915939815679 40.025613128138446 L 77.8826251396528 39.92008302739636 L 77.97358346510117 39.81373190420606 L 78.06446865000925 39.706556287652404 L 78.15528038647327 39.59855270682027 L 78.24601836658942 39.48971769079451 L 78.33668228245403 39.38004776865997 L 78.42727182616329 39.26953946950155 L 78.51778668981345 39.15818932240409 L 78.60822656550073 39.045993856452455 L 78.69859114532139 38.932949600731504 L 78.78888012137165 38.819053084326114 L 78.87909318574775 38.70430083632114 L 78.96923003054593 38.58868938580143 L 79.05929034786243 38.47221526185187 L 79.14927382979346 38.35487499355732 L 79.23918016843531 38.23666511000261 L 79.32900905588419 38.11758214027265 L 79.41876018423635 37.99762261345229 L 79.50843324558801 37.876783058626366 L 79.59802793203541 37.75506000487977 L 79.68754393567481 37.632449981297356 L 79.77698094860241 37.50894951696398 L 79.86633866291449 37.38455514096451 L 79.95561677070727 37.25926338238382 L 80.04481496407696 37.13307077030676 L 80.13393293511982 37.00597383381819 L 80.2229703759321 36.87796910200297 L 80.31192697861005 36.74905310394598 L 80.40080243524987 36.61922236873207 L 80.48959643794781 36.4884734254461 L 80.57830867880013 36.356802803172954 L 80.66693884990303 36.224207030997476 L 80.75548664335278 36.09068263800452 L 80.84395175124561 35.95622615327898 L 80.93233386567775 35.82083410590569 L 81.02063267874541 35.68450302496953 L 81.10884788254488 35.54722943955535 L 81.1969791691724 35.40900987874802 L 81.28502623072416 35.26984087163241 L 81.37298875929643 35.12971894729338 L 81.46086644698545 34.988640634815766 L 81.54865898588743 34.84660246328447 L 81.63636606809864 34.70360096178433 L 81.7239873857153 34.55963265940022 L 81.81152263083365 34.41469408521699 L 81.89897149554994 34.26878176831953 L 81.98633367196037 34.12189223779267 L 82.07360885216121 33.97402202272129 L 82.16079672824871 33.82516765219026 L 82.2478969923191 33.67532565528443 L 82.33490933646858 33.52449256108866 L 82.42183345279345 33.37266489868782 L 82.50866903338989 33.219839197166785 L 82.59541577035418 33.0660119856104 L 82.68207335578253 32.91117979310352 L 82.76864148177118 32.75533914873103 L 82.85511984041639 32.59848658157779 L 82.94150812381436 32.44061862072864 L 83.02780602406136 32.28173179526848 L 83.11401323325363 32.12182263428214 L 83.2001294434874 31.96088766685449 L 83.28615434685891 31.79892342207041 L 83.37208763546438 31.635926429014752 L 83.45792900140006 31.471893216772372 L 83.5436781367622 31.30682031442813 L 83.62933473364701 31.14070425106691 L 83.71489848415077 30.973541555773558 L 83.80036908036963 30.805328757632946 L 83.88574621439994 30.63606238572992 L 83.97102957833789 30.46573896914937 L 84.05621886427971 30.294355036976132 L 84.14131376432164 30.121907118295084 L 84.22631397055993 29.94839174219109 L 84.3112191750908 29.773805437749004 L 84.3960290700105 29.59814473405369 L 84.48074334741527 29.421406160190024 L 84.56536169940134 29.24358624524285 L 84.64988381806494 29.064681518297046 L 84.7343093955023 28.88468850843746 L 84.81863812380969 28.703603744748968 L 84.90286969508335 28.521423756316437 L 84.9870038014195 28.338145072224712 L 85.07104013491438 28.15376422155867 L 85.15497838766422 27.968277733403163 L 85.23881825176527 27.78168213684307 L 85.32255941931376 27.593973960963233 L 85.40620158240594 27.405149734848525 L 85.48974443313803 27.21520598758382 L 85.57318766360625 27.024139248253963 L 85.6565309659069 26.831946045943823 L 85.73977403213617 26.63862290973827 L 85.8229165543903 26.444166368722154 L 85.90595822476556 26.248572951980343 L 85.98889873535816 26.051839188597715 L 86.07173777826434 25.853961607659112 L 86.15447504558034 25.654936738249393 L 86.2371102294024 25.45476110945345 L 86.31964302182676 25.253431250356122 L 86.40207311494966 25.05094369004228 L 86.4844002008673 24.84729495759677 L 86.56662397167598 24.64248158210449 L 86.6487441194719 24.436500092650277 L 86.73076033635131 24.22934701831899 L 86.81267231441045 24.021018888195513 L 86.89447974574556 23.811512231364695 L 86.97618232245284 23.600823576911388 L 87.05777973662859 23.388949453920482 L 87.13927168036899 23.175886391476823 L 87.22065784577032 22.96163091866527 L 87.30193792492877 22.746179564570696 L 87.38311160994063 22.529528858277967 L 87.46417859290212 22.311675328871928 L 87.54513856590947 22.092615505437465 L 87.62599122105892 21.87234591705942 L 87.70673625044672 21.65086309282267 L 87.7873733461691 21.428163561812067 L 87.86790220032229 21.20424385311248 L 87.94832250500254 20.97910049580878 L 88.02863395230608 20.75273001898581 L 88.10883623432915 20.525128951728448 L 88.18892904316795 20.296293823121562 L 88.26891207091879 20.066221162249995 L 88.34878500967787 19.834907498198625 L 88.42854755154143 19.602349360052308 L 88.50819938860572 19.368543276895902 L 88.58774021296695 19.133485777814293 L 88.66716971672138 18.897173391892327 L 88.74648759196525 18.659602648214854 L 88.82569353079478 18.420770075866756 L 88.90478722530622 18.1806722039329 L 88.98376836759577 17.93930556149813 L 89.06263664975975 17.696666677647315 L 89.14139176389433 17.45275208146533 L 89.2200334020958 17.20755830203703 L 89.29856125646033 16.961081868447266 L 89.37697501908421 16.713319309780925 L 89.45527438206368 16.464267155122858 L 89.53345903749494 16.2139219335579 L 89.61152867747425 15.962280174170967 L 89.68948299409784 15.7093384060469 L 89.76732167946197 15.455093158270532 L 89.84504442566283 15.199540959926768 L 89.92265092479671 14.942678340100457 L 90.00014086895983 14.684501827876456 L 90.07751395024843 14.425007952339612 L 90.15476986075875 14.164193242574832 L 90.23190829258701 13.902054227666952 L 90.30892893782945 13.63858743670081 L 90.38583148858233 13.37378939876131 L 90.46261563694188 13.107656642933307 L 90.53928107500431 12.840185698301639 L 90.61582749486587 12.571373093951209 L 90.69225458862283 12.30121535896685 L 90.76856204837141 12.02970902243343 L 90.84474956620784 11.756850613435809 L 90.92081683422836 11.48263666105887 L 90.99676354452922 11.20706369438745 L 91.07258938920663 10.930128242506427 L 91.14829406035686 10.65182683450066 L 91.22387725007613 10.37215599945501 L 91.29933865046067 10.091112266454338 L 91.37467795360674 9.808692164583512 L 91.44989485161052 9.524892222927392 L 91.52498903656834 9.239708970570831 L 91.59996020057639 8.953138936598727 L 91.6748080357309 8.66517865009591 L 91.74953223412814 8.375824640147243 L 91.8241324878643 8.085073435837607 L 91.89860848903567 7.792921566251849 L 91.97295992973844 7.499365560474828 L 92.04718650206887 7.2044019475914425 L 92.1212878981232 6.908027256686523 L 92.19526380999764 6.610238016844939 L 92.26911392978847 6.311030757151535 L 92.34283794959192 6.0104020066912085 L 92.41643556150422 5.708348294548806 L 92.4899064576216 5.40486614980918 L 92.5632503300403 5.099952101557214 L 92.63646687085658 4.793602678877768" stroke-miterlimit="10" stroke-dasharray=""/><path fill="none" stroke="rgb(0,255,0)" paint-order="fill stroke markers" d=" M -94.41460233019102 62.10233401868387 L -77.74793566352436 118.76900068535055" stroke-miterlimit="10" stroke-width="4" stroke-dasharray=""/><path fill="none" stroke="rgb(128,128,128)" paint-order="fill stroke markers" d=" M -96.33333333333356 62.66666666666697 L -79.6666666666669 119.33333333333364" stroke-opacity="255" stroke-miterlimit="10" stroke-width="2" stroke-dasharray=""/></g></svg>