<svg xmlns="http://www.w3.org/2000/svg" width="519" height="252"><path d="M0 0h519v252H0z"/><path fill="#0F0" d="M133.535 118.758h5v5h-5z"/><path fill="none" stroke="gray" paint-order="fill stroke markers" d="m205.685 84.025.532 71.213" stroke-miterlimit="10" stroke-width="4" stroke-opacity=".714"/><path fill="none" stroke="#FFF" paint-order="fill stroke markers" d="m203.951 119.647 4-.03" stroke-miterlimit="10"/><path fill="red" paint-order="stroke fill markers" d="m205.648 79.025 5.074 9.963-10 .074M206.254 160.238l4.925-10.037-10 .075"/><path fill="none" stroke="#A8A8A8" paint-order="fill stroke markers" d="m375.746 71.208 39.327 96.19" stroke-miterlimit="10"/><path fill="none" stroke="#FFFF80" paint-order="fill stroke markers" d="M135.535 120.758v2228.269M135.535 120.758 404.123 2332.78M135.535 120.758l533.26 2163.52M135.535 120.758 925.69 2204.226M135.535 120.758l1035.529 1973.034M135.535 120.758l1265.801 1833.83M135.535 120.758 1613.151 1788.64M135.535 120.758 1803.42 1598.374M135.535 120.758l1833.83 1265.8M135.535 120.758 2108.57 1156.286M135.535 120.758l70.624 26.784M135.535 120.758l70.554 17.39M135.535 120.758l70.488 8.558M135.535 120.758h70.424M135.535 120.758l70.36-8.544M135.535 120.758l70.295-17.327M135.535 120.758l70.226-26.633M135.535 120.758 2108.57-914.771M135.535 120.758l1833.83-1265.802M135.535 120.758 1803.42-1356.858M135.535 120.758l1477.616-1667.884M135.535 120.758l1265.801-1833.83M135.535 120.758l1035.529-1973.035M135.535 120.758 925.69-1962.711M135.535 120.758l533.26-2163.52M135.535 120.758l268.588-2212.023M135.535 120.758v-2228.27M135.535 120.758l-268.588-2212.023M135.535 120.758l-533.26-2163.52M135.535 120.758-654.62-1962.711M135.535 120.758-899.993-1852.277M135.535 120.758l-1265.801-1833.83M135.535 120.758-1342.08-1547.126M135.535 120.758l-1667.884-1477.616M135.535 120.758l-1833.83-1265.802M135.535 120.758-1837.499-914.771M135.535 120.758l-2083.468-790.156M135.535 120.758l-2163.52-533.26M135.535 120.758l-2212.023-268.589M135.535 120.758h-2228.27M135.535 120.758l-2212.023 268.588M135.535 120.758l-2163.52 533.26M135.535 120.758l-2083.468 790.155M135.535 120.758l-1973.034 1035.528M135.535 120.758l-1833.83 1265.8M135.535 120.758l-1667.884 1477.616M135.535 120.758-1342.08 1788.64M135.535 120.758l-1265.801 1833.83M135.535 120.758-899.993 2093.792M135.535 120.758-654.62 2204.226M135.535 120.758l-533.26 2163.52M135.535 120.758-133.053 2332.78M206.16 147.542 383.842 91.01" stroke-miterlimit="10"/><path fill="none" stroke="#FF8000" paint-order="fill stroke markers" d="m206.16 147.542-2216.215 705.105" stroke-miterlimit="10"/><path fill="none" stroke="#505050" paint-order="fill stroke markers" d="m383.843 91.01 2331.663-741.836" stroke-miterlimit="10"/><path fill="none" stroke="#FFFF80" paint-order="fill stroke markers" d="m206.09 138.148 181.016-39.154" stroke-miterlimit="10"/><path fill="none" stroke="#FF8000" paint-order="fill stroke markers" d="m206.09 138.148-2263.862 489.67" stroke-miterlimit="10"/><path fill="none" stroke="#505050" paint-order="fill stroke markers" d="m387.106 98.994 2402.52-519.661" stroke-miterlimit="10"/><path fill="none" stroke="#FFFF80" paint-order="fill stroke markers" d="m206.023 129.316 184.383-22.252" stroke-miterlimit="10"/><path fill="none" stroke="#FF8000" paint-order="fill stroke markers" d="m206.023 129.316-2290.695 276.451" stroke-miterlimit="10"/><path fill="none" stroke="#505050" paint-order="fill stroke markers" d="m390.406 107.064 2451.658-295.876" stroke-miterlimit="10"/><path fill="none" stroke="#FFFF80" paint-order="fill stroke markers" d="m205.96 120.758 187.882-5.29" stroke-miterlimit="10"/><path fill="none" stroke="#FF8000" paint-order="fill stroke markers" d="m205.96 120.758-2297.784 64.68" stroke-miterlimit="10"/><path fill="none" stroke="#505050" paint-order="fill stroke markers" d="M393.842 115.469 2874.147 45.65" stroke-miterlimit="10"/><path fill="none" stroke="#FFFF80" paint-order="fill stroke markers" d="m205.896 112.214 191.637 12.282" stroke-miterlimit="10"/><path fill="none" stroke="#FF8000" paint-order="fill stroke markers" d="M205.896 112.214-2079.502-34.259" stroke-miterlimit="10"/><path fill="none" stroke="#505050" paint-order="fill stroke markers" d="m397.533 124.496 2488.9 159.517" stroke-miterlimit="10"/><path fill="none" stroke="#FFFF80" paint-order="fill stroke markers" d="m205.83 103.431 195.802 31.09" stroke-miterlimit="10"/><path fill="none" stroke="#FF8000" paint-order="fill stroke markers" d="m205.83 103.431-2253.013-357.745" stroke-miterlimit="10"/><path fill="none" stroke="#505050" paint-order="fill stroke markers" d="m401.632 134.522 2477.097 393.326" stroke-miterlimit="10"/><path fill="none" stroke="#FFFF80" paint-order="fill stroke markers" d="m205.76 94.125 200.595 51.95" stroke-miterlimit="10"/><path fill="none" stroke="#FF8000" paint-order="fill stroke markers" d="m205.76 94.125-2199.302-569.583" stroke-miterlimit="10"/><path fill="none" stroke="#505050" paint-order="fill stroke markers" d="m406.355 146.075 2443.782 632.899" stroke-miterlimit="10"/><path fill="none" stroke="#FFFF80" paint-order="fill stroke markers" d="m383.843 91.01-2183.534 1104.156" stroke-miterlimit="10"/><path fill="none" stroke="#FF8000" paint-order="fill stroke markers" d="m383.843 91.01 2183.533-1104.155" stroke-miterlimit="10"/><path fill="none" stroke="#FFFF80" paint-order="fill stroke markers" d="m387.106 98.994-2078.442 1312.334" stroke-miterlimit="10"/><path fill="none" stroke="#FF8000" paint-order="fill stroke markers" d="M387.106 98.994 2465.55-1213.34" stroke-miterlimit="10"/><path fill="none" stroke="#FFFF80" paint-order="fill stroke markers" d="m390.406 107.064-1956.728 1506.447" stroke-miterlimit="10"/><path fill="none" stroke="#FF8000" paint-order="fill stroke markers" d="m390.406 107.064 1956.728-1506.447" stroke-miterlimit="10"/><path fill="none" stroke="#FFFF80" paint-order="fill stroke markers" d="m393.842 115.469-1818.8 1687.826" stroke-miterlimit="10"/><path fill="none" stroke="#FF8000" paint-order="fill stroke markers" d="m393.842 115.469 1818.8-1687.826" stroke-miterlimit="10"/><path fill="none" stroke="#FFFF80" paint-order="fill stroke markers" d="m397.533 124.496-1664.265 1857.496" stroke-miterlimit="10"/><path fill="none" stroke="#FF8000" paint-order="fill stroke markers" d="m397.533 124.496 1664.265-1857.495" stroke-miterlimit="10"/><path fill="none" stroke="#FFFF80" paint-order="fill stroke markers" d="M401.632 134.522-1090.41 2150.59" stroke-miterlimit="10"/><path fill="none" stroke="#FF8000" paint-order="fill stroke markers" d="m401.632 134.522 1492.04-2016.068" stroke-miterlimit="10"/><path fill="none" stroke="#FFFF80" paint-order="fill stroke markers" d="M406.355 146.075-894.074 2309.756" stroke-miterlimit="10"/><path fill="none" stroke="#FF8000" paint-order="fill stroke markers" d="m406.355 146.075 1300.43-2163.68" stroke-miterlimit="10"/><path fill="#0F0" d="M133.535 118.758h5v5h-5z"/><path fill="none" stroke="gray" paint-order="fill stroke markers" d="m205.685 84.025.532 71.213" stroke-miterlimit="10" stroke-width="4" stroke-opacity=".714"/><path fill="none" stroke="#FFF" paint-order="fill stroke markers" d="m203.951 119.647 4-.03" stroke-miterlimit="10"/><path fill="red" paint-order="stroke fill markers" d="m205.648 79.025 5.074 9.963-10 .074M206.254 160.238l4.925-10.037-10 .075"/><path fill="none" stroke="#A8A8A8" paint-order="fill stroke markers" d="m375.746 71.208 39.327 96.19" stroke-miterlimit="10"/></svg>