<svg xmlns="http://www.w3.org/2000/svg" width="101" height="100"><path d="M0 0h101v100H0z"/><path fill="none" stroke="#0F0" paint-order="fill stroke markers" d="m-33.36 34.332 11.298 45.386" stroke-miterlimit="10" stroke-width="4"/><path fill="none" stroke="gray" paint-order="fill stroke markers" d="m-35.3 34.815 11.297 45.386" stroke-opacity="255" stroke-miterlimit="10" stroke-width="2"/><path fill="#fff" paint-order="stroke fill markers" d="m26.417 12.026 33.63-2.974 4.718 19.674a18.76 18.76 0 1 0 1.687 36.832l-.23 18.759-37.746 3.66-2.059-75.95" fill-opacity=".2"/><path fill="none" stroke="#FFFF80" paint-order="fill stroke markers" d="m-34.092 39.667 60.848-15.146M-31.677 49.371l58.71-14.614M-29.261 59.075 27.31 44.993M-26.846 68.779l54.434-13.55M-24.43 78.483l52.296-13.018" stroke-miterlimit="10"/><path fill="none" stroke="#FFFF80" paint-order="fill stroke markers" d="m26.756 24.521-2245.56-431.296M27.033 34.757-2228.85-398.522M27.311 44.993l-2266.21-435.262M27.588 55.23l-2276.534-437.246M27.866 65.465l-2286.859-439.228" stroke-miterlimit="10" stroke-opacity=".04"/><path fill="none" stroke="#FFFF80" paint-order="fill stroke markers" d="m26.756 24.521 35.529-6.137M27.033 34.757l28.079-4.85M27.311 44.993l16.807-2.903M27.588 55.23l16.492-2.85M27.866 65.465l22.172-3.83" stroke-miterlimit="10" stroke-opacity=".96"/><path fill="none" stroke="#FFFF80" paint-order="fill stroke markers" d="M62.285 18.384 26.886 29.327" stroke-miterlimit="10" stroke-opacity=".038"/><path fill="none" stroke="#FFFF80" paint-order="fill stroke markers" d="M44.118 42.09 26.809 26.476" stroke-miterlimit="10" stroke-opacity=".045"/><path fill="none" stroke="#FFFF80" paint-order="fill stroke markers" d="m44.08 52.38-16.393 6.498" stroke-miterlimit="10" stroke-opacity=".038"/><path fill="none" stroke="#FFFF80" paint-order="fill stroke markers" d="m50.038 61.636-.059 24.256" stroke-miterlimit="10" stroke-opacity=".238"/><path fill="none" stroke="#FFFF80" paint-order="fill stroke markers" d="m62.285 18.384 2293.732-320.347" stroke-miterlimit="10" stroke-opacity=".922"/><path fill="none" stroke="#FFFF80" paint-order="fill stroke markers" d="m55.112 29.907 8.544-5.806" stroke-miterlimit="10" stroke-opacity=".96"/><path fill="none" stroke="#FFFF80" paint-order="fill stroke markers" d="m44.118 42.09 2106.49-975.817" stroke-miterlimit="10" stroke-opacity=".915"/><path fill="none" stroke="#FFFF80" paint-order="fill stroke markers" d="m44.08 52.38 2315.267-277.074" stroke-miterlimit="10" stroke-opacity=".922"/><path fill="none" stroke="#FFFF80" paint-order="fill stroke markers" d="m50.038 61.636 8.95 4.158" stroke-miterlimit="10" stroke-opacity=".722"/><path fill="none" stroke="#FFFF80" paint-order="fill stroke markers" d="m26.886 29.327-2070.347 982.249" stroke-miterlimit="10" stroke-opacity=".037"/><path fill="none" stroke="#FFFF80" paint-order="fill stroke markers" d="m26.809 26.476 15.794-15.881" stroke-miterlimit="10" stroke-opacity=".045"/><path fill="none" stroke="#FFFF80" paint-order="fill stroke markers" d="m27.687 58.878-1957.544 1248.68" stroke-miterlimit="10" stroke-opacity=".037"/><path fill="none" stroke="#FFFF80" paint-order="fill stroke markers" d="M49.979 85.892-73.959 2453.848" stroke-miterlimit="10" stroke-opacity=".228"/><path fill="none" stroke="#FFFF80" paint-order="fill stroke markers" d="M63.656 24.101 26.617 19.41" stroke-miterlimit="10" stroke-opacity=".04"/><path fill="none" stroke="#FFFF80" paint-order="fill stroke markers" d="m58.987 65.794 2348.93-229.421" stroke-miterlimit="10" stroke-opacity=".158"/><path fill="none" stroke="#FFFF80" paint-order="fill stroke markers" d="m63.656 24.101 1627.62-1657.58" stroke-miterlimit="10" stroke-opacity=".92"/><path fill="none" stroke="#FFFF80" paint-order="fill stroke markers" d="m58.987 65.794 7.31 12.478" stroke-miterlimit="10" stroke-opacity=".564"/><path fill="none" stroke="#FFFF80" paint-order="fill stroke markers" d="M42.603 10.595 64.02 25.619" stroke-miterlimit="10" stroke-opacity=".045"/><path fill="none" stroke="#FFFF80" paint-order="fill stroke markers" d="M26.617 19.41-2207.56-442.127" stroke-miterlimit="10" stroke-opacity=".039"/><path fill="none" stroke="#FFFF80" paint-order="fill stroke markers" d="m66.297 78.272-3.976 6.423" stroke-miterlimit="10" stroke-opacity=".564"/><path fill="none" stroke="#FFFF80" paint-order="fill stroke markers" d="m64.02 25.62-1.553 2.924" stroke-miterlimit="10" stroke-opacity=".045"/><path fill="none" stroke="#FFFF80" paint-order="fill stroke markers" d="M62.32 84.695 27.366 46.991" stroke-miterlimit="10" stroke-opacity=".046"/><path fill="none" stroke="#FFFF80" paint-order="fill stroke markers" d="m62.32 84.695-2059.275 1197.889" stroke-miterlimit="10" stroke-opacity=".517"/><path fill="none" stroke="#FFFF80" paint-order="fill stroke markers" d="M62.467 28.544 43.41 48.37" stroke-miterlimit="10" stroke-opacity=".041"/><path fill="none" stroke="#FFFF80" paint-order="fill stroke markers" d="M27.365 46.991 58.803 9.162" stroke-miterlimit="10" stroke-opacity=".046"/><path fill="none" stroke="#FFFF80" paint-order="fill stroke markers" d="m43.41 48.37-15.758 9.185" stroke-miterlimit="10" stroke-opacity=".038"/><path fill="none" stroke="#FFFF80" paint-order="fill stroke markers" d="m58.803 9.162 1.592 1.343" stroke-miterlimit="10" stroke-opacity=".046"/><path fill="none" stroke="#FFFF80" paint-order="fill stroke markers" d="m27.652 57.555-1564.62 1713.72" stroke-miterlimit="10" stroke-opacity=".035"/><path fill="none" stroke="#FFFF80" paint-order="fill stroke markers" d="m60.395 10.505-9.042 21.447M51.353 31.952l-24.36 1.297" stroke-miterlimit="10" stroke-opacity=".046"/><path fill="none" stroke="#FFFF80" paint-order="fill stroke markers" d="m26.993 33.25-2290.53 152.007" stroke-miterlimit="10" stroke-opacity=".045"/><path fill="none" stroke="#0F0" paint-order="fill stroke markers" d="m-33.36 34.332 11.298 45.386" stroke-miterlimit="10" stroke-width="4"/><path fill="none" stroke="gray" paint-order="fill stroke markers" d="m-35.3 34.815 11.297 45.386" stroke-opacity="255" stroke-miterlimit="10" stroke-width="2"/></svg>