<svg xmlns="http://www.w3.org/2000/svg" width="101" height="100"><path d="M0 0h101v100H0z"/><path fill="none" stroke="#0F0" paint-order="fill stroke markers" d="m-32.902 40.823 11.297 45.385" stroke-miterlimit="10" stroke-width="4"/><path fill="none" stroke="gray" paint-order="fill stroke markers" d="m-34.842 41.306 11.297 45.385" stroke-opacity="255" stroke-miterlimit="10" stroke-width="2"/><path fill="#fff" paint-order="stroke fill markers" d="m-1771.672-1384.882 3585.486 2816.236L405.696 3224.097-3179.79 407.86" fill-opacity=".2"/><path fill="indigo" d="M19.071 21.236h3v3h-3zM81.982 70.65h3v3h-3z"/><path fill="none" stroke="#FFFF80" paint-order="fill stroke markers" d="M-33.635 46.158 30.066 30.3M-31.22 55.861 40.03 38.127M-28.804 65.565l78.796-19.613M-26.388 75.27l86.342-21.493M-23.973 84.973l93.89-23.37" stroke-miterlimit="10"/><path fill="none" stroke="#FFFF80" paint-order="fill stroke markers" d="M30.066 30.301 19.094 2325.97M40.029 38.127 28.971 2351.582M49.992 45.952 38.849 2377.195M59.954 53.777l-11.227 2349.03M69.917 61.602 58.604 2428.421" stroke-miterlimit="10" stroke-opacity=".138"/><path fill="none" stroke="#FFFF80" paint-order="fill stroke markers" d="m30.066 30.301 2215.328 602.106M40.029 38.127l2232.493 606.77M49.992 45.952 2299.65 657.388M59.954 53.777 2326.778 669.88M69.917 61.602l2283.99 620.767" stroke-miterlimit="10" stroke-opacity=".862"/><path fill="none" stroke="#0F0" paint-order="fill stroke markers" d="m-32.902 40.823 11.297 45.385" stroke-miterlimit="10" stroke-width="4"/><path fill="none" stroke="gray" paint-order="fill stroke markers" d="m-34.842 41.306 11.297 45.385" stroke-opacity="255" stroke-miterlimit="10" stroke-width="2"/><path fill="indigo" d="M19.071 21.236h3v3h-3zM81.982 70.65h3v3h-3z"/></svg>