<svg xmlns="http://www.w3.org/2000/svg" width="101" height="100"><path d="M0 0h101v100H0z"/><path fill="none" stroke="#0F0" paint-order="fill stroke markers" d="m-32.215 42.568 11.297 45.385" stroke-miterlimit="10" stroke-width="4"/><path fill="none" stroke="gray" paint-order="fill stroke markers" d="m-34.156 43.05 11.297 45.386" stroke-opacity="255" stroke-miterlimit="10" stroke-width="2"/><path fill="#fff" paint-order="stroke fill markers" d="M72.815 51.603a31.384 31.384 0 1 1 0-.031" fill-opacity=".2"/><path fill="red" d="M39.431 49.603h3v3h-3z"/><path fill="indigo" d="M61.393 72.022h3v3h-3z"/><path fill="none" stroke="#FFFF80" paint-order="fill stroke markers" d="M-32.948 47.903 14.09 36.194M-30.533 57.607l40.858-10.17M-28.118 67.31l38.756-9.646M-25.702 77.014l39.84-9.917M-23.287 86.718l44.532-11.084" stroke-miterlimit="10"/><path fill="none" stroke="#FFFF80" paint-order="fill stroke markers" d="m14.09 36.194-676.319-2183.256" stroke-miterlimit="10" stroke-opacity=".049"/><path fill="none" stroke="#FFFF80" paint-order="fill stroke markers" d="m10.325 47.436-2000.984-1119.961M10.638 57.664l-2279.547 332.213M14.139 67.097l-1632.57 1643.526" stroke-miterlimit="10" stroke-opacity=".04"/><path fill="none" stroke="#FFFF80" paint-order="fill stroke markers" d="m21.245 75.634-164.238 2326.414" stroke-miterlimit="10" stroke-opacity=".043"/><path fill="none" stroke="#FFFF80" paint-order="fill stroke markers" d="m14.09 36.194 55.761 2.096" stroke-miterlimit="10" stroke-opacity=".951"/><path fill="none" stroke="#FFFF80" paint-order="fill stroke markers" d="m10.325 47.436 60.446-6.974M10.638 57.664 71.756 43.52M14.139 67.097l58.296-20.36" stroke-miterlimit="10" stroke-opacity=".96"/><path fill="none" stroke="#FFFF80" paint-order="fill stroke markers" d="m21.245 75.634 51.5-26.132" stroke-miterlimit="10" stroke-opacity=".957"/><path fill="none" stroke="#FFFF80" paint-order="fill stroke markers" d="M69.851 38.29 35.77 82.472" stroke-miterlimit="10" stroke-opacity=".045"/><path fill="none" stroke="#FFFF80" paint-order="fill stroke markers" d="M70.77 40.462 20.93 75.365" stroke-miterlimit="10" stroke-opacity=".039"/><path fill="none" stroke="#FFFF80" paint-order="fill stroke markers" d="m71.756 43.52-60.05 18.152M72.435 46.737l-61.73-1.522" stroke-miterlimit="10" stroke-opacity=".038"/><path fill="none" stroke="#FFFF80" paint-order="fill stroke markers" d="M72.744 49.502 18.216 30.485" stroke-miterlimit="10" stroke-opacity=".041"/><path fill="none" stroke="#FFFF80" paint-order="fill stroke markers" d="m69.851 38.29 2225.166 735.17" stroke-miterlimit="10" stroke-opacity=".907"/><path fill="none" stroke="#FFFF80" paint-order="fill stroke markers" d="M70.77 40.462 2417.094 73.81" stroke-miterlimit="10" stroke-opacity=".921"/><path fill="none" stroke="#FFFF80" paint-order="fill stroke markers" d="m71.756 43.52 2298.538-491.99" stroke-miterlimit="10" stroke-opacity=".922"/><path fill="none" stroke="#FFFF80" paint-order="fill stroke markers" d="m72.435 46.737 2142.042-977.403" stroke-miterlimit="10" stroke-opacity=".921"/><path fill="none" stroke="#FFFF80" paint-order="fill stroke markers" d="m72.744 49.502 1810.467-1510.085" stroke-miterlimit="10" stroke-opacity=".916"/><path fill="none" stroke="#FFFF80" paint-order="fill stroke markers" d="M35.769 82.472-1862.925 1473.24" stroke-miterlimit="10" stroke-opacity=".041"/><path fill="none" stroke="#FFFF80" paint-order="fill stroke markers" d="M20.93 75.365-2045.22 1155.864M11.707 61.672l-2220.692 631.385M10.704 45.215l-2286.04 154.336" stroke-miterlimit="10" stroke-opacity=".037"/><path fill="none" stroke="#FFFF80" paint-order="fill stroke markers" d="m18.216 30.485-2270.234-250.627" stroke-miterlimit="10" stroke-opacity=".039"/><path fill="none" stroke="#0F0" paint-order="fill stroke markers" d="m-32.215 42.568 11.297 45.385" stroke-miterlimit="10" stroke-width="4"/><path fill="none" stroke="gray" paint-order="fill stroke markers" d="m-34.156 43.05 11.297 45.386" stroke-opacity="255" stroke-miterlimit="10" stroke-width="2"/><path fill="red" d="M39.431 49.603h3v3h-3z"/><path fill="indigo" d="M61.393 72.022h3v3h-3z"/></svg>