<svg xmlns="http://www.w3.org/2000/svg" width="101" height="100"><path d="M0 0h101v100H0z"/><path fill="none" stroke="#0F0" paint-order="fill stroke markers" d="m-32.215 41.966 11.297 45.386" stroke-miterlimit="10" stroke-width="4"/><path fill="none" stroke="gray" paint-order="fill stroke markers" d="m-34.156 42.45 11.297 45.385" stroke-opacity="255" stroke-miterlimit="10" stroke-width="2"/><path fill="none" stroke="#A8A8A8" paint-order="fill stroke markers" d="M42.575 15.229 80.55 83.402" stroke-miterlimit="10"/><path fill="none" stroke="#FFF" paint-order="fill stroke markers" d="m60.689 49.802 1.747-.973" stroke-miterlimit="10"/><path fill="red" paint-order="stroke fill markers" d="m45.008 19.597-.498-11.17-8.736 4.867M78.117 79.034l9.235 6.302-8.736 4.867"/><path fill="none" stroke="#FFFF80" paint-order="fill stroke markers" d="m-32.948 47.301 82.016-20.415M-30.533 57.005 54.11 35.936M-28.118 66.71l87.27-21.723M-25.702 76.413l89.895-22.376M-23.287 86.117l92.521-23.03M49.068 26.886l-866.906 2142.543M54.11 35.936l-1175.1 2006.614M59.151 44.987-1456.558 1827.04M64.193 54.037l-1852.121 1452.195M69.234 63.087l-2131.44 1030.881" stroke-miterlimit="10"/><path fill="none" stroke="#0F0" paint-order="fill stroke markers" d="m-32.215 41.966 11.297 45.386" stroke-miterlimit="10" stroke-width="4"/><path fill="none" stroke="gray" paint-order="fill stroke markers" d="m-34.156 42.45 11.297 45.385" stroke-opacity="255" stroke-miterlimit="10" stroke-width="2"/><path fill="none" stroke="#A8A8A8" paint-order="fill stroke markers" d="M42.575 15.229 80.55 83.402" stroke-miterlimit="10"/><path fill="none" stroke="#FFF" paint-order="fill stroke markers" d="m60.689 49.802 1.747-.973" stroke-miterlimit="10"/><path fill="red" paint-order="stroke fill markers" d="m45.008 19.597-.498-11.17-8.736 4.867M78.117 79.034l9.235 6.302-8.736 4.867"/></svg>