<svg xmlns="http://www.w3.org/2000/svg" width="101" height="101"><path d="M0 0h101v101H0z"/><path fill="none" stroke="#0F0" paint-order="fill stroke markers" d="m-33.13 38.077 11.297 45.386" stroke-miterlimit="10" stroke-width="4"/><path fill="none" stroke="gray" paint-order="fill stroke markers" d="m-35.071 38.56 11.297 45.386" stroke-opacity="255" stroke-miterlimit="10" stroke-width="2"/><path fill="none" stroke="gray" paint-order="fill stroke markers" d="m22.9 14.543 9.61 70.918" stroke-miterlimit="10" stroke-width="4" stroke-opacity=".671"/><path fill="none" stroke="#FFF" paint-order="fill stroke markers" d="m25.723 50.27 3.964-.537" stroke-miterlimit="10"/><path fill="red" paint-order="stroke fill markers" d="m22.23 9.588 6.297 9.238-9.91 1.343M33.18 90.415l3.613-10.58-9.91 1.342"/><path fill="none" stroke="#FFFF80" paint-order="fill stroke markers" d="m-33.864 43.412 58.697-14.61M-31.448 53.116l57.631-14.345M-29.033 62.82l56.567-14.08M-26.617 72.524l55.502-13.815M-24.202 82.228l54.437-13.55M24.833 28.802 2276.296 441.42M26.183 38.77 2326.248 7.265M27.534 48.74l2256.781-500.433M28.885 58.709l2124.759-938.804M30.235 68.678l1934.68-1306.02" stroke-miterlimit="10"/><path fill="none" stroke="#0F0" paint-order="fill stroke markers" d="m-33.13 38.077 11.297 45.386" stroke-miterlimit="10" stroke-width="4"/><path fill="none" stroke="gray" paint-order="fill stroke markers" d="m-35.071 38.56 11.297 45.386" stroke-opacity="255" stroke-miterlimit="10" stroke-width="2"/><path fill="none" stroke="gray" paint-order="fill stroke markers" d="m22.9 14.543 9.61 70.918" stroke-miterlimit="10" stroke-width="4" stroke-opacity=".671"/><path fill="none" stroke="#FFF" paint-order="fill stroke markers" d="m25.723 50.27 3.964-.537" stroke-miterlimit="10"/><path fill="red" paint-order="stroke fill markers" d="m22.23 9.588 6.297 9.238-9.91 1.343M33.18 90.415l3.613-10.58-9.91 1.342"/></svg>