<svg xmlns="http://www.w3.org/2000/svg" width="519" height="163"><path d="M0 0h519v163H0z"/><path fill="#0F0" d="M133.053 78.381h5v5h-5z"/><path fill="none" stroke="gray" paint-order="fill stroke markers" d="m205.703 44.148.531 71.213" stroke-miterlimit="10" stroke-width="4" stroke-opacity=".714"/><path fill="none" stroke="#FFF" paint-order="fill stroke markers" d="m203.969 79.77 4-.03" stroke-miterlimit="10"/><path fill="red" paint-order="stroke fill markers" d="m205.666 39.148 5.074 9.963-10 .075M206.272 120.361l4.925-10.037-10 .075"/><path fill="none" stroke="#A8A8A8" paint-order="fill stroke markers" d="m375.764 31.33 39.327 96.192" stroke-miterlimit="10"/><path fill="none" stroke="#FFFF80" paint-order="fill stroke markers" d="M135.553 80.88v2384.38M135.553 80.88 417.56 2448.526M135.553 80.88 695.61 2398.553M135.553 80.88l830.245 2235.165M135.553 80.88 1224.33 2202.16M135.553 80.88 1467.579 2058.5M135.553 80.88l1556.576 1806.195M135.553 80.88l1759.274 1609.416M135.553 80.88 2072.83 1470.926M135.553 80.88l2088.084 1151.16M135.553 80.88l70.638 28.649M135.553 80.88l70.568 19.283M135.553 80.88l70.503 10.526M135.553 80.88l70.44 2.089M135.553 80.88l70.377-6.273M135.553 80.88l70.314-14.8M135.553 80.88 205.8 57.133M135.553 80.88l70.175-33.429M135.553 80.88l2016.222-1272.837M135.553 80.88 1987.08-1421.487M135.553 80.88l1660.842-1710.809M135.553 80.88l1446.842-1895.234M135.553 80.88l1212.531-2053.054M135.553 80.88l961.2-2182.054M135.553 80.88l696.374-2280.422M135.553 80.88l421.773-2346.779M135.553 80.88 276.805-2299.31M135.553 80.88-5.7-2299.31M135.553 80.88l-421.774-2346.779M135.553 80.88l-696.374-2280.422M135.553 80.88l-961.2-2182.054M135.553 80.88l-1212.531-2053.054M135.553 80.88-1311.29-1814.353M135.553 80.88-1525.29-1629.928M135.553 80.88l-1851.528-1502.368M135.553 80.88-1880.67-1191.956M135.553 80.88-2017.06-944.557M135.553 80.88l-2258.786-763.644M135.553 80.88l-2333.25-491.13M135.553 80.88l-2374.961-211.722M135.553 80.88l-2383.333 70.658M135.553 80.88l-2358.247 352.046M135.553 80.88l-2300.058 628.493M135.553 80.88l-2209.58 896.116M135.553 80.88l-2088.085 1151.16M135.553 80.88l-1937.277 1390.045M135.553 80.88l-1759.275 1609.416M135.553 80.88l-1556.576 1806.195M135.553 80.88-1196.473 2058.5M135.553 80.88-953.225 2202.16M135.553 80.88l-830.245 2235.165M135.553 80.88l-560.058 2317.672M135.553 80.88l-282.008 2367.645M206.19 109.529l177.05-59.911M206.121 100.163l180.326-42.702M206.056 91.406 389.668 65.34M205.993 82.969l187.005-9.484M205.93 74.607l190.613 7.548M205.867 66.08l194.57 25.6M205.8 57.132l199.064 45.376M205.728 47.451 410.1 115.314M383.24 49.618l-2341.98 1131.068M386.447 57.46l-2235.25 1351.087M389.668 65.34l-2111.37 1556.28M392.998 73.485l-1970.933 1748.039M396.543 82.155l-1813.73 1927.463M400.437 91.68l-1638.845 2095.26M404.864 102.508-1039.88 2354.184M410.1 115.314l-1229.355 2396.43" stroke-miterlimit="10"/><path fill="#0F0" d="M133.053 78.381h5v5h-5z"/><path fill="none" stroke="gray" paint-order="fill stroke markers" d="m205.703 44.148.531 71.213" stroke-miterlimit="10" stroke-width="4" stroke-opacity=".714"/><path fill="none" stroke="#FFF" paint-order="fill stroke markers" d="m203.969 79.77 4-.03" stroke-miterlimit="10"/><path fill="red" paint-order="stroke fill markers" d="m205.666 39.148 5.074 9.963-10 .075M206.272 120.361l4.925-10.037-10 .075"/><path fill="none" stroke="#A8A8A8" paint-order="fill stroke markers" d="m375.764 31.33 39.327 96.192" stroke-miterlimit="10"/></svg>