<svg xmlns="http://www.w3.org/2000/svg" width="519" height="163"><path d="M0 0h519v163H0z"/><path fill="#0F0" d="M133.535 78.758h5v5h-5z"/><path fill="none" stroke="gray" paint-order="fill stroke markers" d="m205.685 44.025.532 71.213" stroke-miterlimit="10" stroke-width="4" stroke-opacity=".714"/><path fill="none" stroke="#FFF" paint-order="fill stroke markers" d="m203.951 79.647 4-.03" stroke-miterlimit="10"/><path fill="red" paint-order="stroke fill markers" d="m205.648 39.025 5.074 9.963-10 .074M206.254 120.238l4.925-10.037-10 .075"/><path fill="none" stroke="#A8A8A8" paint-order="fill stroke markers" d="m377.746 34.208 39.327 96.19" stroke-miterlimit="10"/><path fill="none" stroke="#FFFF80" paint-order="fill stroke markers" d="M135.535 80.758v2542.667M135.535 80.758l300.73 2524.82M135.535 80.758l597.237 2471.53M135.535 80.758l885.361 2383.546M135.535 80.758 1296.591 2342.86M135.535 80.758 1555.988 2189.66M135.535 80.758l1659.91 1926.099M135.535 80.758 2011.6 1797.015M135.535 80.758 2201.42 1563.08M135.535 80.758l2226.703 1227.58M135.535 80.758l70.638 28.648M135.535 80.758l70.568 19.282M135.535 80.758l70.503 10.524M135.535 80.758l70.44 2.088M135.535 80.758l70.378-6.274M135.535 80.758l70.314-14.801M135.535 80.758l70.247-23.75M135.535 80.758l70.175-33.43M135.535 80.758l2150.07-1357.336M135.535 80.758l1974.442-1602.104M135.535 80.758l1771.098-1824.383M135.535 80.758l1542.891-2021.05M135.535 80.758 1428.561-2108.59M135.535 80.758l1025.009-2326.911M135.535 80.758l742.603-2431.81M135.535 80.758l449.773-2502.571M135.535 80.758l150.63-2538.202M135.535 80.758l-150.63-2538.202M135.535 80.758l-449.773-2502.571M135.535 80.758l-742.603-2431.81M135.535 80.758-889.474-2246.153M135.535 80.758-1157.49-2108.59M135.535 80.758l-1542.89-2021.05M135.535 80.758l-1771.097-1824.383M135.535 80.758l-1974.442-1602.104M135.535 80.758l-2150.07-1357.336M135.535 80.758l-2295.514-1093.513M135.535 80.758-2273.2-733.582M135.535 80.758l-2488.143-523.736M135.535 80.758l-2532.623-225.779M135.535 80.758l-2541.55 75.347M135.535 80.758l-2514.8 375.416M135.535 80.758l-2452.747 670.214M135.535 80.758l-2356.263 955.604M135.535 80.758l-2226.702 1227.58M135.535 80.758-1930.349 1563.08M135.535 80.758l-1876.064 1716.257M135.535 80.758l-1659.91 1926.099M135.535 80.758-1284.918 2189.66M135.535 80.758-1025.52 2342.86M135.535 80.758l-885.36 2383.546M135.535 80.758l-597.237 2471.53M135.535 80.758l-300.73 2524.82M206.173 109.406l177.73-60.141M206.103 100.04l181.032-42.87M206.038 91.282l184.344-26.169M205.975 82.846l187.763-9.523M205.913 74.484l191.399 7.58M205.849 65.957l195.388 25.707M205.782 57.009l199.918 45.57M205.71 47.328l205.267 68.16M383.902 49.265l-2484.92 1200.101M387.135 57.17l-2371.176 1433.246M390.382 65.113l-2239.29 1650.57M393.738 73.323-1696.155 1926.87M397.312 82.063l-1922.764 2043.333M401.237 91.664l-1736.935 2220.669M405.7 102.58l-1530.79 2385.78M410.977 115.489-891.17 2653.816" stroke-miterlimit="10"/><path fill="#0F0" d="M133.535 78.758h5v5h-5z"/><path fill="none" stroke="gray" paint-order="fill stroke markers" d="m205.685 44.025.532 71.213" stroke-miterlimit="10" stroke-width="4" stroke-opacity=".714"/><path fill="none" stroke="#FFF" paint-order="fill stroke markers" d="m203.951 79.647 4-.03" stroke-miterlimit="10"/><path fill="red" paint-order="stroke fill markers" d="m205.648 39.025 5.074 9.963-10 .074M206.254 120.238l4.925-10.037-10 .075"/><path fill="none" stroke="#A8A8A8" paint-order="fill stroke markers" d="m377.746 34.208 39.327 96.19" stroke-miterlimit="10"/></svg>