<svg version="1.1" xmlns="http://www.w3.org/2000/svg" xmlns:xlink="http://www.w3.org/1999/xlink" width="100" height="100"><defs/><g><rect fill="black" stroke="none" x="0" y="0" width="100" height="100"/><g/><path fill="none" stroke="rgb(0,255,0)" paint-order="fill stroke markers" d=" M -33.81676809097725 39.678691829801764 L -22.519586631737276 85.0640918393918" stroke-miterlimit="10" stroke-width="4" stroke-dasharray=""/><path fill="none" stroke="rgb(128,128,128)" paint-order="fill stroke markers" d=" M -35.757546800778606 40.16178395308861 L -24.46036534153863 85.54718396267864" stroke-opacity="255" stroke-miterlimit="10" stroke-width="2" stroke-dasharray=""/><path fill="none" stroke="rgb(168,168,168)" paint-order="fill stroke markers" d=" M 24.273449500829685 6.078102419443064 L 26.377073317909034 6.509402748168181 L 28.43881140822747 6.951829058602857 L 30.46078517624092 7.405806444668544 L 32.44299462194938 7.871334906365245 L 34.38543974535286 8.348414443692954 L 36.28812054645135 8.837045056651677 L 38.151037025244854 9.33722674524141 L 39.97418918173338 9.848959509462151 L 41.757577015916915 10.372243349313909 L 43.50120052779546 10.907078264796674 L 45.20505971736903 11.45346425591045 L 46.86915458463761 12.011401322655239 L 48.493485129601204 12.580889465031037 L 50.078051352259806 13.16192868303785 L 51.62285325261343 13.754518976675671 L 53.127890830662075 14.358660345944504 L 54.59316408640573 14.974352790844348 L 56.0186730198444 15.601596311375205 L 57.404417630978074 16.24039090753707 L 58.75039791980677 16.89073657932995 L 60.05661388633048 17.55263332675384 L 61.32306553054921 18.226081149808742 L 62.54975285246295 18.91108004849465 L 63.7366758520717 19.607630022811577 L 64.88383452937548 20.315731072759508 L 65.99122888437427 21.03538319833845 L 67.05885891706805 21.76658639954841 L 68.08672462745687 22.509340676389378 L 69.07482601554071 23.26364602886136 L 70.02316308131954 24.029502456964345 L 70.9317358247934 24.80690996069835 L 71.80054424596227 25.595868540063357 L 72.62958834482615 26.39637819505938 L 73.41886812138506 27.20843892568641 L 74.16838357563896 28.03205073194446 L 74.8781347075879 28.867213613833513 L 75.54812151723183 29.713927571353587 L 76.1783440045708 30.572192604504657 L 76.76880216960478 31.442008713286754 L 77.31949601233376 32.323375897699854 L 77.83042553275777 33.21629415774397 L 78.3015907308768 34.12076349341909 L 78.7329916066908 35.036783904725226 L 79.12462816019988 35.96435539166237 L 79.47650039140393 36.903477954230524 L 79.788608300303 37.854151592429695 L 80.0609518868971 38.816376306259876 L 80.2935311511862 39.79015209572107 L 80.48634609317031 40.77547896081327 L 80.63939671284946 41.77235690153648 L 80.7526830102236 42.78078591789071 L 80.82620498529276 43.80076600987594 L 80.85996263805694 44.83229717749219 L 80.85395596851615 45.87537942073945 L 80.80818497667036 46.93001273961772 L 80.72264966251956 47.996197134126994 L 80.5973500260638 49.07393260426729 L 80.43228606730305 50.1632191500386 L 80.22745778623732 51.264056771440906 L 79.9828651828666 52.37644546847423 L 79.6985082571909 53.500385241138574 L 79.37438700921021 54.63587608943392 L 79.01050143892454 55.78291801336027 L 78.60685154633387 56.94151101291765 L 78.16343733143822 58.11165508810604 L 77.68025879423757 59.29335023892543 L 77.15731593473197 60.48659646537584 L 76.59460875292137 61.69139376745725 L 75.99213724880578 62.90774214516968 L 75.3499014223852 64.13564159851312 L 74.66790127365965 65.37509212748756 L 73.94613680262911 66.62609373209301 L 73.18460800929358 67.88864641232949 L 72.38331489365306 69.16275016819698 L 71.54225745570756 70.44840499969546 L 70.66143569545707 71.74561090682498 L 69.7408496129016 73.05436788958548 L 68.78049920804115 74.37467594797702 L 67.7803844808757 75.70653508199955 L 66.74050543140527 77.0499452916531 L 65.66086205962986 78.40490657693766 L 64.54145436554947 79.77141893785323 L 63.382282349164086 81.14948237439981 L 62.18334601047371 82.53909688657741 L 60.94464534947836 83.940262474386 L 59.666180366178025 85.35297913782563 L 58.3479510605727 86.77724687689626 L 56.98995743266238 88.21306569159789 L 55.592199482447086 89.66043558193053 L 54.15467720992681 91.1193565478942 L 52.677390615101544 92.58982858948887 L 51.160339697971295 94.07185170671455" stroke-miterlimit="10" stroke-dasharray=""/><path fill="none" stroke="rgb(255,255,128)" paint-order="fill stroke markers" d=" M -34.5498164925615 45.01373072759199 L 64.82300311414416 20.278181961335452" stroke-miterlimit="10" stroke-dasharray=""/><path fill="none" stroke="rgb(255,255,128)" paint-order="fill stroke markers" d=" M -32.13435587612729 54.71762427659876 L 74.3262469616863 28.21780829470317" stroke-miterlimit="10" stroke-dasharray=""/><path fill="none" stroke="rgb(255,255,128)" paint-order="fill stroke markers" d=" M -29.718895259693074 64.42151782560553 L 79.57892809781171 37.21547043351948" stroke-miterlimit="10" stroke-dasharray=""/><path fill="none" stroke="rgb(255,255,128)" paint-order="fill stroke markers" d=" M -27.30343464325886 74.1254113746123 L 80.7848861246637 47.22042930809448" stroke-miterlimit="10" stroke-dasharray=""/><path fill="none" stroke="rgb(255,255,128)" paint-order="fill stroke markers" d=" M -24.887974026824647 83.82930492361908 L 78.13319344363386 58.1856216507913" stroke-miterlimit="10" stroke-dasharray=""/><path fill="none" stroke="rgb(255,255,128)" paint-order="fill stroke markers" d=" M 64.82300311414416 20.278181961335452 L 74.86508859835945 65.01672866618583" stroke-miterlimit="10" stroke-dasharray=""/><path fill="none" stroke="rgb(255,255,128)" paint-order="fill stroke markers" d=" M 74.3262469616863 28.21780829470317 L -848.8962710277759 2176.076428687188" stroke-miterlimit="10" stroke-dasharray=""/><path fill="none" stroke="rgb(255,255,128)" paint-order="fill stroke markers" d=" M 79.57892809781171 37.21547043351948 L -2095.4962027999713 932.4911934657686" stroke-miterlimit="10" stroke-dasharray=""/><path fill="none" stroke="rgb(255,255,128)" paint-order="fill stroke markers" d=" M 80.7848861246637 47.22042930809448 L -2092.226349257909 -881.9497132829988" stroke-miterlimit="10" stroke-dasharray=""/><path fill="none" stroke="rgb(255,255,128)" paint-order="fill stroke markers" d=" M 78.13319344363386 58.1856216507913 L 50.6231221327163 13.371019346229128" stroke-miterlimit="10" stroke-dasharray=""/><path fill="none" stroke="rgb(255,255,128)" paint-order="fill stroke markers" d=" M 74.86508859835945 65.01672866618583 L -2161.2401781055073 865.9196492968151" stroke-miterlimit="10" stroke-dasharray=""/><path fill="none" stroke="rgb(255,255,128)" paint-order="fill stroke markers" d=" M 50.6231221327163 13.371019346229128 L -2154.217411602158 665.714033576941" stroke-miterlimit="10" stroke-dasharray=""/><path fill="none" stroke="rgb(0,255,0)" paint-order="fill stroke markers" d=" M -33.81676809097725 39.678691829801764 L -22.519586631737276 85.0640918393918" stroke-miterlimit="10" stroke-width="4" stroke-dasharray=""/><path fill="none" stroke="rgb(128,128,128)" paint-order="fill stroke markers" d=" M -35.757546800778606 40.16178395308861 L -24.46036534153863 85.54718396267864" stroke-opacity="255" stroke-miterlimit="10" stroke-width="2" stroke-dasharray=""/><path fill="none" stroke="rgb(168,168,168)" paint-order="fill stroke markers" d=" M 24.273449500829685 6.078102419443064 L 26.377073317909034 6.509402748168181 L 28.43881140822747 6.951829058602857 L 30.46078517624092 7.405806444668544 L 32.44299462194938 7.871334906365245 L 34.38543974535286 8.348414443692954 L 36.28812054645135 8.837045056651677 L 38.151037025244854 9.33722674524141 L 39.97418918173338 9.848959509462151 L 41.757577015916915 10.372243349313909 L 43.50120052779546 10.907078264796674 L 45.20505971736903 11.45346425591045 L 46.86915458463761 12.011401322655239 L 48.493485129601204 12.580889465031037 L 50.078051352259806 13.16192868303785 L 51.62285325261343 13.754518976675671 L 53.127890830662075 14.358660345944504 L 54.59316408640573 14.974352790844348 L 56.0186730198444 15.601596311375205 L 57.404417630978074 16.24039090753707 L 58.75039791980677 16.89073657932995 L 60.05661388633048 17.55263332675384 L 61.32306553054921 18.226081149808742 L 62.54975285246295 18.91108004849465 L 63.7366758520717 19.607630022811577 L 64.88383452937548 20.315731072759508 L 65.99122888437427 21.03538319833845 L 67.05885891706805 21.76658639954841 L 68.08672462745687 22.509340676389378 L 69.07482601554071 23.26364602886136 L 70.02316308131954 24.029502456964345 L 70.9317358247934 24.80690996069835 L 71.80054424596227 25.595868540063357 L 72.62958834482615 26.39637819505938 L 73.41886812138506 27.20843892568641 L 74.16838357563896 28.03205073194446 L 74.8781347075879 28.867213613833513 L 75.54812151723183 29.713927571353587 L 76.1783440045708 30.572192604504657 L 76.76880216960478 31.442008713286754 L 77.31949601233376 32.323375897699854 L 77.83042553275777 33.21629415774397 L 78.3015907308768 34.12076349341909 L 78.7329916066908 35.036783904725226 L 79.12462816019988 35.96435539166237 L 79.47650039140393 36.903477954230524 L 79.788608300303 37.854151592429695 L 80.0609518868971 38.816376306259876 L 80.2935311511862 39.79015209572107 L 80.48634609317031 40.77547896081327 L 80.63939671284946 41.77235690153648 L 80.7526830102236 42.78078591789071 L 80.82620498529276 43.80076600987594 L 80.85996263805694 44.83229717749219 L 80.85395596851615 45.87537942073945 L 80.80818497667036 46.93001273961772 L 80.72264966251956 47.996197134126994 L 80.5973500260638 49.07393260426729 L 80.43228606730305 50.1632191500386 L 80.22745778623732 51.264056771440906 L 79.9828651828666 52.37644546847423 L 79.6985082571909 53.500385241138574 L 79.37438700921021 54.63587608943392 L 79.01050143892454 55.78291801336027 L 78.60685154633387 56.94151101291765 L 78.16343733143822 58.11165508810604 L 77.68025879423757 59.29335023892543 L 77.15731593473197 60.48659646537584 L 76.59460875292137 61.69139376745725 L 75.99213724880578 62.90774214516968 L 75.3499014223852 64.13564159851312 L 74.66790127365965 65.37509212748756 L 73.94613680262911 66.62609373209301 L 73.18460800929358 67.88864641232949 L 72.38331489365306 69.16275016819698 L 71.54225745570756 70.44840499969546 L 70.66143569545707 71.74561090682498 L 69.7408496129016 73.05436788958548 L 68.78049920804115 74.37467594797702 L 67.7803844808757 75.70653508199955 L 66.74050543140527 77.0499452916531 L 65.66086205962986 78.40490657693766 L 64.54145436554947 79.77141893785323 L 63.382282349164086 81.14948237439981 L 62.18334601047371 82.53909688657741 L 60.94464534947836 83.940262474386 L 59.666180366178025 85.35297913782563 L 58.3479510605727 86.77724687689626 L 56.98995743266238 88.21306569159789 L 55.592199482447086 89.66043558193053 L 54.15467720992681 91.1193565478942 L 52.677390615101544 92.58982858948887 L 51.160339697971295 94.07185170671455" stroke-miterlimit="10" stroke-dasharray=""/></g></svg>