<?xml version="1.0" encoding="UTF-8" standalone="no"?>
<svg
   width="16"
   height="20"
   fill="currentColor"
   class="bi bi-boxes"
   viewBox="0 0 16 20"
   version="1.1"
   id="svg4"
   sodipodi:docname="observer.svg"
   inkscape:version="1.2.2 (b0a8486541, 2022-12-01)"
   xml:space="preserve"
   xmlns:inkscape="http://www.inkscape.org/namespaces/inkscape"
   xmlns:sodipodi="http://sodipodi.sourceforge.net/DTD/sodipodi-0.dtd"
   xmlns="http://www.w3.org/2000/svg"
   xmlns:svg="http://www.w3.org/2000/svg"><defs
     id="defs8" /><sodipodi:namedview
     id="namedview6"
     pagecolor="#000000"
     bordercolor="#666666"
     borderopacity="0.99607843"
     inkscape:showpageshadow="2"
     inkscape:pageopacity="1"
     inkscape:pagecheckerboard="0"
     inkscape:deskcolor="#d1d1d1"
     showgrid="false"
     inkscape:zoom="14.428834"
     inkscape:cx="10.88099"
     inkscape:cy="12.301756"
     inkscape:window-width="1128"
     inkscape:window-height="688"
     inkscape:window-x="0"
     inkscape:window-y="27"
     inkscape:window-maximized="1"
     inkscape:current-layer="svg4" /><rect
     style="opacity:1;fill:#00ff00;stroke:none;stroke-width:0.999996"
     id="rect278"
     width="3.8170145"
     height="3.8170145"
     x="0.0047256118"
     y="-16.37686"
     transform="scale(1,-1)" /><path
     style="fill:none;stroke:#bfbfbf;stroke-width:1.5;stroke-linecap:butt;stroke-linejoin:miter;stroke-dasharray:none;stroke-opacity:1"
     d="M 7.9830043,19.950283 V 0.03373418"
     id="path224" /><path
     id="path3131-7"
     style="color:#000000;fill:#01005d;-inkscape-stroke:none;fill-opacity:0.70062476"
     d="M 4.5898438 0.37695312 A 4.6041656 4.6041656 0 0 0 -0.013671875 4.9824219 A 4.6041656 4.6041656 0 0 0 4.5898438 9.5859375 A 4.6041656 4.6041656 0 0 0 5.8203125 9.4121094 L 14.373047 15.21875 L 14.376953 15.212891 L 14.707031 15.535156 L 15.408203 14.820312 L 14.488281 13.921875 L 14.507812 13.908203 L 9.0761719 5.9609375 A 4.6041656 4.6041656 0 0 0 9.1933594 4.9824219 A 4.6041656 4.6041656 0 0 0 4.5898438 0.37695312 z M 8.65625 7.1171875 L 10.916016 10.423828 L 8.2246094 7.7890625 A 4.6041656 4.6041656 0 0 0 8.65625 7.1171875 z M 7.5332031 8.515625 L 10.378906 11.300781 L 6.9121094 8.9453125 A 4.6041656 4.6041656 0 0 0 7.5332031 8.515625 z " /><rect
     style="opacity:1;fill:#ff6600;stroke:none;stroke-width:0.999996"
     id="rect198"
     width="3.8170145"
     height="3.8170145"
     x="12.144269"
     y="-16.37686"
     transform="scale(1,-1)" /></svg>
