<svg xmlns="http://www.w3.org/2000/svg" width="100" height="100"><path d="M0 0h100v100H0z"/><path fill="none" stroke="#0F0" paint-order="fill stroke markers" d="m-33.817 39.679 11.297 45.385" stroke-miterlimit="10" stroke-width="4"/><path fill="none" stroke="gray" paint-order="fill stroke markers" d="m-35.758 40.162 11.298 45.385" stroke-opacity="255" stroke-miterlimit="10" stroke-width="2"/><path fill="none" stroke="#A8A8A8" paint-order="fill stroke markers" d="m24.273 6.078 2.104.431 2.062.443 2.022.454 1.982.465 1.942.477 1.903.489 1.863.5 1.823.512 1.784.523 1.743.535 1.704.546 1.664.558 1.624.57 1.585.58 1.545.594 1.505.604 1.465.615 1.426.628 1.385.638 1.346.65 1.307.663 1.266.673 1.227.685 1.187.697 1.147.708 1.107.72 1.068.73 1.028.743.988.755.948.766.909.777.869.789.829.8.789.812.75.824.71.835.67.847.63.858.59.87.55.881.511.893.472.905.431.916.392.927.352.94.312.95.272.962.233.974.192.985.153.997.114 1.009.073 1.02.034 1.031-.006 1.043-.046 1.055-.085 1.066-.126 1.078-.165 1.09-.205 1.1-.244 1.112-.284 1.124-.325 1.136-.363 1.147-.404 1.159-.444 1.17-.483 1.181-.523 1.194-.562 1.204-.603 1.217-.642 1.228-.682 1.24-.722 1.25-.761 1.263-.802 1.274-.84 1.285-.882 1.298-.92 1.308-.96 1.32-1 1.333-1.04 1.343-1.08 1.355-1.12 1.366-1.159 1.378-1.199 1.39-1.238 1.401-1.279 1.413-1.318 1.424-1.358 1.436-1.398 1.447-1.437 1.46-1.478 1.47-1.517 1.482" stroke-miterlimit="10"/><path fill="none" stroke="#FFFF80" paint-order="fill stroke markers" d="m-34.55 45.014 99.373-24.736M-32.134 54.718l106.46-26.5M-29.719 64.422 79.58 37.215M-27.303 74.125 80.785 47.22M-24.888 83.83 78.133 58.185M64.823 20.278l10.042 44.739M74.326 28.218l-923.222 2147.858M79.579 37.215l-2175.075 895.276M80.785 47.22l-2173.011-929.17M78.133 58.186 50.623 13.37M74.865 65.017-2161.24 865.92M50.623 13.371l-2204.84 652.343" stroke-miterlimit="10"/><path fill="none" stroke="#0F0" paint-order="fill stroke markers" d="m-33.817 39.679 11.297 45.385" stroke-miterlimit="10" stroke-width="4"/><path fill="none" stroke="gray" paint-order="fill stroke markers" d="m-35.758 40.162 11.298 45.385" stroke-opacity="255" stroke-miterlimit="10" stroke-width="2"/><path fill="none" stroke="#A8A8A8" paint-order="fill stroke markers" d="m24.273 6.078 2.104.431 2.062.443 2.022.454 1.982.465 1.942.477 1.903.489 1.863.5 1.823.512 1.784.523 1.743.535 1.704.546 1.664.558 1.624.57 1.585.58 1.545.594 1.505.604 1.465.615 1.426.628 1.385.638 1.346.65 1.307.663 1.266.673 1.227.685 1.187.697 1.147.708 1.107.72 1.068.73 1.028.743.988.755.948.766.909.777.869.789.829.8.789.812.75.824.71.835.67.847.63.858.59.87.55.881.511.893.472.905.431.916.392.927.352.94.312.95.272.962.233.974.192.985.153.997.114 1.009.073 1.02.034 1.031-.006 1.043-.046 1.055-.085 1.066-.126 1.078-.165 1.09-.205 1.1-.244 1.112-.284 1.124-.325 1.136-.363 1.147-.404 1.159-.444 1.17-.483 1.181-.523 1.194-.562 1.204-.603 1.217-.642 1.228-.682 1.24-.722 1.25-.761 1.263-.802 1.274-.84 1.285-.882 1.298-.92 1.308-.96 1.32-1 1.333-1.04 1.343-1.08 1.355-1.12 1.366-1.159 1.378-1.199 1.39-1.238 1.401-1.279 1.413-1.318 1.424-1.358 1.436-1.398 1.447-1.437 1.46-1.478 1.47-1.517 1.482" stroke-miterlimit="10"/></svg>