<svg xmlns="http://www.w3.org/2000/svg" width="101" height="100"><path d="M0 0h101v100H0z"/><path fill="none" stroke="#0F0" paint-order="fill stroke markers" d="m-32.902 40.823 11.297 45.385" stroke-miterlimit="10" stroke-width="4"/><path fill="none" stroke="gray" paint-order="fill stroke markers" d="m-34.842 41.306 11.297 45.385" stroke-opacity="255" stroke-miterlimit="10" stroke-width="2"/><path fill="#fff" paint-order="stroke fill markers" d="m-1928.956-1508.421 3900.053 3063.314L439.44 3504.919-3460.613 441.605" fill-opacity=".2"/><path fill="none" stroke="#FFFF80" paint-order="fill stroke markers" d="M-33.635 46.158 30.066 30.3M-31.22 55.861 40.03 38.127M-28.804 65.565l78.796-19.613M-26.388 75.27l86.342-21.493M-23.973 84.973l93.89-23.37" stroke-miterlimit="10"/><path fill="none" stroke="#FFFF80" paint-order="fill stroke markers" d="M30.066 30.301 18.138 2525.966M40.029 38.127 28.015 2551.579M49.992 45.952l-12.099 2531.24M59.954 53.777 47.771 2602.806M69.917 61.602 57.648 2628.42" stroke-miterlimit="10" stroke-opacity=".138"/><path fill="none" stroke="#FFFF80" paint-order="fill stroke markers" d="m30.066 30.301 2408.327 654.561M40.029 38.127l2425.492 659.226M49.992 45.952l2442.657 663.891M59.954 53.777l2459.823 668.557M69.917 61.602l2476.988 673.223" stroke-miterlimit="10" stroke-opacity=".862"/><path fill="none" stroke="#0F0" paint-order="fill stroke markers" d="m-32.902 40.823 11.297 45.385" stroke-miterlimit="10" stroke-width="4"/><path fill="none" stroke="gray" paint-order="fill stroke markers" d="m-34.842 41.306 11.297 45.385" stroke-opacity="255" stroke-miterlimit="10" stroke-width="2"/></svg>