<svg xmlns="http://www.w3.org/2000/svg" width="101" height="100"><path d="M0 0h101v100H0z"/><path fill="#0F0" d="M48.209 44.57h5v5h-5z"/><path fill="none" stroke="#FFFF80" paint-order="fill stroke markers" d="M50.21 46.57v2332.105M50.21 46.57l603.592 2252.64M50.21 46.57l1166.052 2019.662M50.21 46.57l1649.047 1649.047M50.21 46.57 2069.87 1212.623M50.21 46.57l2252.64 603.593M50.21 46.57h2332.104M50.21 46.57l2252.64-603.593M50.21 46.57 2069.87-1119.483M50.21 46.57l1649.047-1649.047M50.21 46.57l1166.052-2019.662M50.21 46.57l603.592-2252.64M50.21 46.57v-2332.105M50.21 46.57l-603.594-2252.64M50.21 46.57l-1166.053-2019.662M50.21 46.57l-1649.048-1649.047M50.21 46.57l-2019.663-1166.053M50.21 46.57l-2252.641-603.593M50.21 46.57h-2332.106M50.21 46.57l-2252.641 603.593M50.21 46.57l-2019.663 1166.053M50.21 46.57l-1649.048 1649.047M50.21 46.57l-1166.053 2019.662M50.21 46.57l-603.594 2252.64" stroke-miterlimit="10"/><path fill="#0F0" d="M48.209 44.57h5v5h-5z"/></svg>