<svg xmlns="http://www.w3.org/2000/svg" width="149" height="149"><path d="M0 0h149v149H0z"/><path fill="none" stroke="#0F0" paint-order="fill stroke markers" d="m-65.136 68.341 11.507 46.374" stroke-miterlimit="10" stroke-width="4"/><path fill="none" stroke="gray" paint-order="fill stroke markers" d="m-67.077 68.823 11.507 46.374" stroke-opacity="255" stroke-miterlimit="10" stroke-width="2"/><path fill="none" stroke="silver" paint-order="fill stroke markers" d="m104.124 22.448 4.185 63.809" stroke-miterlimit="10" stroke-dasharray="5,5"/><path fill="none" stroke="#FFFF80" paint-order="fill stroke markers" d="M-65.873 73.676 104.708 31.35M-63.464 83.381 105.373 41.49M-61.056 93.087l167.094-41.46M-58.648 102.793l165.35-41.027M-56.24 112.498l163.607-40.594M104.708 31.351l2431.329-603.262M105.373 41.49l2441.814-605.864M106.038 51.628l2452.299-608.466M106.703 61.766l2462.784-611.067M107.367 71.904l2473.27-613.668" stroke-miterlimit="10"/><path fill="none" stroke="#0F0" paint-order="fill stroke markers" d="m-65.136 68.341 11.507 46.374" stroke-miterlimit="10" stroke-width="4"/><path fill="none" stroke="gray" paint-order="fill stroke markers" d="m-67.077 68.823 11.507 46.374" stroke-opacity="255" stroke-miterlimit="10" stroke-width="2"/><text fill="silver" font-family="Arial" font-size="16" text-decoration="normal" x="108.309" y="86.257" text-anchor="end" dominant-baseline="text-before-edge">P=5.00</text><text fill="silver" font-family="Arial" font-size="16" text-decoration="normal" x="108.309" y="106.257" text-anchor="end" dominant-baseline="text-before-edge">F⊥=4.92</text><text fill="silver" font-family="Arial" font-size="16" text-decoration="normal" x="108.309" y="126.257" text-anchor="end" dominant-baseline="text-before-edge">F∥=0.88</text></svg>