<svg xmlns="http://www.w3.org/2000/svg" width="149" height="149"><path d="M0 0h149v149H0z"/><path fill="none" stroke="gray" paint-order="fill stroke markers" d="M142.805 77.334a68.726 68.726 0 1 1 0-.068M113.2 20.829l-5.692 8.222" stroke-miterlimit="10"/><text fill="gray" font-family="Arial" font-size="10" font-weight="bold" text-decoration="normal" text-anchor="middle" dominant-baseline="text-before-edge" transform="rotate(34.695 7.254 186.604)">0</text><path fill="none" stroke="gray" paint-order="fill stroke markers" d="M117.975 24.453 114.78 28.3m7.636.18-5.627 5.687m9.7-1.288-3.812 3.234m7.488 1.503-6.529 4.623m9.777.416-4.317 2.523m7.114 2.78-9.04 4.275" stroke-miterlimit="10"/><text fill="gray" font-family="Arial" font-size="10" font-weight="bold" text-decoration="normal" text-anchor="middle" dominant-baseline="text-before-edge" transform="rotate(64.695 22.349 126.514)">30</text><path fill="none" stroke="gray" paint-order="fill stroke markers" d="m138.535 53.486-4.69 1.735m6.523 3.973-7.716 2.112m9.045 3.734-4.92.895m5.734 5.045-7.966.74m8.26 5.249-5 .026m4.77 5.965-9.967-.819" stroke-miterlimit="10"/><text fill="gray" font-family="Arial" font-size="10" font-weight="bold" text-decoration="normal" text-anchor="middle" dominant-baseline="text-before-edge" transform="rotate(94.695 28.468 102.152)">60</text><path fill="none" stroke="gray" paint-order="fill stroke markers" d="m141.824 88.908-4.929-.842m3.662 6.702-7.738-2.029m5.966 7.757-4.708-1.685m2.443 7.236-7.269-3.342m4.529 8.675-4.344-2.477m1.15 7.55-8.223-5.691" stroke-miterlimit="10"/><text fill="gray" font-family="Arial" font-size="10" font-weight="bold" text-decoration="normal" text-anchor="middle" dominant-baseline="text-before-edge" transform="rotate(124.695 32.165 87.437)">90</text><path fill="none" stroke="gray" paint-order="fill stroke markers" d="m126.96 121.23-3.847-3.194m-.18 7.635-5.686-5.626m1.288 9.7-3.234-3.813m-1.503 7.489-4.623-6.53m-.416 9.778-2.523-4.317m-2.78 7.113-4.275-9.04" stroke-miterlimit="10"/><text fill="gray" font-family="Arial" font-size="10" font-weight="bold" text-decoration="normal" text-anchor="middle" dominant-baseline="text-before-edge" transform="rotate(154.695 34.951 76.345)">120</text><path fill="none" stroke="gray" paint-order="fill stroke markers" d="m97.928 141.79-1.735-4.69m-3.973 6.523-2.112-7.717m-3.734 9.045-.895-4.919m-5.045 5.734-.74-7.966m-5.249 8.259-.026-5m-5.965 4.77.819-9.966" stroke-miterlimit="10"/><text fill="gray" font-family="Arial" font-size="10" font-weight="bold" text-decoration="normal" text-anchor="middle" dominant-baseline="text-before-edge" transform="rotate(-175.305 37.421 66.512)">150</text><path fill="none" stroke="gray" paint-order="fill stroke markers" d="m62.506 145.078.842-4.928m-6.703 3.662 2.03-7.738m-7.757 5.965 1.685-4.707m-7.236 2.443 3.342-7.269m-8.675 4.528 2.477-4.343m-7.55 1.149 5.691-8.222" stroke-miterlimit="10"/><text fill="gray" font-family="Arial" font-size="10" font-weight="bold" text-decoration="normal" text-anchor="middle" dominant-baseline="text-before-edge" transform="rotate(-145.305 39.946 56.46)">180</text><path fill="none" stroke="gray" paint-order="fill stroke markers" d="m30.184 130.216 3.194-3.848m-7.636-.18 5.627-5.686m-9.7 1.288 3.813-3.234m-7.489-1.503 6.529-4.624m-9.777-.416 4.317-2.523m-7.114-2.78 9.04-4.274" stroke-miterlimit="10"/><text fill="gray" font-family="Arial" font-size="10" font-weight="bold" text-decoration="normal" text-anchor="middle" dominant-baseline="text-before-edge" transform="rotate(-115.305 42.933 44.571)">150</text><path fill="none" stroke="gray" paint-order="fill stroke markers" d="m9.625 101.183 4.689-1.735M7.79 95.475l7.717-2.112m-9.046-3.735 4.92-.894m-5.734-5.046 7.966-.74M5.354 77.7l5-.027m-4.77-5.964 9.967.818" stroke-miterlimit="10"/><text fill="gray" font-family="Arial" font-size="10" font-weight="bold" text-decoration="normal" text-anchor="middle" dominant-baseline="text-before-edge" transform="rotate(-85.305 47.14 27.823)">120</text><path fill="none" stroke="gray" paint-order="fill stroke markers" d="m6.335 65.76 4.93.843M7.601 59.9l7.738 2.03m-5.966-7.757 4.708 1.685m-2.443-7.237 7.269 3.343m-4.529-8.675 4.344 2.477m-1.15-7.551 8.223 5.692" stroke-miterlimit="10"/><text fill="gray" font-family="Arial" font-size="10" font-weight="bold" text-decoration="normal" text-anchor="middle" dominant-baseline="text-before-edge" transform="rotate(-55.305 54.798 -2.663)">90</text><path fill="none" stroke="gray" paint-order="fill stroke markers" d="m21.198 33.44 3.848 3.193m.18-7.636 5.686 5.627m-1.288-9.7 3.234 3.812m1.503-7.488 4.624 6.529M39.4 18l2.523 4.317m2.78-7.114 4.274 9.04" stroke-miterlimit="10"/><text fill="gray" font-family="Arial" font-size="10" font-weight="bold" text-decoration="normal" text-anchor="middle" dominant-baseline="text-before-edge" transform="rotate(-25.305 78.487 -96.967)">60</text><path fill="none" stroke="gray" paint-order="fill stroke markers" d="m50.23 12.88 1.736 4.689m3.973-6.523 2.112 7.716m3.735-9.045.894 4.92m5.046-5.734.74 7.966m5.248-8.26.026 5m5.965-4.77-.819 9.967" stroke-miterlimit="10"/><text fill="gray" font-family="Arial" font-size="10" font-weight="bold" text-decoration="normal" text-anchor="middle" dominant-baseline="text-before-edge" transform="rotate(4.695 -189.918 971.53)">30</text><path fill="none" stroke="gray" paint-order="fill stroke markers" d="m85.653 9.59-.842 4.929m6.703-3.662-2.03 7.738m7.757-5.966-1.685 4.708m7.236-2.443-3.342 7.268m8.675-4.528-2.477 4.344" stroke-miterlimit="10"/><path fill="red" d="M72.58 75.834h3v3h-3z"/><path fill="red" d="M72.58 75.834h3v3h-3z"/></svg>