<svg xmlns="http://www.w3.org/2000/svg" width="149" height="149"><path d="M0 0h149v149H0z"/><path fill="none" stroke="gray" paint-order="fill stroke markers" d="M143.008 76.842a68.87 68.87 0 1 1 0-.069m-29.47-56.417-5.72 8.202" stroke-miterlimit="10"/><text fill="gray" font-family="Arial" font-size="10" font-weight="bold" text-decoration="normal" text-anchor="middle" dominant-baseline="text-before-edge" transform="rotate(34.897 8.479 185.794)">0</text><path fill="none" stroke="gray" paint-order="fill stroke markers" d="m118.312 24.005-3.207 3.836m7.644.215-5.647 5.667m9.714-1.244-3.825 3.22m7.49 1.54-6.544 4.6m9.782.461-4.325 2.508m7.109 2.816-9.055 4.243" stroke-miterlimit="10"/><text fill="gray" font-family="Arial" font-size="10" font-weight="bold" text-decoration="normal" text-anchor="middle" dominant-baseline="text-before-edge" transform="rotate(64.897 22.936 126.158)">30</text><path fill="none" stroke="gray" paint-order="fill stroke markers" d="m138.812 53.171-4.695 1.719m6.512 4.008-7.723 2.084m9.034 3.78-4.922.876m5.717 5.079-7.968.711m8.24 5.29-4.999.01m4.749 5.993-9.964-.853" stroke-miterlimit="10"/><text fill="gray" font-family="Arial" font-size="10" font-weight="bold" text-decoration="normal" text-anchor="middle" dominant-baseline="text-before-edge" transform="rotate(94.897 28.82 101.885)">60</text><path fill="none" stroke="gray" paint-order="fill stroke markers" d="m141.983 88.68-4.925-.86m3.635 6.727-7.73-2.056m5.934 7.79-4.702-1.702m2.413 7.257-7.257-3.368m4.492 8.702-4.335-2.492m1.116 7.565-8.202-5.721" stroke-miterlimit="10"/><text fill="gray" font-family="Arial" font-size="10" font-weight="bold" text-decoration="normal" text-anchor="middle" dominant-baseline="text-before-edge" transform="rotate(124.897 32.38 87.195)">90</text><path fill="none" stroke="gray" paint-order="fill stroke markers" d="m126.975 121.016-3.836-3.207m-.215 7.644-5.667-5.647m1.245 9.714-3.221-3.824m-1.54 7.49-4.6-6.545m-.46 9.782-2.508-4.325m-2.817 7.11-4.242-9.056" stroke-miterlimit="10"/><text fill="gray" font-family="Arial" font-size="10" font-weight="bold" text-decoration="normal" text-anchor="middle" dominant-baseline="text-before-edge" transform="rotate(154.897 35.068 76.11)">120</text><path fill="none" stroke="gray" paint-order="fill stroke markers" d="m97.81 141.516-1.72-4.695m-4.007 6.512-2.085-7.723m-3.779 9.034-.877-4.922m-5.078 5.717-.712-7.968m-5.29 8.241-.009-5m-5.994 4.749.854-9.964" stroke-miterlimit="10"/><text fill="gray" font-family="Arial" font-size="10" font-weight="bold" text-decoration="normal" text-anchor="middle" dominant-baseline="text-before-edge" transform="rotate(-175.103 37.453 66.271)">150</text><path fill="none" stroke="gray" paint-order="fill stroke markers" d="m62.301 144.687.86-4.925m-6.728 3.636 2.057-7.732m-7.79 5.935L52.4 136.9m-7.256 2.412 3.368-7.257m-8.703 4.492 2.493-4.334m-7.566 1.115 5.721-8.202" stroke-miterlimit="10"/><text fill="gray" font-family="Arial" font-size="10" font-weight="bold" text-decoration="normal" text-anchor="middle" dominant-baseline="text-before-edge" transform="rotate(-145.103 39.894 56.205)">180</text><path fill="none" stroke="gray" paint-order="fill stroke markers" d="m29.964 129.68 3.207-3.837m-7.644-.215 5.647-5.667m-9.714 1.245 3.825-3.221m-7.49-1.54 6.544-4.6m-9.782-.46 4.326-2.508m-7.11-2.817 9.056-4.242" stroke-miterlimit="10"/><text fill="gray" font-family="Arial" font-size="10" font-weight="bold" text-decoration="normal" text-anchor="middle" dominant-baseline="text-before-edge" transform="rotate(-115.103 42.783 44.287)">150</text><path fill="none" stroke="gray" paint-order="fill stroke markers" d="m9.464 100.514 4.695-1.719m-6.512-4.008 7.724-2.085m-9.035-3.779 4.923-.877M5.54 82.968l7.968-.712m-8.24-5.29 5-.009m-4.75-5.994 9.964.854" stroke-miterlimit="10"/><text fill="gray" font-family="Arial" font-size="10" font-weight="bold" text-decoration="normal" text-anchor="middle" dominant-baseline="text-before-edge" transform="rotate(-85.103 46.858 27.475)">120</text><path fill="none" stroke="gray" paint-order="fill stroke markers" d="m6.293 65.005 4.926.86m-3.636-6.728 7.731 2.057m-5.935-7.79 4.702 1.701m-2.413-7.256 7.257 3.368m-4.492-8.702 4.335 2.492m-1.116-7.565 8.202 5.72" stroke-miterlimit="10"/><text fill="gray" font-family="Arial" font-size="10" font-weight="bold" text-decoration="normal" text-anchor="middle" dominant-baseline="text-before-edge" transform="rotate(-55.103 54.293 -3.197)">90</text><path fill="none" stroke="gray" paint-order="fill stroke markers" d="m21.301 32.668 3.836 3.208m.215-7.644 5.667 5.646m-1.244-9.713 3.22 3.824m1.54-7.49 4.6 6.544m.46-9.782 2.509 4.326m2.816-7.11 4.243 9.056" stroke-miterlimit="10"/><text fill="gray" font-family="Arial" font-size="10" font-weight="bold" text-decoration="normal" text-anchor="middle" dominant-baseline="text-before-edge" transform="rotate(-25.103 77.431 -98.643)">60</text><path fill="none" stroke="gray" paint-order="fill stroke markers" d="m50.467 12.168 1.718 4.696m4.009-6.513 2.084 7.724m3.779-9.035.877 4.923m5.078-5.718.712 7.969m5.29-8.242.01 5m5.993-4.748-.854 9.963" stroke-miterlimit="10"/><text fill="gray" font-family="Arial" font-size="10" font-weight="bold" text-decoration="normal" text-anchor="middle" dominant-baseline="text-before-edge" transform="rotate(4.897 -173.084 934.764)">30</text><path fill="none" stroke="gray" paint-order="fill stroke markers" d="m85.975 8.997-.86 4.926m6.728-3.636-2.056 7.731m7.79-5.935-1.702 4.702m7.257-2.412-3.368 7.256m8.702-4.492-2.492 4.335" stroke-miterlimit="10"/><path fill="red" d="M72.138 74.842h3v3h-3z"/><path fill="#F0F" d="M111.539 18.356h3v3h-3z"/><path fill="red" d="M72.138 74.842h3v3h-3z"/><path fill="#F0F" d="M111.539 18.356h3v3h-3z"/></svg>