<svg xmlns="http://www.w3.org/2000/svg" width="519" height="252"><path d="M0 0h519v252H0z"/><path fill="#0F0" d="M133.035 118.258h5v5h-5z"/><path fill="none" stroke="gray" paint-order="fill stroke markers" d="m205.685 84.025.532 71.213" stroke-miterlimit="10" stroke-width="4" stroke-opacity=".714"/><path fill="none" stroke="#FFF" paint-order="fill stroke markers" d="m203.951 119.647 4-.03" stroke-miterlimit="10"/><path fill="red" paint-order="stroke fill markers" d="m205.648 79.025 5.074 9.963-10 .074M206.254 160.238l4.925-10.037-10 .075"/><path fill="none" stroke="#A8A8A8" paint-order="fill stroke markers" d="m375.746 71.208 39.327 96.19" stroke-miterlimit="10"/><path fill="none" stroke="#FFFF80" paint-order="fill stroke markers" d="M135.535 120.758v2417.269M135.535 120.758l291.37 2399.644M135.535 120.758l578.49 2347.028M135.535 120.758l857.176 2260.186M135.535 120.758l1123.361 2140.385M135.535 120.758 1508.701 2110.13M135.535 120.758 1738.481 1930.11M135.535 120.758l1809.352 1602.946M135.535 120.758 2124.91 1493.923M135.535 120.758l2140.386 1123.36M135.535 120.758l70.624 26.784M135.535 120.758l70.554 17.39M135.535 120.758l70.488 8.558M135.535 120.758h70.424M135.535 120.758l70.36-8.544M135.535 120.758l70.295-17.327M135.535 120.758l70.226-26.633M135.535 120.758l2140.386-1123.362M135.535 120.758 2124.91-1252.408M135.535 120.758 1944.887-1482.19M135.535 120.758l1602.946-1809.353M135.535 120.758l1373.166-1989.374M135.535 120.758l1123.361-2140.386M135.535 120.758 992.711-2139.43M135.535 120.758l578.49-2347.028M135.535 120.758l291.37-2399.645M135.535 120.758v-2417.27M135.535 120.758l-291.37-2399.645M135.535 120.758l-578.49-2347.028M135.535 120.758-721.64-2139.43M135.535 120.758-987.826-2019.628M135.535 120.758-1237.63-1868.616M135.535 120.758-1467.41-1688.595M135.535 120.758-1673.817-1482.19M135.535 120.758l-1989.374-1373.166M135.535 120.758-2004.85-1002.604M135.535 120.758-2124.65-736.418M135.535 120.758l-2347.028-578.49M135.535 120.758l-2399.645-291.37M135.535 120.758h-2417.27M135.535 120.758l-2399.645 291.37M135.535 120.758l-2347.028 578.49M135.535 120.758-2124.65 977.933M135.535 120.758l-2140.386 1123.36M135.535 120.758l-1989.374 1373.165M135.535 120.758l-1809.352 1602.946M135.535 120.758-1467.41 1930.11M135.535 120.758-1237.63 2110.13M135.535 120.758-987.826 2261.143M135.535 120.758-721.64 2380.944M135.535 120.758l-578.49 2347.028M135.535 120.758l-291.37 2399.644M206.16 147.542 383.842 91.01M206.09 138.148l181.016-39.154M206.023 129.316l184.383-22.252M205.96 120.758l187.882-5.29M205.896 112.214l191.637 12.282M205.83 103.431l195.802 31.09M205.76 94.125l200.595 51.95M383.843 91.01l-2352.196 1189.444M387.106 98.994l-2238.252 1413.239M390.406 107.064l-2106.487 1621.744M393.842 115.469l-1957.337 1816.388M397.533 124.496l-1790.386 1998.26M401.632 134.522-1202.842 2302.51M406.355 146.075-991.435 2471.75" stroke-miterlimit="10"/><path fill="#0F0" d="M133.035 118.258h5v5h-5z"/><path fill="none" stroke="gray" paint-order="fill stroke markers" d="m205.685 84.025.532 71.213" stroke-miterlimit="10" stroke-width="4" stroke-opacity=".714"/><path fill="none" stroke="#FFF" paint-order="fill stroke markers" d="m203.951 119.647 4-.03" stroke-miterlimit="10"/><path fill="red" paint-order="stroke fill markers" d="m205.648 79.025 5.074 9.963-10 .074M206.254 160.238l4.925-10.037-10 .075"/><path fill="none" stroke="#A8A8A8" paint-order="fill stroke markers" d="m375.746 71.208 39.327 96.19" stroke-miterlimit="10"/></svg>