<svg xmlns="http://www.w3.org/2000/svg" width="149" height="149"><path d="M0 0h149v149H0z"/><path fill="none" stroke="gray" paint-order="fill stroke markers" d="m10.33 84.165 129.011-45.329M10.33 84.165l6.63 18.869" stroke-miterlimit="10"/><text fill="gray" font-family="Arial" font-size="14" text-decoration="normal" text-anchor="middle" dominant-baseline="text-before-edge" transform="rotate(-19.359 310.517 1.8)">0</text><path fill="none" stroke="gray" paint-order="fill stroke markers" d="m19.765 80.85 3.314 9.434m6.12-12.75 3.315 9.435m6.12-12.749 3.315 9.435m6.12-12.75 3.314 9.435m6.12-12.75 4.972 14.152m4.463-17.467 3.314 9.435m6.12-12.75 3.315 9.435m6.12-12.75 3.315 9.435m6.12-12.75 3.314 9.435m6.12-12.75 6.63 18.87" stroke-miterlimit="10"/><text fill="gray" font-family="Arial" font-size="14" text-decoration="normal" text-anchor="middle" dominant-baseline="text-before-edge" transform="rotate(-19.359 260.517 -291.343)">100</text><path fill="none" stroke="gray" paint-order="fill stroke markers" d="m114.11 47.701 3.315 9.435m6.12-12.75 3.315 9.435m6.12-12.75 3.315 9.435" stroke-miterlimit="10"/></svg>