<svg xmlns="http://www.w3.org/2000/svg" width="519" height="252"><path d="M0 0h519v252H0z"/><path fill="#0F0" d="M133.035 118.258h5v5h-5z"/><path fill="none" stroke="gray" paint-order="fill stroke markers" d="m205.685 84.025.532 71.213" stroke-miterlimit="10" stroke-width="4" stroke-opacity=".714"/><path fill="none" stroke="#FFF" paint-order="fill stroke markers" d="m203.951 119.647 4-.03" stroke-miterlimit="10"/><path fill="red" paint-order="stroke fill markers" d="m205.648 79.025 5.074 9.963-10 .074M206.254 160.238l4.925-10.037-10 .075"/><path fill="none" stroke="#A8A8A8" paint-order="fill stroke markers" d="m375.746 71.208 39.327 96.19" stroke-miterlimit="10"/><path fill="#FFFF80" fill-opacity="NaN" d="M133.035 118.258h5v5h-5z"/><path fill="none" stroke="#00F" paint-order="fill stroke markers" d="m149.649 197.961-14.114-77.203" stroke-miterlimit="10" stroke-opacity="NaN"/><path fill="#FFFF80" fill-opacity="NaN" d="M133.035 118.258h5v5h-5z"/><path fill="none" stroke="#00F" paint-order="fill stroke markers" d="m150.383 192.741-14.848-71.983" stroke-miterlimit="10" stroke-opacity="NaN"/><path fill="#FFFF80" fill-opacity="NaN" d="M133.035 118.258h5v5h-5z"/><path fill="none" stroke="#00F" paint-order="fill stroke markers" d="m151.427 189.868-15.892-69.11" stroke-miterlimit="10" stroke-opacity="NaN"/><path fill="#FF8000" fill-opacity="NaN" d="M133.035 118.258h5v5h-5z"/><path fill="none" stroke="#00F" paint-order="fill stroke markers" d="m152.542 187.75-17.007-66.992" stroke-miterlimit="10" stroke-opacity="NaN"/><path fill="#FF8000" fill-opacity="NaN" d="M133.035 118.258h5v5h-5z"/><path fill="none" stroke="#00F" paint-order="fill stroke markers" d="m153.692 186.055-18.157-65.297" stroke-miterlimit="10" stroke-opacity="NaN"/><path fill="#FFFF80" fill-opacity="NaN" d="M133.035 118.258h5v5h-5z"/><path fill="none" stroke="#00F" paint-order="fill stroke markers" d="m154.865 184.642-19.33-63.884" stroke-miterlimit="10" stroke-opacity="NaN"/><path fill="#FF8000" fill-opacity="NaN" d="M133.035 118.258h5v5h-5z"/><path fill="none" stroke="#00F" paint-order="fill stroke markers" d="m156.059 183.44-20.524-62.682" stroke-miterlimit="10" stroke-opacity="NaN"/><path fill="#FF8000" fill-opacity="NaN" d="M133.035 118.258h5v5h-5z"/><path fill="none" stroke="#00F" paint-order="fill stroke markers" d="m157.273 182.402-21.738-61.644" stroke-miterlimit="10" stroke-opacity="NaN"/><path fill="#FF8000" fill-opacity="NaN" d="M133.035 118.258h5v5h-5z"/><path fill="none" stroke="#00F" paint-order="fill stroke markers" d="m158.512 181.5-22.977-60.742" stroke-miterlimit="10" stroke-opacity="NaN"/><path fill="#FF8000" fill-opacity="NaN" d="M133.035 118.258h5v5h-5z"/><path fill="none" stroke="#00F" paint-order="fill stroke markers" d="m159.778 180.718-24.243-59.96" stroke-miterlimit="10" stroke-opacity="NaN"/><path fill="#FFFF80" fill-opacity="NaN" d="M133.035 118.258h5v5h-5z"/><path fill="none" stroke="#00F" paint-order="fill stroke markers" d="m161.079 180.042-25.544-59.284" stroke-miterlimit="10" stroke-opacity="NaN"/><path fill="#FF8000" fill-opacity="NaN" d="M133.035 118.258h5v5h-5z"/><path fill="none" stroke="#00F" paint-order="fill stroke markers" d="m162.42 179.466-26.885-58.708" stroke-miterlimit="10" stroke-opacity="NaN"/><path fill="#FFFF80" fill-opacity="NaN" d="M133.035 118.258h5v5h-5z"/><path fill="none" stroke="#00F" paint-order="fill stroke markers" d="m163.808 178.985-28.273-58.227" stroke-miterlimit="10" stroke-opacity="NaN"/><path fill="#FFFF80" fill-opacity="NaN" d="M133.035 118.258h5v5h-5z"/><path fill="none" stroke="#00F" paint-order="fill stroke markers" d="m165.256 178.602-29.72-57.844" stroke-miterlimit="10" stroke-opacity="NaN"/><path fill="#FF8000" fill-opacity="NaN" d="M133.035 118.258h5v5h-5z"/><path fill="none" stroke="#00F" paint-order="fill stroke markers" d="m166.775 178.32-31.24-57.562" stroke-miterlimit="10" stroke-opacity="NaN"/><path fill="#FFFF80" fill-opacity="NaN" d="M133.035 118.258h5v5h-5z"/><path fill="none" stroke="#00F" paint-order="fill stroke markers" d="m168.385 178.153-32.85-57.395" stroke-miterlimit="10" stroke-opacity="NaN"/><path fill="#FF8000" fill-opacity="NaN" d="M133.035 118.258h5v5h-5z"/><path fill="none" stroke="#00F" paint-order="fill stroke markers" d="m170.11 178.119-34.575-57.361" stroke-miterlimit="10" stroke-opacity="NaN"/><path fill="#FF8000" fill-opacity="NaN" d="M133.035 118.258h5v5h-5z"/><path fill="none" stroke="#00F" paint-order="fill stroke markers" d="m171.985 178.25-36.45-57.492" stroke-miterlimit="10" stroke-opacity="NaN"/><path fill="#FF8000" fill-opacity="NaN" d="M133.035 118.258h5v5h-5z"/><path fill="none" stroke="#00F" paint-order="fill stroke markers" d="m174.072 178.609-38.537-57.851" stroke-miterlimit="10" stroke-opacity="NaN"/><path fill="#FFFF80" fill-opacity="NaN" d="M133.035 118.258h5v5h-5z"/><path fill="none" stroke="#00F" paint-order="fill stroke markers" d="m176.485 179.318-40.95-58.56" stroke-miterlimit="10" stroke-opacity="NaN"/><path fill="#FFFF80" fill-opacity="NaN" d="M133.035 118.258h5v5h-5z"/><path fill="none" stroke="#00F" paint-order="fill stroke markers" d="m179.513 180.716-43.978-59.958" stroke-miterlimit="10" stroke-opacity="NaN"/><path fill="#FF8000" fill-opacity="NaN" d="M461.23 48.113h5v5h-5z"/><path fill="none" stroke="#00F" paint-order="fill stroke markers" d="M183.095 183.308 463.73 50.613" stroke-miterlimit="10" stroke-opacity="NaN"/><path fill="#FF8000" fill-opacity="NaN" d="M461.23 48.113h5v5h-5z"/><path fill="none" stroke="#00F" paint-order="fill stroke markers" d="M186.77 187.777 463.73 50.613" stroke-miterlimit="10" stroke-opacity="NaN"/><path fill="#FF8000" fill-opacity="NaN" d="M461.23 48.113h5v5h-5z"/><path fill="none" stroke="#00F" paint-order="fill stroke markers" d="M188.962 192.92 463.73 50.613" stroke-miterlimit="10" stroke-opacity="NaN"/><path fill="#FF8000" fill-opacity="NaN" d="M461.23 48.113h5v5h-5z"/><path fill="none" stroke="#00F" paint-order="fill stroke markers" d="M189.634 198.862 463.73 50.613" stroke-miterlimit="10" stroke-opacity="NaN"/><path fill="#FF8000" fill-opacity="NaN" d="M461.23 48.113h5v5h-5z"/><path fill="none" stroke="#00F" paint-order="fill stroke markers" d="M187.943 206.193 463.73 50.613" stroke-miterlimit="10" stroke-opacity="NaN"/><path fill="#0F0" d="M133.035 118.258h5v5h-5z"/><path fill="none" stroke="gray" paint-order="fill stroke markers" d="m205.685 84.025.532 71.213" stroke-miterlimit="10" stroke-width="4" stroke-opacity=".714"/><path fill="none" stroke="#FFF" paint-order="fill stroke markers" d="m203.951 119.647 4-.03" stroke-miterlimit="10"/><path fill="red" paint-order="stroke fill markers" d="m205.648 79.025 5.074 9.963-10 .074M206.254 160.238l4.925-10.037-10 .075"/><path fill="none" stroke="#A8A8A8" paint-order="fill stroke markers" d="m375.746 71.208 39.327 96.19" stroke-miterlimit="10"/><path fill="#00f" paint-order="stroke fill markers" d="M189.648 198.113a20 20 0 1 1 0-.02"/><path fill="#00f" paint-order="stroke fill markers" d="M189.648 198.113a20 20 0 1 1 0-.02"/></svg>