<svg xmlns="http://www.w3.org/2000/svg" width="519" height="252"><path d="M0 0h519v252H0z"/><path fill="#0F0" d="M133.535 118.758h5v5h-5z"/><path fill="none" stroke="gray" paint-order="fill stroke markers" d="m205.685 84.025.532 71.213" stroke-miterlimit="10" stroke-width="4" stroke-opacity=".714"/><path fill="none" stroke="#FFF" paint-order="fill stroke markers" d="m203.951 119.647 4-.03" stroke-miterlimit="10"/><path fill="red" paint-order="stroke fill markers" d="m205.648 79.025 5.074 9.963-10 .074M206.254 160.238l4.925-10.037-10 .075"/><path fill="none" stroke="#A8A8A8" paint-order="fill stroke markers" d="m375.746 71.208 39.327 96.19" stroke-miterlimit="10"/><path fill="#FFFF80" fill-opacity="NaN" d="M133.535 118.758h5v5h-5z"/><path fill="none" stroke="#00F" paint-order="fill stroke markers" d="m149.728 195.54-14.193-74.782" stroke-miterlimit="10" stroke-opacity="NaN"/><path fill="#FFFF80" fill-opacity="NaN" d="M133.535 118.758h5v5h-5z"/><path fill="none" stroke="#00F" paint-order="fill stroke markers" d="m150.696 191.54-15.16-70.782" stroke-miterlimit="10" stroke-opacity="NaN"/><path fill="#FFFF80" fill-opacity="NaN" d="M133.535 118.758h5v5h-5z"/><path fill="none" stroke="#00F" paint-order="fill stroke markers" d="m151.824 188.956-16.289-68.198" stroke-miterlimit="10" stroke-opacity="NaN"/><path fill="#FF8000" fill-opacity="NaN" d="M133.535 118.758h5v5h-5z"/><path fill="none" stroke="#00F" paint-order="fill stroke markers" d="m153.003 186.984-17.468-66.226" stroke-miterlimit="10" stroke-opacity="NaN"/><path fill="#FFFF80" fill-opacity="NaN" d="M133.535 118.758h5v5h-5z"/><path fill="none" stroke="#00F" paint-order="fill stroke markers" d="m154.212 185.383-18.677-64.625" stroke-miterlimit="10" stroke-opacity="NaN"/><path fill="#FFFF80" fill-opacity="NaN" d="M133.535 118.758h5v5h-5z"/><path fill="none" stroke="#00F" paint-order="fill stroke markers" d="m155.443 184.042-19.908-63.284" stroke-miterlimit="10" stroke-opacity="NaN"/><path fill="#FFFF80" fill-opacity="NaN" d="M133.535 118.758h5v5h-5z"/><path fill="none" stroke="#00F" paint-order="fill stroke markers" d="m156.696 182.897-21.16-62.14" stroke-miterlimit="10" stroke-opacity="NaN"/><path fill="#FFFF80" fill-opacity="NaN" d="M133.535 118.758h5v5h-5z"/><path fill="none" stroke="#00F" paint-order="fill stroke markers" d="m157.974 181.911-22.439-61.153" stroke-miterlimit="10" stroke-opacity="NaN"/><path fill="#FF8000" fill-opacity="NaN" d="M133.535 118.758h5v5h-5z"/><path fill="none" stroke="#00F" paint-order="fill stroke markers" d="m159.28 181.06-23.745-60.302" stroke-miterlimit="10" stroke-opacity="NaN"/><path fill="#FF8000" fill-opacity="NaN" d="M133.535 118.758h5v5h-5z"/><path fill="none" stroke="#00F" paint-order="fill stroke markers" d="m160.62 180.326-25.085-59.568" stroke-miterlimit="10" stroke-opacity="NaN"/><path fill="#FFFF80" fill-opacity="NaN" d="M133.535 118.758h5v5h-5z"/><path fill="none" stroke="#00F" paint-order="fill stroke markers" d="m162 179.701-26.465-58.943" stroke-miterlimit="10" stroke-opacity="NaN"/><path fill="#FF8000" fill-opacity="NaN" d="M133.535 118.758h5v5h-5z"/><path fill="none" stroke="#00F" paint-order="fill stroke markers" d="m163.43 179.18-27.895-58.422" stroke-miterlimit="10" stroke-opacity="NaN"/><path fill="#FFFF80" fill-opacity="NaN" d="M133.535 118.758h5v5h-5z"/><path fill="none" stroke="#00F" paint-order="fill stroke markers" d="m164.92 178.765-29.385-58.007" stroke-miterlimit="10" stroke-opacity="NaN"/><path fill="#FF8000" fill-opacity="NaN" d="M133.535 118.758h5v5h-5z"/><path fill="none" stroke="#00F" paint-order="fill stroke markers" d="m166.485 178.458-30.95-57.7" stroke-miterlimit="10" stroke-opacity="NaN"/><path fill="#FFFF80" fill-opacity="NaN" d="M133.535 118.758h5v5h-5z"/><path fill="none" stroke="#00F" paint-order="fill stroke markers" d="m168.144 178.271-32.609-57.513" stroke-miterlimit="10" stroke-opacity="NaN"/><path fill="#FFFF80" fill-opacity="NaN" d="M133.535 118.758h5v5h-5z"/><path fill="none" stroke="#00F" paint-order="fill stroke markers" d="m169.923 178.226-34.388-57.468" stroke-miterlimit="10" stroke-opacity="NaN"/><path fill="#FFFF80" fill-opacity="NaN" d="M133.535 118.758h5v5h-5z"/><path fill="none" stroke="#00F" paint-order="fill stroke markers" d="m171.862 178.357-36.327-57.6" stroke-miterlimit="10" stroke-opacity="NaN"/><path fill="#FF8000" fill-opacity="NaN" d="M133.535 118.758h5v5h-5z"/><path fill="none" stroke="#00F" paint-order="fill stroke markers" d="m174.026 178.73-38.49-57.972" stroke-miterlimit="10" stroke-opacity="NaN"/><path fill="#FFFF80" fill-opacity="NaN" d="M133.535 118.758h5v5h-5z"/><path fill="none" stroke="#00F" paint-order="fill stroke markers" d="m176.543 179.486-41.008-58.728" stroke-miterlimit="10" stroke-opacity="NaN"/><path fill="#FFFF80" fill-opacity="NaN" d="M133.535 118.758h5v5h-5z"/><path fill="none" stroke="#00F" paint-order="fill stroke markers" d="m179.753 181.022-44.218-60.264" stroke-miterlimit="10" stroke-opacity="NaN"/><path fill="#FF8000" fill-opacity="NaN" d="M461.73 48.613h5v5h-5z"/><path fill="none" stroke="#00F" paint-order="fill stroke markers" d="M182.32 182.832 463.73 50.613" stroke-miterlimit="10" stroke-opacity="NaN"/><path fill="#FF8000" fill-opacity="NaN" d="M461.73 48.613h5v5h-5z"/><path fill="none" stroke="#00F" paint-order="fill stroke markers" d="M186.352 187.378 463.73 50.613" stroke-miterlimit="10" stroke-opacity="NaN"/><path fill="#FF8000" fill-opacity="NaN" d="M461.73 48.613h5v5h-5z"/><path fill="none" stroke="#00F" paint-order="fill stroke markers" d="M188.756 192.652 463.73 50.613" stroke-miterlimit="10" stroke-opacity="NaN"/><path fill="#FF8000" fill-opacity="NaN" d="M461.73 48.613h5v5h-5z"/><path fill="none" stroke="#00F" paint-order="fill stroke markers" d="M189.54 198.772 463.73 50.613" stroke-miterlimit="10" stroke-opacity="NaN"/><path fill="#FF8000" fill-opacity="NaN" d="M461.73 48.613h5v5h-5z"/><path fill="none" stroke="#00F" paint-order="fill stroke markers" d="M187.816 206.361 463.73 50.613" stroke-miterlimit="10" stroke-opacity="NaN"/><path fill="#0F0" d="M133.535 118.758h5v5h-5z"/><path fill="none" stroke="gray" paint-order="fill stroke markers" d="m205.685 84.025.532 71.213" stroke-miterlimit="10" stroke-width="4" stroke-opacity=".714"/><path fill="none" stroke="#FFF" paint-order="fill stroke markers" d="m203.951 119.647 4-.03" stroke-miterlimit="10"/><path fill="red" paint-order="stroke fill markers" d="m205.648 79.025 5.074 9.963-10 .074M206.254 160.238l4.925-10.037-10 .075"/><path fill="none" stroke="#A8A8A8" paint-order="fill stroke markers" d="m375.746 71.208 39.327 96.19" stroke-miterlimit="10"/><path fill="#00f" paint-order="stroke fill markers" d="M189.547 198.222a20 20 0 1 1 0-.02"/><path fill="#00f" paint-order="stroke fill markers" d="M189.547 198.222a20 20 0 1 1 0-.02"/></svg>