<?xml version="1.0" encoding="UTF-8"?>
<!-- Created with Inkscape (http://www.inkscape.org/) -->
<svg width="446.90619mm" height="292.30154mm" version="1.1" viewBox="0 0 446.90619 292.30154" xmlns="http://www.w3.org/2000/svg">
 <g transform="translate(58.894167,2.8834659)">
  <g transform="matrix(.26458333 0 0 .26458333 -58.894167 -2.8834659)" stroke-width="2.53968">
   <path d="m0 552.3809v-552.3809h1688.8889v1104.7618h-1688.8889z" fill="#f8f8ca"/>
   <path d="m0 937.13512v-167.62667l491.83797-243.49618 24.55721-41.66667 24.5572-43.32113-540.95238 270.43327v-711.45774h1688.8889v1104.7618h-1688.8889zm1234.6009-249.55847c-2.5083-2.48955-2.8-2.19785-1.4217 1.42171 0.9537 2.50469 2.3738 3.91421 3.1557 3.13227 0.782-0.78195 0-2.83122-1.734-4.55398zm-434.57885-243.79902c15.62381 28.90266 28.91589 50.13387 46.96208 80.23634l286.00157 123.27743s-11.1474-16.15999-33.723-30.68636c-86.1347-55.42366-296.85064-181.07597-299.24065-172.82741z" fill="#f4fbb1"/>
   <path d="m0 938.4152v-166.3466l491.42857-245.62482 176.71074-1.78262 176.7107-1.78263 49.32104 21.9956c27.12656 12.09758 55.34835 24.73262 62.71508 28.07787 7.36673 3.34524 20.2612 8.97262 28.65442 12.50527 8.3932 3.53264 22.68025 9.82135 31.74895 13.9749s16.9478 7.5519 17.5093 7.5519c0.5614 0 9.9613 4.13133 20.8887 9.18075 10.9275 5.04939 33.0109 14.6213 49.0744 21.27085 16.0635 6.64958 63.4921 27.20599 105.3968 45.68094 41.9048 18.47492 77.9048 34.21409 80 34.97592 7.7814 2.82931-1.4457-3.91723-16.5079-12.07004-8.381-4.53639-27.8095-15.37732-43.1746-24.09097s-34.7937-19.60292-43.1746-24.19835c-8.381-4.59545-27.8095-15.4446-43.1746-24.1092-15.3651-8.66464-34.7937-19.53529-43.1746-24.15701-8.381-4.62171-28.381-15.7697-44.4445-24.77328-16.0634-9.00358-58.34916-32.67347-93.96821-52.59976-35.61905-19.9263-87.61905-49.22646-115.55556-65.11146l-50.79365-28.88183-124.69831-0.80701-124.69829-0.80703-272.14568 136.0424c-149.6801 74.8233-272.70872 136.04237-273.39692 136.04237-0.68820166 0-1.2512758-159.42855-1.2512758-354.28568v-354.28568h1688.8889v1104.7618h-1688.8889z" fill="#9febd2"/>
   <path d="m0 938.4152v-166.3466l245.91609-122.96321 245.91609-122.96319 177.57598-0.84892 177.57597-0.84889 476.22937 215.38805-2.8895-5.86428-473.33987-266.98572-50.79365-28.88181-124.69831-0.80701-124.69829-0.80703-272.14568 136.0424c-149.6801 74.8233-272.70872 136.04237-273.39692 136.04237-0.68820166 0-1.2512758-159.42855-1.2512758-354.28568v-354.28568h1688.8889v1104.7618h-1688.8889z" fill="#eaeb82"/>
   <path d="m0 938.4152v-166.3466l245.91609-122.96321 245.91609-122.96319 177.57598-0.84892 177.57597-0.84889c253.89217 115.82534 519.95407 229.58729 754.28577 330.62428 11.1746 4.8061 19.1746 7.6831 17.7777 6.39337-1.3968-1.28972-41.3968-22.08083-88.8889-46.20243-47.492-24.12162-97.7777-49.85137-111.746-57.17721-13.9682-7.32584-55.1111-28.47591-91.4286-47.00018-36.3174-18.52426-83.1746-42.51694-104.1269-53.31712-20.9524-10.80015-112.381-57.67273-203.1747-104.16129-90.7936-46.48851-178.70489-91.78166-195.35838-100.65142l-30.27909-16.12703h-250.56236l-271.74133 135.87536-271.74134 135.87534v-708.57606h1688.8889v1104.7618h-1688.8889z" fill="#e6e465"/>
   <path d="m0 938.4152v-166.3466l245.91609-122.96321 245.91609-122.96319 177.57598-0.84892 177.57597-0.84889s560.41447 246.90127 785.39687 344.36648c5.9365 2.56269 10.7936 4.25775 10.7936 3.76683 0-0.49089-187.3016-96.82391-187.3016-96.82391s-434.6477-222.78367-661.11551-338.92843h-251.27482l-271.74133 135.87536-271.74134 135.87534v-708.57606h1688.8889v1104.7618h-1688.8889z" fill="#9eec9b"/>
   <path d="m0 938.4152v-166.3466l246.34402-123.17718 246.34403-123.17718h355.50337l37.49158 17.51537c20.6204 9.63345 47.47048 22.24993 59.6669 28.03667 12.19639 5.78672 22.7534 10.50438 23.46001 10.48368 0.70662-0.0203 9.01344 3.92866 18.45963 8.77633 9.4462 4.84767 18.60346 8.81951 20.34956 8.82634 1.746 8e-3 3.1746 1.15525 3.1746 2.55207 0 1.39683 0.8571 2.35221 1.9047 2.12308 4.2565-0.93095 15.74 3.65656 14.4358 5.76688-0.7712 1.24782 1.3683 2.26877 4.7544 2.26877s9.4256 2.57143 13.4211 5.71429 7.2925 5.26087 7.3266 4.70672c0.1395-2.26192 11.4907 2.81389 11.4907 5.1381 0 1.38515 1.2706 1.73313 2.8236 0.77334 1.553-0.9598 3.7909-0.18007 4.973 1.73267 1.1822 1.91279 3.6258 3.59942 5.4304 3.74806 1.8045 0.14857 5.3484 0.44437 7.8753 0.65715 2.5268 0.21282 3.888 1.52967 3.0247 2.9265-0.8633 1.39682-0.6451 2.63492 0.485 2.75131 10.8614 1.11878 13.5144 1.99645 17.2118 5.69382 2.3393 2.3393 6.5248 4.25328 9.3011 4.25328 3.1689 0 4.3734 1.0914 3.2358 2.93209-1.1228 1.81663-0.6967 2.24269 1.1199 1.11995 1.6126-0.99668 4.3607-0.92059 6.1067 0.16914 1.746 1.08965 5.2965 2.31139 7.8899 2.71497 2.5935 0.40361 6.5935 1.94387 8.8889 3.42283 3.4961 2.25247 3.2454 2.49295-1.5442 1.48127-3.379-0.7137-5.0836-0.18159-4.1674 1.3009 0.8527 1.37974 4.2492 1.83127 7.5477 1.00338 3.9973-1.00325 12.5864 1.56444 25.7547 7.69923 10.8666 5.06245 24.3288 11.1986 29.9161 13.63588s23.873 10.747 40.6349 18.46603c33.5609 15.45513 53.1235 24.41478 76.1905 34.89513 29.2907 13.30804 40.7898 18.56478 61.5873 28.15431 11.5238 5.3135 20.9524 9.29105 20.9524 8.83896s-13.7143-8.50596-30.4762-17.89747c-16.7619-9.39152-30.4762-17.45636-30.4762-17.9218 0-0.46548 6.5714 2.07609 14.6032 5.64792 22.3255 9.92843 267.0945 117.68339 279.3651 122.98523 5.9365 2.56503 10.7936 4.26202 10.7936 3.7711 0-0.49089-84.2857-44.06168-187.3016-96.82391-103.0158-52.76226-293.9097-150.6057-424.2085-217.42988l-236.90701-121.49857h-251.27482l-271.74133 135.87536-271.74134 135.87534v-708.57606h1688.8889v1104.7618h-1688.8889z" fill="#5bdcd2"/>
   <path d="m0 938.4152v-166.3466l246.34402-123.17718 246.34403-123.17718h355.3932c85.87 40.98555 485.18435 225.81114 490.33145 214.45912 95.6551 39.98052 196.524 86.19116 293.9683 128.63316-155.0547-83.52973-600.7165-310.48269-600.7165-310.48269l-236.90701-121.49847h-251.27482l-271.74133 135.87536-271.74134 135.87534v-708.57606h1688.8889v1104.7618h-1688.8889z" fill="#9dea7c"/>
   <path d="m0 938.4152v-166.3466l246.34402-123.17718 246.34403-123.17718h355.3932c232.60225 124.69251 486.79965 224.90872 701.20175 319.80157l138.3361 63.28154 0.6647 97.98225 0.6648 97.9822h-1688.9486zm1498.4127-140.62246c-102.6667-52.74453-302.9994-155.53949-445.1839-228.43328l-258.51735-132.5341h-251.22878l-271.74133 135.87536-271.74134 135.87534v-708.57606h1688.8889v446.98408c0 245.84125-0.8571 446.92192-1.9048 446.84596-1.0476-0.0759-85.9047-43.29277-188.5714-96.0373z" fill="#e6c82f"/>
   <path d="m0 938.4152v-166.3466l246.34402-123.17718 246.34403-123.17718h355.3932c46.98103 23.13739 141.12511 69.05096 141.12511 69.05096l309.37964 139.94988 1.3849 0.73717s249.1919 110.00857 387.6482 173.3451l0.6647 97.98225 0.6648 97.9822h-1688.9486zm791.30921-504.35264-124.54349 1.75022-124.54349 1.75023-271.11112 135.50652-271.11111 135.50653v-708.57606h1688.8889v446.98408c0 245.84125-0.2857 446.91313-0.6349 446.82643-337.5861-172.59131-608.5346-312.71511-896.94479-459.74795z" fill="#49eba4"/>
   <path d="m0 938.4152v-166.3466l246.34402-123.17718 246.34403-123.17718h355.3932l52.78479 26.07486c29.03162 14.34121 68.78476 33.67835 88.34032 42.97148 19.55554 9.29313 71.40444 34.13087 115.21974 55.19496 43.8152 21.0641 80.0955 38.29836 80.6227 38.29836 645.9482 317.0578 41.916 9.48174 502.5703 220.51627l0.6647 97.99583 0.6648 97.9958h-1688.9486zm1311.746-237.70786c-206.7301-106.12002-408.39984-209.52783-448.15488-229.79513l-72.28191-36.84965-124.54349 1.75022-124.54349 1.75023-271.11112 135.50652-271.11111 135.50653v-708.57606h1688.8889v446.98408c0 245.84125-0.2857 446.91313-0.6349 446.82643-0.3492-0.0869-169.7778-86.98316-376.508-193.10317z" fill="#a7b080"/>
   <path d="m0 939.04146v-165.72034l247.6225-123.80344 247.62251-123.80344h352.83624l52.78479 26.07486c29.03162 14.34121 68.78476 33.67835 88.34032 42.97148 19.55554 9.29313 71.40444 34.13087 115.21974 55.19496 43.8152 21.0641 80.0955 38.29836 80.6227 38.29836 172.982 74.759 351.4861 151.29352 502.5703 220.51627l0.6647 97.99583 0.6648 97.9958h-1688.9486zm1311.746-238.33412c-206.7301-106.12002-408.44441-209.57344-448.25393-229.89646l-72.38095-36.95096-123.17461 0.95576-123.1746 0.95573-272.38096 136.40233-272.38095 136.40232v-708.57606h1688.8889v446.98408c0 245.84125-0.2857 446.91313-0.6349 446.82643-0.3492-0.0869-169.7778-86.98316-376.508-193.10317z" fill="#45b3d5"/>
   <path d="m0 939.04146v-165.72034l247.6225-123.80344 247.62251-123.80344h350.71103l203.68866 104.44458 148.1802 63.03266s118.0648 53.30476 179.2681 77.18478c0 0 62.6708 24.29054 310.5261 138.39391l0.6647 97.99583 0.6648 97.9958h-1688.9486zm1311.746-238.33412c-206.7301-106.12002-408.44441-209.57344-448.25393-229.89646l-72.38095-36.95096-123.17461 0.95576-123.1746 0.95573-272.38096 136.40233-272.38095 136.40232v-708.57606h1688.8889v446.98408c0 245.84125-0.2857 446.91313-0.6349 446.82643-0.3492-0.0869-169.7778-86.98316-376.508-193.10317z" fill="#43e87d"/>
   <path d="m0 939.04146v-165.72034l247.6225-123.80344 247.62251-123.80344h350.71103l203.68866 104.44458c134.8049 99.74458 294.5253 134.49141 439.8791 203.60775 18.1587 8.6236 63.3016 30.65717 100.3175 48.96351 37.0159 18.3063 74.4444 36.47992 83.1746 40.38577l15.873 7.10153v174.54442h-1688.8889zm1311.746-238.33412c-206.7301-106.12002-408.44441-209.57344-448.25393-229.89646l-72.38095-36.95096-123.17461 0.95576-123.1746 0.95573-272.38096 136.40233-272.38095 136.40232v-708.57606h1688.8889v446.98408c0 245.84125-0.2857 446.91313-0.6349 446.82643-0.3492-0.0869-169.7778-86.98316-376.508-193.10317z" fill="#11cac5"/>
   <path d="m0 939.04146v-165.72034l247.6225-123.80344 247.62251-123.80344h350.71103l202.41876 103.81124c199.9686 102.5546 245.0031 125.29339 235.8038 119.06195-2.5907-1.75487-19.6688-12.61925-37.9514-24.14305-18.2826-11.52381-32.5423-20.95238-31.6883-20.95238 0.8541 0 28.6219 13.14285 61.7063 29.20634s60.4576 29.20635 60.8293 29.20635c0.3718 0 27.9678 13.25605 61.3245 29.4579 33.3568 16.20185 70.3629 34.05734 82.2359 39.67888 28.0588 13.28503 86.8026 41.39677 154.2634 73.82247l53.946 25.92962 0.023 86.98414 0.022 86.9841h-1688.8893zm1311.746-238.33412c-206.7301-106.12002-408.44441-209.57344-448.25393-229.89646l-72.38095-36.95096-123.17461 0.95576-123.1746 0.95573-272.38096 136.40233-272.38095 136.40232v-708.57606h1688.8889v446.98408c0 245.84125-0.2857 446.91313-0.6349 446.82643-0.3492-0.0869-169.7778-86.98316-376.508-193.10317z" fill="#e8b001"/>
   <path d="M 0,773.32112 495.24501,525.71424 h 350.71103 l 842.88826,405.07932 0.045,173.96824 H 0 Z M 796.19048,435.55551 544.76191,435.68251 0,708.57606 V 0 h 1688.8889 l -0.6349,865.84198 z" fill="#05c5ba"/>
   <path d="m0 939.04146v-165.72034l247.6225-123.80344 247.62251-123.80344h350.54992l227.89617 116.56428c125.3429 64.11034 314.7534 160.96747 420.9121 215.23807l193.0159 98.6738 0.6732 74.28571 0.6733 74.2857h-1688.9656zm1669.8413-82.03377c-9.7778-4.75451-34.3492-16.60254-54.6032-26.32891-20.254-9.72638-56.254-27.02527-80-38.44198-23.746-11.41668-54.6032-26.21846-68.5714-32.89277-13.9683-6.67434-45.9683-22.1058-71.1111-34.29216-25.1429-12.18636-57.1429-27.59048-71.1111-34.23139-13.9683-6.64089-41.3969-19.7859-60.9524-29.2111-19.5556-9.42519-46.9842-22.58255-60.9524-29.23854-13.9683-6.656-41.3968-19.80488-60.9524-29.21971-19.5555-9.41486-48.127-23.13082-63.4921-30.47995-15.365-7.34913-47.365-22.74242-71.1111-34.20728-23.746-11.46486-51.746-24.89237-62.22219-29.83886-10.47619-4.94651-48.19048-23.41071-83.80952-41.03159l-64.76191-32.03794-251.42857 0.127-272.38096 136.44678-272.38095 136.44677v-708.57606h1688.8889v433.01583c0 238.15871-0.2857 432.93048-0.6349 432.82615-0.3492-0.10439-8.6349-4.07978-18.4127-8.83429z" fill="#5366a5"/>
   <path d="m0 939.04146v-165.72034l247.6304-123.8074 247.6304-123.80738 81.89341 1.28777c45.04138 0.70827 125.54289 1.78027 178.89222 2.38225l96.99881 1.09452 149.35036 76.74915c82.1428 42.21201 222.4933 113.63816 311.8901 158.72476s209.9683 106.33637 267.9365 136.11062l105.3969 54.13498 0.6732 74.28571 0.6733 74.2857h-1688.9656zm1669.8413-82.03377c-9.7778-4.75451-34.3492-16.60254-54.6032-26.32891-20.254-9.72638-56.254-27.02527-80-38.44198-23.746-11.41668-54.6032-26.21846-68.5714-32.89277-13.9683-6.67434-45.9683-22.1058-71.1111-34.29216-25.1429-12.18636-57.1429-27.59048-71.1111-34.23139-13.9683-6.64089-41.3969-19.7859-60.9524-29.2111-19.5556-9.42519-46.9842-22.58255-60.9524-29.23854-13.9683-6.656-41.3968-19.80488-60.9524-29.21971-19.5555-9.41486-48.127-23.13082-63.4921-30.47995-15.365-7.34913-47.365-22.74242-71.1111-34.20728-23.746-11.46486-51.746-24.89237-62.22219-29.83886-10.47619-4.94651-48.19048-23.41071-83.80952-41.03159l-64.76191-32.03794-251.42857 0.127-272.38096 136.44678-272.38095 136.44677v-708.57606h1688.8889v433.01583c0 238.15871-0.2857 432.93048-0.6349 432.82615-0.3492-0.10439-8.6349-4.07978-18.4127-8.83429z" fill="#03a8b0"/>
   <path d="m0 939.04146v-165.72034l247.6304-123.8074 247.6304-123.80738 81.89341 1.28777c45.04138 0.70827 125.51988 1.77994 178.8411 2.38148l96.94768 1.09372 202.73481 103.85149c111.5042 57.11832 299.5921 153.42767 417.973 214.02076l215.2381 110.16928v146.25096h-1688.8889zm1669.8413-82.03377c-9.7778-4.75451-34.3492-16.60254-54.6032-26.32891-20.254-9.72638-56.254-27.02527-80-38.44198-23.746-11.41668-54.6032-26.21846-68.5714-32.89277-13.9683-6.67434-45.9683-22.1058-71.1111-34.29216-25.1429-12.18636-57.1429-27.59048-71.1111-34.23139-13.9683-6.64089-41.3969-19.7859-60.9524-29.2111-19.5556-9.42519-46.9842-22.58255-60.9524-29.23854-13.9683-6.656-41.3968-19.80488-60.9524-29.21971-19.5555-9.41486-48.127-23.13082-63.4921-30.47995-15.365-7.34913-47.365-22.74242-71.1111-34.20728-23.746-11.46486-51.746-24.89237-62.22219-29.83886-10.47619-4.94651-48.19048-23.41071-83.80952-41.03159l-64.76191-32.03794-251.42857 0.127-272.38096 136.44678-272.38095 136.44677v-708.57606h1688.8889v433.01583c0 238.15871-0.2857 432.93048-0.6349 432.82615-0.3492-0.10439-8.6349-4.07978-18.4127-8.83429z" fill="#c86e00"/>
   <path d="m0 939.04146v-165.72034l247.6304-123.8074 247.6304-123.80738 81.89341 1.28777c45.04138 0.70827 125.51988 1.77994 178.8411 2.38148l96.94768 1.09372 202.73481 103.85149c111.5042 57.11832 299.5921 153.42767 417.973 214.02076l215.2381 110.16928v146.25096h-1688.8889zm1663.9834-86.7765c-11.6027-6.09328-21.5976-11.21353-22.2108-11.37836-2.0776-0.55835-54.2714-25.41689-144.6297-68.8833-13.9683-6.71936-38.5397-18.44025-54.6032-26.04644-16.0635-7.60617-45.7778-21.84076-66.0318-31.63243-20.2539-9.79165-50.5396-24.3888-67.3015-32.43809-16.7619-8.0493-48.1905-23.25593-69.8413-33.79253-21.6508-10.53661-39.9365-19.26375-40.6349-19.39368-0.6984-0.13003-13.2699-6.10816-27.9365-13.285-14.6667-7.17684-43.3493-21.03992-63.7392-30.80688-20.3898-9.76696-50.1041-24.02791-66.0317-31.69099-27.7249-13.339-49.68667-23.84379-114.03867-54.5472-16.06349-7.66415-53.20635-25.30052-82.53968-39.19192l-53.33333-25.25709-246.34921 1.85036-272.38096 136.40233-272.38095 136.40232v-708.57606h1688.8889v431.74599c0 237.4603-0.8571 431.71262-1.9048 431.67183-1.0476-0.0409-11.3979-5.05955-23.0007-11.15286z" fill="#b75a00"/>
   <path d="m0 939.04146v-165.72034l247.6304-123.8074 247.6304-123.80738 355.63274 2.4724 204.78426 106.14206c111.2295 57.65152 299.5921 153.42767 417.973 214.02076l215.2381 110.16928v146.25096h-1688.8889zm1285.2128-278.81597c-219.9267-100.58501-421.02557-192.68418-446.88645-204.66482l-47.01981-21.78296-246.54463 1.9937-272.38096 136.40233-272.38095 136.40232v-708.57606h1688.8889v421.58726c0 231.873-0.8571 421.57215-1.9048 421.55366-1.0476-0.0178-181.8447-82.3304-401.7713-182.91543z" fill="#4302a2"/>
   <path d="m0 939.04146v-165.72034l247.55951-123.77195 247.55953-123.77195 85.77381 1.22717c47.1756 0.67495 127.29799 1.78385 178.04973 2.46423l92.27594 1.23703 164.23198 91.86834c90.3276 50.52758 187.6606 104.97952 216.2955 121.00433 107.6503 60.24367 311.2079 173.96168 313.6508 175.22182 1.6932 0.87335 1.6932 0.4096 0-1.39124-1.3968-1.48569-56.7322-37.08393-122.9675-79.10724-66.2352-42.02331-121.0924-77.12149-121.9047-77.99595-0.8123-0.87447 33.3802 16.26801 75.9833 38.09439 42.6032 21.82639 130.3175 66.76403 194.9207 99.86143l117.4603 60.17706v146.32321h-1688.8889zm1559.3651-13.23792c0-0.64927-2.5714-2.42659-5.7143-3.94961-5.4873-2.65915-5.5184-2.61226-0.7844 1.18047 5.1816 4.15134 6.4987 4.71256 6.4987 2.76914zm-274.1523-265.57805c-219.9267-100.58501-421.02557-192.68418-446.88645-204.66482l-47.01981-21.78296-246.54463 1.9937-272.38096 136.40233-272.38095 136.40232v-708.57606h1688.8889v421.58726c0 231.873-0.8571 421.57215-1.9048 421.55366-1.0476-0.0178-181.8447-82.3304-401.7713-182.91543z" fill="#4c5642"/>
   <path d="m0 939.04138v-165.72039l245.08285-122.53355 245.08284-122.53352 113.64732 0.0229c62.50603 0.0127 119.42935 1.41661 126.60609 1.57925l8.52602 0.19321-68.04174 123.57326 102.42616 0.0105 72.52883-121.61526s30.88002 12.88963 385.88763 211.56062c107.6503 60.24367 311.2079 173.96168 313.6508 175.22182 1.6932 0.87335 1.6932 0.4096 0-1.39124-1.3968-1.48569-56.7322-37.08393-122.9675-79.10724-66.2352-42.02331-121.0924-77.12149-121.9047-77.99595-0.8123-0.87447 33.3802 16.26801 75.9833 38.09439 42.6032 21.82639 130.3175 66.76403 194.9207 99.86143l117.4603 60.17706v146.32313h-1688.8889zm1559.3651-13.23784c0-0.64927-2.5714-2.42659-5.7143-3.94961-5.4873-2.65915-5.5184-2.61226-0.7844 1.18047 5.1816 4.15134 6.4987 4.71256 6.4987 2.76914zm-274.1523-265.57805c-219.9267-100.58501-420.77886-192.56989-446.33823-204.41083l-46.47157-21.52899h-243.95088l-272.76651 135.87301c-150.02156 74.73015-273.42329 135.873-274.22605 135.873-0.80276024 0-1.4595641-158.85713-1.4595641-353.01584v-353.01584h1688.8889v421.58726c0 231.873-0.8571 421.57215-1.9048 421.55366-1.0476-0.0178-181.8447-82.3304-401.7713-182.91543z" fill="#4d4d3b"/>
   <path d="m0 939.03707v-165.72476l245.92921-122.94369 245.92921-122.94368 122.63619 1.57247c67.4499 0.86486 123.78374 2.72005 123.78374 2.72005l-67.15423 122.47537 102.20542-0.55983 74.70101-122.82432s36.72455 18.58499 383.71545 212.76964c107.6503 60.24367 311.2079 173.96168 313.6508 175.22182 1.6932 0.87335 1.6932 0.4096 0-1.39124-1.3968-1.48569-56.7322-37.08393-122.9675-79.10724-66.2352-42.02331-121.0924-77.12149-121.9047-77.99595-0.8123-0.87447 33.3802 16.26801 75.9833 38.09439 42.6032 21.82639 130.3175 66.76403 194.9207 99.86143l117.4603 60.17706v146.32321h-1688.8889zm1559.3651-13.23353c0-0.64927-2.5714-2.42659-5.7143-3.94961-5.4873-2.65915-5.5184-2.61226-0.7844 1.18047 5.1816 4.15134 6.4987 4.71256 6.4987 2.76914zm-274.1523-265.57805c-219.9267-100.58501-420.86618-192.61035-446.53229-204.50073l-46.66565-21.6189-246.1599 0.26362-271.65295 135.83115c-149.4091 74.70704-272.22647 135.83105-272.92747 135.83105-0.70099943 0-1.2745444-158.85713-1.2745444-353.01584v-353.01584h1688.8889v421.58726c0 231.873-0.8571 421.57215-1.9048 421.55366-1.0476-0.0178-181.8447-82.3304-401.7713-182.91543z" fill="#902b00"/>
   <path d="m0 939.03707v-165.72476l245.92921-122.94369 245.92921-122.94368 247.44288 2.41711-68.17718 124.35078 102.20542-0.55983 74.70101-122.82432s36.72455 18.58499 383.71545 212.76964c107.6503 60.24367 311.2079 173.96168 313.6508 175.22182 1.6932 0.87335 1.6932 0.4096 0-1.39124-1.3968-1.48569-56.7322-37.08393-122.9675-79.10724-66.2352-42.02331-121.0924-77.12149-121.9047-77.99595-0.8123-0.87447 33.3802 16.26801 75.9833 38.09439 42.6032 21.82639 130.3175 66.76403 194.9207 99.86143l117.4603 60.17706v146.32321h-1688.8889zm1559.3651-13.23353c0-0.64927-2.5714-2.42659-5.7143-3.94961-5.4873-2.65915-5.5184-2.61226-0.7844 1.18047 5.1816 4.15134 6.4987 4.71256 6.4987 2.76914zm-54.6032-166.73319c-258.6013-118.45177-477.6161-218.58233-603.17459-275.76312l-107.93651-49.15553-123.89453 0.10718-123.89455 0.10717-271.65631 135.83285c-149.41098 74.70801-272.22987 135.83278-272.93087 135.83278-0.70099943 0-1.2745444-158.85713-1.2745444-353.01584v-353.01584h1688.8889v421.58726c0 231.873-0.2857 421.50922-0.6349 421.41383-0.3492-0.0955-82.9207-37.86423-183.4921-83.93074z" fill="#393939"/>
   <path d="m0 939.68507v-165.07674l244.08996-122.0502c134.24947-67.12761 244.43802-121.70022 244.86341-121.27244 0.4254 0.42776-15.08739 27.63489-34.47286 60.46029-19.38547 32.82539-35.2883 60.3625-35.33961 61.19362-0.13257 2.14854 325.70373 3.98013 422.10578 2.37272l80.61176-1.34413-35.63733-60.6358c-19.60053-33.34969-35.29981-60.9733-34.88726-61.38585 0.41254-0.41255 68.17404 36.97569 150.58115 83.08497 82.4071 46.10928 174.9739 97.88393 205.7041 115.05477 30.7301 17.17087 117.1455 65.51641 192.0341 107.43455 74.8885 41.91815 138.8885 77.62133 142.2222 79.34037 17.823 9.19078-10.5413-9.46444-119.4461-78.55954-66.2352-42.02331-121.0924-77.12149-121.9047-77.99595-0.8123-0.87447 33.3802 16.26801 75.9833 38.09439 42.6032 21.82639 130.3175 66.76403 194.9207 99.86143l117.4603 60.17706v146.32321h-1688.8889zm1559.3651-13.88153c0-0.64927-2.5714-2.42659-5.7143-3.94961-5.4873-2.65915-5.5184-2.61226-0.7844 1.18047 5.1816 4.15134 6.4987 4.71256 6.4987 2.76914zm-54.6032-166.73156c-184.6613-84.58211-397.2227-181.80927-601.56621-275.16104l-111.40747-50.89511-121.71345-206.89418-122.54745 207.42724-272.49694 136.24138c-149.87333 74.93277-273.06698 136.24141-273.76367 136.24141-0.69669079 0-1.2667105-158.85713-1.2667105-353.01584v-353.01584h1688.8889v421.58726c0 231.873-0.2857 421.50922-0.6349 421.41383-0.3492-0.0955-82.9207-37.86349-183.4921-83.92911z" fill="#1d028c"/>
   <path d="M 0,774.60833 488.95337,531.28569 419.1409,652.9396 l 502.71754,1.02859 -70.5348,-122.00824 718.83506,400.75844 7.6191,1.59741 -6.3492,-36.05069 117.4603,60.17348 V 1104.7618 H 0 Z M 791.78822,433.01583 670.07477,226.12165 547.52732,433.54889 1.2667105,706.03168 0,0 h 1688.8889 l -0.6349,843.00109 z" fill="#440045"/>
   <path d="m0 939.68507v-165.07674l244.08996-122.0502c134.24947-67.12761 244.43802-121.70022 244.86341-121.27244 0.4254 0.42776-15.08739 27.63489-34.47286 60.46029-19.38547 32.82539-35.2883 60.3625-35.33961 61.19362-0.13257 2.14849 325.70502 3.98016 422.08966 2.37272l80.5956-1.34413-23.09897-39.36507c-12.70445-21.6508-28.6912-48.83624-35.52614-60.41211-7.70002-13.04099-10.73278-20.10471-7.97283-18.5698 2.44988 1.36246 190.74008 120.63894 418.42258 265.05887l413.9683 262.58172 1.4752 41.5h-1689.0943zm1678.7302 60.40723c-7.9425-4.94677-27.3964-17.54654-95.2381-61.68302-21.969-14.29259-109.1491-69.5302-204.4445-129.53677-32.8254-20.66984-60.8254-38.6606-62.2222-39.97948s28.8889 13.71126 67.3016 33.40033c38.4127 19.68904 122.6984 62.87634 187.3016 95.97175l117.4603 60.17348v23.63779c0 13.00081-0.2857 23.61852-0.6349 23.59502-0.3492-0.023-4.6349-2.5341-9.5238-5.5791zm-173.9683-241.02032c-184.6613-84.58211-397.2227-181.80933-601.56621-275.16104l-111.40747-50.89511-57.82789-98.44479c-31.80533-54.14465-63.88556-108.44939-63.88556-108.44939s-5.87731 8.52373-61.70793 103.7058l-60.83952 103.72144-272.49694 136.24138c-149.87333 74.93277-273.06698 136.24141-273.76367 136.24141-0.69669079 0-1.2667105-158.85713-1.2667105-353.01584v-353.01584h1688.8889v421.58726c0 231.873-0.2857 421.50922-0.6349 421.41383-0.3492-0.0955-82.9207-37.86349-183.4921-83.92911z" fill="#020374"/>
   <path d="m0 939.68507v-165.07674l244.08996-122.0502c134.24947-67.12761 244.43802-121.70022 244.86341-121.27244 0.4254 0.42776-15.08739 27.63489-34.47286 60.46029-19.38547 32.82539-35.2883 60.3625-35.33961 61.19362-0.13257 2.14849 325.70502 3.98016 422.08966 2.37272l80.5956-1.34413-23.09897-39.36507c-12.70445-21.6508-28.6912-48.83624-35.52614-60.41211-7.70002-13.04099-10.73278-20.10471-7.97283-18.5698 2.44988 1.36246 190.74008 120.63894 418.42258 265.05887l413.9683 262.58172 1.4752 41.5h-1689.0943zm1657.1429 46.70044c-48.3965-30.60064-43.5432-29.71017 12.6984 2.32985 21.2558 12.10914 19.7846 10.98504 18.6772 14.27094-0.4947 1.468-14.6137-6.00239-31.3756-16.60079zm-152.381-227.31353c-184.6613-84.58211-397.2227-181.80933-601.56621-275.16104l-111.40747-50.89511-57.82789-98.44479c-31.80533-54.14465-63.88556-108.44939-63.88556-108.44939s-5.87731 8.52373-61.70793 103.7058l-60.83952 103.72144-272.49694 136.24138c-149.87333 74.93277-273.06698 136.24141-273.76367 136.24141-0.69669079 0-1.2667105-158.85713-1.2667105-353.01584v-353.01584h1688.8889v421.58726c0 231.873-0.2857 421.50922-0.6349 421.41383-0.3492-0.0955-82.9207-37.86349-183.4921-83.92911z" fill="#670502"/>
   <path d="m0 939.68507v-165.07674l244.08996-122.0502c134.24947-67.12761 244.43802-121.70022 244.86341-121.27244 0.4254 0.42776-15.08739 27.63489-34.47286 60.46029-19.38547 32.82539-35.33961 61.19362-35.33961 61.19362l502.68526 1.02859-23.09897-39.36507c-12.70444-21.6508-28.6912-48.83624-35.52614-60.41211-7.70002-13.04099-10.73278-20.10471-7.97283-18.5698 2.44988 1.36246 190.74008 120.63894 418.42258 265.05887l413.9683 262.58172 1.4752 41.5h-1689.0943zm1657.1429 46.70044c-48.3965-30.60064-43.5432-29.71017 12.6984 2.32985 21.2558 12.10914 19.7846 10.98504 18.6772 14.27094-0.4947 1.468-14.6137-6.00239-31.3756-16.60079zm-113.0159-222.12168c-78.9206-34.84747-173.7778-76.65998-210.7937-92.91674-37.0158-16.25674-105.5873-46.39914-152.3809-66.98306-46.7937-20.58395-126.7937-55.76426-177.7778-78.17851-50.98412-22.41424-119.37472-52.54689-151.97912-66.96144l-59.28073-26.20825-57.89115-98.44479c-31.84013-54.14465-63.94883-108.44939-63.94883-108.44939s-5.87731 8.52373-61.70793 103.7058l-60.83952 103.72144-272.49694 136.24138c-149.87333 74.93277-273.06698 136.24141-273.76367 136.24141-0.69669079 0-1.2667105-158.85713-1.2667105-353.01584v-353.01584h1688.8889v413.96821c0 227.68252-0.2857 413.89767-0.6349 413.81142-0.3492-0.0864-65.2064-28.66834-144.127-63.5158z" fill="#24360f"/>
   <path d="m0 939.68507v-165.07674l244.08996-122.0502c134.24947-67.12761 244.37722-121.70022 244.72833-121.27244 0.35108 0.42776-15.54085 28.20632-35.31543 61.73013l-35.95378 60.95237 504.35569-0.11921s-15.92071-27.55022-35.37933-60.53445c-19.45864-32.98422-33.45864-58.9014-31.11111-57.59372 2.3475 1.30769 190.55397 120.53934 418.23647 264.95927l413.9683 262.58172 1.4752 41.5h-1689.0943zm1657.1429 46.70044c-48.3965-30.60064-43.5432-29.71017 12.6984 2.32985 21.2558 12.10914 19.7846 10.98504 18.6772 14.27094-0.4947 1.468-14.6137-6.00239-31.3756-16.60079zm-113.0159-222.12168c-78.9206-34.84747-173.7778-76.65998-210.7937-92.91674-37.0158-16.25674-105.5873-46.39837-152.3809-66.98141-195.19597-85.86041-278.63666-122.57469-332.06066-146.1082l-56.50509-24.89077-58.35236-99.28613c-32.09379-54.60739-63.95952-107.95893-63.95952-107.95893l-124.67794 208.054-1.90619-11.95347s-3.99296-102.92062-8.87151-213.96823c-4.87856-111.04761-8.87792-203.33332-8.88747-205.07935-0.01384-2.530491 117.98395-3.1746029 581.56994-3.1746029h581.5873v413.96821c0 227.68252-0.2857 413.89767-0.6349 413.81142-0.3492-0.0864-65.2064-28.66834-144.127-63.5158zm-1544.127-411.24799v-353.01584h469.6111l1.23426 8.2539675c1.11396 7.4495175 19.3981 448.25131 19.3981 448.25131s-29.7664 20.55314-243.88902 127.61903c-134.09235 67.04906-244.37807 121.90737-245.07936 121.90737-0.70129273 0-1.2750777-158.85713-1.2750777-353.01584z" fill="#13280b"/>
   <path d="M 0,774.60833 487.61905,532.23507 417.37671,654.09756 670.90338,653.62254 64.761905,1104.6101 0,1104.7618 Z m 172.78912,326.75047 600.54042,-447.7258 151.058,2.87487 -69.68592,-120.16179 832.91748,526.91832 1.4752,41.4974 z M 793.34197,433.40991 670.07477,226.12165 546.87434,430.89545 528.25397,0 H 1688.8889 l -0.6349,827.77478 z M 0,0 H 469.84127 L 489.50321,462.54451 1.2750777,706.03168 Z"/>
  </g>
 </g>
</svg>
