<svg xmlns="http://www.w3.org/2000/svg" width="100" height="100"><path d="M0 0h100v100H0z"/><path fill="none" stroke="#0F0" paint-order="fill stroke markers" d="m-28.631 22.978.68 47.442" stroke-miterlimit="10" stroke-width="4"/><path fill="none" stroke="gray" paint-order="fill stroke markers" d="m-30.63 23.007.68 47.442" stroke-opacity="255" stroke-miterlimit="10" stroke-width="2"/><path fill="#fff" paint-order="stroke fill markers" d="M22.443 6.764h6.406a97.463 97.463 0 0 1 0 86.017h-6.406a97.463 97.463 0 0 1 0-86.017" fill-opacity=".314"/><path fill="none" stroke="#FFFF80" paint-order="fill stroke markers" d="m-30.56 28.006 45.614-.653M-30.416 38.005l43.648-.625M-30.273 48.004l42.743-.612M-30.13 58.003l42.869-.614M-29.986 68.002l44.029-.63" stroke-miterlimit="10"/><path fill="none" stroke="#FFFF80" paint-order="fill stroke markers" d="m15.054 27.353-2021.84-1048.92M13.232 37.38l-2203.523-608.274M12.47 47.392l-2290.605-144.96M12.739 57.389l-2282.212 326.533M14.043 67.371-2163.2 859.141" stroke-miterlimit="10" stroke-opacity=".095"/><path fill="none" stroke="#FFFF80" paint-order="fill stroke markers" d="m15.054 27.353 21.684 2.234M13.232 37.38l24.988 1.316M12.47 47.392l26.355.103M12.739 57.389l25.898-1.152M14.043 67.371l23.586-2.209" stroke-miterlimit="10" stroke-opacity=".905"/><path fill="none" stroke="#FFFF80" paint-order="fill stroke markers" d="M36.738 29.587 12.651 43.376" stroke-miterlimit="10" stroke-opacity=".089"/><path fill="none" stroke="#FFFF80" paint-order="fill stroke markers" d="m38.22 38.696-25.71 7.405M38.825 47.495l-26.38 1.338M38.637 56.237l-26.18-4.688" stroke-miterlimit="10" stroke-opacity=".086"/><path fill="none" stroke="#FFFF80" paint-order="fill stroke markers" d="M37.629 65.162 12.543 54.244" stroke-miterlimit="10" stroke-opacity=".087"/><path fill="none" stroke="#FFFF80" paint-order="fill stroke markers" d="m12.445 48.833 26.402 1.85" stroke-miterlimit="10" stroke-opacity=".024"/><path fill="none" stroke="#FFFF80" paint-order="fill stroke markers" d="M12.543 54.244 38.366 40.06" stroke-miterlimit="10" stroke-opacity=".014"/><path fill="none" stroke="#FFFF80" paint-order="fill stroke markers" d="m38.366 40.06-24.373-7.61" stroke-miterlimit="10" stroke-opacity=".011"/><path fill="none" stroke="#FFFF80" paint-order="fill stroke markers" d="m36.738 29.587 2112.033 914.83" stroke-miterlimit="10" stroke-opacity=".816"/><path fill="none" stroke="#FFFF80" paint-order="fill stroke markers" d="m38.22 38.696 2263.936 470.167M38.825 47.495l2320.72 65.546M38.637 56.237l2306.021-334.812" stroke-miterlimit="10" stroke-opacity=".819"/><path fill="none" stroke="#FFFF80" paint-order="fill stroke markers" d="m37.629 65.162 2210.413-762.144" stroke-miterlimit="10" stroke-opacity=".818"/><path fill="none" stroke="#FFFF80" paint-order="fill stroke markers" d="m12.65 43.376 25.341 19.316" stroke-miterlimit="10" stroke-opacity=".089"/><path fill="none" stroke="#FFFF80" paint-order="fill stroke markers" d="m12.51 46.101-1899.996 1285.365" stroke-miterlimit="10" stroke-opacity=".077"/><path fill="none" stroke="#FFFF80" paint-order="fill stroke markers" d="m12.445 48.833-2284.07 239.617M12.457 51.55l-2153.919-804.714" stroke-miterlimit="10" stroke-opacity=".078"/><path fill="none" stroke="#FFFF80" paint-order="fill stroke markers" d="m12.543 54.244-1360.448-1857.123" stroke-miterlimit="10" stroke-opacity=".073"/><path fill="none" stroke="#FFFF80" paint-order="fill stroke markers" d="m38.847 50.683 2306.98 287.745" stroke-miterlimit="10" stroke-opacity=".022"/><path fill="none" stroke="#FFFF80" paint-order="fill stroke markers" d="m38.366 40.06 1377.026-1859.368" stroke-miterlimit="10" stroke-opacity=".012"/><path fill="none" stroke="#FFFF80" paint-order="fill stroke markers" d="m13.993 32.45-2088.497-919.046" stroke-miterlimit="10" stroke-opacity=".01"/><path fill="none" stroke="#FFFF80" paint-order="fill stroke markers" d="m37.991 62.692-22.979 9.322" stroke-miterlimit="10" stroke-opacity=".027"/><path fill="none" stroke="#FFFF80" paint-order="fill stroke markers" d="m37.991 62.692 522.687 2276.782" stroke-miterlimit="10" stroke-opacity=".062"/><path fill="none" stroke="#FFFF80" paint-order="fill stroke markers" d="M15.012 72.014-1992.652 1239.32" stroke-miterlimit="10" stroke-opacity=".024"/><path fill="none" stroke="#0F0" paint-order="fill stroke markers" d="m-28.631 22.978.68 47.442" stroke-miterlimit="10" stroke-width="4"/><path fill="none" stroke="gray" paint-order="fill stroke markers" d="m-30.63 23.007.68 47.442" stroke-opacity="255" stroke-miterlimit="10" stroke-width="2"/></svg>